<svg width="1959" height="301" fill="none" xmlns="http://www.w3.org/2000/svg"><path d="M1556.55 245.192c247.8 28.06 371.14-45.542 401.83-85.85V11.024L2.69 0v218.468c309.743-43.426 294.932 26.724 529.976 43.427 235.043 16.702 267.885-4.677 519.024-43.427 200.92-31 387.66 13.453 504.86 26.724z" fill="#fff"/><path d="M1565.15 270.299c247.8 28.061 362.54-77.488 393.23-117.797V49.733L2.69 38.71v186.206c309.743-43.427 299.111 48.369 534.154 65.072 235.044 16.702 324.858-26.322 575.996-65.072 200.92-31 335.11 32.112 452.31 45.383z" fill="#fff" fill-opacity=".64"/><path d="M1562.46 277.61c247.79 28.06 362.54-77.488 393.23-117.797V57.044L0 46.02v186.207c309.742-43.427 299.109 48.369 534.153 65.072 235.044 16.702 324.857-26.323 575.997-65.072 200.92-31 335.11 32.111 452.31 45.383z" fill="#fff" fill-opacity=".26"/></svg>