<svg width="1956" height="301" fill="none" xmlns="http://www.w3.org/2000/svg"><path d="M402.137 55.807C154.343 27.747 31.004 101.35.309 141.659v148.318L1956 301V82.531c-309.74 43.427-294.93-26.724-529.97-43.426-235.05-16.702-267.89 4.677-519.032 43.426-200.914 31-387.661-13.452-504.861-26.724z" fill="#fff"/><path d="M393.539 30.7C145.745 2.64 31.004 108.19.309 148.499v102.769L1956 262.291V76.084c-309.74 43.427-299.11-48.37-534.15-65.072C1186.8-5.69 1096.99 37.335 845.847 76.085 644.933 107.084 510.739 43.973 393.539 30.7z" fill="#fff" fill-opacity=".64"/><path d="M393.231 23.39C145.437-4.67 30.695 100.878 0 141.187v102.769l1955.69 11.024V68.773c-309.74 43.427-299.11-48.37-534.15-65.072C1186.49-13 1096.68 30.024 845.538 68.773c-200.914 31-335.107-32.111-452.307-45.383z" fill="#fff" fill-opacity=".26"/></svg>