<svg width="347" height="321" fill="none" xmlns="http://www.w3.org/2000/svg"><path d="M133.893 7.344V27h-3.65v-8.424h-10.165V27h-3.65V7.344h3.65v8.115h10.165V7.344h3.65zm11.804 19.853c-1.516 0-2.883-.328-4.1-.983a7.302 7.302 0 01-2.864-2.724c-.674-1.18-1.011-2.508-1.011-3.987 0-1.48.337-2.799 1.011-3.96a7.301 7.301 0 012.864-2.723c1.217-.656 2.584-.983 4.1-.983 1.535 0 2.911.327 4.128.983 1.217.655 2.162 1.563 2.836 2.723.693 1.161 1.039 2.48 1.039 3.96 0 1.479-.346 2.808-1.039 3.987-.674 1.16-1.619 2.069-2.836 2.724-1.217.655-2.593.983-4.128.983zm0-3.005c1.292 0 2.359-.43 3.201-1.292.843-.86 1.264-1.993 1.264-3.397 0-1.404-.421-2.537-1.264-3.398-.842-.861-1.909-1.292-3.201-1.292s-2.359.43-3.201 1.292c-.824.861-1.236 1.994-1.236 3.398 0 1.404.412 2.536 1.236 3.397.842.861 1.909 1.292 3.201 1.292zm23.641-12.187V27h-3.145v-4.52h-3.959L159.173 27h-3.763l3.538-4.998c-1.086-.375-1.919-.946-2.499-1.713-.562-.786-.842-1.75-.842-2.892 0-1.723.608-3.052 1.825-3.988 1.217-.936 2.892-1.404 5.026-1.404h6.88zm-6.767 2.949c-2.266 0-3.398.851-3.398 2.555 0 1.685 1.095 2.527 3.285 2.527h3.735v-5.082h-3.622zm19.603-2.219c1.423 0 2.677.31 3.763.927a6.312 6.312 0 012.527 2.527c.618 1.086.927 2.33.927 3.735 0 1.441-.337 2.724-1.011 3.847-.674 1.104-1.619 1.965-2.836 2.583-1.217.618-2.602.927-4.156.927-2.602 0-4.614-.861-6.037-2.584-1.423-1.722-2.134-4.202-2.134-7.44 0-3.015.646-5.402 1.937-7.161 1.292-1.76 3.267-2.92 5.925-3.482l6.964-1.488.505 3.145-6.318 1.291c-1.815.375-3.173 1.011-4.071 1.91-.899.898-1.423 2.162-1.573 3.79a6.79 6.79 0 012.443-1.853c.955-.449 2.003-.674 3.145-.674zm-.702 11.71c1.292 0 2.331-.412 3.117-1.236.805-.842 1.208-1.91 1.208-3.2 0-1.293-.403-2.332-1.208-3.118-.786-.786-1.825-1.18-3.117-1.18-1.31 0-2.368.394-3.173 1.18-.805.786-1.207 1.825-1.207 3.117 0 1.31.402 2.378 1.207 3.201.824.824 1.882 1.236 3.173 1.236zM201.1 11.837c1.46 0 2.761.318 3.903.954a6.857 6.857 0 012.724 2.696c.655 1.16.983 2.5.983 4.016s-.328 2.864-.983 4.043a6.856 6.856 0 01-2.724 2.696c-1.142.636-2.443.955-3.903.955-2.022 0-3.622-.674-4.802-2.022v7.272h-3.51V12.005h3.342v1.966a5.452 5.452 0 012.134-1.6c.861-.356 1.806-.534 2.836-.534zm-.393 12.355c1.292 0 2.349-.43 3.173-1.292.842-.86 1.264-1.993 1.264-3.397 0-1.404-.422-2.537-1.264-3.398-.824-.861-1.881-1.292-3.173-1.292-.843 0-1.601.197-2.275.59a4.06 4.06 0 00-1.6 1.629c-.393.711-.59 1.535-.59 2.47 0 .937.197 1.76.59 2.472a4.257 4.257 0 001.6 1.656c.674.375 1.432.562 2.275.562zm19.021-7.245c1.91 0 3.37.43 4.381 1.292 1.03.861 1.544 2.078 1.544 3.65 0 1.648-.561 2.92-1.684 3.82-1.124.898-2.706 1.338-4.746 1.32l-7.02-.029V12.005h3.51v4.914l4.015.028zm-.814 7.498c1.03.018 1.816-.197 2.359-.646.543-.45.814-1.105.814-1.966 0-.842-.262-1.46-.786-1.853s-1.32-.599-2.387-.618l-3.201-.028v5.083l3.201.028zM16.801 78.66v16.38h-2.995V81.234H5.312V95.04H2.317V78.66H16.8zm4.291 3.885h2.925v5.078h6.295v-5.078h2.925V95.04h-2.925v-4.937h-6.295v4.937h-2.925V82.545zm47.391 3.978c1.045.28 1.84.764 2.387 1.45.546.671.819 1.514.819 2.528 0 1.435-.53 2.55-1.591 3.346-1.061.796-2.598 1.193-4.61 1.193h-7.77V78.66h7.325c1.84 0 3.276.367 4.306 1.1 1.03.733 1.544 1.77 1.544 3.112 0 .858-.21 1.6-.632 2.223-.405.624-.998 1.1-1.778 1.428zm-7.769-.866h4.072c.983 0 1.731-.195 2.246-.585.515-.39.772-.967.772-1.732 0-.764-.257-1.341-.772-1.731-.515-.406-1.263-.609-2.246-.609h-4.072v4.657zm4.68 7.043c2.153 0 3.23-.81 3.23-2.433 0-1.591-1.077-2.387-3.23-2.387h-4.68v4.82h4.68zm19.33-7.675H80.35V95.04h-2.925V85.025h-4.4v-2.48h11.7v2.48zm30.76 10.249c-1.653 0-3.151-.359-4.493-1.076a8.209 8.209 0 01-3.135-3.019c-.749-1.279-1.123-2.722-1.123-4.329 0-1.606.382-3.05 1.146-4.329a8.048 8.048 0 013.136-2.995c1.341-.733 2.839-1.1 4.493-1.1 1.341 0 2.566.234 3.673.702a7.487 7.487 0 012.808 2.036l-1.965 1.849c-1.186-1.28-2.644-1.92-4.376-1.92-1.123 0-2.129.25-3.019.75a5.228 5.228 0 00-2.082 2.035c-.499.874-.749 1.865-.749 2.972 0 1.108.25 2.099.749 2.972a5.39 5.39 0 002.082 2.06c.89.483 1.896.725 3.019.725 1.732 0 3.19-.648 4.376-1.942l1.965 1.871a7.451 7.451 0 01-2.831 2.036c-1.108.468-2.332.702-3.674.702zm15.929-12.87c1.217 0 2.301.266 3.252.796a5.712 5.712 0 012.27 2.246c.546.968.819 2.083.819 3.347 0 1.263-.273 2.386-.819 3.37a5.712 5.712 0 01-2.27 2.246c-.951.53-2.035.795-3.252.795-1.685 0-3.019-.561-4.002-1.685v6.06h-2.925V82.546h2.785v1.638a4.545 4.545 0 011.778-1.334c.718-.297 1.506-.445 2.364-.445zm-.328 10.296c1.077 0 1.958-.359 2.644-1.076.702-.718 1.053-1.661 1.053-2.831s-.351-2.114-1.053-2.832c-.686-.718-1.567-1.076-2.644-1.076-.702 0-1.334.163-1.895.491a3.387 3.387 0 00-1.334 1.357c-.328.593-.491 1.28-.491 2.06s.163 1.466.491 2.059a3.55 3.55 0 001.334 1.38c.561.312 1.193.468 1.895.468zm42.469-14.04v16.38h-3.019v-6.177c-1.544.577-3.01.865-4.399.865-2.09 0-3.705-.499-4.844-1.497-1.123-1.014-1.684-2.465-1.684-4.352V78.66h3.018v4.89c0 1.155.336 2.037 1.006 2.645.671.609 1.631.913 2.879.913a9.57 9.57 0 004.024-.866V78.66h3.019zm14.161 6.365h-4.375V95.04h-2.925V85.025h-4.4v-2.48h11.7v2.48zm36.539-6.365v16.38h-2.995V81.234h-8.494V95.04h-2.995V78.66h14.484zm14.19 6.365h-4.376V95.04h-2.925V85.025h-4.399v-2.48h11.7v2.48zm30.38 10.249c-1.654 0-3.151-.359-4.493-1.076a8.209 8.209 0 01-3.135-3.019c-.749-1.279-1.124-2.722-1.124-4.329 0-1.606.383-3.05 1.147-4.329a8.04 8.04 0 013.136-2.995c1.341-.733 2.839-1.1 4.492-1.1 1.342 0 2.567.234 3.674.702a7.487 7.487 0 012.808 2.036l-1.965 1.849c-1.186-1.28-2.645-1.92-4.376-1.92-1.123 0-2.13.25-3.019.75a5.228 5.228 0 00-2.082 2.035c-.5.874-.749 1.865-.749 2.972 0 1.108.249 2.099.749 2.972a5.39 5.39 0 002.082 2.06c.889.483 1.896.725 3.019.725 1.731 0 3.19-.648 4.376-1.942l1.965 1.871a7.451 7.451 0 01-2.831 2.036c-1.108.468-2.332.702-3.674.702zm15.422-12.12c1.186 0 2.231.257 3.136.771a5.272 5.272 0 012.106 2.106c.514.905.772 1.942.772 3.112 0 1.202-.281 2.27-.843 3.206-.561.92-1.349 1.638-2.363 2.153-1.014.515-2.168.772-3.463.772-2.169 0-3.846-.717-5.031-2.153-1.186-1.435-1.779-3.502-1.779-6.2 0-2.512.539-4.501 1.615-5.968 1.076-1.466 2.722-2.433 4.937-2.901l5.804-1.24.421 2.62-5.265 1.077c-1.513.312-2.644.842-3.393 1.591-.749.749-1.186 1.802-1.311 3.16a5.663 5.663 0 012.036-1.545c.796-.375 1.669-.562 2.621-.562zm-.585 9.757c1.076 0 1.942-.343 2.597-1.03.671-.702 1.007-1.59 1.007-2.667 0-1.077-.336-1.942-1.007-2.598-.655-.655-1.521-.983-2.597-.983-1.092 0-1.973.328-2.644.983-.671.656-1.006 1.521-1.006 2.598 0 1.092.335 1.98 1.006 2.667.686.687 1.568 1.03 2.644 1.03zm41.24-6.388c1.045.28 1.841.764 2.387 1.45.546.671.819 1.514.819 2.528 0 1.435-.531 2.55-1.591 3.346-1.061.796-2.598 1.193-4.61 1.193h-7.769V78.66h7.324c1.841 0 3.276.367 4.306 1.1 1.029.733 1.544 1.77 1.544 3.112 0 .858-.21 1.6-.632 2.223-.405.624-.998 1.1-1.778 1.428zm-7.769-.866h4.072c.983 0 1.731-.195 2.246-.585.515-.39.772-.967.772-1.732 0-.764-.257-1.341-.772-1.731-.515-.406-1.263-.609-2.246-.609h-4.072v4.657zm4.68 7.043c2.153 0 3.229-.81 3.229-2.433 0-1.591-1.076-2.387-3.229-2.387h-4.68v4.82h4.68zm15.119 2.504c-1.295 0-2.457-.273-3.487-.819a6.04 6.04 0 01-2.41-2.27c-.577-.983-.866-2.09-.866-3.322 0-1.233.289-2.333.866-3.3a6.078 6.078 0 012.387-2.27c1.029-.546 2.199-.819 3.51-.819 1.232 0 2.309.25 3.229.75a4.844 4.844 0 012.106 2.152l-2.246 1.31c-.359-.577-.812-1.006-1.358-1.287a3.534 3.534 0 00-1.755-.444c-1.092 0-1.996.358-2.714 1.076-.718.702-1.076 1.646-1.076 2.832 0 1.185.351 2.137 1.053 2.854.717.702 1.63 1.053 2.737 1.053.64 0 1.225-.14 1.755-.42.546-.297.999-.734 1.358-1.311l2.246 1.31a5.118 5.118 0 01-2.129 2.176c-.921.5-1.989.75-3.206.75zM20.162 178.246c.936.359 1.653.874 2.153 1.544.499.671.748 1.475.748 2.411 0 .982-.265 1.84-.795 2.574-.53.717-1.287 1.271-2.27 1.661-.983.39-2.137.585-3.463.585-1.31 0-2.457-.195-3.44-.585-.967-.39-1.716-.944-2.246-1.661-.53-.734-.796-1.592-.796-2.574 0-.936.242-1.74.725-2.411.5-.67 1.217-1.185 2.153-1.544-.749-.359-1.318-.835-1.708-1.427-.39-.593-.585-1.295-.585-2.106 0-.905.242-1.693.725-2.364.5-.671 1.194-1.185 2.083-1.544.89-.359 1.919-.538 3.089-.538 1.185 0 2.223.179 3.112.538.905.359 1.599.873 2.083 1.544.499.671.748 1.459.748 2.364 0 .795-.202 1.497-.608 2.106-.39.592-.96 1.068-1.708 1.427zm-3.627-6.084c-1.108 0-1.981.242-2.621.725-.64.468-.96 1.108-.96 1.919 0 .811.313 1.451.937 1.919.64.468 1.52.702 2.644.702 1.139 0 2.028-.234 2.667-.702.656-.468.983-1.108.983-1.919 0-.811-.335-1.451-1.006-1.919-.655-.483-1.537-.725-2.644-.725zm0 12.964c1.295 0 2.316-.266 3.065-.796.749-.546 1.123-1.279 1.123-2.2 0-.904-.374-1.614-1.123-2.129-.749-.53-1.77-.796-3.065-.796s-2.309.266-3.042.796c-.733.515-1.1 1.225-1.1 2.129 0 .921.367 1.654 1.1 2.2.733.53 1.747.796 3.042.796zm-5.463 27.279v16.38H8.755v-14.344H5.058v-2.036h6.014zm8.263 6.529c2.34 0 4.056.445 5.148 1.334 1.108.873 1.661 2.075 1.661 3.603 0 .968-.234 1.841-.702 2.621-.452.765-1.146 1.373-2.082 1.825-.92.437-2.06.656-3.417.656-1.154 0-2.27-.172-3.346-.515-1.076-.359-1.965-.85-2.667-1.474l1.076-1.849c.562.53 1.28.959 2.153 1.287a8.147 8.147 0 002.761.468c1.232 0 2.184-.257 2.855-.772.686-.531 1.03-1.248 1.03-2.153 0-.983-.375-1.724-1.124-2.223-.749-.515-2.028-.772-3.837-.772h-3.721l.866-8.565h9.243v2.036h-7.278l-.444 4.493h1.825zm-1.828 49.767v2.035H5.737v-1.591l6.669-6.435c.811-.78 1.357-1.451 1.638-2.012a3.93 3.93 0 00.421-1.732c0-.858-.304-1.521-.912-1.989-.593-.483-1.451-.725-2.575-.725-1.81 0-3.205.593-4.188 1.778l-1.591-1.38c.64-.78 1.474-1.389 2.503-1.826 1.046-.436 2.208-.655 3.487-.655 1.716 0 3.081.414 4.095 1.24 1.014.812 1.521 1.919 1.521 3.323 0 .874-.187 1.701-.561 2.481-.375.78-1.085 1.669-2.13 2.667l-5.008 4.821h8.401zm13.437 0v2.035h-11.77v-1.591l6.669-6.435c.81-.78 1.357-1.451 1.638-2.012a3.93 3.93 0 00.42-1.732c0-.858-.303-1.521-.912-1.989-.593-.483-1.45-.725-2.574-.725-1.81 0-3.206.593-4.188 1.778l-1.592-1.38c.64-.78 1.475-1.389 2.504-1.826 1.045-.436 2.208-.655 3.487-.655 1.716 0 3.08.414 4.095 1.24 1.014.812 1.52 1.919 1.52 3.323 0 .874-.186 1.701-.56 2.481-.375.78-1.085 1.669-2.13 2.667l-5.008 4.821h8.4zm-13.632 44.391v2.036H5.542v-1.591l6.669-6.435c.81-.78 1.357-1.451 1.638-2.012.28-.578.42-1.155.42-1.732 0-.858-.303-1.521-.912-1.989-.593-.484-1.45-.725-2.574-.725-1.81 0-3.206.592-4.188 1.778l-1.592-1.381c.64-.78 1.475-1.388 2.504-1.825 1.045-.437 2.208-.655 3.487-.655 1.716 0 3.08.413 4.095 1.24 1.014.811 1.52 1.919 1.52 3.323 0 .874-.186 1.7-.56 2.48-.375.78-1.085 1.67-2.13 2.668l-5.008 4.82h8.4zm7.235-14.531c2.2 0 3.893.71 5.078 2.129 1.201 1.42 1.802 3.432 1.802 6.038 0 1.825-.328 3.385-.983 4.68-.64 1.279-1.544 2.254-2.714 2.925-1.154.655-2.504.982-4.048.982-.796 0-1.545-.078-2.247-.234-.702-.171-1.31-.413-1.825-.725l.89-1.825c.795.515 1.848.772 3.158.772 1.7 0 3.027-.523 3.978-1.568.968-1.061 1.451-2.597 1.451-4.61v-.585c-.468.702-1.115 1.241-1.942 1.615-.827.359-1.755.538-2.785.538-1.076 0-2.043-.203-2.901-.608a4.783 4.783 0 01-1.99-1.732c-.467-.764-.701-1.638-.701-2.621 0-1.029.25-1.934.748-2.714a5.088 5.088 0 012.083-1.802c.874-.437 1.857-.655 2.948-.655zm.211 8.237c.733 0 1.389-.141 1.966-.421.577-.281 1.021-.663 1.334-1.147a2.817 2.817 0 00.49-1.615c0-.577-.155-1.099-.467-1.567-.296-.484-.741-.866-1.334-1.147-.577-.296-1.28-.445-2.106-.445-1.076 0-1.95.289-2.62.866-.656.577-.983 1.35-.983 2.317 0 .967.335 1.739 1.006 2.316.67.562 1.575.843 2.714.843zm154.26-165.94h-3.112v4.025h-2.27v-4.025h-9.102v-1.638l8.377-10.717h2.527l-8.026 10.342h6.295v-3.556h2.199v3.556h3.112v2.013z" fill="#555252"/><path d="M221.71 133.939c3.078 0 5.356.603 6.832 1.809 1.477 1.186 2.216 2.808 2.216 4.867 0 1.311-.323 2.496-.968 3.557-.644 1.061-1.612 1.903-2.901 2.527-1.29.624-2.881.936-4.774.936-1.56 0-3.068-.218-4.524-.655-1.456-.457-2.683-1.081-3.681-1.872l1.716-3.151c.811.666 1.778 1.196 2.901 1.591 1.144.375 2.319.562 3.526.562 1.435 0 2.558-.291 3.369-.874.832-.603 1.248-1.425 1.248-2.465 0-1.123-.447-1.965-1.341-2.527-.874-.582-2.382-.873-4.524-.873h-5.273l1.123-11.888h12.823v3.401h-9.391l-.468 5.055h2.091z" fill="#FFA751"/><path d="M164.795 169.914v16.38h-2.317V171.95h-3.697v-2.036h6.014zm8.66 0v16.38h-2.316V171.95h-3.697v-2.036h6.013zm-8.66 42.158v16.38h-2.317v-14.345h-3.697v-2.035h6.014zm13.598 7.792c.936.359 1.653.873 2.153 1.544.499.671.748 1.474.748 2.41 0 .983-.265 1.841-.795 2.574-.531.718-1.287 1.272-2.27 1.662-.983.39-2.137.585-3.463.585-1.311 0-2.457-.195-3.44-.585-.967-.39-1.716-.944-2.246-1.662-.531-.733-.796-1.591-.796-2.574 0-.936.242-1.739.725-2.41.5-.671 1.217-1.185 2.153-1.544-.749-.359-1.318-.835-1.708-1.428-.39-.592-.585-1.294-.585-2.106 0-.904.242-1.692.725-2.363.5-.671 1.194-1.186 2.083-1.544.889-.359 1.919-.539 3.089-.539 1.185 0 2.223.18 3.112.539.905.358 1.599.873 2.083 1.544.499.671.748 1.459.748 2.363 0 .796-.202 1.498-.608 2.106-.39.593-.959 1.069-1.708 1.428zm-3.627-6.084c-1.108 0-1.981.242-2.621.725-.64.468-.959 1.108-.959 1.919 0 .811.312 1.451.936 1.919.639.468 1.521.702 2.644.702 1.139 0 2.028-.234 2.667-.702.656-.468.983-1.108.983-1.919 0-.811-.335-1.451-1.006-1.919-.655-.483-1.537-.725-2.644-.725zm0 12.963c1.295 0 2.316-.265 3.065-.795.749-.546 1.123-1.279 1.123-2.2 0-.905-.374-1.614-1.123-2.129-.749-.531-1.77-.796-3.065-.796s-2.309.265-3.042.796c-.733.515-1.1 1.224-1.1 2.129 0 .921.367 1.654 1.1 2.2.733.53 1.747.795 3.042.795zm-1.462 41.829v2.036h-11.77v-1.591l6.669-6.435c.811-.78 1.357-1.451 1.638-2.012a3.93 3.93 0 00.421-1.732c0-.858-.304-1.521-.913-1.989-.592-.484-1.45-.725-2.574-.725-1.809 0-3.205.592-4.188 1.778l-1.591-1.381c.639-.78 1.474-1.388 2.503-1.825 1.046-.437 2.208-.655 3.487-.655 1.716 0 3.081.413 4.095 1.24 1.014.811 1.521 1.919 1.521 3.323 0 .874-.187 1.7-.562 2.48-.374.78-1.084 1.67-2.129 2.668l-5.008 4.82h8.401zm6.604-7.815c2.34 0 4.056.444 5.148 1.334 1.107.873 1.661 2.074 1.661 3.603 0 .967-.234 1.841-.702 2.621-.452.764-1.146 1.373-2.082 1.825-.921.437-2.06.655-3.417.655-1.154 0-2.27-.171-3.346-.514-1.076-.359-1.966-.851-2.668-1.475l1.077-1.848c.561.53 1.279.959 2.153 1.287a8.145 8.145 0 002.761.468c1.232 0 2.184-.258 2.855-.772.686-.531 1.029-1.248 1.029-2.153 0-.983-.374-1.724-1.123-2.223-.749-.515-2.028-.772-3.838-.772h-3.72l.866-8.565h9.243v2.036h-7.278l-.444 4.493h1.825zm-105.42-117.91v2.036h-11.77v-1.592l6.668-6.435c.812-.78 1.358-1.45 1.638-2.012a3.925 3.925 0 00.422-1.732c0-.858-.305-1.521-.913-1.989-.593-.483-1.45-.725-2.574-.725-1.81 0-3.206.593-4.189 1.778l-1.59-1.38c.639-.78 1.473-1.389 2.503-1.825 1.045-.437 2.207-.656 3.487-.656 1.716 0 3.08.414 4.095 1.241 1.014.811 1.52 1.918 1.52 3.322 0 .874-.187 1.701-.561 2.481-.374.78-1.084 1.669-2.13 2.667l-5.007 4.821h8.4z" fill="#555252"/><path d="M20.404 126.538v21.84h-4.056v-18.44H11.73v-3.4h8.674z" fill="#FFA751"/><path d="M61.423 169.727c2.2 0 3.892.71 5.078 2.13 1.201 1.419 1.802 3.432 1.802 6.037 0 1.825-.328 3.385-.983 4.68-.64 1.279-1.544 2.254-2.714 2.925-1.155.655-2.504.983-4.048.983-.796 0-1.545-.078-2.247-.234-.702-.172-1.31-.414-1.825-.726l.89-1.825c.795.515 1.848.772 3.158.772 1.7 0 3.026-.522 3.978-1.568.967-1.06 1.45-2.597 1.45-4.609v-.585c-.467.702-1.115 1.24-1.941 1.614-.827.359-1.755.538-2.785.538-1.076 0-2.043-.202-2.901-.608a4.783 4.783 0 01-1.99-1.732c-.468-.764-.701-1.638-.701-2.62 0-1.03.25-1.935.748-2.715a5.096 5.096 0 012.083-1.802c.873-.436 1.856-.655 2.948-.655zm.21 8.237c.734 0 1.39-.14 1.966-.421.578-.281 1.022-.663 1.334-1.147a2.814 2.814 0 00.492-1.614c0-.578-.156-1.1-.468-1.568-.297-.484-.741-.866-1.334-1.147-.577-.296-1.28-.444-2.106-.444-1.077 0-1.95.288-2.62.865-.656.578-.984 1.35-.984 2.317 0 .967.336 1.739 1.007 2.317.67.561 1.575.842 2.714.842zm-.443 34.108v16.38h-2.317v-14.345h-3.697v-2.035h6.013zm10.649 6.435c1.076 0 2.036.202 2.878.608.858.406 1.529.991 2.013 1.755.483.749.725 1.615.725 2.597 0 1.03-.257 1.935-.772 2.715-.5.78-1.194 1.388-2.083 1.825-.873.421-1.856.632-2.948.632-2.2 0-3.9-.71-5.101-2.13-1.186-1.419-1.779-3.432-1.779-6.037 0-1.825.32-3.377.96-4.656.655-1.295 1.56-2.27 2.714-2.925 1.17-.671 2.527-1.007 4.072-1.007.795 0 1.544.086 2.246.258.702.156 1.31.39 1.825.702l-.889 1.825c-.78-.515-1.825-.772-3.136-.772-1.7 0-3.034.53-4.001 1.591-.967 1.045-1.45 2.574-1.45 4.586 0 .25.007.445.023.585.468-.702 1.107-1.232 1.918-1.591.827-.374 1.755-.561 2.785-.561zm-.28 8.236c1.076 0 1.95-.288 2.62-.865.67-.578 1.006-1.35 1.006-2.317 0-.967-.343-1.732-1.03-2.293-.67-.577-1.575-.866-2.714-.866-.733 0-1.388.14-1.965.421a3.422 3.422 0 00-1.334 1.147 2.914 2.914 0 00-.468 1.614c0 .578.148 1.108.444 1.592.312.468.757.85 1.334 1.146.593.281 1.295.421 2.106.421zm-2.896 41.829v2.036h-11.77v-1.591l6.67-6.435c.81-.78 1.356-1.451 1.637-2.012.28-.578.421-1.155.421-1.732 0-.858-.304-1.521-.912-1.989-.593-.484-1.451-.725-2.574-.725-1.81 0-3.206.592-4.189 1.778l-1.591-1.381c.64-.78 1.474-1.388 2.504-1.825 1.045-.437 2.207-.655 3.486-.655 1.716 0 3.081.413 4.095 1.24 1.014.811 1.521 1.919 1.521 3.323 0 .874-.187 1.7-.561 2.48-.375.78-1.085 1.67-2.13 2.668l-5.007 4.82h8.4zm8.196-7.464c1.606.156 2.83.655 3.673 1.497.843.827 1.264 1.888 1.264 3.183 0 .936-.234 1.786-.702 2.55-.468.749-1.17 1.35-2.106 1.802-.92.437-2.052.655-3.393.655a11.03 11.03 0 01-3.37-.514c-1.076-.359-1.957-.851-2.644-1.475l1.076-1.848c.562.53 1.28.959 2.153 1.287a8.217 8.217 0 002.785.468c1.217 0 2.16-.258 2.831-.772.687-.515 1.03-1.225 1.03-2.13 0-.905-.335-1.607-1.006-2.106-.671-.499-1.685-.749-3.042-.749h-1.31v-1.638l4.118-5.054H70.33v-2.036h10.81v1.591l-4.281 5.289zM63.07 305.5c1.607.156 2.832.655 3.674 1.497.842.827 1.264 1.888 1.264 3.183 0 .936-.234 1.786-.702 2.55-.468.749-1.17 1.35-2.106 1.802-.92.437-2.052.655-3.393.655a11 11 0 01-3.37-.515c-1.076-.358-1.958-.85-2.644-1.474l1.076-1.848c.562.53 1.28.959 2.153 1.287a8.217 8.217 0 002.785.468c1.216 0 2.16-.258 2.831-.773.686-.514 1.03-1.224 1.03-2.129s-.336-1.607-1.007-2.106c-.67-.499-1.684-.749-3.042-.749h-1.31v-1.638l4.118-5.054h-7.885v-2.036h10.81v1.591L63.07 305.5zm13.812 9.687c-1.294 0-2.449-.327-3.463-.983-.998-.67-1.786-1.638-2.363-2.901-.577-1.264-.866-2.761-.866-4.493 0-1.732.289-3.229.866-4.493.577-1.263 1.365-2.223 2.363-2.878 1.014-.671 2.169-1.006 3.463-1.006 1.28 0 2.418.335 3.417 1.006 1.014.655 1.81 1.615 2.387 2.878.577 1.264.865 2.761.865 4.493 0 1.732-.288 3.229-.865 4.493-.578 1.263-1.373 2.231-2.387 2.901-.999.656-2.137.983-3.417.983zm0-2.082c1.31 0 2.356-.539 3.136-1.615.796-1.076 1.193-2.636 1.193-4.68 0-2.044-.397-3.604-1.193-4.68-.78-1.076-1.825-1.615-3.136-1.615-1.326 0-2.386.539-3.182 1.615-.78 1.076-1.17 2.636-1.17 4.68 0 2.044.39 3.604 1.17 4.68.796 1.076 1.856 1.615 3.182 1.615zM215.56 169.914v16.38h-2.316V171.95h-3.697v-2.036h6.013zm15.096 14.345v2.035h-11.77v-1.591l6.669-6.435c.811-.78 1.357-1.451 1.638-2.012a3.927 3.927 0 00.421-1.732c0-.858-.304-1.521-.912-1.989-.593-.483-1.451-.725-2.574-.725-1.81 0-3.206.593-4.189 1.778l-1.591-1.38c.639-.78 1.474-1.389 2.504-1.826 1.045-.436 2.207-.655 3.486-.655 1.716 0 3.081.414 4.095 1.24 1.014.812 1.521 1.919 1.521 3.323 0 .874-.187 1.701-.561 2.481-.375.78-1.085 1.669-2.13 2.667l-5.007 4.821h8.4zm-14.064 27.813v16.38h-2.317v-14.345h-3.697v-2.035h6.014zm8.894-.188c2.2 0 3.893.71 5.078 2.13 1.201 1.419 1.802 3.432 1.802 6.037 0 1.825-.328 3.385-.983 4.68-.639 1.279-1.544 2.254-2.714 2.925-1.155.655-2.504.983-4.048.983-.796 0-1.545-.078-2.247-.234-.702-.172-1.31-.414-1.825-.726l.889-1.825c.796.515 1.849.772 3.159.772 1.701 0 3.027-.522 3.978-1.567.967-1.061 1.451-2.598 1.451-4.61v-.585c-.468.702-1.115 1.24-1.942 1.614-.827.359-1.755.539-2.785.539-1.076 0-2.043-.203-2.901-.609a4.773 4.773 0 01-1.989-1.731c-.468-.765-.702-1.638-.702-2.621 0-1.03.249-1.935.748-2.715a5.086 5.086 0 012.083-1.801c.874-.437 1.856-.656 2.948-.656zm.211 8.237c.733 0 1.388-.14 1.966-.421.577-.281 1.021-.663 1.333-1.147a2.809 2.809 0 00.492-1.614c0-.577-.156-1.1-.468-1.568-.297-.484-.741-.866-1.334-1.147-.577-.296-1.279-.444-2.106-.444-1.076 0-1.95.288-2.621.866-.655.577-.983 1.349-.983 2.316 0 .967.336 1.74 1.007 2.317.67.561 1.575.842 2.714.842zm-.596 48.451v2.036h-11.77v-1.591l6.669-6.435c.811-.78 1.357-1.451 1.638-2.012.28-.578.421-1.155.421-1.732 0-.858-.304-1.521-.913-1.989-.593-.484-1.451-.725-2.574-.725-1.809 0-3.206.592-4.188 1.778l-1.592-1.381c.64-.78 1.475-1.388 2.504-1.825 1.045-.437 2.208-.655 3.487-.655 1.716 0 3.081.413 4.095 1.24 1.014.811 1.521 1.919 1.521 3.323 0 .874-.187 1.7-.562 2.48-.374.78-1.084 1.67-2.129 2.668l-5.008 4.82h8.401zm8.922-7.909c1.076 0 2.036.203 2.878.609.858.405 1.529.99 2.013 1.755.483.748.725 1.614.725 2.597 0 1.03-.257 1.934-.772 2.714-.499.78-1.194 1.389-2.083 1.826-.873.421-1.856.631-2.948.631-2.2 0-3.9-.709-5.101-2.129-1.186-1.42-1.779-3.432-1.779-6.037 0-1.825.32-3.378.96-4.657.655-1.295 1.56-2.27 2.714-2.925 1.17-.671 2.527-1.006 4.072-1.006.795 0 1.544.086 2.246.257.702.156 1.31.39 1.825.702l-.889 1.826c-.78-.515-1.825-.773-3.136-.773-1.7 0-3.034.531-4.001 1.592-.967 1.045-1.451 2.574-1.451 4.586 0 .25.008.445.024.585.468-.702 1.107-1.232 1.918-1.591.827-.375 1.755-.562 2.785-.562zm-.281 8.237c1.077 0 1.95-.289 2.621-.866s1.006-1.349 1.006-2.316c0-.968-.343-1.732-1.029-2.294-.671-.577-1.576-.865-2.715-.865-.733 0-1.388.14-1.965.421a3.421 3.421 0 00-1.334 1.146 2.917 2.917 0 00-.468 1.615c0 .577.148 1.108.444 1.591.312.468.757.85 1.334 1.147.593.281 1.295.421 2.106.421zM119.5 135.382c1.607.156 2.831.655 3.674 1.498.842.827 1.263 1.887 1.263 3.182 0 .936-.234 1.786-.702 2.551-.468.749-1.17 1.349-2.106 1.802-.92.436-2.051.655-3.393.655-1.17 0-2.293-.172-3.369-.515-1.077-.359-1.958-.85-2.645-1.474l1.077-1.849c.561.531 1.279.96 2.153 1.287a8.21 8.21 0 002.784.468c1.217 0 2.161-.257 2.832-.772.686-.515 1.029-1.225 1.029-2.129 0-.905-.335-1.607-1.006-2.106-.671-.5-1.685-.749-3.042-.749h-1.31v-1.638l4.118-5.055h-7.886v-2.035h10.811v1.591l-4.282 5.288zm-11.69 34.532v16.38h-2.316V171.95h-3.697v-2.036h6.013zm10.276 16.568c-1.295 0-2.449-.328-3.463-.983-.999-.671-1.787-1.638-2.364-2.902-.577-1.263-.866-2.761-.866-4.493 0-1.731.289-3.229.866-4.492.577-1.264 1.365-2.223 2.364-2.879 1.014-.67 2.168-1.006 3.463-1.006 1.279 0 2.418.336 3.416 1.006 1.014.656 1.81 1.615 2.387 2.879.577 1.263.866 2.761.866 4.492 0 1.732-.289 3.23-.866 4.493-.577 1.264-1.373 2.231-2.387 2.902-.998.655-2.137.983-3.416.983zm0-2.083c1.31 0 2.355-.538 3.135-1.615.796-1.076 1.194-2.636 1.194-4.68 0-2.043-.398-3.603-1.194-4.68-.78-1.076-1.825-1.614-3.135-1.614-1.326 0-2.387.538-3.183 1.614-.78 1.077-1.17 2.637-1.17 4.68 0 2.044.39 3.604 1.17 4.68.796 1.077 1.857 1.615 3.183 1.615zm-5.092 27.673v16.38h-2.317v-14.345h-3.697v-2.035h6.014zm15.517 0v1.591l-6.622 14.789h-2.481l6.482-14.345h-7.488v2.925h-2.246v-4.96h12.355zm-8.043 56.5v2.036h-11.77v-1.591l6.669-6.435c.811-.78 1.357-1.451 1.638-2.012a3.93 3.93 0 00.421-1.732c0-.858-.304-1.521-.913-1.989-.592-.484-1.45-.725-2.574-.725-1.809 0-3.205.592-4.188 1.778l-1.591-1.381c.639-.78 1.474-1.388 2.503-1.825 1.046-.437 2.208-.655 3.487-.655 1.716 0 3.081.413 4.095 1.24 1.014.811 1.521 1.919 1.521 3.323 0 .874-.187 1.7-.562 2.48-.374.78-1.084 1.67-2.129 2.668l-5.008 4.82h8.401zm15.74-1.989h-3.112v4.025h-2.27v-4.025h-9.102v-1.638l8.377-10.717h2.527l-8.026 10.343h6.295v-3.557h2.199v3.557h3.112v2.012zm137.42-131.645c1.076 0 2.035.202 2.878.608.858.406 1.528.991 2.012 1.755.484.749.726 1.615.726 2.597 0 1.03-.258 1.935-.773 2.715-.499.78-1.193 1.388-2.082 1.825-.874.421-1.857.632-2.949.632-2.199 0-3.9-.71-5.101-2.13-1.185-1.419-1.778-3.432-1.778-6.037 0-1.825.319-3.377.959-4.656.655-1.295 1.56-2.27 2.715-2.925 1.17-.671 2.527-1.007 4.071-1.007.796 0 1.545.086 2.247.258.702.156 1.31.39 1.825.702l-.889 1.825c-.78-.515-1.826-.772-3.136-.772-1.7 0-3.034.53-4.001 1.591-.968 1.045-1.451 2.574-1.451 4.586 0 .25.008.445.023.585.468-.702 1.108-1.232 1.919-1.591.827-.374 1.755-.561 2.785-.561zm-.281 8.236c1.076 0 1.95-.288 2.621-.865.67-.578 1.006-1.35 1.006-2.317 0-.967-.343-1.732-1.03-2.293-.671-.577-1.575-.866-2.714-.866-.733 0-1.389.14-1.966.421a3.43 3.43 0 00-1.334 1.147 2.914 2.914 0 00-.468 1.614c0 .578.149 1.108.445 1.592.312.468.757.85 1.334 1.146.593.281 1.295.421 2.106.421zm-3.912 26.74v16.38h-2.316V171.95h-3.697v-2.036h6.013zm9.855 6.88c1.606.156 2.831.655 3.673 1.498.843.826 1.264 1.887 1.264 3.182 0 .936-.234 1.786-.702 2.551-.468.748-1.17 1.349-2.106 1.801-.92.437-2.051.656-3.393.656-1.17 0-2.293-.172-3.37-.515-1.076-.359-1.957-.85-2.644-1.474l1.077-1.849c.561.53 1.279.959 2.152 1.287a8.22 8.22 0 002.785.468c1.217 0 2.161-.257 2.831-.772.687-.515 1.03-1.225 1.03-2.13 0-.904-.335-1.606-1.006-2.106-.671-.499-1.685-.748-3.042-.748h-1.311v-1.638l4.119-5.055h-7.886v-2.036h10.811v1.592l-4.282 5.288zm-4.459 49.622v2.036h-11.77v-1.592l6.669-6.435c.811-.78 1.357-1.45 1.638-2.012a3.924 3.924 0 00.421-1.732c0-.858-.304-1.521-.912-1.989-.593-.483-1.451-.725-2.574-.725-1.81 0-3.206.593-4.189 1.778l-1.591-1.38c.64-.78 1.474-1.389 2.504-1.825 1.045-.437 2.207-.656 3.486-.656 1.716 0 3.081.414 4.095 1.241 1.014.811 1.521 1.918 1.521 3.322 0 .874-.187 1.701-.561 2.481-.375.78-1.084 1.669-2.13 2.667l-5.007 4.821h8.4zm8.548 2.223c-1.295 0-2.449-.328-3.463-.983-.999-.671-1.786-1.638-2.364-2.902-.577-1.263-.865-2.761-.865-4.492 0-1.732.288-3.23.865-4.493.578-1.264 1.365-2.223 2.364-2.878 1.014-.671 2.168-1.007 3.463-1.007 1.279 0 2.418.336 3.416 1.007 1.014.655 1.81 1.614 2.387 2.878.577 1.263.866 2.761.866 4.493 0 1.731-.289 3.229-.866 4.492-.577 1.264-1.373 2.231-2.387 2.902-.998.655-2.137.983-3.416.983zm0-2.083c1.31 0 2.356-.538 3.136-1.614.795-1.077 1.193-2.637 1.193-4.68 0-2.044-.398-3.604-1.193-4.68-.78-1.077-1.826-1.615-3.136-1.615-1.326 0-2.387.538-3.182 1.615-.78 1.076-1.17 2.636-1.17 4.68 0 2.043.39 3.603 1.17 4.68.795 1.076 1.856 1.614 3.182 1.614zm-5.434 42.016v2.036h-11.771v-1.591l6.669-6.435c.812-.78 1.358-1.451 1.638-2.012a3.932 3.932 0 00.422-1.732c0-.858-.305-1.521-.913-1.989-.593-.484-1.451-.725-2.574-.725-1.81 0-3.206.592-4.189 1.778l-1.591-1.381c.64-.78 1.474-1.388 2.504-1.825 1.045-.437 2.207-.655 3.487-.655 1.716 0 3.081.413 4.095 1.24 1.014.811 1.521 1.919 1.521 3.323 0 .874-.188 1.7-.562 2.48-.374.78-1.084 1.67-2.129 2.668l-5.008 4.82h8.401zm13.789-14.344v1.591l-6.622 14.789h-2.481l6.482-14.344h-7.488v2.925h-2.246v-4.961h12.355zm38.3-125.725v1.591l-6.622 14.789h-2.481l6.482-14.345h-7.488v2.925h-2.246v-4.96h12.355zm-6.72 41.411v16.38h-2.316V171.95H317.3v-2.036h6.014zm17.834 12.356h-3.112v4.024h-2.27v-4.024h-9.103v-1.638l8.377-10.718h2.528l-8.027 10.343h6.295V176.7h2.2v3.557h3.112v2.013zm-9.328 44.146v2.036h-11.771v-1.592l6.669-6.435c.812-.78 1.358-1.45 1.638-2.012a3.925 3.925 0 00.422-1.732c0-.858-.305-1.521-.913-1.989-.593-.483-1.451-.725-2.574-.725-1.81 0-3.206.593-4.189 1.778l-1.591-1.38c.64-.78 1.474-1.389 2.504-1.825 1.045-.437 2.207-.656 3.487-.656 1.716 0 3.081.414 4.095 1.241 1.014.811 1.521 1.918 1.521 3.322 0 .874-.188 1.701-.562 2.481-.374.78-1.084 1.669-2.129 2.667l-5.008 4.821h8.401zm7.001-14.344v16.38h-2.316v-14.345h-3.697v-2.035h6.013zm-9.072 56.5v2.036h-11.77v-1.591l6.669-6.435c.811-.78 1.357-1.451 1.638-2.012a3.93 3.93 0 00.421-1.732c0-.858-.304-1.521-.912-1.989-.593-.484-1.451-.725-2.574-.725-1.81 0-3.206.592-4.189 1.778l-1.591-1.381c.639-.78 1.474-1.388 2.504-1.825 1.045-.437 2.207-.655 3.486-.655 1.716 0 3.081.413 4.095 1.24 1.014.811 1.521 1.919 1.521 3.323 0 .874-.187 1.7-.561 2.48-.375.78-1.085 1.67-2.13 2.668l-5.007 4.82h8.4zm11.939-6.552c.936.359 1.654.874 2.153 1.545.499.671.749 1.474.749 2.41 0 .983-.265 1.841-.796 2.574-.53.718-1.287 1.271-2.269 1.661-.983.39-2.138.585-3.464.585-1.31 0-2.457-.195-3.439-.585-.968-.39-1.716-.943-2.247-1.661-.53-.733-.795-1.591-.795-2.574 0-.936.241-1.739.725-2.41.499-.671 1.217-1.186 2.153-1.545-.749-.358-1.318-.834-1.708-1.427-.39-.593-.585-1.295-.585-2.106 0-.905.241-1.693.725-2.363.499-.671 1.193-1.186 2.083-1.545.889-.359 1.918-.538 3.088-.538 1.186 0 2.223.179 3.113.538.904.359 1.599.874 2.082 1.545.499.67.749 1.458.749 2.363 0 .796-.203 1.498-.608 2.106-.39.593-.96 1.069-1.709 1.427zm-3.627-6.084c-1.107 0-1.981.242-2.62.726-.64.468-.96 1.107-.96 1.919 0 .811.312 1.45.936 1.918.64.468 1.521.702 2.644.702 1.139 0 2.028-.234 2.668-.702.655-.468.983-1.107.983-1.918 0-.812-.336-1.451-1.006-1.919-.656-.484-1.537-.726-2.645-.726zm0 12.964c1.295 0 2.317-.265 3.066-.796.749-.546 1.123-1.279 1.123-2.199 0-.905-.374-1.615-1.123-2.13-.749-.53-1.771-.795-3.066-.795-1.294 0-2.308.265-3.042.795-.733.515-1.099 1.225-1.099 2.13 0 .92.366 1.653 1.099 2.199.734.531 1.748.796 3.042.796z" fill="#555252"/></svg>