<svg width="346" height="321" fill="none" xmlns="http://www.w3.org/2000/svg"><path d="M133.759 8.258v19.6h-3.584v-5.46h-5.236l-3.64 5.46h-3.836l4.2-6.048c-1.363-.504-2.417-1.297-3.164-2.38-.728-1.101-1.092-2.427-1.092-3.976 0-1.493.336-2.781 1.008-3.864.672-1.083 1.624-1.904 2.856-2.464 1.232-.579 2.679-.868 4.34-.868h8.148zm-8.036 3.08c-1.493 0-2.641.345-3.444 1.036-.784.69-1.176 1.699-1.176 3.024 0 1.288.383 2.287 1.148 2.996.765.69 1.876 1.036 3.332 1.036h4.592v-8.092h-4.452zm13.172 1.568h3.5v6.076h7.532v-6.076h3.5v14.952h-3.5V21.95h-7.532v5.908h-3.5V12.906zm30.059 7.168c1.848.56 2.772 1.755 2.772 3.584 0 1.344-.504 2.38-1.512 3.108-1.008.728-2.502 1.092-4.48 1.092h-7.616V12.906h7.308c1.829 0 3.257.336 4.284 1.008 1.026.672 1.54 1.624 1.54 2.856 0 .765-.206 1.428-.616 1.988-.392.56-.952.999-1.68 1.316zm-7.504-.924h3.668c1.81 0 2.716-.625 2.716-1.876 0-1.213-.906-1.82-2.716-1.82h-3.668v3.696zm4.004 6.16c1.922 0 2.884-.625 2.884-1.876 0-.653-.224-1.139-.672-1.456-.448-.336-1.148-.504-2.1-.504h-4.116v3.836h4.004zm15.572-12.572c2.202 0 3.882.532 5.04 1.596 1.176 1.045 1.764 2.632 1.764 4.76v8.764h-3.304v-1.82c-.43.653-1.046 1.157-1.848 1.512-.784.336-1.736.504-2.856.504-1.12 0-2.1-.187-2.94-.56-.84-.392-1.494-.924-1.96-1.596a4.178 4.178 0 01-.672-2.324c0-1.344.494-2.417 1.484-3.22 1.008-.821 2.585-1.232 4.732-1.232h3.864v-.224c0-1.045-.318-1.848-.952-2.408-.616-.56-1.54-.84-2.772-.84-.84 0-1.671.13-2.492.392-.803.261-1.484.625-2.044 1.092l-1.372-2.548c.784-.597 1.726-1.055 2.828-1.372a12.582 12.582 0 013.5-.476zm-.476 12.768c.877 0 1.652-.196 2.324-.588.69-.41 1.176-.99 1.456-1.736v-1.736h-3.612c-2.016 0-3.024.663-3.024 1.988 0 .635.252 1.139.756 1.512s1.204.56 2.1.56zm19.899-12.768c1.456 0 2.753.317 3.892.952a6.847 6.847 0 012.716 2.688c.653 1.157.98 2.492.98 4.004 0 1.512-.327 2.856-.98 4.032a6.847 6.847 0 01-2.716 2.688c-1.139.635-2.436.952-3.892.952-2.016 0-3.612-.672-4.788-2.016v7.252h-3.5V12.906h3.332v1.96a5.432 5.432 0 012.128-1.596c.858-.355 1.801-.532 2.828-.532zm-.392 12.32c1.288 0 2.342-.43 3.164-1.288.84-.859 1.26-1.988 1.26-3.388s-.42-2.53-1.26-3.388c-.822-.859-1.876-1.288-3.164-1.288-.84 0-1.596.196-2.268.588a4.052 4.052 0 00-1.596 1.624c-.392.71-.588 1.53-.588 2.464 0 .933.196 1.755.588 2.464.392.71.924 1.26 1.596 1.652.672.373 1.428.56 2.268.56zm18.967-7.224c1.904 0 3.36.43 4.368 1.288 1.027.859 1.54 2.072 1.54 3.64 0 1.643-.56 2.912-1.68 3.808-1.12.896-2.697 1.335-4.732 1.316l-7-.028V12.906h3.5v4.9l4.004.028zm-.812 7.476c1.027.019 1.811-.196 2.352-.644.541-.448.812-1.101.812-1.96 0-.84-.261-1.456-.784-1.848-.523-.392-1.316-.597-2.38-.616l-3.192-.028v5.068l3.192.028zM16.514 78.861v16.1H13.57v-13.57H5.221v13.57H2.277v-16.1h14.237zm4.218 3.818h2.875v4.991h6.187v-4.99h2.875v12.28h-2.875v-4.853h-6.187v4.853h-2.875V82.68zm47.531 3.911c1.028.275 1.81.75 2.346 1.425.537.66.805 1.488.805 2.484 0 1.411-.521 2.507-1.564 3.29-1.042.781-2.553 1.172-4.53 1.172h-7.637v-16.1h7.2c1.809 0 3.22.36 4.231 1.081 1.012.721 1.518 1.74 1.518 3.06 0 .843-.207 1.571-.62 2.184-.4.614-.982 1.081-1.749 1.403zm-7.636-.852h4.002c.966 0 1.702-.191 2.208-.575.506-.383.76-.95.76-1.702 0-.75-.254-1.318-.76-1.702-.506-.398-1.242-.598-2.208-.598h-4.002v4.577zm4.6 6.923c2.116 0 3.174-.797 3.174-2.392 0-1.564-1.058-2.346-3.174-2.346h-4.6v4.738h4.6zm19-7.544h-4.3v9.844H77.05v-9.844h-4.324V82.68h11.5v2.438zm31.091 10.074c-1.625 0-3.097-.352-4.416-1.058a8.079 8.079 0 01-3.082-2.967c-.736-1.257-1.104-2.675-1.104-4.255 0-1.579.376-2.997 1.127-4.255a7.913 7.913 0 013.082-2.944c1.319-.72 2.791-1.08 4.416-1.08 1.319 0 2.523.23 3.611.69a7.36 7.36 0 012.76 2l-1.932 1.817c-1.165-1.257-2.599-1.886-4.301-1.886-1.104 0-2.093.246-2.967.736a5.143 5.143 0 00-2.047 2.001c-.49.86-.736 1.833-.736 2.921 0 1.09.246 2.063.736 2.921a5.301 5.301 0 002.047 2.024c.874.476 1.863.713 2.967.713 1.702 0 3.136-.636 4.301-1.909l1.932 1.84a7.324 7.324 0 01-2.783 2.001c-1.088.46-2.292.69-3.611.69zm15.656-12.65c1.196 0 2.262.261 3.197.782a5.613 5.613 0 012.231 2.208c.537.951.805 2.047.805 3.29 0 1.241-.268 2.345-.805 3.311a5.612 5.612 0 01-2.231 2.208c-.935.522-2.001.782-3.197.782-1.656 0-2.967-.552-3.933-1.656v5.957h-2.875V82.68h2.737v1.61a4.472 4.472 0 011.748-1.31 6.031 6.031 0 012.323-.438zm-.322 10.12c1.058 0 1.925-.352 2.599-1.058.69-.705 1.035-1.633 1.035-2.783s-.345-2.077-1.035-2.783c-.674-.705-1.541-1.058-2.599-1.058-.69 0-1.311.161-1.863.483a3.329 3.329 0 00-1.311 1.334c-.322.583-.483 1.258-.483 2.024 0 .767.161 1.442.483 2.024a3.489 3.489 0 001.311 1.357c.552.307 1.173.46 1.863.46zm42.646-13.8v16.1h-2.967V88.89c-1.518.568-2.959.851-4.324.851-2.054 0-3.641-.49-4.761-1.472-1.104-.996-1.656-2.422-1.656-4.278v-5.129h2.967v4.807c0 1.135.33 2.001.989 2.6.66.597 1.603.896 2.829.896a9.406 9.406 0 003.956-.85V78.86h2.967zm13.92 6.256h-4.301v9.844h-2.875v-9.844h-4.324V82.68h11.5v2.438zm36.747-6.256v16.1h-2.944v-13.57h-8.349v13.57h-2.944v-16.1h14.237zm13.947 6.256h-4.301v9.844h-2.875v-9.844h-4.324V82.68h11.5v2.438zm30.738 10.074c-1.625 0-3.097-.352-4.416-1.058a8.079 8.079 0 01-3.082-2.967c-.736-1.257-1.104-2.675-1.104-4.255 0-1.579.376-2.997 1.127-4.255a7.913 7.913 0 013.082-2.944c1.319-.72 2.791-1.08 4.416-1.08 1.319 0 2.523.23 3.611.69a7.36 7.36 0 012.76 2l-1.932 1.817c-1.165-1.257-2.599-1.886-4.301-1.886-1.104 0-2.093.246-2.967.736a5.143 5.143 0 00-2.047 2.001c-.49.86-.736 1.833-.736 2.921 0 1.09.246 2.063.736 2.921a5.301 5.301 0 002.047 2.024c.874.476 1.863.713 2.967.713 1.702 0 3.136-.636 4.301-1.909l1.932 1.84a7.324 7.324 0 01-2.783 2.001c-1.088.46-2.292.69-3.611.69zm15.158-11.914c1.166 0 2.193.253 3.082.76.89.49 1.58 1.18 2.07 2.07.506.889.759 1.908.759 3.058 0 1.181-.276 2.231-.828 3.151-.552.905-1.326 1.61-2.323 2.116-.996.506-2.131.76-3.404.76-2.131 0-3.779-.706-4.945-2.117-1.165-1.41-1.748-3.442-1.748-6.095 0-2.468.529-4.423 1.587-5.865 1.058-1.44 2.676-2.392 4.853-2.852l5.704-1.219.414 2.576-5.175 1.058c-1.487.307-2.599.828-3.335 1.564-.736.736-1.165 1.771-1.288 3.105a5.558 5.558 0 012.001-1.518c.782-.368 1.641-.552 2.576-.552zm-.575 9.591c1.058 0 1.909-.337 2.553-1.012.66-.69.989-1.564.989-2.622 0-1.058-.329-1.909-.989-2.553-.644-.644-1.495-.966-2.553-.966-1.073 0-1.939.322-2.599.966-.659.644-.989 1.495-.989 2.553 0 1.074.33 1.948.989 2.622.675.675 1.541 1.012 2.599 1.012zm41.442-6.278c1.028.275 1.81.75 2.346 1.425.537.66.805 1.488.805 2.484 0 1.411-.521 2.507-1.564 3.29-1.042.781-2.553 1.172-4.531 1.172h-7.636v-16.1h7.199c1.81 0 3.22.36 4.232 1.081s1.518 1.74 1.518 3.06c0 .843-.207 1.571-.621 2.184-.398.614-.981 1.081-1.748 1.403zm-7.636-.852h4.002c.966 0 1.702-.191 2.208-.575.506-.383.759-.95.759-1.702 0-.75-.253-1.318-.759-1.702-.506-.398-1.242-.598-2.208-.598h-4.002v4.577zm4.6 6.923c2.116 0 3.174-.797 3.174-2.392 0-1.564-1.058-2.346-3.174-2.346h-4.6v4.738h4.6zm14.861 2.461c-1.273 0-2.415-.268-3.427-.805a5.933 5.933 0 01-2.369-2.23c-.568-.967-.851-2.055-.851-3.267 0-1.21.283-2.292.851-3.243a5.971 5.971 0 012.346-2.23c1.012-.537 2.162-.806 3.45-.806 1.211 0 2.269.246 3.174.736a4.763 4.763 0 012.07 2.116l-2.208 1.288c-.353-.567-.798-.989-1.334-1.265a3.48 3.48 0 00-1.725-.437c-1.074 0-1.963.353-2.668 1.058-.706.69-1.058 1.618-1.058 2.783 0 1.166.345 2.101 1.035 2.806.705.69 1.602 1.035 2.691 1.035.628 0 1.203-.138 1.725-.414.536-.29.981-.72 1.334-1.288l2.208 1.288a5.033 5.033 0 01-2.093 2.14c-.905.49-1.955.735-3.151.735zm-111.36 28.313v16.1h-2.277v-14.099h-3.634v-2.001h5.911zM24.129 178.841h-3.06v3.956h-2.23v-3.956H9.892v-1.61l8.234-10.534h2.484l-7.89 10.166h6.188v-3.496h2.162v3.496h3.059v1.978z" fill="#555252"/><path d="M17.948 205.635v21.7h-4.03v-18.321H9.33v-3.379h8.618zm11.807 0v21.7h-4.03v-18.321h-4.588v-3.379h8.618zm-14.918 41.684v21.7h-4.03v-18.321H6.219v-3.379h8.618zm18.378 10.292c1.137.516 2.005 1.219 2.604 2.108.62.868.93 1.891.93 3.069 0 1.322-.372 2.48-1.116 3.472-.723.992-1.756 1.756-3.1 2.294-1.343.516-2.903.775-4.68.775-1.778 0-3.338-.259-4.682-.775-1.322-.538-2.345-1.302-3.069-2.294-.723-.992-1.085-2.15-1.085-3.472 0-1.178.3-2.201.9-3.069.599-.889 1.456-1.592 2.572-2.108-.868-.476-1.54-1.096-2.015-1.86-.454-.786-.682-1.685-.682-2.697 0-1.22.331-2.284.992-3.193.682-.91 1.633-1.612 2.852-2.108 1.22-.496 2.625-.744 4.216-.744 1.612 0 3.028.248 4.247.744 1.22.496 2.17 1.198 2.852 2.108.682.909 1.023 1.973 1.023 3.193 0 1.012-.237 1.901-.713 2.666-.475.764-1.157 1.395-2.046 1.891zm-5.363-7.44c-1.26 0-2.263.268-3.007.806-.723.537-1.085 1.291-1.085 2.263 0 .93.362 1.674 1.085 2.232.744.537 1.747.806 3.007.806 1.282 0 2.294-.269 3.038-.806.744-.558 1.116-1.302 1.116-2.232 0-.972-.382-1.726-1.147-2.263-.744-.538-1.746-.806-3.007-.806zm0 15.996c1.488 0 2.666-.31 3.534-.93.868-.62 1.302-1.478 1.302-2.573 0-1.075-.434-1.922-1.302-2.542-.868-.62-2.046-.93-3.534-.93s-2.655.31-3.503.93c-.847.62-1.27 1.467-1.27 2.542 0 1.095.423 1.953 1.27 2.573.848.62 2.015.93 3.503.93zm-7.904 41.599v3.41H3.952v-2.697l8.618-8.184c.971-.93 1.623-1.736 1.953-2.418.351-.703.527-1.395.527-2.077 0-1.013-.34-1.788-1.023-2.325-.682-.537-1.684-.806-3.007-.806-2.211 0-3.906.754-5.084 2.263l-2.82-2.17c.847-1.137 1.983-2.015 3.41-2.635 1.446-.641 3.058-.961 4.835-.961 2.356 0 4.237.558 5.642 1.674 1.405 1.116 2.108 2.635 2.108 4.557a7.566 7.566 0 01-.744 3.317c-.496 1.033-1.447 2.211-2.852 3.534l-5.797 5.518h10.23zm9.115-9.889c3.059 0 5.322.599 6.79 1.798 1.466 1.178 2.2 2.79 2.2 4.836 0 1.302-.32 2.48-.96 3.534-.642 1.054-1.603 1.891-2.884 2.511-1.281.62-2.862.93-4.743.93a15.56 15.56 0 01-4.495-.651c-1.447-.455-2.666-1.075-3.658-1.86l1.705-3.131c.806.661 1.767 1.188 2.883 1.581 1.137.372 2.305.558 3.503.558 1.426 0 2.542-.289 3.348-.868.827-.599 1.24-1.416 1.24-2.449 0-1.116-.444-1.953-1.333-2.511-.868-.579-2.366-.868-4.495-.868h-5.239l1.116-11.811h12.741v3.379h-9.33l-.466 5.022h2.077z" fill="#FFA751"/><path d="M177.563 166.697v1.564l-6.509 14.536h-2.438l6.371-14.099h-7.36v2.875h-2.208v-4.876h12.144zm-13.989 41.952v16.1h-2.277V210.65h-3.634v-2.001h5.911zm17.528 12.144h-3.059v3.956h-2.231v-3.956h-8.947v-1.61l8.234-10.534h2.484l-7.889 10.166h6.187v-3.496h2.162v3.496h3.059v1.978zm-8.098 43.905v2.001h-11.569v-1.564l6.555-6.325c.797-.766 1.334-1.426 1.61-1.978a3.858 3.858 0 00.414-1.702c0-.843-.299-1.495-.897-1.955-.583-.475-1.426-.713-2.53-.713-1.779 0-3.151.583-4.117 1.748l-1.564-1.357c.629-.766 1.449-1.364 2.461-1.794 1.027-.429 2.17-.644 3.427-.644 1.687 0 3.028.407 4.025 1.219.997.798 1.495 1.886 1.495 3.266a5.56 5.56 0 01-.552 2.438c-.368.767-1.066 1.641-2.093 2.622l-4.922 4.738h8.257zm6.882-14.099v16.1h-2.277V252.6h-3.634v-2.001h5.911zm-9.987 56.05v2.001H158.33v-1.564l6.555-6.325c.797-.766 1.334-1.426 1.61-1.978a3.858 3.858 0 00.414-1.702c0-.843-.299-1.495-.897-1.955-.583-.475-1.426-.713-2.53-.713-1.779 0-3.151.583-4.117 1.748l-1.564-1.357c.628-.766 1.449-1.364 2.461-1.794 1.027-.429 2.169-.644 3.427-.644 1.686 0 3.028.407 4.025 1.219.996.798 1.495 1.886 1.495 3.266a5.56 5.56 0 01-.552 2.438c-.368.767-1.066 1.641-2.093 2.622l-4.922 4.738h8.257zm11.735-6.44c.92.353 1.625.859 2.116 1.518.49.66.736 1.449.736 2.369 0 .966-.261 1.81-.782 2.53-.522.706-1.265 1.25-2.231 1.633-.966.384-2.101.575-3.404.575-1.288 0-2.415-.191-3.381-.575-.951-.383-1.687-.927-2.208-1.633-.522-.72-.782-1.564-.782-2.53 0-.92.237-1.709.713-2.369.49-.659 1.196-1.165 2.116-1.518-.736-.352-1.296-.82-1.679-1.403-.384-.582-.575-1.272-.575-2.07 0-.889.237-1.663.713-2.323.49-.659 1.173-1.165 2.047-1.518.874-.352 1.886-.529 3.036-.529 1.165 0 2.185.177 3.059.529.889.353 1.571.859 2.047 1.518.49.66.736 1.434.736 2.323 0 .782-.2 1.472-.598 2.07-.384.583-.943 1.051-1.679 1.403zm-3.565-5.98c-1.089 0-1.948.238-2.576.713-.629.46-.943 1.089-.943 1.886 0 .798.306 1.426.92 1.886.628.46 1.495.69 2.599.69 1.119 0 1.993-.23 2.622-.69.644-.46.966-1.088.966-1.886 0-.797-.33-1.426-.989-1.886-.644-.475-1.511-.713-2.599-.713zm0 12.742c1.272 0 2.277-.26 3.013-.782.736-.536 1.104-1.257 1.104-2.162 0-.889-.368-1.587-1.104-2.093-.736-.521-1.741-.782-3.013-.782-1.273 0-2.27.261-2.99.782-.721.506-1.081 1.204-1.081 2.093 0 .905.36 1.626 1.081 2.162.72.522 1.717.782 2.99.782zM278.68 137.534v2.001h-11.569v-1.564l6.555-6.325c.797-.766 1.334-1.426 1.61-1.978a3.858 3.858 0 00.414-1.702c0-.843-.299-1.495-.897-1.955-.583-.475-1.426-.713-2.53-.713-1.779 0-3.151.583-4.117 1.748l-1.564-1.357c.628-.766 1.449-1.364 2.461-1.794 1.027-.429 2.169-.644 3.427-.644 1.686 0 3.028.407 4.025 1.219.996.798 1.495 1.886 1.495 3.266a5.56 5.56 0 01-.552 2.438c-.368.767-1.066 1.641-2.093 2.622l-4.922 4.738h8.257zm-210.812 35.58c2.3 0 3.987.437 5.06 1.311 1.089.859 1.633 2.039 1.633 3.542 0 .951-.23 1.809-.69 2.576-.445.751-1.127 1.349-2.047 1.794-.905.429-2.024.644-3.358.644-1.135 0-2.23-.169-3.289-.506-1.058-.353-1.932-.836-2.622-1.449l1.058-1.817c.552.521 1.257.943 2.116 1.265a8 8 0 002.714.46c1.211 0 2.147-.253 2.806-.759.675-.521 1.012-1.227 1.012-2.116 0-.966-.368-1.694-1.104-2.185-.736-.506-1.993-.759-3.772-.759h-3.657l.851-8.418h9.085v2.001h-7.153l-.437 4.416h1.794zm.392 35.535v16.1h-2.278V210.65h-3.634v-2.001h5.911zm14.837 14.099v2.001h-11.57v-1.564l6.556-6.325c.797-.767 1.334-1.426 1.61-1.978a3.861 3.861 0 00.414-1.702c0-.843-.3-1.495-.897-1.955-.583-.475-1.426-.713-2.53-.713-1.779 0-3.151.583-4.117 1.748l-1.564-1.357c.628-.767 1.449-1.365 2.46-1.794 1.028-.429 2.17-.644 3.428-.644 1.686 0 3.028.406 4.025 1.219.996.797 1.495 1.886 1.495 3.266 0 .859-.184 1.671-.552 2.438-.368.767-1.066 1.641-2.093 2.622l-4.922 4.738h8.257zM72.4 250.599v16.1h-2.277V252.6h-3.634v-2.001h5.91zm8.742-.184c2.162 0 3.826.698 4.991 2.093 1.181 1.396 1.771 3.374 1.771 5.934 0 1.794-.322 3.328-.966 4.6-.628 1.258-1.518 2.216-2.668 2.875-1.134.644-2.46.966-3.979.966a10.12 10.12 0 01-2.208-.23c-.69-.168-1.288-.406-1.794-.713l.874-1.794c.782.506 1.817.759 3.105.759 1.672 0 2.975-.513 3.91-1.541.951-1.042 1.426-2.553 1.426-4.531v-.575c-.46.69-1.096 1.219-1.909 1.587-.812.353-1.725.529-2.737.529-1.058 0-2.008-.199-2.852-.598a4.694 4.694 0 01-1.955-1.702c-.46-.751-.69-1.61-.69-2.576 0-1.012.246-1.901.736-2.668a5.007 5.007 0 012.047-1.771c.859-.429 1.825-.644 2.898-.644zm.207 8.096c.721 0 1.365-.138 1.932-.414.568-.276 1.005-.651 1.311-1.127a2.766 2.766 0 00.483-1.587c0-.567-.153-1.081-.46-1.541-.291-.475-.728-.851-1.31-1.127-.568-.291-1.258-.437-2.07-.437-1.059 0-1.917.284-2.577.851-.644.568-.966 1.327-.966 2.277 0 .951.33 1.71.99 2.277.659.552 1.548.828 2.667.828zm-5.729 48.138v2.001H64.05v-1.564l6.555-6.325c.798-.766 1.334-1.426 1.61-1.978a3.858 3.858 0 00.414-1.702c0-.843-.299-1.495-.897-1.955-.582-.475-1.426-.713-2.53-.713-1.778 0-3.15.583-4.117 1.748l-1.564-1.357c.629-.766 1.45-1.364 2.461-1.794 1.028-.429 2.17-.644 3.427-.644 1.687 0 3.029.407 4.025 1.219.997.798 1.495 1.886 1.495 3.266a5.56 5.56 0 01-.552 2.438c-.368.767-1.065 1.641-2.093 2.622l-4.922 4.738h8.257zm8.769-7.774c1.058 0 2 .2 2.829.598.843.399 1.502.974 1.978 1.725.475.736.713 1.587.713 2.553 0 1.012-.253 1.902-.76 2.668-.49.767-1.172 1.365-2.046 1.794-.859.414-1.825.621-2.898.621-2.162 0-3.834-.697-5.014-2.093-1.166-1.395-1.748-3.373-1.748-5.934 0-1.794.314-3.319.943-4.577.644-1.272 1.533-2.231 2.668-2.875 1.15-.659 2.484-.989 4.002-.989a9.31 9.31 0 012.208.253c.69.154 1.288.384 1.794.69l-.874 1.794c-.767-.506-1.794-.759-3.082-.759-1.672 0-2.983.522-3.933 1.564-.95 1.028-1.426 2.53-1.426 4.508 0 .246.008.437.023.575a4.3 4.3 0 011.886-1.564c.813-.368 1.725-.552 2.737-.552zm-.276 8.096c1.058 0 1.916-.283 2.576-.851.66-.567.989-1.326.989-2.277 0-.95-.337-1.702-1.012-2.254-.66-.567-1.549-.851-2.668-.851-.72 0-1.365.138-1.932.414a3.367 3.367 0 00-1.311 1.127 2.869 2.869 0 00-.46 1.587c0 .568.145 1.089.437 1.564.306.46.743.836 1.31 1.127.584.276 1.273.414 2.07.414zm142.333-132.615c.92.353 1.625.859 2.116 1.518.491.659.736 1.449.736 2.369 0 .966-.261 1.809-.782 2.53-.521.705-1.265 1.25-2.231 1.633s-2.101.575-3.404.575c-1.288 0-2.415-.192-3.381-.575-.951-.383-1.687-.928-2.208-1.633-.521-.721-.782-1.564-.782-2.53 0-.92.238-1.71.713-2.369.491-.659 1.196-1.165 2.116-1.518-.736-.353-1.296-.82-1.679-1.403-.383-.583-.575-1.273-.575-2.07 0-.889.238-1.664.713-2.323.491-.659 1.173-1.165 2.047-1.518.874-.353 1.886-.529 3.036-.529 1.165 0 2.185.176 3.059.529.889.353 1.572.859 2.047 1.518.491.659.736 1.434.736 2.323 0 .782-.199 1.472-.598 2.07-.383.583-.943 1.05-1.679 1.403zm-3.565-5.98c-1.089 0-1.947.238-2.576.713-.629.46-.943 1.089-.943 1.886 0 .797.307 1.426.92 1.886.629.46 1.495.69 2.599.69 1.119 0 1.993-.23 2.622-.69.644-.46.966-1.089.966-1.886 0-.797-.33-1.426-.989-1.886-.644-.475-1.51-.713-2.599-.713zm0 12.742c1.273 0 2.277-.261 3.013-.782.736-.537 1.104-1.257 1.104-2.162 0-.889-.368-1.587-1.104-2.093-.736-.521-1.74-.782-3.013-.782s-2.269.261-2.99.782c-.721.506-1.081 1.204-1.081 2.093 0 .905.36 1.625 1.081 2.162.721.521 1.717.782 2.99.782z" fill="#555252"/><path d="M217.106 204.581v21.7h-4.03V207.96h-4.588v-3.379h8.618zm11.094 8.401c3.059 0 5.322.599 6.789 1.798 1.467 1.178 2.201 2.79 2.201 4.836 0 1.302-.32 2.48-.961 3.534-.641 1.054-1.602 1.891-2.883 2.511-1.281.62-2.862.93-4.743.93a15.56 15.56 0 01-4.495-.651c-1.447-.455-2.666-1.075-3.658-1.86l1.705-3.131c.806.661 1.767 1.188 2.883 1.581 1.137.372 2.304.558 3.503.558 1.426 0 2.542-.29 3.348-.868.827-.6 1.24-1.416 1.24-2.449 0-1.116-.444-1.953-1.333-2.511-.868-.579-2.366-.868-4.495-.868h-5.239l1.116-11.811h12.741v3.379h-9.331l-.465 5.022h2.077zm-7.019 51.573v3.41h-15.996v-2.697l8.618-8.184c.971-.93 1.622-1.736 1.953-2.418.351-.703.527-1.395.527-2.077 0-1.013-.341-1.788-1.023-2.325-.682-.537-1.685-.806-3.007-.806-2.212 0-3.906.754-5.084 2.263l-2.821-2.17c.847-1.137 1.984-2.015 3.41-2.635 1.446-.641 3.058-.961 4.836-.961 2.356 0 4.236.558 5.642 1.674 1.405 1.116 2.108 2.635 2.108 4.557a7.566 7.566 0 01-.744 3.317c-.496 1.033-1.447 2.211-2.852 3.534l-5.797 5.518h10.23zm18.043 0v3.41h-15.996v-2.697l8.618-8.184c.971-.93 1.622-1.736 1.953-2.418.351-.703.527-1.395.527-2.077 0-1.013-.341-1.788-1.023-2.325-.682-.537-1.685-.806-3.007-.806-2.212 0-3.906.754-5.084 2.263l-2.821-2.17c.847-1.137 1.984-2.015 3.41-2.635 1.446-.641 3.058-.961 4.836-.961 2.356 0 4.236.558 5.642 1.674 1.405 1.116 2.108 2.635 2.108 4.557a7.566 7.566 0 01-.744 3.317c-.496 1.033-1.447 2.211-2.852 3.534l-5.797 5.518h10.23zm-17.008 42.156v3.41H206.22v-2.697l8.618-8.184c.971-.93 1.622-1.736 1.953-2.418.351-.702.527-1.395.527-2.077 0-1.012-.341-1.787-1.023-2.325-.682-.537-1.685-.806-3.007-.806-2.212 0-3.906.755-5.084 2.263l-2.821-2.17c.847-1.136 1.984-2.015 3.41-2.635 1.446-.64 3.058-.961 4.836-.961 2.356 0 4.236.558 5.642 1.674 1.405 1.116 2.108 2.635 2.108 4.557a7.566 7.566 0 01-.744 3.317c-.496 1.034-1.447 2.212-2.852 3.534l-5.797 5.518h10.23zm9.642-18.6c2.976 0 5.28.93 6.913 2.79 1.653 1.86 2.48 4.526 2.48 7.998 0 2.439-.445 4.526-1.333 6.262-.889 1.716-2.139 3.028-3.751 3.937-1.592.889-3.441 1.333-5.549 1.333-1.116 0-2.17-.113-3.162-.341-.972-.248-1.819-.599-2.542-1.054l1.488-3.038c1.074.703 2.449 1.054 4.123 1.054 2.087 0 3.72-.64 4.898-1.922 1.178-1.281 1.767-3.131 1.767-5.549v-.031c-.641.744-1.457 1.313-2.449 1.705-.992.372-2.108.558-3.348.558-1.426 0-2.708-.268-3.844-.806-1.137-.558-2.026-1.343-2.666-2.356-.641-1.012-.961-2.18-.961-3.503 0-1.405.351-2.635 1.054-3.689.702-1.074 1.653-1.901 2.852-2.48 1.198-.578 2.542-.868 4.03-.868zm.31 10.54c1.302 0 2.356-.351 3.162-1.054.826-.702 1.24-1.591 1.24-2.666 0-1.054-.403-1.922-1.209-2.604-.786-.702-1.881-1.054-3.286-1.054-1.261 0-2.284.341-3.069 1.023-.786.662-1.178 1.55-1.178 2.666 0 1.137.392 2.036 1.178 2.697.785.662 1.839.992 3.162.992z" fill="#FFA751"/><path d="M326.368 130.197c1.579.154 2.783.644 3.611 1.472.828.813 1.242 1.856 1.242 3.128 0 .92-.23 1.756-.69 2.507-.46.736-1.15 1.327-2.07 1.771-.905.43-2.017.644-3.335.644-1.15 0-2.254-.168-3.312-.506-1.058-.352-1.925-.835-2.599-1.449l1.058-1.817c.552.522 1.257.943 2.116 1.265.858.307 1.771.46 2.737.46 1.196 0 2.123-.253 2.783-.759.674-.506 1.012-1.203 1.012-2.093 0-.889-.33-1.579-.989-2.07-.66-.49-1.656-.736-2.99-.736h-1.288v-1.61l4.048-4.968h-7.751v-2.001h10.626v1.564l-4.209 5.198zm-205.39 42.825c1.058 0 2.001.199 2.829.598.843.399 1.502.974 1.978 1.725.475.736.713 1.587.713 2.553 0 1.012-.253 1.901-.759 2.668-.491.767-1.173 1.365-2.047 1.794-.859.414-1.825.621-2.898.621-2.162 0-3.834-.698-5.014-2.093-1.166-1.395-1.748-3.373-1.748-5.934 0-1.794.314-3.32.943-4.577.644-1.273 1.533-2.231 2.668-2.875 1.15-.659 2.484-.989 4.002-.989.782 0 1.518.084 2.208.253.69.153 1.288.383 1.794.69l-.874 1.794c-.767-.506-1.794-.759-3.082-.759-1.672 0-2.983.521-3.933 1.564-.951 1.027-1.426 2.53-1.426 4.508 0 .245.007.437.023.575a4.3 4.3 0 011.886-1.564c.812-.368 1.725-.552 2.737-.552zm-.276 8.096c1.058 0 1.916-.284 2.576-.851.659-.567.989-1.326.989-2.277 0-.951-.338-1.702-1.012-2.254-.66-.567-1.549-.851-2.668-.851-.721 0-1.365.138-1.932.414a3.367 3.367 0 00-1.311 1.127 2.862 2.862 0 00-.46 1.587c0 .567.145 1.089.437 1.564.306.46.743.836 1.311 1.127.582.276 1.272.414 2.07.414zm-4.787 27.531v16.1h-2.277V210.65h-3.634v-2.001h5.911zm9.686 6.762c1.579.153 2.783.644 3.611 1.472.828.813 1.242 1.855 1.242 3.128 0 .92-.23 1.756-.69 2.507-.46.736-1.15 1.326-2.07 1.771-.905.429-2.016.644-3.335.644-1.15 0-2.254-.169-3.312-.506-1.058-.353-1.924-.836-2.599-1.449l1.058-1.817c.552.521 1.257.943 2.116 1.265a8.07 8.07 0 002.737.46c1.196 0 2.124-.253 2.783-.759.675-.506 1.012-1.204 1.012-2.093s-.33-1.579-.989-2.07c-.659-.491-1.656-.736-2.99-.736h-1.288v-1.61l4.048-4.968h-7.751v-2.001h10.626v1.564l-4.209 5.198zm-2.326 49.287v2.001h-11.569v-1.564l6.555-6.325c.798-.766 1.334-1.426 1.61-1.978a3.858 3.858 0 00.414-1.702c0-.843-.299-1.495-.897-1.955-.582-.475-1.426-.713-2.53-.713-1.778 0-3.151.583-4.117 1.748l-1.564-1.357c.629-.766 1.449-1.364 2.461-1.794 1.028-.429 2.17-.644 3.427-.644 1.687 0 3.029.407 4.025 1.219.997.798 1.495 1.886 1.495 3.266a5.56 5.56 0 01-.552 2.438c-.368.767-1.065 1.641-2.093 2.622l-4.922 4.738h8.257zm8.402 2.185c-1.273 0-2.407-.322-3.404-.966-.981-.659-1.756-1.61-2.323-2.852-.567-1.242-.851-2.714-.851-4.416 0-1.702.284-3.174.851-4.416.567-1.242 1.342-2.185 2.323-2.829.997-.659 2.131-.989 3.404-.989 1.257 0 2.377.33 3.358.989.997.644 1.779 1.587 2.346 2.829.567 1.242.851 2.714.851 4.416 0 1.702-.284 3.174-.851 4.416-.567 1.242-1.349 2.193-2.346 2.852-.981.644-2.101.966-3.358.966zm0-2.047c1.288 0 2.315-.529 3.082-1.587.782-1.058 1.173-2.591 1.173-4.6 0-2.008-.391-3.542-1.173-4.6-.767-1.058-1.794-1.587-3.082-1.587-1.303 0-2.346.529-3.128 1.587-.767 1.058-1.15 2.592-1.15 4.6 0 2.009.383 3.542 1.15 4.6.782 1.058 1.825 1.587 3.128 1.587zm-8.402 41.813v2.001h-11.569v-1.564l6.555-6.325c.798-.766 1.334-1.426 1.61-1.978a3.858 3.858 0 00.414-1.702c0-.843-.299-1.495-.897-1.955-.582-.475-1.426-.713-2.53-.713-1.778 0-3.151.583-4.117 1.748l-1.564-1.357c.629-.766 1.449-1.364 2.461-1.794 1.028-.429 2.17-.644 3.427-.644 1.687 0 3.029.407 4.025 1.219.997.798 1.495 1.886 1.495 3.266a5.56 5.56 0 01-.552 2.438c-.368.767-1.065 1.641-2.093 2.622l-4.922 4.738h8.257zm13.554-14.099v1.564l-6.509 14.536h-2.438l6.371-14.099h-7.36v2.875h-2.208v-4.876h12.144zM273.62 166.513c2.162 0 3.826.698 4.991 2.093 1.181 1.395 1.771 3.373 1.771 5.934 0 1.794-.322 3.327-.966 4.6-.629 1.257-1.518 2.216-2.668 2.875-1.135.644-2.461.966-3.979.966-.782 0-1.518-.077-2.208-.23-.69-.169-1.288-.406-1.794-.713l.874-1.794c.782.506 1.817.759 3.105.759 1.671 0 2.975-.514 3.91-1.541.951-1.043 1.426-2.553 1.426-4.531v-.575c-.46.69-1.096 1.219-1.909 1.587-.813.353-1.725.529-2.737.529-1.058 0-2.009-.199-2.852-.598a4.699 4.699 0 01-1.955-1.702c-.46-.751-.69-1.61-.69-2.576 0-1.012.245-1.901.736-2.668a4.998 4.998 0 012.047-1.771c.859-.429 1.825-.644 2.898-.644zm.207 8.096c.721 0 1.365-.138 1.932-.414.567-.276 1.004-.652 1.311-1.127a2.766 2.766 0 00.483-1.587c0-.567-.153-1.081-.46-1.541-.291-.475-.728-.851-1.311-1.127-.567-.291-1.257-.437-2.07-.437-1.058 0-1.917.284-2.576.851-.644.567-.966 1.326-.966 2.277 0 .951.33 1.71.989 2.277.659.552 1.549.828 2.668.828zm-.437 34.04v16.1h-2.277V210.65h-3.634v-2.001h5.911zm10.468 6.325c1.058 0 2.001.199 2.829.598.843.399 1.502.974 1.978 1.725.475.736.713 1.587.713 2.553 0 1.012-.253 1.901-.759 2.668-.491.767-1.173 1.365-2.047 1.794-.859.414-1.825.621-2.898.621-2.162 0-3.834-.698-5.014-2.093-1.166-1.395-1.748-3.373-1.748-5.934 0-1.794.314-3.32.943-4.577.644-1.273 1.533-2.231 2.668-2.875 1.15-.659 2.484-.989 4.002-.989.782 0 1.518.084 2.208.253.69.153 1.288.383 1.794.69l-.874 1.794c-.767-.506-1.794-.759-3.082-.759-1.672 0-2.983.521-3.933 1.564-.951 1.027-1.426 2.53-1.426 4.508 0 .245.007.437.023.575a4.3 4.3 0 011.886-1.564c.812-.368 1.725-.552 2.737-.552zm-.276 8.096c1.058 0 1.916-.284 2.576-.851.659-.567.989-1.326.989-2.277 0-.951-.338-1.702-1.012-2.254-.66-.567-1.549-.851-2.668-.851-.721 0-1.365.138-1.932.414a3.367 3.367 0 00-1.311 1.127 2.862 2.862 0 00-.46 1.587c0 .567.145 1.089.437 1.564.306.46.743.836 1.311 1.127.582.276 1.272.414 2.07.414zm-3.867 41.628v2.001h-11.569v-1.564l6.555-6.325c.797-.766 1.334-1.426 1.61-1.978a3.858 3.858 0 00.414-1.702c0-.843-.299-1.495-.897-1.955-.583-.475-1.426-.713-2.53-.713-1.779 0-3.151.583-4.117 1.748l-1.564-1.357c.629-.766 1.449-1.364 2.461-1.794 1.027-.429 2.17-.644 3.427-.644 1.687 0 3.028.407 4.025 1.219.997.798 1.495 1.886 1.495 3.266a5.56 5.56 0 01-.552 2.438c-.368.767-1.066 1.641-2.093 2.622l-4.922 4.738h8.257zm8.055-7.337c1.579.154 2.783.644 3.611 1.472.828.813 1.242 1.856 1.242 3.128 0 .92-.23 1.756-.69 2.507-.46.736-1.15 1.327-2.07 1.771-.905.43-2.016.644-3.335.644-1.15 0-2.254-.168-3.312-.506-1.058-.352-1.924-.835-2.599-1.449l1.058-1.817c.552.522 1.257.943 2.116 1.265a8.07 8.07 0 002.737.46c1.196 0 2.124-.253 2.783-.759.675-.506 1.012-1.203 1.012-2.093 0-.889-.33-1.579-.989-2.07-.659-.49-1.656-.736-2.99-.736h-1.288v-1.61l4.048-4.968h-7.751v-2.001h10.626v1.564l-4.209 5.198zm-12.168 41.951c1.579.154 2.783.644 3.611 1.472.828.813 1.242 1.856 1.242 3.128 0 .92-.23 1.756-.69 2.507-.46.736-1.15 1.327-2.07 1.771-.905.43-2.016.644-3.335.644-1.15 0-2.254-.168-3.312-.506-1.058-.352-1.924-.835-2.599-1.449l1.058-1.817c.552.522 1.257.943 2.116 1.265a8.07 8.07 0 002.737.46c1.196 0 2.124-.253 2.783-.759.675-.506 1.012-1.203 1.012-2.093 0-.889-.33-1.579-.989-2.07-.659-.49-1.656-.736-2.99-.736h-1.288v-1.61l4.048-4.968h-7.751v-2.001h10.626v1.564l-4.209 5.198zm13.576 9.522c-1.273 0-2.407-.322-3.404-.966-.981-.659-1.756-1.61-2.323-2.852-.567-1.242-.851-2.714-.851-4.416 0-1.702.284-3.174.851-4.416.567-1.242 1.342-2.185 2.323-2.829.997-.659 2.131-.989 3.404-.989 1.257 0 2.377.33 3.358.989.997.644 1.779 1.587 2.346 2.829.567 1.242.851 2.714.851 4.416 0 1.702-.284 3.174-.851 4.416-.567 1.242-1.349 2.193-2.346 2.852-.981.644-2.101.966-3.358.966zm0-2.047c1.288 0 2.315-.529 3.082-1.587.782-1.058 1.173-2.591 1.173-4.6 0-2.008-.391-3.542-1.173-4.6-.767-1.058-1.794-1.587-3.082-1.587-1.303 0-2.346.529-3.128 1.587-.767 1.058-1.15 2.592-1.15 4.6 0 2.009.383 3.542 1.15 4.6.782 1.058 1.825 1.587 3.128 1.587zm36.017-140.09v16.1h-2.277v-14.099h-3.634v-2.001h5.911zm10.099 16.284c-1.272 0-2.407-.322-3.404-.966-.981-.659-1.755-1.61-2.323-2.852-.567-1.242-.851-2.714-.851-4.416 0-1.702.284-3.174.851-4.416.568-1.242 1.342-2.185 2.323-2.829.997-.659 2.132-.989 3.404-.989 1.258 0 2.377.33 3.358.989.997.644 1.779 1.587 2.346 2.829.568 1.242.851 2.714.851 4.416 0 1.702-.283 3.174-.851 4.416-.567 1.242-1.349 2.193-2.346 2.852-.981.644-2.1.966-3.358.966zm0-2.047c1.288 0 2.316-.529 3.082-1.587.782-1.058 1.173-2.591 1.173-4.6 0-2.009-.391-3.542-1.173-4.6-.766-1.058-1.794-1.587-3.082-1.587-1.303 0-2.346.529-3.128 1.587-.766 1.058-1.15 2.591-1.15 4.6 0 2.009.384 3.542 1.15 4.6.782 1.058 1.825 1.587 3.128 1.587zm-13.205 27.715v16.1h-2.277V210.65h-3.634v-2.001h5.911zm15.252 0v1.564l-6.509 14.536h-2.438l6.371-14.099h-7.36v2.875h-2.208v-4.876h12.144zm-8.927 56.049v2.001h-11.569v-1.564l6.555-6.325c.797-.766 1.334-1.426 1.61-1.978a3.858 3.858 0 00.414-1.702c0-.843-.299-1.495-.897-1.955-.583-.475-1.426-.713-2.53-.713-1.779 0-3.151.583-4.117 1.748l-1.564-1.357c.629-.766 1.449-1.364 2.461-1.794 1.027-.429 2.17-.644 3.427-.644 1.687 0 3.028.407 4.025 1.219.997.798 1.495 1.886 1.495 3.266a5.56 5.56 0 01-.552 2.438c-.368.767-1.066 1.641-2.093 2.622l-4.922 4.738h8.257zm15.471-1.955h-3.059v3.956h-2.231v-3.956h-8.947v-1.61l8.234-10.534h2.484l-7.889 10.166h6.187v-3.496h2.162v3.496h3.059v1.978zm-20.623 36.569c1.579.154 2.783.644 3.611 1.472.828.813 1.242 1.856 1.242 3.128 0 .92-.23 1.756-.69 2.507-.46.736-1.15 1.327-2.07 1.771-.905.43-2.016.644-3.335.644-1.15 0-2.254-.168-3.312-.506-1.058-.352-1.924-.835-2.599-1.449l1.058-1.817c.552.522 1.257.943 2.116 1.265a8.07 8.07 0 002.737.46c1.196 0 2.124-.253 2.783-.759.675-.506 1.012-1.203 1.012-2.093 0-.889-.33-1.579-.989-2.07-.659-.49-1.656-.736-2.99-.736h-1.288v-1.61l4.048-4.968h-7.751v-2.001h10.626v1.564l-4.209 5.198zm11.989-6.762v16.1h-2.277v-14.099h-3.634v-2.001h5.911z" fill="#555252"/></svg>