<svg width="347" height="277" fill="none" xmlns="http://www.w3.org/2000/svg"><path d="M132.009 17.144c0 2.583-.899 4.624-2.696 6.121-1.797 1.498-4.352 2.312-7.666 2.443v2.078h-3.369v-2.078c-3.314-.168-5.878-.992-7.694-2.47-1.797-1.48-2.696-3.51-2.696-6.094 0-2.583.899-4.615 2.696-6.093 1.816-1.498 4.38-2.331 7.694-2.5V6.558h3.369V8.55c3.314.169 5.869 1.002 7.666 2.5 1.797 1.478 2.696 3.51 2.696 6.093zm-10.362 5.7c2.247-.168 3.95-.73 5.111-1.685 1.16-.973 1.741-2.32 1.741-4.043 0-1.722-.59-3.06-1.769-4.016-1.161-.954-2.855-1.507-5.083-1.656v11.4zm-10.193-5.7c0 1.703.581 3.033 1.741 3.987 1.18.955 2.874 1.526 5.083 1.713v-11.4c-4.549.337-6.824 2.237-6.824 5.7zm38.035 2.443c0 .243-.018.59-.056 1.039h-11.765c.206 1.104.739 1.984 1.6 2.64.88.636 1.966.954 3.257.954 1.648 0 3.005-.543 4.072-1.629l1.881 2.163c-.674.805-1.525 1.413-2.555 1.825-1.029.412-2.19.618-3.482.618-1.647 0-3.098-.328-4.352-.983-1.254-.655-2.228-1.563-2.921-2.724-.673-1.18-1.01-2.508-1.01-3.987 0-1.46.327-2.77.982-3.932a7.145 7.145 0 012.78-2.751c1.18-.656 2.509-.983 3.988-.983 1.46 0 2.761.327 3.903.983a6.63 6.63 0 012.695 2.723c.656 1.161.983 2.509.983 4.044zm-7.581-4.942c-1.124 0-2.078.337-2.864 1.01-.768.656-1.236 1.536-1.404 2.64h8.508c-.15-1.086-.609-1.965-1.376-2.64-.768-.673-1.722-1.01-2.864-1.01zm22.287 4.549c1.854.561 2.78 1.76 2.78 3.594 0 1.348-.505 2.387-1.516 3.117-1.011.73-2.509 1.095-4.493 1.095h-7.638V12.005h7.329c1.835 0 3.267.337 4.296 1.011 1.03.674 1.545 1.629 1.545 2.864 0 .768-.206 1.432-.618 1.994-.393.562-.955 1.002-1.685 1.32zm-7.525-.927h3.678c1.816 0 2.724-.627 2.724-1.881 0-1.217-.908-1.825-2.724-1.825h-3.678v3.706zm4.015 6.178c1.928 0 2.893-.627 2.893-1.882 0-.655-.225-1.142-.674-1.46-.45-.337-1.152-.505-2.106-.505h-4.128v3.847h4.015zm18.34-12.608c1.461 0 2.762.318 3.904.954a6.861 6.861 0 012.723 2.696c.656 1.16.983 2.5.983 4.016s-.327 2.864-.983 4.043a6.86 6.86 0 01-2.723 2.696c-1.142.636-2.443.955-3.904.955-2.021 0-3.622-.674-4.801-2.022v7.272h-3.51V12.005h3.341v1.966a5.46 5.46 0 012.134-1.6c.862-.356 1.807-.534 2.836-.534zm-.393 12.355c1.292 0 2.35-.43 3.173-1.292.843-.86 1.264-1.993 1.264-3.397 0-1.404-.421-2.537-1.264-3.398-.823-.861-1.881-1.292-3.173-1.292-.842 0-1.6.197-2.274.59a4.063 4.063 0 00-1.601 1.629c-.393.711-.589 1.535-.589 2.47 0 .937.196 1.76.589 2.472a4.26 4.26 0 001.601 1.656c.674.375 1.432.562 2.274.562zm16.892-12.355c2.209 0 3.894.533 5.055 1.6 1.179 1.049 1.769 2.64 1.769 4.774V27h-3.314v-1.825c-.43.655-1.048 1.16-1.853 1.516-.786.337-1.741.506-2.864.506-1.123 0-2.106-.188-2.948-.562-.843-.393-1.498-.927-1.966-1.6a4.193 4.193 0 01-.674-2.331c0-1.348.496-2.425 1.488-3.23 1.011-.823 2.593-1.235 4.746-1.235h3.875v-.225c0-1.048-.318-1.853-.955-2.414-.618-.562-1.544-.843-2.78-.843-.842 0-1.675.131-2.499.393-.805.262-1.488.627-2.05 1.095l-1.376-2.555c.787-.599 1.732-1.058 2.836-1.376a12.622 12.622 0 013.51-.477zm-.477 12.804c.88 0 1.657-.196 2.331-.59a3.338 3.338 0 001.46-1.74V20.57h-3.622c-2.022 0-3.033.664-3.033 1.993 0 .637.253 1.142.758 1.517.506.374 1.208.561 2.106.561zm25.235-12.636V27h-3.51V14.982h-5.616l-.14 2.976c-.094 1.985-.281 3.65-.562 4.998-.262 1.33-.721 2.387-1.376 3.174-.636.767-1.516 1.15-2.639 1.15-.525 0-1.17-.102-1.938-.308l.169-2.949c.262.057.486.085.673.085.712 0 1.245-.281 1.601-.843.356-.58.58-1.263.674-2.05.112-.804.206-1.946.281-3.425l.252-5.785h12.131zm12.253 4.942c1.909 0 3.369.43 4.38 1.292 1.03.861 1.544 2.078 1.544 3.65 0 1.648-.561 2.92-1.684 3.82-1.124.898-2.705 1.338-4.746 1.32l-7.02-.029V12.005h3.51v4.914l4.016.028zm-.815 7.498c1.03.018 1.816-.197 2.359-.646.543-.45.814-1.105.814-1.966 0-.842-.262-1.46-.786-1.853s-1.32-.599-2.387-.618l-3.201-.028v5.083l3.201.028zM16.801 78.724v16.38h-2.995V81.298H5.312v13.806H2.317v-16.38H16.8zm4.291 3.884h2.925v5.078h6.295v-5.078h2.925v12.496h-2.925v-4.937h-6.295v4.937h-2.925V82.608zm47.391 3.978c1.045.281 1.84.765 2.387 1.451.546.671.819 1.513.819 2.527 0 1.436-.53 2.551-1.591 3.347-1.061.795-2.598 1.193-4.61 1.193h-7.77v-16.38h7.325c1.84 0 3.276.367 4.306 1.1 1.03.733 1.544 1.77 1.544 3.112 0 .858-.21 1.599-.632 2.223-.405.624-.998 1.1-1.778 1.427zm-7.769-.865h4.072c.983 0 1.731-.195 2.246-.585.515-.39.772-.968.772-1.732s-.257-1.342-.772-1.732c-.515-.405-1.263-.608-2.246-.608h-4.072v4.657zm4.68 7.043c2.153 0 3.23-.811 3.23-2.434 0-1.59-1.077-2.386-3.23-2.386h-4.68v4.82h4.68zm19.33-7.675H80.35v10.015h-2.925V85.089h-4.4v-2.48h11.7v2.48zm30.76 10.249c-1.653 0-3.151-.359-4.493-1.076a8.209 8.209 0 01-3.135-3.019c-.749-1.28-1.123-2.722-1.123-4.329 0-1.607.382-3.05 1.146-4.329a8.048 8.048 0 013.136-2.995c1.341-.733 2.839-1.1 4.493-1.1 1.341 0 2.566.234 3.673.702a7.487 7.487 0 012.808 2.036l-1.965 1.848c-1.186-1.279-2.644-1.918-4.376-1.918-1.123 0-2.129.25-3.019.748a5.228 5.228 0 00-2.082 2.036c-.499.874-.749 1.864-.749 2.972 0 1.108.25 2.098.749 2.972a5.39 5.39 0 002.082 2.059c.89.484 1.896.725 3.019.725 1.732 0 3.19-.647 4.376-1.942l1.965 1.872a7.451 7.451 0 01-2.831 2.036c-1.108.468-2.332.702-3.674.702zm15.929-12.87c1.217 0 2.301.265 3.252.796a5.712 5.712 0 012.27 2.246c.546.967.819 2.083.819 3.346 0 1.264-.273 2.387-.819 3.37a5.712 5.712 0 01-2.27 2.246c-.951.53-2.035.796-3.252.796-1.685 0-3.019-.562-4.002-1.685v6.06h-2.925V82.609h2.785v1.638a4.545 4.545 0 011.778-1.333c.718-.297 1.506-.445 2.364-.445zm-.328 10.296c1.077 0 1.958-.359 2.644-1.076.702-.718 1.053-1.662 1.053-2.832s-.351-2.114-1.053-2.831c-.686-.718-1.567-1.077-2.644-1.077-.702 0-1.334.164-1.895.492a3.387 3.387 0 00-1.334 1.357c-.328.593-.491 1.28-.491 2.06s.163 1.466.491 2.058a3.55 3.55 0 001.334 1.381c.561.312 1.193.468 1.895.468zm42.469-14.04v16.38h-3.019v-6.178c-1.544.578-3.01.866-4.399.866-2.09 0-3.705-.499-4.844-1.497-1.123-1.014-1.684-2.465-1.684-4.353v-5.218h3.018v4.89c0 1.155.336 2.036 1.006 2.645.671.608 1.631.912 2.879.912a9.57 9.57 0 004.024-.865v-7.582h3.019zm14.161 6.365h-4.375v10.015h-2.925V85.089h-4.4v-2.48h11.7v2.48zm36.539-6.365v16.38h-2.995V81.298h-8.494v13.806h-2.995v-16.38h14.484zm14.19 6.365h-4.376v10.015h-2.925V85.089h-4.399v-2.48h11.7v2.48zm30.38 10.249c-1.654 0-3.151-.359-4.493-1.076a8.209 8.209 0 01-3.135-3.019c-.749-1.28-1.124-2.722-1.124-4.329 0-1.607.383-3.05 1.147-4.329a8.04 8.04 0 013.136-2.995c1.341-.733 2.839-1.1 4.492-1.1 1.342 0 2.567.234 3.674.702a7.487 7.487 0 012.808 2.036l-1.965 1.848c-1.186-1.279-2.645-1.918-4.376-1.918-1.123 0-2.13.25-3.019.748a5.228 5.228 0 00-2.082 2.036c-.5.874-.749 1.864-.749 2.972 0 1.108.249 2.098.749 2.972a5.39 5.39 0 002.082 2.059c.889.484 1.896.725 3.019.725 1.731 0 3.19-.647 4.376-1.942l1.965 1.872a7.451 7.451 0 01-2.831 2.036c-1.108.468-2.332.702-3.674.702zm15.422-12.121c1.186 0 2.231.257 3.136.772a5.272 5.272 0 012.106 2.106c.514.905.772 1.942.772 3.112 0 1.201-.281 2.27-.843 3.206-.561.92-1.349 1.638-2.363 2.153-1.014.515-2.168.772-3.463.772-2.169 0-3.846-.718-5.031-2.153-1.186-1.435-1.779-3.502-1.779-6.2 0-2.512.539-4.501 1.615-5.968 1.076-1.466 2.722-2.433 4.937-2.901l5.804-1.24.421 2.62-5.265 1.077c-1.513.312-2.644.842-3.393 1.59-.749.75-1.186 1.803-1.311 3.16a5.663 5.663 0 012.036-1.545c.796-.374 1.669-.561 2.621-.561zm-.585 9.758c1.076 0 1.942-.344 2.597-1.03.671-.702 1.007-1.591 1.007-2.668 0-1.076-.336-1.942-1.007-2.597-.655-.655-1.521-.983-2.597-.983-1.092 0-1.973.328-2.644.983s-1.006 1.521-1.006 2.597c0 1.092.335 1.982 1.006 2.668.686.686 1.568 1.03 2.644 1.03zm41.24-6.389c1.045.281 1.841.765 2.387 1.451.546.671.819 1.513.819 2.527 0 1.436-.531 2.551-1.591 3.347-1.061.795-2.598 1.193-4.61 1.193h-7.769v-16.38h7.324c1.841 0 3.276.367 4.306 1.1 1.029.733 1.544 1.77 1.544 3.112 0 .858-.21 1.599-.632 2.223-.405.624-.998 1.1-1.778 1.427zm-7.769-.865h4.072c.983 0 1.731-.195 2.246-.585.515-.39.772-.968.772-1.732s-.257-1.342-.772-1.732c-.515-.405-1.263-.608-2.246-.608h-4.072v4.657zm4.68 7.043c2.153 0 3.229-.811 3.229-2.434 0-1.59-1.076-2.386-3.229-2.386h-4.68v4.82h4.68zm15.119 2.504c-1.295 0-2.457-.273-3.487-.82a6.04 6.04 0 01-2.41-2.269c-.577-.983-.866-2.09-.866-3.323 0-1.232.289-2.332.866-3.3a6.078 6.078 0 012.387-2.269c1.029-.546 2.199-.819 3.51-.819 1.232 0 2.309.25 3.229.749a4.844 4.844 0 012.106 2.153l-2.246 1.31c-.359-.577-.812-1.006-1.358-1.287a3.534 3.534 0 00-1.755-.445c-1.092 0-1.996.36-2.714 1.077-.718.702-1.076 1.646-1.076 2.831 0 1.186.351 2.137 1.053 2.855.717.702 1.63 1.053 2.737 1.053.64 0 1.225-.14 1.755-.421a3.642 3.642 0 001.358-1.31l2.246 1.31a5.118 5.118 0 01-2.129 2.176c-.921.5-1.989.749-3.206.749zM20.162 178.31c.936.358 1.653.873 2.153 1.544.499.671.748 1.474.748 2.41 0 .983-.265 1.841-.795 2.574-.53.718-1.287 1.272-2.27 1.662-.983.39-2.137.585-3.463.585-1.31 0-2.457-.195-3.44-.585-.967-.39-1.716-.944-2.246-1.662-.53-.733-.796-1.591-.796-2.574 0-.936.242-1.739.725-2.41.5-.671 1.217-1.186 2.153-1.544-.749-.359-1.318-.835-1.708-1.428-.39-.593-.585-1.295-.585-2.106 0-.905.242-1.692.725-2.363.5-.671 1.194-1.186 2.083-1.545.89-.358 1.919-.538 3.089-.538 1.185 0 2.223.18 3.112.538.905.359 1.599.874 2.083 1.545.499.671.748 1.458.748 2.363 0 .796-.202 1.498-.608 2.106-.39.593-.96 1.069-1.708 1.428zm-3.627-6.084c-1.108 0-1.981.241-2.621.725-.64.468-.96 1.108-.96 1.919 0 .811.313 1.451.937 1.919.64.468 1.52.702 2.644.702 1.139 0 2.028-.234 2.667-.702.656-.468.983-1.108.983-1.919 0-.811-.335-1.451-1.006-1.919-.655-.484-1.537-.725-2.644-.725zm0 12.963c1.295 0 2.316-.265 3.065-.795.749-.546 1.123-1.28 1.123-2.2 0-.905-.374-1.615-1.123-2.129-.749-.531-1.77-.796-3.065-.796s-2.309.265-3.042.796c-.733.514-1.1 1.224-1.1 2.129 0 .92.367 1.654 1.1 2.2.733.53 1.747.795 3.042.795zm-5.463 27.28v16.38H8.755v-14.344H5.058v-2.036h6.014zm8.263 6.529c2.34 0 4.056.444 5.148 1.334 1.108.873 1.661 2.074 1.661 3.603 0 .967-.234 1.841-.702 2.621-.452.764-1.146 1.373-2.082 1.825-.92.437-2.06.655-3.417.655-1.154 0-2.27-.171-3.346-.514-1.076-.359-1.965-.851-2.667-1.475l1.076-1.848c.562.53 1.28.959 2.153 1.287a8.147 8.147 0 002.761.468c1.232 0 2.184-.258 2.855-.772.686-.531 1.03-1.248 1.03-2.153 0-.983-.375-1.724-1.124-2.223-.749-.515-2.028-.772-3.837-.772h-3.721l.866-8.565h9.243v2.036h-7.278l-.444 4.493h1.825zm-1.828 49.766v2.036H5.737v-1.591l6.669-6.435c.811-.78 1.357-1.451 1.638-2.013.28-.577.421-1.154.421-1.731 0-.858-.304-1.521-.912-1.989-.593-.484-1.451-.726-2.575-.726-1.81 0-3.205.593-4.188 1.779l-1.591-1.381c.64-.78 1.474-1.388 2.503-1.825 1.046-.437 2.208-.655 3.487-.655 1.716 0 3.081.413 4.095 1.24 1.014.811 1.521 1.919 1.521 3.323 0 .873-.187 1.7-.561 2.48-.375.78-1.085 1.669-2.13 2.668l-5.008 4.82h8.401zm13.437 0v2.036h-11.77v-1.591l6.669-6.435c.81-.78 1.357-1.451 1.638-2.013.28-.577.42-1.154.42-1.731 0-.858-.303-1.521-.912-1.989-.593-.484-1.45-.726-2.574-.726-1.81 0-3.206.593-4.188 1.779l-1.592-1.381c.64-.78 1.475-1.388 2.504-1.825 1.045-.437 2.208-.655 3.487-.655 1.716 0 3.08.413 4.095 1.24 1.014.811 1.52 1.919 1.52 3.323 0 .873-.186 1.7-.56 2.48-.375.78-1.085 1.669-2.13 2.668l-5.008 4.82h8.4zm148.074-127.843h-3.112v4.025h-2.27v-4.025h-9.102v-1.638l8.377-10.717h2.527l-8.026 10.343h6.295v-3.557h2.199v3.557h3.112v2.012z" fill="#555252"/><path d="M221.71 132.002c3.078 0 5.356.604 6.832 1.81 1.477 1.186 2.216 2.808 2.216 4.867 0 1.311-.323 2.496-.968 3.557-.644 1.061-1.612 1.903-2.901 2.527-1.29.624-2.881.936-4.774.936-1.56 0-3.068-.218-4.524-.655-1.456-.458-2.683-1.082-3.681-1.872l1.716-3.151c.811.665 1.778 1.196 2.901 1.591 1.144.374 2.319.562 3.526.562 1.435 0 2.558-.292 3.369-.874.832-.603 1.248-1.425 1.248-2.465 0-1.123-.447-1.965-1.341-2.527-.874-.582-2.382-.874-4.524-.874h-5.273l1.123-11.887h12.823v3.401h-9.391l-.468 5.054h2.091z" fill="#FFA751"/><path d="M164.795 169.978v16.38h-2.317v-14.344h-3.697v-2.036h6.014zm8.66 0v16.38h-2.316v-14.344h-3.697v-2.036h6.013zm-8.66 42.157v16.38h-2.317v-14.344h-3.697v-2.036h6.014zm13.598 7.792c.936.359 1.653.874 2.153 1.545.499.671.748 1.474.748 2.41 0 .983-.265 1.841-.795 2.574-.531.718-1.287 1.271-2.27 1.661-.983.39-2.137.585-3.463.585-1.311 0-2.457-.195-3.44-.585-.967-.39-1.716-.943-2.246-1.661-.531-.733-.796-1.591-.796-2.574 0-.936.242-1.739.725-2.41.5-.671 1.217-1.186 2.153-1.545-.749-.358-1.318-.834-1.708-1.427-.39-.593-.585-1.295-.585-2.106 0-.905.242-1.693.725-2.363.5-.671 1.194-1.186 2.083-1.545.889-.359 1.919-.538 3.089-.538 1.185 0 2.223.179 3.112.538.905.359 1.599.874 2.083 1.545.499.67.748 1.458.748 2.363 0 .796-.202 1.498-.608 2.106-.39.593-.959 1.069-1.708 1.427zm-3.627-6.084c-1.108 0-1.981.242-2.621.726-.64.468-.959 1.107-.959 1.919 0 .811.312 1.45.936 1.918.639.468 1.521.702 2.644.702 1.139 0 2.028-.234 2.667-.702.656-.468.983-1.107.983-1.918 0-.812-.335-1.451-1.006-1.919-.655-.484-1.537-.726-2.644-.726zm0 12.964c1.295 0 2.316-.265 3.065-.796.749-.546 1.123-1.279 1.123-2.199 0-.905-.374-1.615-1.123-2.13-.749-.53-1.77-.795-3.065-.795s-2.309.265-3.042.795c-.733.515-1.1 1.225-1.1 2.13 0 .92.367 1.653 1.1 2.199.733.531 1.747.796 3.042.796zm-1.462 41.829v2.036h-11.77v-1.591l6.669-6.435c.811-.78 1.357-1.451 1.638-2.013a3.923 3.923 0 00.421-1.731c0-.858-.304-1.521-.913-1.989-.592-.484-1.45-.726-2.574-.726-1.809 0-3.205.593-4.188 1.779l-1.591-1.381c.639-.78 1.474-1.388 2.503-1.825 1.046-.437 2.208-.655 3.487-.655 1.716 0 3.081.413 4.095 1.24 1.014.811 1.521 1.919 1.521 3.323 0 .873-.187 1.7-.562 2.48-.374.78-1.084 1.669-2.129 2.668l-5.008 4.82h8.401zm6.604-7.816c2.34 0 4.056.445 5.148 1.334 1.107.874 1.661 2.075 1.661 3.604 0 .967-.234 1.841-.702 2.621-.452.764-1.146 1.372-2.082 1.825-.921.437-2.06.655-3.417.655-1.154 0-2.27-.172-3.346-.515-1.076-.359-1.966-.85-2.668-1.474l1.077-1.849c.561.531 1.279.96 2.153 1.287a8.145 8.145 0 002.761.468c1.232 0 2.184-.257 2.855-.772.686-.53 1.029-1.248 1.029-2.153 0-.982-.374-1.723-1.123-2.223-.749-.514-2.028-.772-3.838-.772h-3.72l.866-8.564h9.243v2.036h-7.278l-.444 4.492h1.825zM74.488 142.91v2.036h-11.77v-1.591l6.668-6.435c.812-.78 1.358-1.451 1.638-2.012a3.932 3.932 0 00.422-1.732c0-.858-.305-1.521-.913-1.989-.593-.484-1.45-.725-2.574-.725-1.81 0-3.206.592-4.189 1.778l-1.59-1.381c.639-.78 1.473-1.388 2.503-1.825 1.045-.437 2.207-.655 3.487-.655 1.716 0 3.08.413 4.095 1.24 1.014.811 1.52 1.919 1.52 3.323 0 .874-.187 1.7-.561 2.48-.374.78-1.084 1.67-2.13 2.668l-5.007 4.82h8.4z" fill="#555252"/><path d="M20.404 124.601v21.84h-4.056v-18.439H11.73v-3.401h8.674z" fill="#FFA751"/><path d="M61.423 169.791c2.2 0 3.892.71 5.078 2.129 1.201 1.42 1.802 3.432 1.802 6.038 0 1.825-.328 3.385-.983 4.68-.64 1.279-1.544 2.254-2.714 2.925-1.155.655-2.504.982-4.048.982-.796 0-1.545-.078-2.247-.234-.702-.171-1.31-.413-1.825-.725l.89-1.825c.795.515 1.848.772 3.158.772 1.7 0 3.026-.523 3.978-1.568.967-1.061 1.45-2.597 1.45-4.61v-.585c-.467.702-1.115 1.241-1.941 1.615-.827.359-1.755.538-2.785.538-1.076 0-2.043-.203-2.901-.608a4.783 4.783 0 01-1.99-1.732c-.468-.764-.701-1.638-.701-2.621 0-1.029.25-1.934.748-2.714a5.088 5.088 0 012.083-1.802c.873-.437 1.856-.655 2.948-.655zm.21 8.237c.734 0 1.39-.141 1.966-.421.578-.281 1.022-.663 1.334-1.147a2.817 2.817 0 00.492-1.615c0-.577-.156-1.099-.468-1.567-.297-.484-.741-.866-1.334-1.147-.577-.296-1.28-.445-2.106-.445-1.077 0-1.95.289-2.62.866-.656.577-.984 1.35-.984 2.317 0 .967.336 1.739 1.007 2.316.67.562 1.575.843 2.714.843zm-.443 34.107v16.38h-2.317v-14.344h-3.697v-2.036h6.013zm10.649 6.435c1.076 0 2.036.203 2.878.609.858.405 1.529.99 2.013 1.755.483.748.725 1.614.725 2.597 0 1.03-.257 1.934-.772 2.714-.5.78-1.194 1.389-2.083 1.826-.873.421-1.856.631-2.948.631-2.2 0-3.9-.709-5.101-2.129-1.186-1.42-1.779-3.432-1.779-6.037 0-1.825.32-3.378.96-4.657.655-1.295 1.56-2.27 2.714-2.925 1.17-.671 2.527-1.006 4.072-1.006.795 0 1.544.086 2.246.257.702.156 1.31.39 1.825.702l-.889 1.826c-.78-.515-1.825-.773-3.136-.773-1.7 0-3.034.531-4.001 1.592-.967 1.045-1.45 2.574-1.45 4.586 0 .25.007.445.023.585.468-.702 1.107-1.232 1.918-1.591.827-.375 1.755-.562 2.785-.562zm-.28 8.237c1.076 0 1.95-.289 2.62-.866.67-.577 1.006-1.349 1.006-2.316 0-.968-.343-1.732-1.03-2.294-.67-.577-1.575-.865-2.714-.865-.733 0-1.388.14-1.965.421a3.428 3.428 0 00-1.334 1.146 2.917 2.917 0 00-.468 1.615c0 .577.148 1.108.444 1.591.312.468.757.85 1.334 1.147.593.281 1.295.421 2.106.421zm-2.896 41.829v2.036h-11.77v-1.591l6.67-6.435c.81-.78 1.356-1.451 1.637-2.013.28-.577.421-1.154.421-1.731 0-.858-.304-1.521-.912-1.989-.593-.484-1.451-.726-2.574-.726-1.81 0-3.206.593-4.189 1.779l-1.591-1.381c.64-.78 1.474-1.388 2.504-1.825 1.045-.437 2.207-.655 3.486-.655 1.716 0 3.081.413 4.095 1.24 1.014.811 1.521 1.919 1.521 3.323 0 .873-.187 1.7-.561 2.48-.375.78-1.085 1.669-2.13 2.668l-5.007 4.82h8.4zm8.196-7.465c1.606.156 2.83.656 3.673 1.498.843.827 1.264 1.888 1.264 3.182 0 .936-.234 1.787-.702 2.551-.468.749-1.17 1.349-2.106 1.802-.92.437-2.052.655-3.393.655-1.17 0-2.293-.172-3.37-.515-1.076-.359-1.957-.85-2.644-1.474l1.076-1.849c.562.531 1.28.96 2.153 1.287a8.217 8.217 0 002.785.468c1.217 0 2.16-.257 2.831-.772.687-.515 1.03-1.224 1.03-2.129s-.335-1.607-1.006-2.106c-.671-.499-1.685-.749-3.042-.749h-1.31v-1.638l4.118-5.054H70.33v-2.036h10.81v1.591l-4.281 5.288zm138.701-91.193v16.38h-2.316v-14.344h-3.697v-2.036h6.013zm15.096 14.344v2.036h-11.77v-1.591l6.669-6.435c.811-.78 1.357-1.451 1.638-2.012a3.93 3.93 0 00.421-1.732c0-.858-.304-1.521-.912-1.989-.593-.484-1.451-.725-2.574-.725-1.81 0-3.206.592-4.189 1.778l-1.591-1.381c.639-.78 1.474-1.388 2.504-1.825 1.045-.437 2.207-.655 3.486-.655 1.716 0 3.081.413 4.095 1.24 1.014.811 1.521 1.919 1.521 3.323 0 .874-.187 1.7-.561 2.48-.375.78-1.085 1.67-2.13 2.668l-5.007 4.82h8.4zm-14.064 27.813v16.38h-2.317v-14.344h-3.697v-2.036h6.014zm8.894-.187c2.2 0 3.893.71 5.078 2.129 1.201 1.42 1.802 3.432 1.802 6.038 0 1.825-.328 3.385-.983 4.68-.639 1.279-1.544 2.254-2.714 2.925-1.155.655-2.504.982-4.048.982-.796 0-1.545-.078-2.247-.234-.702-.171-1.31-.413-1.825-.725l.889-1.825c.796.515 1.849.772 3.159.772 1.701 0 3.027-.523 3.978-1.568.967-1.061 1.451-2.597 1.451-4.61v-.585c-.468.702-1.115 1.241-1.942 1.615-.827.359-1.755.538-2.785.538-1.076 0-2.043-.203-2.901-.608-.843-.406-1.506-.983-1.989-1.732-.468-.764-.702-1.638-.702-2.621 0-1.029.249-1.934.748-2.714a5.088 5.088 0 012.083-1.802c.874-.437 1.856-.655 2.948-.655zm.211 8.237c.733 0 1.388-.141 1.966-.421.577-.281 1.021-.663 1.333-1.147a2.814 2.814 0 00.492-1.615c0-.577-.156-1.099-.468-1.567-.297-.484-.741-.866-1.334-1.147-.577-.296-1.279-.445-2.106-.445-1.076 0-1.95.289-2.621.866-.655.577-.983 1.35-.983 2.317 0 .967.336 1.739 1.007 2.316.67.562 1.575.843 2.714.843zm-.596 48.451v2.036h-11.77v-1.591l6.669-6.435c.811-.78 1.357-1.451 1.638-2.013.28-.577.421-1.154.421-1.731 0-.858-.304-1.521-.913-1.989-.593-.484-1.451-.726-2.574-.726-1.809 0-3.206.593-4.188 1.779l-1.592-1.381c.64-.78 1.475-1.388 2.504-1.825 1.045-.437 2.208-.655 3.487-.655 1.716 0 3.081.413 4.095 1.24 1.014.811 1.521 1.919 1.521 3.323 0 .873-.187 1.7-.562 2.48-.374.78-1.084 1.669-2.129 2.668l-5.008 4.82h8.401zm8.922-7.909c1.076 0 2.036.203 2.878.608.858.406 1.529.991 2.013 1.755.483.749.725 1.615.725 2.598 0 1.029-.257 1.934-.772 2.714-.499.78-1.194 1.388-2.083 1.825-.873.421-1.856.632-2.948.632-2.2 0-3.9-.71-5.101-2.129-1.186-1.42-1.779-3.432-1.779-6.038 0-1.825.32-3.377.96-4.656.655-1.295 1.56-2.27 2.714-2.925 1.17-.671 2.527-1.006 4.072-1.006.795 0 1.544.085 2.246.257.702.156 1.31.39 1.825.702l-.889 1.825c-.78-.515-1.825-.772-3.136-.772-1.7 0-3.034.53-4.001 1.591-.967 1.045-1.451 2.574-1.451 4.587 0 .249.008.444.024.585a4.378 4.378 0 011.918-1.592c.827-.374 1.755-.561 2.785-.561zm-.281 8.237c1.077 0 1.95-.289 2.621-.866s1.006-1.35 1.006-2.317c0-.967-.343-1.731-1.029-2.293-.671-.577-1.576-.866-2.715-.866-.733 0-1.388.141-1.965.421a3.416 3.416 0 00-1.334 1.147 2.917 2.917 0 00-.468 1.615c0 .577.148 1.107.444 1.591.312.468.757.85 1.334 1.146.593.281 1.295.422 2.106.422zM119.5 135.446c1.607.156 2.831.655 3.674 1.497.842.827 1.263 1.888 1.263 3.183 0 .936-.234 1.786-.702 2.55-.468.749-1.17 1.35-2.106 1.802-.92.437-2.051.655-3.393.655-1.17 0-2.293-.171-3.369-.514-1.077-.359-1.958-.851-2.645-1.475l1.077-1.848c.561.53 1.279.959 2.153 1.287a8.21 8.21 0 002.784.468c1.217 0 2.161-.258 2.832-.772.686-.515 1.029-1.225 1.029-2.13 0-.905-.335-1.607-1.006-2.106-.671-.499-1.685-.749-3.042-.749h-1.31v-1.638l4.118-5.054h-7.886v-2.036h10.811v1.591l-4.282 5.289zm-11.69 34.532v16.38h-2.316v-14.344h-3.697v-2.036h6.013zm10.276 16.567c-1.295 0-2.449-.327-3.463-.982-.999-.671-1.787-1.638-2.364-2.902-.577-1.264-.866-2.761-.866-4.493 0-1.731.289-3.229.866-4.493.577-1.263 1.365-2.223 2.364-2.878 1.014-.671 2.168-1.006 3.463-1.006 1.279 0 2.418.335 3.416 1.006 1.014.655 1.81 1.615 2.387 2.878.577 1.264.866 2.762.866 4.493 0 1.732-.289 3.229-.866 4.493-.577 1.264-1.373 2.231-2.387 2.902-.998.655-2.137.982-3.416.982zm0-2.082c1.31 0 2.355-.538 3.135-1.615.796-1.076 1.194-2.636 1.194-4.68 0-2.043-.398-3.603-1.194-4.68-.78-1.076-1.825-1.614-3.135-1.614-1.326 0-2.387.538-3.183 1.614-.78 1.077-1.17 2.637-1.17 4.68 0 2.044.39 3.604 1.17 4.68.796 1.077 1.857 1.615 3.183 1.615zm-5.092 27.672v16.38h-2.317v-14.344h-3.697v-2.036h6.014zm15.517 0v1.591l-6.622 14.789h-2.481l6.482-14.344h-7.488v2.925h-2.246v-4.961h12.355zm-8.043 56.501v2.036h-11.77v-1.591l6.669-6.435c.811-.78 1.357-1.451 1.638-2.013a3.923 3.923 0 00.421-1.731c0-.858-.304-1.521-.913-1.989-.592-.484-1.45-.726-2.574-.726-1.809 0-3.205.593-4.188 1.779l-1.591-1.381c.639-.78 1.474-1.388 2.503-1.825 1.046-.437 2.208-.655 3.487-.655 1.716 0 3.081.413 4.095 1.24 1.014.811 1.521 1.919 1.521 3.323 0 .873-.187 1.7-.562 2.48-.374.78-1.084 1.669-2.129 2.668l-5.008 4.82h8.401zm15.74-1.989h-3.112v4.025h-2.27v-4.025h-9.102v-1.638l8.377-10.717h2.527l-8.026 10.343h6.295v-3.557h2.199v3.557h3.112v2.012zm137.42-131.646c1.076 0 2.035.203 2.878.609.858.405 1.528.99 2.012 1.755.484.748.726 1.614.726 2.597 0 1.03-.258 1.934-.773 2.714-.499.78-1.193 1.389-2.082 1.826-.874.421-1.857.631-2.949.631-2.199 0-3.9-.709-5.101-2.129-1.185-1.42-1.778-3.432-1.778-6.037 0-1.825.319-3.378.959-4.657.655-1.295 1.56-2.27 2.715-2.925 1.17-.671 2.527-1.006 4.071-1.006a9.47 9.47 0 012.247.257c.702.156 1.31.39 1.825.702l-.889 1.826c-.78-.515-1.826-.773-3.136-.773-1.7 0-3.034.531-4.001 1.592-.968 1.045-1.451 2.574-1.451 4.586 0 .25.008.445.023.585.468-.702 1.108-1.232 1.919-1.591.827-.375 1.755-.562 2.785-.562zm-.281 8.237c1.076 0 1.95-.289 2.621-.866.67-.577 1.006-1.349 1.006-2.316 0-.968-.343-1.732-1.03-2.294-.671-.577-1.575-.865-2.714-.865-.733 0-1.389.14-1.966.421a3.436 3.436 0 00-1.334 1.146 2.917 2.917 0 00-.468 1.615c0 .577.149 1.108.445 1.591.312.468.757.85 1.334 1.147.593.281 1.295.421 2.106.421zm-3.912 26.74v16.38h-2.316v-14.344h-3.697v-2.036h6.013zm9.855 6.88c1.606.156 2.831.655 3.673 1.497.843.827 1.264 1.888 1.264 3.183 0 .936-.234 1.786-.702 2.55-.468.749-1.17 1.35-2.106 1.802-.92.437-2.051.655-3.393.655-1.17 0-2.293-.171-3.37-.514-1.076-.359-1.957-.851-2.644-1.475l1.077-1.848c.561.53 1.279.959 2.152 1.287a8.22 8.22 0 002.785.468c1.217 0 2.161-.258 2.831-.772.687-.515 1.03-1.225 1.03-2.13 0-.905-.335-1.607-1.006-2.106-.671-.499-1.685-.749-3.042-.749h-1.311v-1.638l4.119-5.054h-7.886v-2.036h10.811v1.591l-4.282 5.289zm-4.459 49.621v2.036h-11.77v-1.591l6.669-6.435c.811-.78 1.357-1.451 1.638-2.012a3.93 3.93 0 00.421-1.732c0-.858-.304-1.521-.912-1.989-.593-.484-1.451-.725-2.574-.725-1.81 0-3.206.592-4.189 1.778l-1.591-1.381c.64-.78 1.474-1.388 2.504-1.825 1.045-.437 2.207-.655 3.486-.655 1.716 0 3.081.413 4.095 1.24 1.014.811 1.521 1.919 1.521 3.323 0 .874-.187 1.7-.561 2.48-.375.78-1.084 1.67-2.13 2.668l-5.007 4.82h8.4zm8.548 2.223c-1.295 0-2.449-.327-3.463-.982-.999-.671-1.786-1.638-2.364-2.902-.577-1.264-.865-2.761-.865-4.493 0-1.731.288-3.229.865-4.493.578-1.263 1.365-2.223 2.364-2.878 1.014-.671 2.168-1.006 3.463-1.006 1.279 0 2.418.335 3.416 1.006 1.014.655 1.81 1.615 2.387 2.878.577 1.264.866 2.762.866 4.493 0 1.732-.289 3.229-.866 4.493-.577 1.264-1.373 2.231-2.387 2.902-.998.655-2.137.982-3.416.982zm0-2.082c1.31 0 2.356-.538 3.136-1.615.795-1.076 1.193-2.636 1.193-4.68 0-2.043-.398-3.603-1.193-4.68-.78-1.076-1.826-1.614-3.136-1.614-1.326 0-2.387.538-3.182 1.614-.78 1.077-1.17 2.637-1.17 4.68 0 2.044.39 3.604 1.17 4.68.795 1.077 1.856 1.615 3.182 1.615zm-5.434 42.016v2.036h-11.771v-1.591l6.669-6.435c.812-.78 1.358-1.451 1.638-2.013a3.924 3.924 0 00.422-1.731c0-.858-.305-1.521-.913-1.989-.593-.484-1.451-.726-2.574-.726-1.81 0-3.206.593-4.189 1.779l-1.591-1.381c.64-.78 1.474-1.388 2.504-1.825 1.045-.437 2.207-.655 3.487-.655 1.716 0 3.081.413 4.095 1.24 1.014.811 1.521 1.919 1.521 3.323 0 .873-.188 1.7-.562 2.48-.374.78-1.084 1.669-2.129 2.668l-5.008 4.82h8.401zm13.789-14.344v1.591l-6.622 14.789h-2.481l6.482-14.344h-7.488v2.925h-2.246v-4.961h12.355zm38.3-125.726v1.591l-6.622 14.789h-2.481l6.482-14.344h-7.488v2.925h-2.246v-4.961h12.355zm-6.72 41.412v16.38h-2.316v-14.344H317.3v-2.036h6.014zm17.834 12.355h-3.112v4.025h-2.27v-4.025h-9.103v-1.638l8.377-10.717h2.528l-8.027 10.343h6.295v-3.557h2.2v3.557h3.112v2.012zm-9.328 44.146v2.036h-11.771v-1.591l6.669-6.435c.812-.78 1.358-1.451 1.638-2.012a3.932 3.932 0 00.422-1.732c0-.858-.305-1.521-.913-1.989-.593-.484-1.451-.725-2.574-.725-1.81 0-3.206.592-4.189 1.778l-1.591-1.381c.64-.78 1.474-1.388 2.504-1.825 1.045-.437 2.207-.655 3.487-.655 1.716 0 3.081.413 4.095 1.24 1.014.811 1.521 1.919 1.521 3.323 0 .874-.188 1.7-.562 2.48-.374.78-1.084 1.67-2.129 2.668l-5.008 4.82h8.401zm7.001-14.344v16.38h-2.316v-14.344h-3.697v-2.036h6.013zm-9.072 56.501v2.036h-11.77v-1.591l6.669-6.435c.811-.78 1.357-1.451 1.638-2.013a3.923 3.923 0 00.421-1.731c0-.858-.304-1.521-.912-1.989-.593-.484-1.451-.726-2.574-.726-1.81 0-3.206.593-4.189 1.779l-1.591-1.381c.639-.78 1.474-1.388 2.504-1.825 1.045-.437 2.207-.655 3.486-.655 1.716 0 3.081.413 4.095 1.24 1.014.811 1.521 1.919 1.521 3.323 0 .873-.187 1.7-.561 2.48-.375.78-1.085 1.669-2.13 2.668l-5.007 4.82h8.4zm11.939-6.552c.936.359 1.654.874 2.153 1.544.499.671.749 1.475.749 2.411 0 .982-.265 1.84-.796 2.574-.53.717-1.287 1.271-2.269 1.661-.983.39-2.138.585-3.464.585-1.31 0-2.457-.195-3.439-.585-.968-.39-1.716-.944-2.247-1.661-.53-.734-.795-1.592-.795-2.574 0-.936.241-1.74.725-2.411.499-.67 1.217-1.185 2.153-1.544-.749-.359-1.318-.835-1.708-1.427-.39-.593-.585-1.295-.585-2.106 0-.905.241-1.693.725-2.364.499-.671 1.193-1.185 2.083-1.544.889-.359 1.918-.538 3.088-.538 1.186 0 2.223.179 3.113.538.904.359 1.599.873 2.082 1.544.499.671.749 1.459.749 2.364 0 .795-.203 1.497-.608 2.106-.39.592-.96 1.068-1.709 1.427zM338.061 256c-1.107 0-1.981.242-2.62.725-.64.468-.96 1.108-.96 1.919 0 .811.312 1.451.936 1.919.64.468 1.521.702 2.644.702 1.139 0 2.028-.234 2.668-.702.655-.468.983-1.108.983-1.919 0-.811-.336-1.451-1.006-1.919-.656-.483-1.537-.725-2.645-.725zm0 12.964c1.295 0 2.317-.266 3.066-.796.749-.546 1.123-1.279 1.123-2.2 0-.904-.374-1.614-1.123-2.129-.749-.53-1.771-.796-3.066-.796-1.294 0-2.308.266-3.042.796-.733.515-1.099 1.225-1.099 2.129 0 .921.366 1.654 1.099 2.2.734.53 1.748.796 3.042.796z" fill="#555252"/></svg>