<svg width="345" height="316" fill="none" xmlns="http://www.w3.org/2000/svg"><path d="M130.285 24.884v7.252h-3.36v-4.172h-15.036v4.172h-3.388l.028-7.252h.84c1.232-.056 2.091-.961 2.576-2.716.504-1.773.812-4.302.924-7.588l.224-6.216h14.364v16.52h2.828zm-14.224-9.968c-.093 2.539-.298 4.658-.616 6.356-.317 1.68-.821 2.884-1.512 3.612h9.94v-13.44h-7.672l-.14 3.472zm30.986 5.656c0 .243-.018.588-.056 1.036h-11.732c.206 1.102.738 1.979 1.596 2.632.878.635 1.96.952 3.248.952 1.643 0 2.996-.541 4.06-1.624l1.876 2.156c-.672.803-1.521 1.41-2.548 1.82-1.026.411-2.184.616-3.472.616-1.642 0-3.089-.326-4.34-.98-1.25-.653-2.221-1.558-2.912-2.716-.672-1.176-1.008-2.501-1.008-3.976 0-1.456.327-2.762.98-3.92a7.12 7.12 0 012.772-2.744c1.176-.653 2.502-.98 3.976-.98 1.456 0 2.754.327 3.892.98a6.603 6.603 0 012.688 2.716c.654 1.158.98 2.502.98 4.032zm-7.56-4.928c-1.12 0-2.072.336-2.856 1.008-.765.654-1.232 1.531-1.4 2.632h8.484c-.149-1.082-.606-1.96-1.372-2.632-.765-.672-1.717-1.008-2.856-1.008zm17.604 6.328h-2.716v5.992h-3.5V13.012h3.5v6.048h2.8l4.424-6.048h3.752l-5.432 7.196 5.796 7.756h-4.116l-4.508-5.992zm16.392-9.128c2.202 0 3.882.532 5.04 1.596 1.176 1.046 1.764 2.632 1.764 4.76v8.764h-3.304v-1.82c-.43.654-1.046 1.158-1.848 1.512-.784.336-1.736.504-2.856.504-1.12 0-2.1-.186-2.94-.56-.84-.392-1.494-.924-1.96-1.596a4.179 4.179 0 01-.672-2.324c0-1.344.494-2.417 1.484-3.22 1.008-.821 2.585-1.232 4.732-1.232h3.864v-.224c0-1.045-.318-1.848-.952-2.408-.616-.56-1.54-.84-2.772-.84-.84 0-1.671.131-2.492.392-.803.262-1.484.626-2.044 1.092l-1.372-2.548c.784-.597 1.726-1.054 2.828-1.372a12.579 12.579 0 013.5-.476zm-.476 12.768c.877 0 1.652-.196 2.324-.588a3.324 3.324 0 001.456-1.736v-1.736h-3.612c-2.016 0-3.024.663-3.024 1.988 0 .635.252 1.139.756 1.512.504.374 1.204.56 2.1.56zM192.71 13.74c1.418 0 2.669.308 3.752.924a6.305 6.305 0 012.52 2.52c.616 1.083.924 2.324.924 3.724 0 1.438-.336 2.716-1.008 3.836-.672 1.102-1.615 1.96-2.828 2.576-1.214.616-2.595.924-4.144.924-2.595 0-4.602-.858-6.02-2.576-1.419-1.717-2.128-4.19-2.128-7.42 0-3.005.644-5.385 1.932-7.14 1.288-1.754 3.257-2.912 5.908-3.472l6.944-1.484.504 3.136-6.3 1.288c-1.811.374-3.164 1.008-4.06 1.904-.896.896-1.419 2.156-1.568 3.78a6.765 6.765 0 012.436-1.848c.952-.448 1.997-.672 3.136-.672zm-.7 11.676c1.288 0 2.324-.41 3.108-1.232.802-.84 1.204-1.904 1.204-3.192 0-1.288-.402-2.324-1.204-3.108-.784-.784-1.82-1.176-3.108-1.176-1.307 0-2.362.392-3.164 1.176-.803.784-1.204 1.82-1.204 3.108 0 1.307.401 2.371 1.204 3.192.821.822 1.876 1.232 3.164 1.232zm19.571-12.572c1.456 0 2.754.318 3.892.952a6.833 6.833 0 012.716 2.688c.654 1.158.98 2.492.98 4.004 0 1.512-.326 2.856-.98 4.032a6.834 6.834 0 01-2.716 2.688c-1.138.635-2.436.952-3.892.952-2.016 0-3.612-.672-4.788-2.016v7.252h-3.5V13.012h3.332v1.96a5.438 5.438 0 012.128-1.596c.859-.354 1.802-.532 2.828-.532zm-.392 12.32c1.288 0 2.343-.429 3.164-1.288.84-.858 1.26-1.988 1.26-3.388s-.42-2.529-1.26-3.388c-.821-.858-1.876-1.288-3.164-1.288-.84 0-1.596.196-2.268.588a4.051 4.051 0 00-1.596 1.624c-.392.71-.588 1.531-.588 2.464 0 .934.196 1.755.588 2.464.392.71.924 1.26 1.596 1.652.672.374 1.428.56 2.268.56zm18.968-7.224c1.904 0 3.36.43 4.368 1.288 1.026.859 1.54 2.072 1.54 3.64 0 1.643-.56 2.912-1.68 3.808-1.12.896-2.698 1.335-4.732 1.316l-7-.028V13.012h3.5v4.9l4.004.028zm-.812 7.476c1.026.019 1.81-.196 2.352-.644.541-.448.812-1.101.812-1.96 0-.84-.262-1.456-.784-1.848-.523-.392-1.316-.597-2.38-.616l-3.192-.028v5.068l3.192.028zM16.514 78.861v16.1H13.57v-13.57H5.221v13.57H2.277v-16.1h14.237zm4.218 3.818h2.875v4.991h6.187v-4.99h2.875v12.28h-2.875v-4.853h-6.187v4.853h-2.875V82.68zm47.531 3.911c1.028.275 1.81.75 2.346 1.425.537.66.805 1.488.805 2.484 0 1.411-.521 2.507-1.564 3.29-1.042.781-2.553 1.172-4.53 1.172h-7.637v-16.1h7.2c1.809 0 3.22.36 4.231 1.081 1.012.721 1.518 1.74 1.518 3.06 0 .843-.207 1.571-.62 2.184-.4.614-.982 1.081-1.749 1.403zm-7.636-.852h4.002c.966 0 1.702-.191 2.208-.575.506-.383.76-.95.76-1.702 0-.75-.254-1.318-.76-1.702-.506-.398-1.242-.598-2.208-.598h-4.002v4.577zm4.6 6.923c2.116 0 3.174-.797 3.174-2.392 0-1.564-1.058-2.346-3.174-2.346h-4.6v4.738h4.6zm19-7.544h-4.3v9.844H77.05v-9.844h-4.324V82.68h11.5v2.438zm31.089 10.074c-1.625 0-3.097-.352-4.416-1.058a8.079 8.079 0 01-3.082-2.967c-.736-1.257-1.104-2.675-1.104-4.255 0-1.579.376-2.997 1.127-4.255a7.913 7.913 0 013.082-2.944c1.319-.72 2.791-1.08 4.416-1.08 1.319 0 2.523.23 3.611.69a7.36 7.36 0 012.76 2l-1.932 1.817c-1.165-1.257-2.599-1.886-4.301-1.886-1.104 0-2.093.246-2.967.736a5.143 5.143 0 00-2.047 2.001c-.49.86-.736 1.833-.736 2.921 0 1.09.246 2.063.736 2.921a5.301 5.301 0 002.047 2.024c.874.476 1.863.713 2.967.713 1.702 0 3.136-.636 4.301-1.909l1.932 1.84a7.324 7.324 0 01-2.783 2.001c-1.088.46-2.292.69-3.611.69zm15.656-12.65c1.196 0 2.262.261 3.197.782a5.613 5.613 0 012.231 2.208c.537.951.805 2.047.805 3.29 0 1.241-.268 2.345-.805 3.311a5.612 5.612 0 01-2.231 2.208c-.935.522-2.001.782-3.197.782-1.656 0-2.967-.552-3.933-1.656v5.957h-2.875V82.68h2.737v1.61a4.472 4.472 0 011.748-1.31 6.031 6.031 0 012.323-.438zm-.322 10.12c1.058 0 1.925-.352 2.599-1.058.69-.705 1.035-1.633 1.035-2.783s-.345-2.077-1.035-2.783c-.674-.705-1.541-1.058-2.599-1.058-.69 0-1.311.161-1.863.483a3.329 3.329 0 00-1.311 1.334c-.322.583-.483 1.258-.483 2.024 0 .767.161 1.442.483 2.024a3.489 3.489 0 001.311 1.357c.552.307 1.173.46 1.863.46zm42.646-13.8v16.1h-2.967V88.89c-1.518.568-2.959.851-4.324.851-2.054 0-3.641-.49-4.761-1.472-1.104-.996-1.656-2.422-1.656-4.278v-5.129h2.967v4.807c0 1.135.33 2.001.989 2.6.66.597 1.603.896 2.829.896a9.406 9.406 0 003.956-.85V78.86h2.967zm13.92 6.256h-4.301v9.844h-2.875v-9.844h-4.324V82.68h11.5v2.438zm36.751-6.256v16.1h-2.944v-13.57h-8.349v13.57h-2.944v-16.1h14.237zm13.947 6.256h-4.301v9.844h-2.875v-9.844h-4.324V82.68h11.5v2.438zm30.738 10.074c-1.625 0-3.097-.352-4.416-1.058a8.079 8.079 0 01-3.082-2.967c-.736-1.257-1.104-2.675-1.104-4.255 0-1.579.376-2.997 1.127-4.255a7.913 7.913 0 013.082-2.944c1.319-.72 2.791-1.08 4.416-1.08 1.319 0 2.523.23 3.611.69a7.36 7.36 0 012.76 2l-1.932 1.817c-1.165-1.257-2.599-1.886-4.301-1.886-1.104 0-2.093.246-2.967.736a5.143 5.143 0 00-2.047 2.001c-.49.86-.736 1.833-.736 2.921 0 1.09.246 2.063.736 2.921a5.301 5.301 0 002.047 2.024c.874.476 1.863.713 2.967.713 1.702 0 3.136-.636 4.301-1.909l1.932 1.84a7.324 7.324 0 01-2.783 2.001c-1.088.46-2.292.69-3.611.69zm15.158-11.914c1.166 0 2.193.253 3.082.76.89.49 1.58 1.18 2.07 2.07.506.889.759 1.908.759 3.058 0 1.181-.276 2.231-.828 3.151-.552.905-1.326 1.61-2.323 2.116-.996.506-2.131.76-3.404.76-2.131 0-3.779-.706-4.945-2.117-1.165-1.41-1.748-3.442-1.748-6.095 0-2.468.529-4.423 1.587-5.865 1.058-1.44 2.676-2.392 4.853-2.852l5.704-1.219.414 2.576-5.175 1.058c-1.487.307-2.599.828-3.335 1.564-.736.736-1.165 1.771-1.288 3.105a5.558 5.558 0 012.001-1.518c.782-.368 1.641-.552 2.576-.552zm-.575 9.591c1.058 0 1.909-.337 2.553-1.012.66-.69.989-1.564.989-2.622 0-1.058-.329-1.909-.989-2.553-.644-.644-1.495-.966-2.553-.966-1.073 0-1.939.322-2.599.966-.659.644-.989 1.495-.989 2.553 0 1.074.33 1.948.989 2.622.675.675 1.541 1.012 2.599 1.012zm41.442-6.278c1.028.275 1.81.75 2.346 1.425.537.66.805 1.488.805 2.484 0 1.411-.521 2.507-1.564 3.29-1.042.781-2.553 1.172-4.531 1.172h-7.636v-16.1h7.199c1.81 0 3.22.36 4.232 1.081s1.518 1.74 1.518 3.06c0 .843-.207 1.571-.621 2.184-.398.614-.981 1.081-1.748 1.403zm-7.636-.852h4.002c.966 0 1.702-.191 2.208-.575.506-.383.759-.95.759-1.702 0-.75-.253-1.318-.759-1.702-.506-.398-1.242-.598-2.208-.598h-4.002v4.577zm4.6 6.923c2.116 0 3.174-.797 3.174-2.392 0-1.564-1.058-2.346-3.174-2.346h-4.6v4.738h4.6zm14.86 2.461c-1.272 0-2.415-.268-3.427-.805a5.94 5.94 0 01-2.369-2.23c-.567-.967-.851-2.055-.851-3.267 0-1.21.284-2.292.851-3.243a5.984 5.984 0 012.346-2.23c1.012-.537 2.162-.806 3.45-.806 1.212 0 2.27.246 3.174.736a4.763 4.763 0 012.07 2.116l-2.208 1.288c-.352-.567-.797-.989-1.334-1.265a3.474 3.474 0 00-1.725-.437c-1.073 0-1.962.353-2.668 1.058-.705.69-1.058 1.618-1.058 2.783 0 1.166.345 2.101 1.035 2.806.706.69 1.603 1.035 2.691 1.035.629 0 1.204-.138 1.725-.414.537-.29.982-.72 1.334-1.288l2.208 1.288a5.027 5.027 0 01-2.093 2.14c-.904.49-1.955.735-3.151.735zm-117.124 35.43c1.58.154 2.783.644 3.611 1.472.828.813 1.242 1.856 1.242 3.128 0 .92-.23 1.756-.69 2.507-.46.736-1.15 1.327-2.07 1.771-.904.43-2.016.644-3.335.644-1.15 0-2.254-.168-3.312-.506-1.058-.352-1.924-.835-2.599-1.449l1.058-1.817c.552.522 1.258.943 2.116 1.265a8.07 8.07 0 002.737.46c1.196 0 2.124-.253 2.783-.759.675-.506 1.012-1.203 1.012-2.093 0-.889-.329-1.579-.989-2.07-.659-.49-1.656-.736-2.99-.736h-1.288v-1.61l4.048-4.968h-7.751v-2.001h10.626v1.564l-4.209 5.198z" fill="#555252"/><path d="M218.689 163v21h-3.9v-17.73h-4.44V163h8.34zm12.926 21.3c-1.68 0-3.18-.42-4.5-1.26-1.32-.86-2.36-2.1-3.12-3.72-.76-1.64-1.14-3.58-1.14-5.82s.38-4.17 1.14-5.79c.76-1.64 1.8-2.88 3.12-3.72 1.32-.86 2.82-1.29 4.5-1.29 1.68 0 3.18.43 4.5 1.29 1.34.84 2.39 2.08 3.15 3.72.76 1.62 1.14 3.55 1.14 5.79s-.38 4.18-1.14 5.82c-.76 1.62-1.81 2.86-3.15 3.72-1.32.84-2.82 1.26-4.5 1.26zm0-3.39c1.5 0 2.68-.62 3.54-1.86.88-1.24 1.32-3.09 1.32-5.55s-.44-4.31-1.32-5.55c-.86-1.24-2.04-1.86-3.54-1.86-1.48 0-2.66.62-3.54 1.86-.86 1.24-1.29 3.09-1.29 5.55s.43 4.31 1.29 5.55c.88 1.24 2.06 1.86 3.54 1.86zm-11.926 24.93v21h-3.9v-17.73h-4.44v-3.27h8.34zm20.006 0v2.61l-8.16 18.39h-4.17l7.89-17.7h-8.25v3.57h-3.63v-6.87h16.32zm-13.056 60.672v3.3h-15.48v-2.61l8.34-7.92c.94-.9 1.57-1.68 1.89-2.34.34-.68.51-1.35.51-2.01 0-.98-.33-1.73-.99-2.25-.66-.52-1.63-.78-2.91-.78-2.14 0-3.78.73-4.92 2.19l-2.73-2.1c.82-1.1 1.92-1.95 3.3-2.55 1.4-.62 2.96-.93 4.68-.93 2.28 0 4.1.54 5.46 1.62 1.36 1.08 2.04 2.55 2.04 4.41 0 1.14-.24 2.21-.72 3.21s-1.4 2.14-2.76 3.42l-5.61 5.34h9.9zm20.532-1.47h-3.72v4.77h-3.78v-4.77h-11.52v-2.7l10.35-13.53h4.17l-9.75 12.93h6.87v-4.23h3.66v4.23h3.72v3.3zM19.97 170.907c1.38 0 2.62.27 3.72.81 1.1.52 1.96 1.27 2.58 2.25.62.98.93 2.11.93 3.39 0 1.36-.34 2.56-1.02 3.6-.68 1.02-1.6 1.81-2.76 2.37-1.16.56-2.46.84-3.9.84-2.88 0-5.12-.9-6.72-2.7-1.58-1.8-2.37-4.38-2.37-7.74 0-2.36.43-4.37 1.29-6.03.86-1.68 2.06-2.95 3.6-3.81 1.56-.88 3.36-1.32 5.4-1.32 1.08 0 2.09.12 3.03.36.96.22 1.79.55 2.49.99l-1.44 2.94c-1.04-.68-2.37-1.02-3.99-1.02-2.02 0-3.6.62-4.74 1.86-1.14 1.24-1.71 3.03-1.71 5.37v.03c.62-.72 1.41-1.26 2.37-1.62.96-.38 2.04-.57 3.24-.57zm-.66 10.2c1.22 0 2.21-.32 2.97-.96.76-.66 1.14-1.53 1.14-2.61 0-1.1-.38-1.97-1.14-2.61-.76-.64-1.78-.96-3.06-.96-1.26 0-2.29.34-3.09 1.02-.78.68-1.17 1.54-1.17 2.58 0 1.02.38 1.87 1.14 2.55.78.66 1.85.99 3.21.99zm-7.62 23.733v21h-3.9v-17.73H3.35v-3.27h8.34zm13.105 8.67c1.94.24 3.42.9 4.44 1.98 1.02 1.08 1.53 2.43 1.53 4.05 0 1.22-.31 2.33-.93 3.33-.62 1-1.56 1.8-2.82 2.4-1.24.58-2.76.87-4.56.87-1.5 0-2.95-.21-4.35-.63-1.38-.44-2.56-1.04-3.54-1.8l1.68-3.03c.76.64 1.68 1.15 2.76 1.53 1.1.36 2.23.54 3.39.54 1.38 0 2.46-.28 3.24-.84.8-.58 1.2-1.36 1.2-2.34 0-.98-.38-1.74-1.14-2.28-.74-.56-1.88-.84-3.42-.84h-1.92v-2.67l4.77-5.67h-9.54v-3.27h14.31v2.61l-5.1 6.06zM21.64 265.7v3.3H6.16v-2.61l8.34-7.92c.94-.9 1.57-1.68 1.89-2.34.34-.68.51-1.35.51-2.01 0-.98-.33-1.73-.99-2.25-.66-.52-1.63-.78-2.91-.78-2.14 0-3.78.73-4.92 2.19l-2.73-2.1c.82-1.1 1.92-1.95 3.3-2.55 1.4-.62 2.96-.93 4.68-.93 2.28 0 4.1.54 5.46 1.62 1.36 1.08 2.04 2.55 2.04 4.41 0 1.14-.24 2.21-.72 3.21s-1.4 2.14-2.76 3.42l-5.61 5.34h9.9zm10.922 3.6c-1.68 0-3.18-.42-4.5-1.26-1.32-.86-2.36-2.1-3.12-3.72-.76-1.64-1.14-3.58-1.14-5.82s.38-4.17 1.14-5.79c.76-1.64 1.8-2.88 3.12-3.72 1.32-.86 2.82-1.29 4.5-1.29 1.68 0 3.18.43 4.5 1.29 1.34.84 2.39 2.08 3.15 3.72.76 1.62 1.14 3.55 1.14 5.79s-.38 4.18-1.14 5.82c-.76 1.62-1.81 2.86-3.15 3.72-1.32.84-2.82 1.26-4.5 1.26zm0-3.39c1.5 0 2.68-.62 3.54-1.86.88-1.24 1.32-3.09 1.32-5.55s-.44-4.31-1.32-5.55c-.86-1.24-2.04-1.86-3.54-1.86-1.48 0-2.66.62-3.54 1.86-.86 1.24-1.29 3.09-1.29 5.55s.43 4.31 1.29 5.55c.88 1.24 2.06 1.86 3.54 1.86z" fill="#FFA751"/><path d="M13.897 306.649v2.001H2.327v-1.564l6.556-6.325c.797-.766 1.334-1.426 1.61-1.978a3.858 3.858 0 00.414-1.702c0-.843-.3-1.495-.897-1.955-.583-.475-1.426-.713-2.53-.713-1.78 0-3.151.583-4.117 1.748l-1.564-1.357c.628-.766 1.449-1.364 2.46-1.794 1.028-.429 2.17-.644 3.428-.644 1.686 0 3.028.407 4.025 1.219.996.798 1.495 1.886 1.495 3.266a5.56 5.56 0 01-.552 2.438c-.368.767-1.066 1.641-2.093 2.622l-4.922 4.738h8.257zM27.45 292.55v1.564l-6.509 14.536h-2.438l6.371-14.099h-7.36v2.875h-2.208v-4.876H27.45zm91.907-168.76v16.1h-2.277v-14.099h-3.634v-2.001h5.911zm161.008 12.144h-3.059v3.956h-2.231v-3.956h-8.947v-1.61l8.234-10.534h2.484l-7.889 10.166h6.187v-3.496h2.162v3.496h3.059v1.978zm-9.082 30.247v16.1h-2.277v-14.099h-3.634v-2.001h5.911zm8.512 0v16.1h-2.277v-14.099h-3.634v-2.001h5.911zm-10.259 43.24v16.1h-2.277v-14.099h-3.634v-2.001h5.911zm13.366 7.659c.92.352 1.625.858 2.116 1.518.491.659.736 1.449.736 2.369 0 .966-.261 1.809-.782 2.53-.521.705-1.265 1.249-2.231 1.633-.966.383-2.101.575-3.404.575-1.288 0-2.415-.192-3.381-.575-.951-.384-1.687-.928-2.208-1.633-.521-.721-.782-1.564-.782-2.53 0-.92.238-1.71.713-2.369.491-.66 1.196-1.166 2.116-1.518-.736-.353-1.296-.821-1.679-1.403-.383-.583-.575-1.273-.575-2.07 0-.89.238-1.664.713-2.323.491-.66 1.173-1.166 2.047-1.518.874-.353 1.886-.529 3.036-.529 1.165 0 2.185.176 3.059.529.889.352 1.572.858 2.047 1.518.491.659.736 1.433.736 2.323 0 .782-.199 1.472-.598 2.07-.383.582-.943 1.05-1.679 1.403zm-3.565-5.98c-1.089 0-1.947.237-2.576.713-.629.46-.943 1.088-.943 1.886 0 .797.307 1.426.92 1.886.629.46 1.495.69 2.599.69 1.119 0 1.993-.23 2.622-.69.644-.46.966-1.089.966-1.886 0-.798-.33-1.426-.989-1.886-.644-.476-1.51-.713-2.599-.713zm0 12.742c1.273 0 2.277-.261 3.013-.782.736-.537 1.104-1.258 1.104-2.162 0-.89-.368-1.587-1.104-2.093-.736-.522-1.74-.782-3.013-.782s-2.269.26-2.99.782c-.721.506-1.081 1.203-1.081 2.093 0 .904.36 1.625 1.081 2.162.721.521 1.717.782 2.99.782zm-2.472 39.447v2.001h-11.569v-1.564l6.555-6.325c.798-.767 1.334-1.426 1.61-1.978a3.864 3.864 0 00.414-1.702c0-.844-.299-1.495-.897-1.955-.582-.476-1.426-.713-2.53-.713-1.778 0-3.151.582-4.117 1.748l-1.564-1.357c.629-.767 1.449-1.365 2.461-1.794 1.028-.43 2.17-.644 3.427-.644 1.687 0 3.029.406 4.025 1.219.997.797 1.495 1.886 1.495 3.266 0 .858-.184 1.671-.552 2.438-.368.766-1.065 1.64-2.093 2.622l-4.922 4.738h8.257zm6.491-7.682c2.3 0 3.987.437 5.06 1.311 1.089.858 1.633 2.039 1.633 3.542 0 .95-.23 1.809-.69 2.576-.444.751-1.127 1.349-2.047 1.794-.904.429-2.024.644-3.358.644-1.134 0-2.231-.169-3.289-.506-1.058-.353-1.932-.836-2.622-1.449l1.058-1.817c.552.521 1.258.943 2.116 1.265.859.306 1.764.46 2.714.46 1.212 0 2.147-.253 2.806-.759.675-.522 1.012-1.227 1.012-2.116 0-.966-.368-1.695-1.104-2.185-.736-.506-1.993-.759-3.772-.759h-3.657l.851-8.418h9.085v2.001h-7.153l-.437 4.416h1.794zM72.709 166.763v1.564L66.2 182.863h-2.438l6.371-14.099h-7.36v2.875h-2.208v-4.876h12.144zm-8.505 42.973v16.1h-2.277v-14.099h-3.634v-2.001h5.911zm17.53 12.144h-3.06v3.956h-2.23v-3.956h-8.948v-1.61l8.234-10.534h2.484l-7.889 10.166h6.187v-3.496h2.162v3.496h3.06v1.978zM70.53 263.81v2.001H58.96v-1.564l6.555-6.325c.798-.767 1.334-1.426 1.61-1.978a3.864 3.864 0 00.414-1.702c0-.844-.299-1.495-.897-1.955-.582-.476-1.426-.713-2.53-.713-1.778 0-3.15.582-4.117 1.748l-1.564-1.357c.629-.767 1.45-1.365 2.461-1.794 1.028-.43 2.17-.644 3.427-.644 1.687 0 3.029.406 4.025 1.219.997.797 1.495 1.886 1.495 3.266 0 .858-.184 1.671-.552 2.438-.368.766-1.065 1.64-2.093 2.622l-4.922 4.738h8.257zm6.881-14.099v16.1h-2.277v-14.099H71.5v-2.001h5.911zM66.53 306.782v2.001H54.96v-1.564l6.555-6.325c.798-.766 1.334-1.426 1.61-1.978a3.858 3.858 0 00.414-1.702c0-.843-.299-1.495-.897-1.955-.582-.475-1.426-.713-2.53-.713-1.778 0-3.15.583-4.117 1.748l-1.564-1.357c.629-.766 1.45-1.364 2.461-1.794 1.028-.429 2.17-.644 3.427-.644 1.687 0 3.029.407 4.025 1.219.997.798 1.495 1.886 1.495 3.266a5.56 5.56 0 01-.552 2.438c-.368.767-1.065 1.641-2.093 2.622l-4.922 4.738h8.257zm11.734-6.44c.92.353 1.626.859 2.116 1.518.491.66.736 1.449.736 2.369 0 .966-.26 1.81-.782 2.53-.52.706-1.265 1.25-2.23 1.633-.967.384-2.101.575-3.405.575-1.288 0-2.415-.191-3.38-.575-.951-.383-1.687-.927-2.209-1.633-.52-.72-.782-1.564-.782-2.53 0-.92.238-1.709.713-2.369.491-.659 1.196-1.165 2.116-1.518-.736-.352-1.295-.82-1.679-1.403-.383-.582-.575-1.272-.575-2.07 0-.889.238-1.663.713-2.323.491-.659 1.173-1.165 2.047-1.518.874-.352 1.886-.529 3.036-.529 1.166 0 2.185.177 3.06.529.889.353 1.571.859 2.046 1.518.491.66.736 1.434.736 2.323 0 .782-.199 1.472-.598 2.07-.383.583-.943 1.051-1.679 1.403zm-3.565-5.98c-1.088 0-1.947.238-2.576.713-.628.46-.943 1.089-.943 1.886 0 .798.307 1.426.92 1.886.63.46 1.495.69 2.6.69 1.119 0 1.993-.23 2.621-.69.644-.46.966-1.088.966-1.886 0-.797-.33-1.426-.989-1.886-.644-.475-1.51-.713-2.599-.713zm0 12.742c1.273 0 2.277-.26 3.013-.782.736-.536 1.104-1.257 1.104-2.162 0-.889-.368-1.587-1.104-2.093-.736-.521-1.74-.782-3.013-.782-1.272 0-2.269.261-2.99.782-.72.506-1.08 1.204-1.08 2.093 0 .905.36 1.626 1.08 2.162.721.522 1.718.782 2.99.782zm103.819-169.215v2.001h-11.569v-1.564l6.555-6.325c.797-.766 1.334-1.426 1.61-1.978a3.858 3.858 0 00.414-1.702c0-.843-.299-1.495-.897-1.955-.583-.475-1.426-.713-2.53-.713-1.779 0-3.151.583-4.117 1.748l-1.564-1.357c.628-.766 1.449-1.364 2.461-1.794 1.027-.429 2.169-.644 3.427-.644 1.686 0 3.028.407 4.025 1.219.996.798 1.495 1.886 1.495 3.266a5.56 5.56 0 01-.552 2.438c-.368.767-1.066 1.641-2.093 2.622l-4.922 4.738h8.257zm143.206-7.682c2.3 0 3.986.437 5.06 1.311 1.088.859 1.633 2.04 1.633 3.542 0 .951-.23 1.81-.69 2.576-.445.752-1.127 1.35-2.047 1.794-.905.43-2.024.644-3.358.644a10.74 10.74 0 01-3.289-.506c-1.058-.352-1.932-.835-2.622-1.449l1.058-1.817c.552.522 1.257.943 2.116 1.265.858.307 1.763.46 2.714.46 1.211 0 2.146-.253 2.806-.759.674-.521 1.012-1.226 1.012-2.116 0-.966-.368-1.694-1.104-2.185-.736-.506-1.994-.759-3.772-.759h-3.657l.851-8.418h9.085v2.001h-7.153l-.437 4.416h1.794zm-2.781 34.975v16.1h-2.277v-14.099h-3.634v-2.001h5.911zm14.837 14.099v2.001h-11.569v-1.564l6.555-6.325c.798-.767 1.334-1.426 1.61-1.978a3.864 3.864 0 00.414-1.702c0-.844-.299-1.495-.897-1.955-.582-.476-1.426-.713-2.53-.713-1.778 0-3.151.582-4.117 1.748l-1.564-1.357c.629-.767 1.449-1.365 2.461-1.794 1.028-.43 2.17-.644 3.427-.644 1.687 0 3.029.406 4.025 1.219.997.797 1.495 1.886 1.495 3.266 0 .858-.184 1.671-.552 2.438-.368.766-1.065 1.64-2.093 2.622l-4.922 4.738h8.257zm-13.693 30.14v16.1h-2.277v-14.099h-3.634v-2.001h5.911zm8.743-.184c2.162 0 3.826.698 4.991 2.093 1.181 1.395 1.771 3.373 1.771 5.934 0 1.794-.322 3.327-.966 4.6-.629 1.257-1.518 2.216-2.668 2.875-1.135.644-2.461.966-3.979.966-.782 0-1.518-.077-2.208-.23-.69-.169-1.288-.406-1.794-.713l.874-1.794c.782.506 1.817.759 3.105.759 1.671 0 2.975-.514 3.91-1.541.951-1.043 1.426-2.553 1.426-4.531v-.575c-.46.69-1.096 1.219-1.909 1.587-.813.353-1.725.529-2.737.529-1.058 0-2.009-.199-2.852-.598a4.699 4.699 0 01-1.955-1.702c-.46-.751-.69-1.61-.69-2.576 0-1.012.245-1.901.736-2.668a4.998 4.998 0 012.047-1.771c.859-.429 1.825-.644 2.898-.644zm.207 8.096c.721 0 1.365-.138 1.932-.414.567-.276 1.004-.652 1.311-1.127a2.766 2.766 0 00.483-1.587c0-.567-.153-1.081-.46-1.541-.291-.475-.728-.851-1.311-1.127-.567-.291-1.257-.437-2.07-.437-1.058 0-1.917.284-2.576.851-.644.567-.966 1.326-.966 2.277 0 .951.33 1.71.989 2.277.659.552 1.549.828 2.668.828zm-5.515 45.956v2.001h-11.569v-1.564l6.555-6.325c.797-.767 1.334-1.426 1.61-1.978a3.864 3.864 0 00.414-1.702c0-.844-.299-1.495-.897-1.955-.583-.476-1.426-.713-2.53-.713-1.779 0-3.151.582-4.117 1.748l-1.564-1.357c.628-.767 1.449-1.365 2.461-1.794 1.027-.43 2.169-.644 3.427-.644 1.686 0 3.028.406 4.025 1.219.996.797 1.495 1.886 1.495 3.266 0 .858-.184 1.671-.552 2.438-.368.766-1.066 1.64-2.093 2.622l-4.922 4.738h8.257zm8.769-7.774c1.058 0 2.001.199 2.829.598.844.398 1.503.973 1.978 1.725.476.736.713 1.587.713 2.553 0 1.012-.253 1.901-.759 2.668-.49.766-1.173 1.364-2.047 1.794-.858.414-1.824.621-2.898.621-2.162 0-3.833-.698-5.014-2.093-1.165-1.396-1.748-3.374-1.748-5.934 0-1.794.315-3.32.943-4.577.644-1.273 1.534-2.231 2.668-2.875 1.15-.66 2.484-.989 4.002-.989.782 0 1.518.084 2.208.253.69.153 1.288.383 1.794.69l-.874 1.794c-.766-.506-1.794-.759-3.082-.759-1.671 0-2.982.521-3.933 1.564-.95 1.027-1.426 2.53-1.426 4.508 0 .245.008.437.023.575a4.298 4.298 0 011.886-1.564c.813-.368 1.725-.552 2.737-.552zm-.276 8.096c1.058 0 1.917-.284 2.576-.851.66-.568.989-1.327.989-2.277 0-.951-.337-1.702-1.012-2.254-.659-.568-1.548-.851-2.668-.851-.72 0-1.364.138-1.932.414a3.359 3.359 0 00-1.311 1.127 2.87 2.87 0 00-.46 1.587c0 .567.146 1.088.437 1.564.307.46.744.835 1.311 1.127.583.276 1.273.414 2.07.414z" fill="#555252"/><path d="M126.049 172.827c1.1.5 1.94 1.18 2.52 2.04.6.84.9 1.83.9 2.97 0 1.28-.36 2.4-1.08 3.36-.7.96-1.7 1.7-3 2.22-1.3.5-2.81.75-4.53.75-1.72 0-3.23-.25-4.53-.75-1.28-.52-2.27-1.26-2.97-2.22-.7-.96-1.05-2.08-1.05-3.36 0-1.14.29-2.13.87-2.97.58-.86 1.41-1.54 2.49-2.04-.84-.46-1.49-1.06-1.95-1.8-.44-.76-.66-1.63-.66-2.61 0-1.18.32-2.21.96-3.09.66-.88 1.58-1.56 2.76-2.04 1.18-.48 2.54-.72 4.08-.72 1.56 0 2.93.24 4.11.72 1.18.48 2.1 1.16 2.76 2.04.66.88.99 1.91.99 3.09 0 .98-.23 1.84-.69 2.58-.46.74-1.12 1.35-1.98 1.83zm-5.19-7.2c-1.22 0-2.19.26-2.91.78-.7.52-1.05 1.25-1.05 2.19 0 .9.35 1.62 1.05 2.16.72.52 1.69.78 2.91.78 1.24 0 2.22-.26 2.94-.78.72-.54 1.08-1.26 1.08-2.16 0-.94-.37-1.67-1.11-2.19-.72-.52-1.69-.78-2.91-.78zm0 15.48c1.44 0 2.58-.3 3.42-.9.84-.6 1.26-1.43 1.26-2.49 0-1.04-.42-1.86-1.26-2.46-.84-.6-1.98-.9-3.42-.9s-2.57.3-3.39.9c-.82.6-1.23 1.42-1.23 2.46 0 1.06.41 1.89 1.23 2.49.82.6 1.95.9 3.39.9zm-4.17 23.733v21h-3.9v-17.73h-4.44v-3.27h8.34zm10.736 8.13c2.96 0 5.15.58 6.57 1.74 1.42 1.14 2.13 2.7 2.13 4.68 0 1.26-.31 2.4-.93 3.42-.62 1.02-1.55 1.83-2.79 2.43-1.24.6-2.77.9-4.59.9-1.5 0-2.95-.21-4.35-.63-1.4-.44-2.58-1.04-3.54-1.8l1.65-3.03c.78.64 1.71 1.15 2.79 1.53 1.1.36 2.23.54 3.39.54 1.38 0 2.46-.28 3.24-.84.8-.58 1.2-1.37 1.2-2.37 0-1.08-.43-1.89-1.29-2.43-.84-.56-2.29-.84-4.35-.84h-5.07l1.08-11.43h12.33v3.27h-9.03l-.45 4.86h2.01zm-6.786 52.543v3.3h-15.48v-2.61l8.34-7.92c.94-.9 1.57-1.68 1.89-2.34.34-.68.51-1.35.51-2.01 0-.98-.33-1.73-.99-2.25-.66-.52-1.63-.78-2.91-.78-2.14 0-3.78.73-4.92 2.19l-2.73-2.1c.82-1.1 1.92-1.95 3.3-2.55 1.4-.62 2.96-.93 4.68-.93 2.28 0 4.1.54 5.46 1.62 1.36 1.08 2.04 2.55 2.04 4.41 0 1.14-.24 2.21-.72 3.21s-1.4 2.14-2.76 3.42l-5.61 5.34h9.9zm17.461 0v3.3h-15.48v-2.61l8.34-7.92c.94-.9 1.57-1.68 1.89-2.34.34-.68.51-1.35.51-2.01 0-.98-.33-1.73-.99-2.25-.66-.52-1.63-.78-2.91-.78-2.14 0-3.78.73-4.92 2.19l-2.73-2.1c.82-1.1 1.92-1.95 3.3-2.55 1.4-.62 2.96-.93 4.68-.93 2.28 0 4.1.54 5.46 1.62 1.36 1.08 2.04 2.55 2.04 4.41 0 1.14-.24 2.21-.72 3.21s-1.4 2.14-2.76 3.42l-5.61 5.34h9.9z" fill="#FFA751"/><path d="M118.756 306.65v2.001h-11.569v-1.564l6.555-6.325c.797-.767 1.334-1.426 1.61-1.978a3.864 3.864 0 00.414-1.702c0-.844-.299-1.495-.897-1.955-.583-.476-1.426-.713-2.53-.713-1.779 0-3.151.582-4.117 1.748l-1.564-1.357c.629-.767 1.449-1.365 2.461-1.794 1.027-.43 2.17-.644 3.427-.644 1.687 0 3.028.406 4.025 1.219.997.797 1.495 1.886 1.495 3.266 0 .858-.184 1.671-.552 2.438-.368.766-1.066 1.64-2.093 2.622l-4.922 4.738h8.257zm7.112-14.283c2.162 0 3.826.697 4.991 2.093 1.181 1.395 1.771 3.373 1.771 5.934 0 1.794-.322 3.327-.966 4.6-.629 1.257-1.518 2.215-2.668 2.875-1.135.644-2.461.966-3.979.966-.782 0-1.518-.077-2.208-.23-.69-.169-1.288-.407-1.794-.713l.874-1.794c.782.506 1.817.759 3.105.759 1.671 0 2.975-.514 3.91-1.541.951-1.043 1.426-2.553 1.426-4.531v-.575c-.46.69-1.096 1.219-1.909 1.587-.813.352-1.725.529-2.737.529-1.058 0-2.009-.2-2.852-.598a4.699 4.699 0 01-1.955-1.702c-.46-.752-.69-1.61-.69-2.576 0-1.012.245-1.902.736-2.668a4.998 4.998 0 012.047-1.771c.859-.43 1.825-.644 2.898-.644zm.207 8.096c.721 0 1.365-.138 1.932-.414.567-.276 1.004-.652 1.311-1.127a2.77 2.77 0 00.483-1.587c0-.568-.153-1.081-.46-1.541-.291-.476-.728-.851-1.311-1.127-.567-.292-1.257-.437-2.07-.437-1.058 0-1.917.283-2.576.851-.644.567-.966 1.326-.966 2.277 0 .95.33 1.709.989 2.277.659.552 1.549.828 2.668.828zm43.727-133.884c2.162 0 3.825.698 4.991 2.093 1.18 1.395 1.771 3.373 1.771 5.934 0 1.794-.322 3.327-.966 4.6-.629 1.257-1.518 2.216-2.668 2.875-1.135.644-2.461.966-3.979.966-.782 0-1.518-.077-2.208-.23-.69-.169-1.288-.406-1.794-.713l.874-1.794c.782.506 1.817.759 3.105.759 1.671 0 2.974-.514 3.91-1.541.95-1.043 1.426-2.553 1.426-4.531v-.575c-.46.69-1.097 1.219-1.909 1.587-.813.353-1.725.529-2.737.529-1.058 0-2.009-.199-2.852-.598a4.699 4.699 0 01-1.955-1.702c-.46-.751-.69-1.61-.69-2.576 0-1.012.245-1.901.736-2.668a4.998 4.998 0 012.047-1.771c.858-.429 1.824-.644 2.898-.644zm.207 8.096c.72 0 1.364-.138 1.932-.414.567-.276 1.004-.652 1.311-1.127a2.766 2.766 0 00.483-1.587c0-.567-.154-1.081-.46-1.541-.292-.475-.729-.851-1.311-1.127-.568-.291-1.258-.437-2.07-.437-1.058 0-1.917.284-2.576.851-.644.567-.966 1.326-.966 2.277 0 .951.329 1.71.989 2.277.659.552 1.548.828 2.668.828zm-1.922 34.973v16.1h-2.277v-14.099h-3.634v-2.001h5.911zm10.468 6.325c1.058 0 2.001.199 2.829.598.843.398 1.503.973 1.978 1.725.475.736.713 1.587.713 2.553 0 1.012-.253 1.901-.759 2.668-.491.766-1.173 1.364-2.047 1.794-.859.414-1.825.621-2.898.621-2.162 0-3.833-.698-5.014-2.093-1.165-1.396-1.748-3.374-1.748-5.934 0-1.794.314-3.32.943-4.577.644-1.273 1.533-2.231 2.668-2.875 1.15-.66 2.484-.989 4.002-.989.782 0 1.518.084 2.208.253.69.153 1.288.383 1.794.69l-.874 1.794c-.767-.506-1.794-.759-3.082-.759-1.671 0-2.982.521-3.933 1.564-.951 1.027-1.426 2.53-1.426 4.508 0 .245.008.437.023.575a4.298 4.298 0 011.886-1.564c.813-.368 1.725-.552 2.737-.552zm-.276 8.096c1.058 0 1.917-.284 2.576-.851.659-.568.989-1.327.989-2.277 0-.951-.337-1.702-1.012-2.254-.659-.568-1.549-.851-2.668-.851-.721 0-1.365.138-1.932.414a3.359 3.359 0 00-1.311 1.127 2.862 2.862 0 00-.46 1.587c0 .567.146 1.088.437 1.564.307.46.744.835 1.311 1.127.583.276 1.273.414 2.07.414zm-4.867 40.63v2.001h-11.569v-1.564l6.555-6.325c.798-.767 1.334-1.426 1.61-1.978a3.864 3.864 0 00.414-1.702c0-.844-.299-1.495-.897-1.955-.582-.476-1.426-.713-2.53-.713-1.778 0-3.151.582-4.117 1.748l-1.564-1.357c.629-.767 1.449-1.365 2.461-1.794 1.028-.43 2.17-.644 3.427-.644 1.687 0 3.029.406 4.025 1.219.997.797 1.495 1.886 1.495 3.266 0 .858-.184 1.671-.552 2.438-.368.766-1.065 1.64-2.093 2.622l-4.922 4.738h8.257zm8.055-7.337c1.58.153 2.783.644 3.611 1.472.828.812 1.242 1.855 1.242 3.128 0 .92-.23 1.755-.69 2.507-.46.736-1.15 1.326-2.07 1.771-.904.429-2.016.644-3.335.644-1.15 0-2.254-.169-3.312-.506-1.058-.353-1.924-.836-2.599-1.449l1.058-1.817c.552.521 1.258.943 2.116 1.265.859.306 1.771.46 2.737.46 1.196 0 2.124-.253 2.783-.759.675-.506 1.012-1.204 1.012-2.093 0-.89-.329-1.58-.989-2.07-.659-.491-1.656-.736-2.99-.736h-1.288v-1.61l4.048-4.968h-7.751V250.6h10.626v1.564l-4.209 5.198zm-14.09 42.3c1.58.153 2.783.644 3.611 1.472.828.812 1.242 1.855 1.242 3.128 0 .92-.23 1.755-.69 2.507-.46.736-1.15 1.326-2.07 1.771-.904.429-2.016.644-3.335.644-1.15 0-2.254-.169-3.312-.506-1.058-.353-1.924-.836-2.599-1.449l1.058-1.817c.552.521 1.258.943 2.116 1.265.859.306 1.771.46 2.737.46 1.196 0 2.124-.253 2.783-.759.675-.506 1.012-1.204 1.012-2.093 0-.89-.329-1.58-.989-2.07-.659-.491-1.656-.736-2.99-.736h-1.288v-1.61l4.048-4.968h-7.751V292.9h10.626v1.564l-4.209 5.198zm13.576 9.522c-1.272 0-2.407-.322-3.404-.966-.981-.66-1.755-1.61-2.323-2.852-.567-1.242-.851-2.714-.851-4.416 0-1.702.284-3.174.851-4.416.568-1.242 1.342-2.185 2.323-2.829.997-.66 2.132-.989 3.404-.989 1.258 0 2.377.329 3.358.989.997.644 1.779 1.587 2.346 2.829.568 1.242.851 2.714.851 4.416 0 1.702-.283 3.174-.851 4.416-.567 1.242-1.349 2.192-2.346 2.852-.981.644-2.1.966-3.358.966zm0-2.047c1.288 0 2.316-.529 3.082-1.587.782-1.058 1.173-2.592 1.173-4.6 0-2.009-.391-3.542-1.173-4.6-.766-1.058-1.794-1.587-3.082-1.587-1.303 0-2.346.529-3.128 1.587-.766 1.058-1.15 2.591-1.15 4.6 0 2.008.384 3.542 1.15 4.6.782 1.058 1.825 1.587 3.128 1.587zm38.424-7.475c1.58.153 2.783.644 3.611 1.472.828.812 1.242 1.855 1.242 3.128 0 .92-.23 1.755-.69 2.507-.46.736-1.15 1.326-2.07 1.771-.904.429-2.016.644-3.335.644-1.15 0-2.254-.169-3.312-.506-1.058-.353-1.924-.836-2.599-1.449l1.058-1.817c.552.521 1.258.943 2.116 1.265.859.306 1.771.46 2.737.46 1.196 0 2.124-.253 2.783-.759.675-.506 1.012-1.204 1.012-2.093 0-.89-.329-1.58-.989-2.07-.659-.491-1.656-.736-2.99-.736h-1.288v-1.61l4.048-4.968h-7.751V292.9h10.626v1.564l-4.209 5.198zm11.989-6.762V309h-2.277v-14.099h-3.634V292.9h5.911z" fill="#555252"/></svg>