<svg width="398" height="415" fill="none" xmlns="http://www.w3.org/2000/svg"><g filter="url(#filter0_d)"><path d="M18 391V16a2 2 0 012-2h155.687c.786 0 1.496.469 1.851 1.169 9.298 18.314 34.318 18.904 40.957.267.298-.838 1.075-1.436 1.965-1.436H378a2 2 0 012 2v375a2 2 0 01-2 2H20a2 2 0 01-2-2z" fill="#fff"/></g><path d="M24 385V22a2 2 0 012-2h145.748c.766 0 1.467.453 1.823 1.131 12.998 24.747 43.312 18.795 49.015.414.277-.892 1.077-1.545 2.012-1.545H372a2 2 0 012 2v363a2 2 0 01-2 2H26a2 2 0 01-2-2z" stroke="#C4CBD2" stroke-opacity=".45"/><defs><filter id="filter0_d" x="0" y="0" width="398" height="415" filterUnits="userSpaceOnUse" color-interpolation-filters="sRGB"><feFlood flood-opacity="0" result="BackgroundImageFix"/><feColorMatrix in="SourceAlpha" values="0 0 0 0 0 0 0 0 0 0 0 0 0 0 0 0 0 0 127 0" result="hardAlpha"/><feOffset dy="4"/><feGaussianBlur stdDeviation="9"/><feColorMatrix values="0 0 0 0 0.62 0 0 0 0 0.689483 0 0 0 0 0.775 0 0 0 0.53 0"/><feBlend in2="BackgroundImageFix" result="effect1_dropShadow"/><feBlend in="SourceGraphic" in2="effect1_dropShadow" result="shape"/></filter></defs></svg>