<svg width="741" height="427" fill="none" xmlns="http://www.w3.org/2000/svg"><path d="M538.103 249.626C658.5 223 888-22.499 465.179 88.474m64.688 202.769c108.414 1.017 341.347-182.003-5.503-170.01" stroke="#F8D55B"/><path d="M615.52 211.111l10.195-4.816-7.838 8.208 2.217 8.016-6.286-5.19-12.808 5.19 10.452-8.582-2.198-7.023 6.266 4.197z" fill="#786550" stroke="#F8D55B" stroke-linecap="round" stroke-linejoin="round"/><circle cx="648.097" cy="211.097" r="3.5" transform="rotate(19.297 648.097 211.097)" fill="#78644E" stroke="#F8D55B"/><path d="M202.406 176.942C82.009 203.568-147.491 449.067 275.33 338.094m-64.688-202.769c-108.414-1.017-341.347 182.003 5.503 170.01" stroke="#F8D55B"/><path d="M124.989 215.457l-10.195 4.815 7.838-8.207-2.217-8.016 6.286 5.189 12.808-5.189-10.452 8.582 2.198 7.023-6.266-4.197z" fill="#786550" stroke="#F8D55B" stroke-linecap="round" stroke-linejoin="round"/><circle cx="92.412" cy="215.471" r="3.5" transform="rotate(-160.703 92.412 215.471)" fill="#78644E" stroke="#F8D55B"/></svg>