<svg width="1956" height="301" viewBox="0 0 1956 301" fill="none" xmlns="http://www.w3.org/2000/svg">
<path d="M402.137 55.8075C154.343 27.7474 31.0038 101.35 0.308594 141.658V289.976L1956 301V82.5315C1646.26 125.958 1661.07 55.8075 1426.03 39.105C1190.98 22.4026 1158.14 43.7817 906.998 82.5315C706.084 113.531 519.337 69.0792 402.137 55.8075Z" fill="white"/>
<path d="M393.539 30.7009C145.745 2.64074 31.0038 108.189 0.308594 148.498V251.267L1956 262.291V76.0845C1646.26 119.511 1656.89 27.7148 1421.85 11.0123C1186.8 -5.69016 1096.99 37.3347 845.847 76.0845C644.933 107.084 510.739 43.9726 393.539 30.7009Z" fill="white" fill-opacity="0.64"/>
<path d="M393.231 23.3899C145.437 -4.67029 30.6952 100.878 0 141.187V243.956L1955.69 254.98V68.7734C1645.95 112.2 1656.58 20.4038 1421.54 3.70128C1186.49 -13.0012 1096.68 30.0237 845.538 68.7734C644.624 99.7732 510.431 36.6616 393.231 23.3899Z" fill="white" fill-opacity="0.26"/>
</svg>
