<svg width="1959" height="301" viewBox="0 0 1959 301" fill="none" xmlns="http://www.w3.org/2000/svg">
<path d="M1556.55 245.192C1804.35 273.252 1927.69 199.65 1958.38 159.342V11.0236L2.69055 -6.10352e-05V218.468C312.433 175.042 297.622 245.192 532.666 261.895C767.709 278.597 800.551 257.218 1051.69 218.468C1252.61 187.468 1439.35 231.921 1556.55 245.192Z" fill="white"/>
<path d="M1565.15 270.299C1812.95 298.36 1927.69 192.811 1958.38 152.502V49.7332L2.69067 38.7095V224.916C312.433 181.489 301.801 273.285 536.844 289.988C771.888 306.69 861.702 263.666 1112.84 224.916C1313.76 193.916 1447.95 257.028 1565.15 270.299Z" fill="white" fill-opacity="0.64"/>
<path d="M1562.46 277.61C1810.25 305.67 1925 200.122 1955.69 159.813V57.044L-0.000732422 46.0203V232.227C309.742 188.8 299.109 280.596 534.153 297.299C769.197 314.001 859.01 270.976 1110.15 232.227C1311.07 201.227 1445.26 264.338 1562.46 277.61Z" fill="white" fill-opacity="0.26"/>
</svg>
