<svg width="244" height="228" viewBox="0 0 244 228" fill="none" xmlns="http://www.w3.org/2000/svg">
<path fill-rule="evenodd" clip-rule="evenodd" d="M108.094 0.0600586H0V227.94H244V0.0600586L136.438 0.0600586C134.882 6.43657 129.127 11.1696 122.266 11.1696C115.405 11.1696 109.65 6.43657 108.094 0.0600586Z" fill="white"/>
<path d="M98.34 42.1788V45.8048H96.66V43.7188H89.142V45.8048H87.448L87.462 42.1788H87.882C88.498 42.1508 88.9273 41.6982 89.17 40.8208C89.422 39.9342 89.576 38.6695 89.632 37.0268L89.744 33.9188H96.926V42.1788H98.34ZM91.228 37.1948C91.1813 38.4642 91.0786 39.5235 90.92 40.3728C90.7613 41.2128 90.5093 41.8148 90.164 42.1788H95.134V35.4588H91.298L91.228 37.1948ZM106.721 40.0228C106.721 40.1442 106.712 40.3168 106.693 40.5408H100.827C100.93 41.0915 101.196 41.5302 101.625 41.8568C102.064 42.1742 102.605 42.3328 103.249 42.3328C104.07 42.3328 104.747 42.0622 105.279 41.5208L106.217 42.5988C105.881 43.0002 105.456 43.3035 104.943 43.5088C104.43 43.7142 103.851 43.8168 103.207 43.8168C102.386 43.8168 101.662 43.6535 101.037 43.3268C100.412 43.0002 99.9263 42.5475 99.5809 41.9688C99.2449 41.3808 99.0769 40.7182 99.0769 39.9808C99.0769 39.2528 99.2403 38.5995 99.5669 38.0208C99.9029 37.4328 100.365 36.9755 100.953 36.6488C101.541 36.3222 102.204 36.1588 102.941 36.1588C103.669 36.1588 104.318 36.3222 104.887 36.6488C105.466 36.9662 105.914 37.4188 106.231 38.0068C106.558 38.5855 106.721 39.2575 106.721 40.0228ZM102.941 37.5588C102.381 37.5588 101.905 37.7268 101.513 38.0628C101.13 38.3895 100.897 38.8282 100.813 39.3788H105.055C104.98 38.8375 104.752 38.3988 104.369 38.0628C103.986 37.7268 103.51 37.5588 102.941 37.5588ZM111.743 40.7228H110.385V43.7188H108.635V36.2428H110.385V39.2668H111.785L113.997 36.2428H115.873L113.157 39.8408L116.055 43.7188H113.997L111.743 40.7228ZM119.939 36.1588C121.04 36.1588 121.88 36.4248 122.459 36.9568C123.047 37.4795 123.341 38.2728 123.341 39.3368V43.7188H121.689V42.8088C121.474 43.1355 121.166 43.3875 120.765 43.5648C120.373 43.7328 119.897 43.8168 119.337 43.8168C118.777 43.8168 118.287 43.7235 117.867 43.5368C117.447 43.3408 117.12 43.0748 116.887 42.7388C116.663 42.3935 116.551 42.0062 116.551 41.5768C116.551 40.9048 116.798 40.3682 117.293 39.9668C117.797 39.5562 118.585 39.3508 119.659 39.3508H121.591V39.2388C121.591 38.7162 121.432 38.3148 121.115 38.0348C120.807 37.7548 120.345 37.6148 119.729 37.6148C119.309 37.6148 118.893 37.6802 118.483 37.8108C118.081 37.9415 117.741 38.1235 117.461 38.3568L116.775 37.0828C117.167 36.7842 117.638 36.5555 118.189 36.3968C118.739 36.2382 119.323 36.1588 119.939 36.1588ZM119.701 42.5428C120.139 42.5428 120.527 42.4448 120.863 42.2488C121.208 42.0435 121.451 41.7542 121.591 41.3808V40.5128H119.785C118.777 40.5128 118.273 40.8442 118.273 41.5068C118.273 41.8242 118.399 42.0762 118.651 42.2628C118.903 42.4495 119.253 42.5428 119.701 42.5428ZM129.552 36.6068C130.261 36.6068 130.887 36.7608 131.428 37.0688C131.969 37.3675 132.389 37.7875 132.688 38.3288C132.996 38.8702 133.15 39.4908 133.15 40.1908C133.15 40.9095 132.982 41.5488 132.646 42.1088C132.31 42.6595 131.839 43.0888 131.232 43.3968C130.625 43.7048 129.935 43.8588 129.16 43.8588C127.863 43.8588 126.859 43.4295 126.15 42.5708C125.441 41.7122 125.086 40.4755 125.086 38.8608C125.086 37.3582 125.408 36.1682 126.052 35.2908C126.696 34.4135 127.681 33.8348 129.006 33.5548L132.478 32.8128L132.73 34.3808L129.58 35.0248C128.675 35.2115 127.998 35.5288 127.55 35.9768C127.102 36.4248 126.841 37.0548 126.766 37.8668C127.102 37.4655 127.508 37.1575 127.984 36.9428C128.46 36.7188 128.983 36.6068 129.552 36.6068ZM129.202 42.4448C129.846 42.4448 130.364 42.2395 130.756 41.8288C131.157 41.4088 131.358 40.8768 131.358 40.2328C131.358 39.5888 131.157 39.0708 130.756 38.6788C130.364 38.2868 129.846 38.0908 129.202 38.0908C128.549 38.0908 128.021 38.2868 127.62 38.6788C127.219 39.0708 127.018 39.5888 127.018 40.2328C127.018 40.8862 127.219 41.4182 127.62 41.8288C128.031 42.2395 128.558 42.4448 129.202 42.4448ZM138.988 36.1588C139.716 36.1588 140.365 36.3175 140.934 36.6348C141.513 36.9522 141.965 37.4002 142.292 37.9788C142.619 38.5575 142.782 39.2248 142.782 39.9808C142.782 40.7368 142.619 41.4088 142.292 41.9968C141.965 42.5755 141.513 43.0235 140.934 43.3408C140.365 43.6582 139.716 43.8168 138.988 43.8168C137.98 43.8168 137.182 43.4808 136.594 42.8088V46.4348H134.844V36.2428H136.51V37.2228C136.799 36.8682 137.154 36.6022 137.574 36.4248C138.003 36.2475 138.475 36.1588 138.988 36.1588ZM138.792 42.3188C139.436 42.3188 139.963 42.1042 140.374 41.6748C140.794 41.2455 141.004 40.6808 141.004 39.9808C141.004 39.2808 140.794 38.7162 140.374 38.2868C139.963 37.8575 139.436 37.6428 138.792 37.6428C138.372 37.6428 137.994 37.7408 137.658 37.9368C137.322 38.1235 137.056 38.3942 136.86 38.7488C136.664 39.1035 136.566 39.5142 136.566 39.9808C136.566 40.4475 136.664 40.8582 136.86 41.2128C137.056 41.5675 137.322 41.8428 137.658 42.0388C137.994 42.2255 138.372 42.3188 138.792 42.3188ZM148.276 38.7068C149.228 38.7068 149.956 38.9215 150.46 39.3508C150.973 39.7802 151.23 40.3868 151.23 41.1708C151.23 41.9922 150.95 42.6268 150.39 43.0748C149.83 43.5228 149.041 43.7422 148.024 43.7328L144.524 43.7188V36.2428H146.274V38.6928L148.276 38.7068ZM147.87 42.4448C148.383 42.4542 148.775 42.3468 149.046 42.1228C149.316 41.8988 149.452 41.5722 149.452 41.1428C149.452 40.7228 149.321 40.4148 149.06 40.2188C148.798 40.0228 148.402 39.9202 147.87 39.9108L146.274 39.8968V42.4308L147.87 42.4448Z" fill="#555252"/>
<path d="M38.8543 71.474V79.874H37.3183V72.794H32.9623V79.874H31.4263V71.474H38.8543ZM41.0549 73.466H42.5549V76.07H45.7829V73.466H47.2829V79.874H45.7829V77.342H42.5549V79.874H41.0549V73.466Z" fill="#555252"/>
<path d="M66.3389 75.506C66.8749 75.65 67.2829 75.898 67.5629 76.25C67.8429 76.594 67.9829 77.026 67.9829 77.546C67.9829 78.282 67.7109 78.854 67.1669 79.262C66.6229 79.67 65.8349 79.874 64.8029 79.874H60.8189V71.474H64.5749C65.5189 71.474 66.2549 71.662 66.7829 72.038C67.3109 72.414 67.5749 72.946 67.5749 73.634C67.5749 74.074 67.4669 74.454 67.2509 74.774C67.0429 75.094 66.7389 75.338 66.3389 75.506ZM62.3549 75.062H64.4429C64.9469 75.062 65.3309 74.962 65.5949 74.762C65.8589 74.562 65.9909 74.266 65.9909 73.874C65.9909 73.482 65.8589 73.186 65.5949 72.986C65.3309 72.778 64.9469 72.674 64.4429 72.674H62.3549V75.062ZM64.7549 78.674C65.8589 78.674 66.4109 78.258 66.4109 77.426C66.4109 76.61 65.8589 76.202 64.7549 76.202H62.3549V78.674H64.7549ZM74.668 74.738H72.424V79.874H70.924V74.738H68.668V73.466H74.668V74.738Z" fill="#555252"/>
<path d="M91.3213 79.994C90.4733 79.994 89.7053 79.81 89.0173 79.442C88.3373 79.066 87.8013 78.55 87.4093 77.894C87.0253 77.238 86.8333 76.498 86.8333 75.674C86.8333 74.85 87.0293 74.11 87.4213 73.454C87.8133 72.798 88.3493 72.286 89.0293 71.918C89.7173 71.542 90.4853 71.354 91.3333 71.354C92.0213 71.354 92.6493 71.474 93.2173 71.714C93.7853 71.954 94.2653 72.302 94.6573 72.758L93.6493 73.706C93.0413 73.05 92.2933 72.722 91.4053 72.722C90.8293 72.722 90.3133 72.85 89.8573 73.106C89.4013 73.354 89.0453 73.702 88.7893 74.15C88.5333 74.598 88.4053 75.106 88.4053 75.674C88.4053 76.242 88.5333 76.75 88.7893 77.198C89.0453 77.646 89.4013 77.998 89.8573 78.254C90.3133 78.502 90.8293 78.626 91.4053 78.626C92.2933 78.626 93.0413 78.294 93.6493 77.63L94.6573 78.59C94.2653 79.046 93.7813 79.394 93.2053 79.634C92.6373 79.874 92.0093 79.994 91.3213 79.994ZM99.4897 73.394C100.114 73.394 100.67 73.53 101.158 73.802C101.654 74.074 102.042 74.458 102.322 74.954C102.602 75.45 102.742 76.022 102.742 76.67C102.742 77.318 102.602 77.894 102.322 78.398C102.042 78.894 101.654 79.278 101.158 79.55C100.67 79.822 100.114 79.958 99.4897 79.958C98.6257 79.958 97.9417 79.67 97.4377 79.094V82.202H95.9377V73.466H97.3657V74.306C97.6137 74.002 97.9177 73.774 98.2777 73.622C98.6457 73.47 99.0497 73.394 99.4897 73.394ZM99.3217 78.674C99.8737 78.674 100.326 78.49 100.678 78.122C101.038 77.754 101.218 77.27 101.218 76.67C101.218 76.07 101.038 75.586 100.678 75.218C100.326 74.85 99.8737 74.666 99.3217 74.666C98.9617 74.666 98.6377 74.75 98.3497 74.918C98.0617 75.078 97.8337 75.31 97.6657 75.614C97.4977 75.918 97.4137 76.27 97.4137 76.67C97.4137 77.07 97.4977 77.422 97.6657 77.726C97.8337 78.03 98.0617 78.266 98.3497 78.434C98.6377 78.594 98.9617 78.674 99.3217 78.674Z" fill="#555252"/>
<path d="M122.033 71.474V79.874H120.485V76.706C119.693 77.002 118.941 77.15 118.229 77.15C117.157 77.15 116.329 76.894 115.745 76.382C115.169 75.862 114.881 75.118 114.881 74.15V71.474H116.429V73.982C116.429 74.574 116.601 75.026 116.945 75.338C117.289 75.65 117.781 75.806 118.421 75.806C119.149 75.806 119.837 75.658 120.485 75.362V71.474H122.033ZM129.295 74.738H127.051V79.874H125.551V74.738H123.295V73.466H129.295V74.738Z" fill="#555252"/>
<path d="M148.891 71.474V79.874H147.355V72.794H142.999V79.874H141.463V71.474H148.891ZM156.168 74.738H153.924V79.874H152.424V74.738H150.168V73.466H156.168V74.738Z" fill="#555252"/>
<path d="M172.657 79.994C171.809 79.994 171.041 79.81 170.353 79.442C169.673 79.066 169.137 78.55 168.745 77.894C168.361 77.238 168.169 76.498 168.169 75.674C168.169 74.85 168.365 74.11 168.757 73.454C169.149 72.798 169.685 72.286 170.365 71.918C171.053 71.542 171.821 71.354 172.669 71.354C173.357 71.354 173.985 71.474 174.553 71.714C175.121 71.954 175.601 72.302 175.993 72.758L174.985 73.706C174.377 73.05 173.629 72.722 172.741 72.722C172.165 72.722 171.649 72.85 171.193 73.106C170.737 73.354 170.381 73.702 170.125 74.15C169.869 74.598 169.741 75.106 169.741 75.674C169.741 76.242 169.869 76.75 170.125 77.198C170.381 77.646 170.737 77.998 171.193 78.254C171.649 78.502 172.165 78.626 172.741 78.626C173.629 78.626 174.377 78.294 174.985 77.63L175.993 78.59C175.601 79.046 175.117 79.394 174.541 79.634C173.973 79.874 173.345 79.994 172.657 79.994ZM180.566 73.778C181.174 73.778 181.71 73.91 182.174 74.174C182.638 74.43 182.998 74.79 183.254 75.254C183.518 75.718 183.65 76.25 183.65 76.85C183.65 77.466 183.506 78.014 183.218 78.494C182.93 78.966 182.526 79.334 182.006 79.598C181.486 79.862 180.894 79.994 180.23 79.994C179.118 79.994 178.258 79.626 177.65 78.89C177.042 78.154 176.738 77.094 176.738 75.71C176.738 74.422 177.014 73.402 177.566 72.65C178.118 71.898 178.962 71.402 180.098 71.162L183.074 70.526L183.29 71.87L180.59 72.422C179.814 72.582 179.234 72.854 178.85 73.238C178.466 73.622 178.242 74.162 178.178 74.858C178.466 74.514 178.814 74.25 179.222 74.066C179.63 73.874 180.078 73.778 180.566 73.778ZM180.266 78.782C180.818 78.782 181.262 78.606 181.598 78.254C181.942 77.894 182.114 77.438 182.114 76.886C182.114 76.334 181.942 75.89 181.598 75.554C181.262 75.218 180.818 75.05 180.266 75.05C179.706 75.05 179.254 75.218 178.91 75.554C178.566 75.89 178.394 76.334 178.394 76.886C178.394 77.446 178.566 77.902 178.91 78.254C179.262 78.606 179.714 78.782 180.266 78.782Z" fill="#555252"/>
<path d="M202.345 75.506C202.881 75.65 203.289 75.898 203.569 76.25C203.849 76.594 203.989 77.026 203.989 77.546C203.989 78.282 203.717 78.854 203.173 79.262C202.629 79.67 201.841 79.874 200.809 79.874H196.825V71.474H200.581C201.525 71.474 202.261 71.662 202.789 72.038C203.317 72.414 203.581 72.946 203.581 73.634C203.581 74.074 203.473 74.454 203.257 74.774C203.049 75.094 202.745 75.338 202.345 75.506ZM198.361 75.062H200.449C200.953 75.062 201.337 74.962 201.601 74.762C201.865 74.562 201.997 74.266 201.997 73.874C201.997 73.482 201.865 73.186 201.601 72.986C201.337 72.778 200.953 72.674 200.449 72.674H198.361V75.062ZM200.761 78.674C201.865 78.674 202.417 78.258 202.417 77.426C202.417 76.61 201.865 76.202 200.761 76.202H198.361V78.674H200.761ZM208.514 79.958C207.85 79.958 207.254 79.818 206.726 79.538C206.198 79.258 205.786 78.87 205.49 78.374C205.194 77.87 205.046 77.302 205.046 76.67C205.046 76.038 205.194 75.474 205.49 74.978C205.786 74.482 206.194 74.094 206.714 73.814C207.242 73.534 207.842 73.394 208.514 73.394C209.146 73.394 209.698 73.522 210.17 73.778C210.65 74.034 211.01 74.402 211.25 74.882L210.098 75.554C209.914 75.258 209.682 75.038 209.402 74.894C209.13 74.742 208.83 74.666 208.502 74.666C207.942 74.666 207.478 74.85 207.11 75.218C206.742 75.578 206.558 76.062 206.558 76.67C206.558 77.278 206.738 77.766 207.098 78.134C207.466 78.494 207.934 78.674 208.502 78.674C208.83 78.674 209.13 78.602 209.402 78.458C209.682 78.306 209.914 78.082 210.098 77.786L211.25 78.458C211.002 78.938 210.638 79.31 210.158 79.574C209.686 79.83 209.138 79.958 208.514 79.958Z" fill="#555252"/>
<path d="M67.9202 95.0958V103.496H66.7322V96.1398H64.8362V95.0958H67.9202Z" fill="#555252"/>
<path d="M150.63 101.62H149.034V103.684H147.87V101.62H143.202V100.78L147.498 95.2842H148.794L144.678 100.588H147.906V98.7642H149.034V100.588H150.63V101.62Z" fill="#555252"/>
<path d="M150.432 117.6V126H148.872V118.908H147.096V117.6H150.432ZM155.002 117.6V126H153.442V118.908H151.666V117.6H155.002Z" fill="#FFA751"/>
<path d="M148.432 140.374V148.774H146.872V141.682H145.096V140.374H148.432ZM155.546 144.358C155.986 144.558 156.322 144.83 156.554 145.174C156.794 145.51 156.914 145.906 156.914 146.362C156.914 146.874 156.77 147.322 156.482 147.706C156.202 148.09 155.802 148.386 155.282 148.594C154.762 148.794 154.158 148.894 153.47 148.894C152.782 148.894 152.178 148.794 151.658 148.594C151.146 148.386 150.75 148.09 150.47 147.706C150.19 147.322 150.05 146.874 150.05 146.362C150.05 145.906 150.166 145.51 150.398 145.174C150.63 144.83 150.962 144.558 151.394 144.358C151.058 144.174 150.798 143.934 150.614 143.638C150.438 143.334 150.35 142.986 150.35 142.594C150.35 142.122 150.478 141.71 150.734 141.358C150.998 141.006 151.366 140.734 151.838 140.542C152.31 140.35 152.854 140.254 153.47 140.254C154.094 140.254 154.642 140.35 155.114 140.542C155.586 140.734 155.954 141.006 156.218 141.358C156.482 141.71 156.614 142.122 156.614 142.594C156.614 142.986 156.522 143.33 156.338 143.626C156.154 143.922 155.89 144.166 155.546 144.358ZM153.47 141.478C152.982 141.478 152.594 141.582 152.306 141.79C152.026 141.998 151.886 142.29 151.886 142.666C151.886 143.026 152.026 143.314 152.306 143.53C152.594 143.738 152.982 143.842 153.47 143.842C153.966 143.842 154.358 143.738 154.646 143.53C154.934 143.314 155.078 143.026 155.078 142.666C155.078 142.29 154.93 141.998 154.634 141.79C154.346 141.582 153.958 141.478 153.47 141.478ZM153.47 147.67C154.046 147.67 154.502 147.55 154.838 147.31C155.174 147.07 155.342 146.738 155.342 146.314C155.342 145.898 155.174 145.57 154.838 145.33C154.502 145.09 154.046 144.97 153.47 144.97C152.894 144.97 152.442 145.09 152.114 145.33C151.786 145.57 151.622 145.898 151.622 146.314C151.622 146.738 151.786 147.07 152.114 147.31C152.442 147.55 152.894 147.67 153.47 147.67Z" fill="#FFA751"/>
<path d="M151.612 170.227V171.547H145.42V170.503L148.756 167.335C149.132 166.975 149.384 166.663 149.512 166.399C149.648 166.127 149.716 165.859 149.716 165.595C149.716 165.203 149.584 164.903 149.32 164.695C149.056 164.487 148.668 164.383 148.156 164.383C147.3 164.383 146.644 164.675 146.188 165.259L145.096 164.419C145.424 163.979 145.864 163.639 146.416 163.399C146.976 163.151 147.6 163.027 148.288 163.027C149.2 163.027 149.928 163.243 150.472 163.675C151.016 164.107 151.288 164.695 151.288 165.439C151.288 165.895 151.192 166.323 151 166.723C150.808 167.123 150.44 167.579 149.896 168.091L147.652 170.227H151.612ZM155.14 166.399C156.324 166.399 157.2 166.631 157.768 167.095C158.336 167.551 158.62 168.175 158.62 168.967C158.62 169.471 158.496 169.927 158.248 170.335C158 170.743 157.628 171.067 157.132 171.307C156.636 171.547 156.024 171.667 155.296 171.667C154.696 171.667 154.116 171.583 153.556 171.415C152.996 171.239 152.524 170.999 152.14 170.695L152.8 169.483C153.112 169.739 153.484 169.943 153.916 170.095C154.356 170.239 154.808 170.311 155.272 170.311C155.824 170.311 156.256 170.199 156.568 169.975C156.888 169.743 157.048 169.427 157.048 169.027C157.048 168.595 156.876 168.271 156.532 168.055C156.196 167.831 155.616 167.719 154.792 167.719H152.764L153.196 163.147H158.128V164.455H154.516L154.336 166.399H155.14Z" fill="#FFA751"/>
<path d="M43.864 116.6V117.644L40.6 125H38.932L42.088 117.92H38.788V119.348H37.336V116.6H43.864Z" fill="#FFA751"/>
<path d="M38.432 138.844V147.244H36.872V140.152H35.096V138.844H38.432ZM47.5863 145.336H46.0983V147.244H44.5863V145.336H39.9783V144.256L44.1183 138.844H45.7863L41.8863 144.016H44.6343V142.324H46.0983V144.016H47.5863V145.336Z" fill="#FFA751"/>
<path d="M41.612 168.698V170.018H35.42V168.974L38.756 165.806C39.132 165.446 39.384 165.134 39.512 164.87C39.648 164.598 39.716 164.33 39.716 164.066C39.716 163.674 39.584 163.374 39.32 163.166C39.056 162.958 38.668 162.854 38.156 162.854C37.3 162.854 36.644 163.146 36.188 163.73L35.096 162.89C35.424 162.45 35.864 162.11 36.416 161.87C36.976 161.622 37.6 161.498 38.288 161.498C39.2 161.498 39.928 161.714 40.472 162.146C41.016 162.578 41.288 163.166 41.288 163.91C41.288 164.366 41.192 164.794 41 165.194C40.808 165.594 40.44 166.05 39.896 166.562L37.652 168.698H41.612ZM45.4164 161.618V170.018H43.8564V162.926H42.0804V161.618H45.4164Z" fill="#FFA751"/>
<path d="M41.48 191.956V193H35.444V192.184L38.864 188.884C39.28 188.484 39.56 188.14 39.704 187.852C39.848 187.556 39.92 187.26 39.92 186.964C39.92 186.524 39.764 186.184 39.452 185.944C39.148 185.696 38.708 185.572 38.132 185.572C37.204 185.572 36.488 185.876 35.984 186.484L35.168 185.776C35.496 185.376 35.924 185.064 36.452 184.84C36.988 184.616 37.584 184.504 38.24 184.504C39.12 184.504 39.82 184.716 40.34 185.14C40.86 185.556 41.12 186.124 41.12 186.844C41.12 187.292 41.024 187.716 40.832 188.116C40.64 188.516 40.276 188.972 39.74 189.484L37.172 191.956H41.48ZM47.6026 188.596C48.0826 188.78 48.4506 189.044 48.7066 189.388C48.9626 189.732 49.0906 190.144 49.0906 190.624C49.0906 191.128 48.9546 191.568 48.6826 191.944C48.4106 192.312 48.0226 192.596 47.5186 192.796C47.0146 192.996 46.4226 193.096 45.7426 193.096C45.0706 193.096 44.4826 192.996 43.9786 192.796C43.4826 192.596 43.0986 192.312 42.8266 191.944C42.5546 191.568 42.4186 191.128 42.4186 190.624C42.4186 190.144 42.5426 189.732 42.7906 189.388C43.0466 189.044 43.4146 188.78 43.8946 188.596C43.5106 188.412 43.2186 188.168 43.0186 187.864C42.8186 187.56 42.7186 187.2 42.7186 186.784C42.7186 186.32 42.8426 185.916 43.0906 185.572C43.3466 185.228 43.7026 184.964 44.1586 184.78C44.6146 184.596 45.1426 184.504 45.7426 184.504C46.3506 184.504 46.8826 184.596 47.3386 184.78C47.8026 184.964 48.1586 185.228 48.4066 185.572C48.6626 185.916 48.7906 186.32 48.7906 186.784C48.7906 187.192 48.6866 187.552 48.4786 187.864C48.2786 188.168 47.9866 188.412 47.6026 188.596ZM45.7426 185.476C45.1746 185.476 44.7266 185.6 44.3986 185.848C44.0706 186.088 43.9066 186.416 43.9066 186.832C43.9066 187.248 44.0666 187.576 44.3866 187.816C44.7146 188.056 45.1666 188.176 45.7426 188.176C46.3266 188.176 46.7826 188.056 47.1106 187.816C47.4466 187.576 47.6146 187.248 47.6146 186.832C47.6146 186.416 47.4426 186.088 47.0986 185.848C46.7626 185.6 46.3106 185.476 45.7426 185.476ZM45.7426 192.124C46.4066 192.124 46.9306 191.988 47.3146 191.716C47.6986 191.436 47.8906 191.06 47.8906 190.588C47.8906 190.124 47.6986 189.76 47.3146 189.496C46.9306 189.224 46.4066 189.088 45.7426 189.088C45.0786 189.088 44.5586 189.224 44.1826 189.496C43.8066 189.76 43.6186 190.124 43.6186 190.588C43.6186 191.06 43.8066 191.436 44.1826 191.716C44.5586 191.988 45.0786 192.124 45.7426 192.124Z" fill="#555252"/>
<path d="M96.7984 102.64V103.684H90.7624V102.868L94.1824 99.5682C94.5984 99.1682 94.8784 98.8242 95.0224 98.5362C95.1664 98.2402 95.2384 97.9442 95.2384 97.6482C95.2384 97.2082 95.0824 96.8682 94.7704 96.6282C94.4664 96.3802 94.0264 96.2562 93.4504 96.2562C92.5224 96.2562 91.8064 96.5602 91.3024 97.1682L90.4864 96.4602C90.8144 96.0602 91.2424 95.7482 91.7704 95.5242C92.3064 95.3002 92.9024 95.1882 93.5584 95.1882C94.4384 95.1882 95.1384 95.4002 95.6584 95.8242C96.1784 96.2402 96.4384 96.8082 96.4384 97.5282C96.4384 97.9762 96.3424 98.4002 96.1504 98.8002C95.9584 99.2002 95.5944 99.6562 95.0584 100.168L92.4904 102.64H96.7984Z" fill="#555252"/>
<path d="M173.915 98.6322C175.115 98.6322 175.995 98.8602 176.555 99.3162C177.123 99.7642 177.407 100.38 177.407 101.164C177.407 101.66 177.287 102.108 177.047 102.508C176.815 102.9 176.459 103.212 175.979 103.444C175.507 103.668 174.923 103.78 174.227 103.78C173.635 103.78 173.063 103.692 172.511 103.516C171.959 103.332 171.503 103.08 171.143 102.76L171.695 101.812C171.983 102.084 172.351 102.304 172.799 102.472C173.247 102.632 173.719 102.712 174.215 102.712C174.847 102.712 175.335 102.58 175.679 102.316C176.031 102.044 176.207 101.676 176.207 101.212C176.207 100.708 176.015 100.328 175.631 100.072C175.247 99.8082 174.591 99.6762 173.663 99.6762H171.755L172.199 95.2842H176.939V96.3282H173.207L172.979 98.6322H173.915Z" fill="#555252"/>
<path d="M173.18 117.6V126H171.992V118.644H170.096V117.6H173.18ZM180.921 124.956V126H174.885V125.184L178.305 121.884C178.721 121.484 179.001 121.14 179.145 120.852C179.289 120.556 179.361 120.26 179.361 119.964C179.361 119.524 179.205 119.184 178.893 118.944C178.589 118.696 178.149 118.572 177.573 118.572C176.645 118.572 175.929 118.876 175.425 119.484L174.609 118.776C174.937 118.376 175.365 118.064 175.893 117.84C176.429 117.616 177.025 117.504 177.681 117.504C178.561 117.504 179.261 117.716 179.781 118.14C180.301 118.556 180.561 119.124 180.561 119.844C180.561 120.292 180.465 120.716 180.273 121.116C180.081 121.516 179.717 121.972 179.181 122.484L176.613 124.956H180.921Z" fill="#555252"/>
<path d="M173.18 140.515V148.915H171.992V141.559H170.096V140.515H173.18ZM177.741 140.419C178.869 140.419 179.737 140.783 180.345 141.511C180.961 142.239 181.269 143.271 181.269 144.607C181.269 145.543 181.101 146.343 180.765 147.007C180.437 147.663 179.973 148.163 179.373 148.507C178.781 148.843 178.089 149.011 177.297 149.011C176.889 149.011 176.505 148.971 176.145 148.891C175.785 148.803 175.473 148.679 175.209 148.519L175.665 147.583C176.073 147.847 176.613 147.979 177.285 147.979C178.157 147.979 178.837 147.711 179.325 147.175C179.821 146.631 180.069 145.843 180.069 144.811V144.511C179.829 144.871 179.497 145.147 179.073 145.339C178.649 145.523 178.173 145.615 177.645 145.615C177.093 145.615 176.597 145.511 176.157 145.303C175.725 145.095 175.385 144.799 175.137 144.415C174.897 144.023 174.777 143.575 174.777 143.071C174.777 142.543 174.905 142.079 175.161 141.679C175.425 141.279 175.781 140.971 176.229 140.755C176.677 140.531 177.181 140.419 177.741 140.419ZM177.849 144.643C178.225 144.643 178.561 144.571 178.857 144.427C179.153 144.283 179.381 144.087 179.541 143.839C179.709 143.591 179.793 143.315 179.793 143.011C179.793 142.715 179.713 142.447 179.553 142.207C179.401 141.959 179.173 141.763 178.869 141.619C178.573 141.467 178.213 141.391 177.789 141.391C177.237 141.391 176.789 141.539 176.445 141.835C176.109 142.131 175.941 142.527 175.941 143.023C175.941 143.519 176.113 143.915 176.457 144.211C176.801 144.499 177.265 144.643 177.849 144.643Z" fill="#555252"/>
<path d="M174.48 168.947V169.991H168.444V169.175L171.864 165.875C172.28 165.475 172.56 165.131 172.704 164.843C172.848 164.547 172.92 164.251 172.92 163.955C172.92 163.515 172.764 163.175 172.452 162.935C172.148 162.687 171.708 162.563 171.132 162.563C170.204 162.563 169.488 162.867 168.984 163.475L168.168 162.767C168.496 162.367 168.924 162.055 169.452 161.831C169.988 161.607 170.584 161.495 171.24 161.495C172.12 161.495 172.82 161.707 173.34 162.131C173.86 162.547 174.12 163.115 174.12 163.835C174.12 164.283 174.024 164.707 173.832 165.107C173.64 165.507 173.276 165.963 172.74 166.475L170.172 168.947H174.48ZM179.055 164.891C179.607 164.891 180.099 164.995 180.531 165.203C180.971 165.411 181.315 165.711 181.563 166.103C181.811 166.487 181.935 166.931 181.935 167.435C181.935 167.963 181.803 168.427 181.539 168.827C181.283 169.227 180.927 169.539 180.471 169.763C180.023 169.979 179.519 170.087 178.959 170.087C177.831 170.087 176.959 169.723 176.343 168.995C175.735 168.267 175.431 167.235 175.431 165.899C175.431 164.963 175.595 164.167 175.923 163.511C176.259 162.847 176.723 162.347 177.315 162.011C177.915 161.667 178.611 161.495 179.403 161.495C179.811 161.495 180.195 161.539 180.555 161.627C180.915 161.707 181.227 161.827 181.491 161.987L181.035 162.923C180.635 162.659 180.099 162.527 179.427 162.527C178.555 162.527 177.871 162.799 177.375 163.343C176.879 163.879 176.631 164.663 176.631 165.695C176.631 165.823 176.635 165.923 176.643 165.995C176.883 165.635 177.211 165.363 177.627 165.179C178.051 164.987 178.527 164.891 179.055 164.891ZM178.911 169.115C179.463 169.115 179.911 168.967 180.255 168.671C180.599 168.375 180.771 167.979 180.771 167.483C180.771 166.987 180.595 166.595 180.243 166.307C179.899 166.011 179.435 165.863 178.851 165.863C178.475 165.863 178.139 165.935 177.843 166.079C177.555 166.223 177.327 166.419 177.159 166.667C176.999 166.915 176.919 167.191 176.919 167.495C176.919 167.791 176.995 168.063 177.147 168.311C177.307 168.551 177.535 168.747 177.831 168.899C178.135 169.043 178.495 169.115 178.911 169.115Z" fill="#555252"/>
<path d="M66.712 121.596C67.192 121.78 67.56 122.044 67.816 122.388C68.072 122.732 68.2 123.144 68.2 123.624C68.2 124.128 68.064 124.568 67.792 124.944C67.52 125.312 67.132 125.596 66.628 125.796C66.124 125.996 65.532 126.096 64.852 126.096C64.18 126.096 63.592 125.996 63.088 125.796C62.592 125.596 62.208 125.312 61.936 124.944C61.664 124.568 61.528 124.128 61.528 123.624C61.528 123.144 61.652 122.732 61.9 122.388C62.156 122.044 62.524 121.78 63.004 121.596C62.62 121.412 62.328 121.168 62.128 120.864C61.928 120.56 61.828 120.2 61.828 119.784C61.828 119.32 61.952 118.916 62.2 118.572C62.456 118.228 62.812 117.964 63.268 117.78C63.724 117.596 64.252 117.504 64.852 117.504C65.46 117.504 65.992 117.596 66.448 117.78C66.912 117.964 67.268 118.228 67.516 118.572C67.772 118.916 67.9 119.32 67.9 119.784C67.9 120.192 67.796 120.552 67.588 120.864C67.388 121.168 67.096 121.412 66.712 121.596ZM64.852 118.476C64.284 118.476 63.836 118.6 63.508 118.848C63.18 119.088 63.016 119.416 63.016 119.832C63.016 120.248 63.176 120.576 63.496 120.816C63.824 121.056 64.276 121.176 64.852 121.176C65.436 121.176 65.892 121.056 66.22 120.816C66.556 120.576 66.724 120.248 66.724 119.832C66.724 119.416 66.552 119.088 66.208 118.848C65.872 118.6 65.42 118.476 64.852 118.476ZM64.852 125.124C65.516 125.124 66.04 124.988 66.424 124.716C66.808 124.436 67 124.06 67 123.588C67 123.124 66.808 122.76 66.424 122.496C66.04 122.224 65.516 122.088 64.852 122.088C64.188 122.088 63.668 122.224 63.292 122.496C62.916 122.76 62.728 123.124 62.728 123.588C62.728 124.06 62.916 124.436 63.292 124.716C63.668 124.988 64.188 125.124 64.852 125.124Z" fill="#555252"/>
<path d="M62.18 140.374V148.774H60.992V141.418H59.096V140.374H62.18ZM66.4174 143.722C67.6174 143.722 68.4974 143.95 69.0574 144.406C69.6254 144.854 69.9094 145.47 69.9094 146.254C69.9094 146.75 69.7894 147.198 69.5494 147.598C69.3174 147.99 68.9614 148.302 68.4814 148.534C68.0094 148.758 67.4254 148.87 66.7294 148.87C66.1374 148.87 65.5654 148.782 65.0134 148.606C64.4614 148.422 64.0054 148.17 63.6454 147.85L64.1974 146.902C64.4854 147.174 64.8534 147.394 65.3014 147.562C65.7494 147.722 66.2214 147.802 66.7174 147.802C67.3494 147.802 67.8374 147.67 68.1814 147.406C68.5334 147.134 68.7094 146.766 68.7094 146.302C68.7094 145.798 68.5174 145.418 68.1334 145.162C67.7494 144.898 67.0934 144.766 66.1654 144.766H64.2574L64.7014 140.374H69.4414V141.418H65.7094L65.4814 143.722H66.4174Z" fill="#555252"/>
<path d="M64.48 168.498V169.542H58.444V168.726L61.864 165.426C62.28 165.026 62.56 164.682 62.704 164.394C62.848 164.098 62.92 163.802 62.92 163.506C62.92 163.066 62.764 162.726 62.452 162.486C62.148 162.238 61.708 162.114 61.132 162.114C60.204 162.114 59.488 162.418 58.984 163.026L58.168 162.318C58.496 161.918 58.924 161.606 59.452 161.382C59.988 161.158 60.584 161.046 61.24 161.046C62.12 161.046 62.82 161.258 63.34 161.682C63.86 162.098 64.12 162.666 64.12 163.386C64.12 163.834 64.024 164.258 63.832 164.658C63.64 165.058 63.276 165.514 62.74 166.026L60.172 168.498H64.48ZM71.3706 168.498V169.542H65.3346V168.726L68.7546 165.426C69.1706 165.026 69.4506 164.682 69.5946 164.394C69.7386 164.098 69.8106 163.802 69.8106 163.506C69.8106 163.066 69.6546 162.726 69.3426 162.486C69.0386 162.238 68.5986 162.114 68.0226 162.114C67.0946 162.114 66.3786 162.418 65.8746 163.026L65.0586 162.318C65.3866 161.918 65.8146 161.606 66.3426 161.382C66.8786 161.158 67.4746 161.046 68.1306 161.046C69.0106 161.046 69.7106 161.258 70.2306 161.682C70.7506 162.098 71.0106 162.666 71.0106 163.386C71.0106 163.834 70.9146 164.258 70.7226 164.658C70.5306 165.058 70.1666 165.514 69.6306 166.026L67.0626 168.498H71.3706Z" fill="#555252"/>
<path d="M65.48 191.956V193H59.444V192.184L62.864 188.884C63.28 188.484 63.56 188.14 63.704 187.852C63.848 187.556 63.92 187.26 63.92 186.964C63.92 186.524 63.764 186.184 63.452 185.944C63.148 185.696 62.708 185.572 62.132 185.572C61.204 185.572 60.488 185.876 59.984 186.484L59.168 185.776C59.496 185.376 59.924 185.064 60.452 184.84C60.988 184.616 61.584 184.504 62.24 184.504C63.12 184.504 63.82 184.716 64.34 185.14C64.86 185.556 65.12 186.124 65.12 186.844C65.12 187.292 65.024 187.716 64.832 188.116C64.64 188.516 64.276 188.972 63.74 189.484L61.172 191.956H65.48ZM69.1906 184.504C70.3186 184.504 71.1866 184.868 71.7946 185.596C72.4106 186.324 72.7186 187.356 72.7186 188.692C72.7186 189.628 72.5506 190.428 72.2146 191.092C71.8866 191.748 71.4226 192.248 70.8226 192.592C70.2306 192.928 69.5386 193.096 68.7466 193.096C68.3386 193.096 67.9546 193.056 67.5946 192.976C67.2346 192.888 66.9226 192.764 66.6586 192.604L67.1146 191.668C67.5226 191.932 68.0626 192.064 68.7346 192.064C69.6066 192.064 70.2866 191.796 70.7746 191.26C71.2706 190.716 71.5186 189.928 71.5186 188.896V188.596C71.2786 188.956 70.9466 189.232 70.5226 189.424C70.0986 189.608 69.6226 189.7 69.0946 189.7C68.5426 189.7 68.0466 189.596 67.6066 189.388C67.1746 189.18 66.8346 188.884 66.5866 188.5C66.3466 188.108 66.2266 187.66 66.2266 187.156C66.2266 186.628 66.3546 186.164 66.6106 185.764C66.8746 185.364 67.2306 185.056 67.6786 184.84C68.1266 184.616 68.6306 184.504 69.1906 184.504ZM69.2986 188.728C69.6746 188.728 70.0106 188.656 70.3066 188.512C70.6026 188.368 70.8306 188.172 70.9906 187.924C71.1586 187.676 71.2426 187.4 71.2426 187.096C71.2426 186.8 71.1626 186.532 71.0026 186.292C70.8506 186.044 70.6226 185.848 70.3186 185.704C70.0226 185.552 69.6626 185.476 69.2386 185.476C68.6866 185.476 68.2386 185.624 67.8946 185.92C67.5586 186.216 67.3906 186.612 67.3906 187.108C67.3906 187.604 67.5626 188 67.9066 188.296C68.2506 188.584 68.7146 188.728 69.2986 188.728Z" fill="#555252"/>
<path d="M122.138 98.8122C122.962 98.8922 123.59 99.1482 124.022 99.5802C124.454 100.004 124.67 100.548 124.67 101.212C124.67 101.692 124.55 102.128 124.31 102.52C124.07 102.904 123.71 103.212 123.23 103.444C122.758 103.668 122.178 103.78 121.49 103.78C120.89 103.78 120.314 103.692 119.762 103.516C119.21 103.332 118.758 103.08 118.406 102.76L118.958 101.812C119.246 102.084 119.614 102.304 120.062 102.472C120.51 102.632 120.986 102.712 121.49 102.712C122.114 102.712 122.598 102.58 122.942 102.316C123.294 102.052 123.47 101.688 123.47 101.224C123.47 100.76 123.298 100.4 122.954 100.144C122.61 99.8882 122.09 99.7602 121.394 99.7602H120.722V98.9202L122.834 96.3282H118.79V95.2842H124.334V96.1002L122.138 98.8122Z" fill="#555252"/>
<path d="M202.063 98.5842C202.615 98.5842 203.107 98.6882 203.539 98.8962C203.979 99.1042 204.323 99.4042 204.571 99.7962C204.819 100.18 204.943 100.624 204.943 101.128C204.943 101.656 204.811 102.12 204.547 102.52C204.291 102.92 203.935 103.232 203.479 103.456C203.031 103.672 202.527 103.78 201.967 103.78C200.839 103.78 199.967 103.416 199.351 102.688C198.743 101.96 198.439 100.928 198.439 99.5922C198.439 98.6562 198.603 97.8602 198.931 97.2042C199.267 96.5402 199.731 96.0402 200.323 95.7042C200.923 95.3602 201.619 95.1882 202.411 95.1882C202.819 95.1882 203.203 95.2322 203.563 95.3202C203.923 95.4002 204.235 95.5202 204.499 95.6802L204.043 96.6162C203.643 96.3522 203.107 96.2202 202.435 96.2202C201.563 96.2202 200.879 96.4922 200.383 97.0362C199.887 97.5722 199.639 98.3562 199.639 99.3882C199.639 99.5162 199.643 99.6162 199.651 99.6882C199.891 99.3282 200.219 99.0562 200.635 98.8722C201.059 98.6802 201.535 98.5842 202.063 98.5842ZM201.919 102.808C202.471 102.808 202.919 102.66 203.263 102.364C203.607 102.068 203.779 101.672 203.779 101.176C203.779 100.68 203.603 100.288 203.251 100C202.907 99.7042 202.443 99.5562 201.859 99.5562C201.483 99.5562 201.147 99.6282 200.851 99.7722C200.563 99.9162 200.335 100.112 200.167 100.36C200.007 100.608 199.927 100.884 199.927 101.188C199.927 101.484 200.003 101.756 200.155 102.004C200.315 102.244 200.543 102.44 200.839 102.592C201.143 102.736 201.503 102.808 201.919 102.808Z" fill="#555252"/>
<path d="M200.18 116.6V125H198.992V117.644H197.096V116.6H200.18ZM205.233 120.128C206.057 120.208 206.685 120.464 207.117 120.896C207.549 121.32 207.765 121.864 207.765 122.528C207.765 123.008 207.645 123.444 207.405 123.836C207.165 124.22 206.805 124.528 206.325 124.76C205.853 124.984 205.273 125.096 204.585 125.096C203.985 125.096 203.409 125.008 202.857 124.832C202.305 124.648 201.853 124.396 201.501 124.076L202.053 123.128C202.341 123.4 202.709 123.62 203.157 123.788C203.605 123.948 204.081 124.028 204.585 124.028C205.209 124.028 205.693 123.896 206.037 123.632C206.389 123.368 206.565 123.004 206.565 122.54C206.565 122.076 206.393 121.716 206.049 121.46C205.705 121.204 205.185 121.076 204.489 121.076H203.817V120.236L205.929 117.644H201.885V116.6H207.429V117.416L205.233 120.128Z" fill="#555252"/>
<path d="M201.48 147.401V148.445H195.444V147.629L198.864 144.329C199.28 143.929 199.56 143.585 199.704 143.297C199.848 143.001 199.92 142.705 199.92 142.409C199.92 141.969 199.764 141.629 199.452 141.389C199.148 141.141 198.708 141.017 198.132 141.017C197.204 141.017 196.488 141.321 195.984 141.929L195.168 141.221C195.496 140.821 195.924 140.509 196.452 140.285C196.988 140.061 197.584 139.949 198.24 139.949C199.12 139.949 199.82 140.161 200.34 140.585C200.86 141.001 201.12 141.569 201.12 142.289C201.12 142.737 201.024 143.161 200.832 143.561C200.64 143.961 200.276 144.417 199.74 144.929L197.172 147.401H201.48ZM205.863 148.541C205.199 148.541 204.607 148.373 204.087 148.037C203.575 147.693 203.171 147.197 202.875 146.549C202.579 145.901 202.431 145.133 202.431 144.245C202.431 143.357 202.579 142.589 202.875 141.941C203.171 141.293 203.575 140.801 204.087 140.465C204.607 140.121 205.199 139.949 205.863 139.949C206.519 139.949 207.103 140.121 207.615 140.465C208.135 140.801 208.543 141.293 208.839 141.941C209.135 142.589 209.283 143.357 209.283 144.245C209.283 145.133 209.135 145.901 208.839 146.549C208.543 147.197 208.135 147.693 207.615 148.037C207.103 148.373 206.519 148.541 205.863 148.541ZM205.863 147.473C206.535 147.473 207.071 147.197 207.471 146.645C207.879 146.093 208.083 145.293 208.083 144.245C208.083 143.197 207.879 142.397 207.471 141.845C207.071 141.293 206.535 141.017 205.863 141.017C205.183 141.017 204.639 141.293 204.231 141.845C203.831 142.397 203.631 143.197 203.631 144.245C203.631 145.293 203.831 146.093 204.231 146.645C204.639 147.197 205.183 147.473 205.863 147.473Z" fill="#555252"/>
<path d="M201.48 168.476V169.52H195.444V168.704L198.864 165.404C199.28 165.004 199.56 164.66 199.704 164.372C199.848 164.076 199.92 163.78 199.92 163.484C199.92 163.044 199.764 162.704 199.452 162.464C199.148 162.216 198.708 162.092 198.132 162.092C197.204 162.092 196.488 162.396 195.984 163.004L195.168 162.296C195.496 161.896 195.924 161.584 196.452 161.36C196.988 161.136 197.584 161.024 198.24 161.024C199.12 161.024 199.82 161.236 200.34 161.66C200.86 162.076 201.12 162.644 201.12 163.364C201.12 163.812 201.024 164.236 200.832 164.636C200.64 165.036 200.276 165.492 199.74 166.004L197.172 168.476H201.48ZM208.551 161.12V161.936L205.155 169.52H203.883L207.207 162.164H203.367V163.664H202.215V161.12H208.551Z" fill="#555252"/>
<path d="M92.36 116.813C93.512 116.813 94.404 117.173 95.036 117.893C95.676 118.613 95.996 119.645 95.996 120.989C95.996 121.933 95.824 122.741 95.48 123.413C95.136 124.077 94.652 124.585 94.028 124.937C93.412 125.281 92.696 125.453 91.88 125.453C91.448 125.453 91.04 125.409 90.656 125.321C90.28 125.225 89.952 125.089 89.672 124.913L90.248 123.737C90.664 124.009 91.196 124.145 91.844 124.145C92.652 124.145 93.284 123.897 93.74 123.401C94.196 122.905 94.424 122.189 94.424 121.253V121.241C94.176 121.529 93.86 121.749 93.476 121.901C93.092 122.045 92.66 122.117 92.18 122.117C91.628 122.117 91.132 122.013 90.692 121.805C90.252 121.589 89.908 121.285 89.66 120.893C89.412 120.501 89.288 120.049 89.288 119.537C89.288 118.993 89.424 118.517 89.696 118.109C89.968 117.693 90.336 117.373 90.8 117.149C91.264 116.925 91.784 116.813 92.36 116.813ZM92.48 120.893C92.984 120.893 93.392 120.757 93.704 120.485C94.024 120.213 94.184 119.869 94.184 119.453C94.184 119.045 94.028 118.709 93.716 118.445C93.412 118.173 92.988 118.037 92.444 118.037C91.956 118.037 91.56 118.169 91.256 118.433C90.952 118.689 90.8 119.033 90.8 119.465C90.8 119.905 90.952 120.253 91.256 120.509C91.56 120.765 91.968 120.893 92.48 120.893Z" fill="#FFA751"/>
<path d="M90.432 139.177V147.577H88.872V140.485H87.096V139.177H90.432ZM95.9143 142.393C96.4663 142.393 96.9623 142.501 97.4023 142.717C97.8423 142.925 98.1863 143.225 98.4343 143.617C98.6823 144.009 98.8063 144.461 98.8063 144.973C98.8063 145.517 98.6703 145.997 98.3983 146.413C98.1263 146.821 97.7583 147.137 97.2943 147.361C96.8303 147.585 96.3103 147.697 95.7343 147.697C94.5823 147.697 93.6863 147.337 93.0463 146.617C92.4143 145.897 92.0983 144.865 92.0983 143.521C92.0983 142.577 92.2703 141.773 92.6143 141.109C92.9583 140.437 93.4383 139.929 94.0543 139.585C94.6783 139.233 95.3983 139.057 96.2143 139.057C96.6463 139.057 97.0503 139.105 97.4263 139.201C97.8103 139.289 98.1423 139.421 98.4223 139.597L97.8463 140.773C97.4303 140.501 96.8983 140.365 96.2503 140.365C95.4423 140.365 94.8103 140.613 94.3543 141.109C93.8983 141.605 93.6703 142.321 93.6703 143.257V143.269C93.9183 142.981 94.2343 142.765 94.6183 142.621C95.0023 142.469 95.4343 142.393 95.9143 142.393ZM95.6503 146.473C96.1383 146.473 96.5343 146.345 96.8383 146.089C97.1423 145.825 97.2943 145.477 97.2943 145.045C97.2943 144.605 97.1423 144.257 96.8383 144.001C96.5343 143.745 96.1263 143.617 95.6143 143.617C95.1103 143.617 94.6983 143.753 94.3783 144.025C94.0663 144.297 93.9103 144.641 93.9103 145.057C93.9103 145.465 94.0623 145.805 94.3663 146.077C94.6783 146.341 95.1063 146.473 95.6503 146.473Z" fill="#FFA751"/>
<path d="M92.612 169.031V170.351H86.42V169.307L89.756 166.139C90.132 165.779 90.384 165.467 90.512 165.203C90.648 164.931 90.716 164.663 90.716 164.399C90.716 164.007 90.584 163.707 90.32 163.499C90.056 163.291 89.668 163.187 89.156 163.187C88.3 163.187 87.644 163.479 87.188 164.063L86.096 163.223C86.424 162.783 86.864 162.443 87.416 162.203C87.976 161.955 88.6 161.831 89.288 161.831C90.2 161.831 90.928 162.047 91.472 162.479C92.016 162.911 92.288 163.499 92.288 164.243C92.288 164.699 92.192 165.127 92 165.527C91.808 165.927 91.44 166.383 90.896 166.895L88.652 169.031H92.612ZM97.0884 165.419C97.8644 165.515 98.4564 165.779 98.8644 166.211C99.2724 166.643 99.4764 167.183 99.4764 167.831C99.4764 168.319 99.3524 168.763 99.1044 169.163C98.8564 169.563 98.4804 169.883 97.9764 170.123C97.4804 170.355 96.8724 170.471 96.1524 170.471C95.5524 170.471 94.9724 170.387 94.4124 170.219C93.8604 170.043 93.3884 169.803 92.9964 169.499L93.6684 168.287C93.9724 168.543 94.3404 168.747 94.7724 168.899C95.2124 169.043 95.6644 169.115 96.1284 169.115C96.6804 169.115 97.1124 169.003 97.4244 168.779C97.7444 168.547 97.9044 168.235 97.9044 167.843C97.9044 167.451 97.7524 167.147 97.4484 166.931C97.1524 166.707 96.6964 166.595 96.0804 166.595H95.3124V165.527L97.2204 163.259H93.4044V161.951H99.1284V162.995L97.0884 165.419Z" fill="#FFA751"/>
<path d="M91.792 188.128C92.616 188.208 93.244 188.464 93.676 188.896C94.108 189.32 94.324 189.864 94.324 190.528C94.324 191.008 94.204 191.444 93.964 191.836C93.724 192.22 93.364 192.528 92.884 192.76C92.412 192.984 91.832 193.096 91.144 193.096C90.544 193.096 89.968 193.008 89.416 192.832C88.864 192.648 88.412 192.396 88.06 192.076L88.612 191.128C88.9 191.4 89.268 191.62 89.716 191.788C90.164 191.948 90.64 192.028 91.144 192.028C91.768 192.028 92.252 191.896 92.596 191.632C92.948 191.368 93.124 191.004 93.124 190.54C93.124 190.076 92.952 189.716 92.608 189.46C92.264 189.204 91.744 189.076 91.048 189.076H90.376V188.236L92.488 185.644H88.444V184.6H93.988V185.416L91.792 188.128ZM98.8752 193.096C98.2112 193.096 97.6192 192.928 97.0992 192.592C96.5872 192.248 96.1832 191.752 95.8872 191.104C95.5912 190.456 95.4432 189.688 95.4432 188.8C95.4432 187.912 95.5912 187.144 95.8872 186.496C96.1832 185.848 96.5872 185.356 97.0992 185.02C97.6192 184.676 98.2112 184.504 98.8752 184.504C99.5312 184.504 100.115 184.676 100.627 185.02C101.147 185.356 101.555 185.848 101.851 186.496C102.147 187.144 102.295 187.912 102.295 188.8C102.295 189.688 102.147 190.456 101.851 191.104C101.555 191.752 101.147 192.248 100.627 192.592C100.115 192.928 99.5312 193.096 98.8752 193.096ZM98.8752 192.028C99.5472 192.028 100.083 191.752 100.483 191.2C100.891 190.648 101.095 189.848 101.095 188.8C101.095 187.752 100.891 186.952 100.483 186.4C100.083 185.848 99.5472 185.572 98.8752 185.572C98.1952 185.572 97.6512 185.848 97.2432 186.4C96.8432 186.952 96.6432 187.752 96.6432 188.8C96.6432 189.848 96.8432 190.648 97.2432 191.2C97.6512 191.752 98.1952 192.028 98.8752 192.028Z" fill="#555252"/>
<path d="M120.18 118.058V126.458H118.992V119.102H117.096V118.058H120.18ZM125.449 126.554C124.785 126.554 124.193 126.386 123.673 126.05C123.161 125.706 122.757 125.21 122.461 124.562C122.165 123.914 122.017 123.146 122.017 122.258C122.017 121.37 122.165 120.602 122.461 119.954C122.757 119.306 123.161 118.814 123.673 118.478C124.193 118.134 124.785 117.962 125.449 117.962C126.105 117.962 126.689 118.134 127.201 118.478C127.721 118.814 128.129 119.306 128.425 119.954C128.721 120.602 128.869 121.37 128.869 122.258C128.869 123.146 128.721 123.914 128.425 124.562C128.129 125.21 127.721 125.706 127.201 126.05C126.689 126.386 126.105 126.554 125.449 126.554ZM125.449 125.486C126.121 125.486 126.657 125.21 127.057 124.658C127.465 124.106 127.669 123.306 127.669 122.258C127.669 121.21 127.465 120.41 127.057 119.858C126.657 119.306 126.121 119.03 125.449 119.03C124.769 119.03 124.225 119.306 123.817 119.858C123.417 120.41 123.217 121.21 123.217 122.258C123.217 123.306 123.417 124.106 123.817 124.658C124.225 125.21 124.769 125.486 125.449 125.486Z" fill="#555252"/>
<path d="M120.182 140.785V149.185H118.994V141.829H117.098V140.785H120.182ZM128.139 140.785V141.601L124.743 149.185H123.471L126.795 141.829H122.955V143.329H121.803V140.785H128.139Z" fill="#555252"/>
<path d="M122.48 169.843V170.887H116.444V170.071L119.864 166.771C120.28 166.371 120.56 166.027 120.704 165.739C120.848 165.443 120.92 165.147 120.92 164.851C120.92 164.411 120.764 164.071 120.452 163.831C120.148 163.583 119.708 163.459 119.132 163.459C118.204 163.459 117.488 163.763 116.984 164.371L116.168 163.663C116.496 163.263 116.924 162.951 117.452 162.727C117.988 162.503 118.584 162.391 119.24 162.391C120.12 162.391 120.82 162.603 121.34 163.027C121.86 163.443 122.12 164.011 122.12 164.731C122.12 165.179 122.024 165.603 121.832 166.003C121.64 166.403 121.276 166.859 120.74 167.371L118.172 169.843H122.48ZM130.552 168.823H128.956V170.887H127.792V168.823H123.124V167.983L127.42 162.487H128.716L124.6 167.791H127.828V165.967H128.956V167.791H130.552V168.823Z" fill="#555252"/>
<path d="M120.792 188.128C121.616 188.208 122.244 188.464 122.676 188.896C123.108 189.32 123.324 189.864 123.324 190.528C123.324 191.008 123.204 191.444 122.964 191.836C122.724 192.22 122.364 192.528 121.884 192.76C121.412 192.984 120.832 193.096 120.144 193.096C119.544 193.096 118.968 193.008 118.416 192.832C117.864 192.648 117.412 192.396 117.06 192.076L117.612 191.128C117.9 191.4 118.268 191.62 118.716 191.788C119.164 191.948 119.64 192.028 120.144 192.028C120.768 192.028 121.252 191.896 121.596 191.632C121.948 191.368 122.124 191.004 122.124 190.54C122.124 190.076 121.952 189.716 121.608 189.46C121.264 189.204 120.744 189.076 120.048 189.076H119.376V188.236L121.488 185.644H117.444V184.6H122.988V185.416L120.792 188.128ZM127.047 184.6V193H125.859V185.644H123.963V184.6H127.047Z" fill="#555252"/>
</svg>
