<svg width="347" height="321" viewBox="0 0 347 321" fill="none" xmlns="http://www.w3.org/2000/svg">
<path d="M133.893 7.344V27H130.243V18.576H120.078V27H116.428V7.344H120.078V15.4591H130.243V7.344H133.893ZM145.697 27.1966C144.181 27.1966 142.814 26.869 141.597 26.2138C140.381 25.5586 139.426 24.6506 138.733 23.49C138.059 22.3106 137.722 20.9815 137.722 19.5026C137.722 18.0238 138.059 16.704 138.733 15.5434C139.426 14.3827 140.381 13.4748 141.597 12.8196C142.814 12.1644 144.181 11.8368 145.697 11.8368C147.232 11.8368 148.608 12.1644 149.825 12.8196C151.042 13.4748 151.987 14.3827 152.661 15.5434C153.354 16.704 153.7 18.0238 153.7 19.5026C153.7 20.9815 153.354 22.3106 152.661 23.49C151.987 24.6506 151.042 25.5586 149.825 26.2138C148.608 26.869 147.232 27.1966 145.697 27.1966ZM145.697 24.192C146.989 24.192 148.056 23.7614 148.898 22.9003C149.741 22.0392 150.162 20.9066 150.162 19.5026C150.162 18.0986 149.741 16.9661 148.898 16.105C148.056 15.2438 146.989 14.8133 145.697 14.8133C144.405 14.8133 143.338 15.2438 142.496 16.105C141.672 16.9661 141.26 18.0986 141.26 19.5026C141.26 20.9066 141.672 22.0392 142.496 22.9003C143.338 23.7614 144.405 24.192 145.697 24.192ZM169.338 12.0053V27H166.193V22.4791H162.234L159.173 27H155.41L158.948 22.0018C157.862 21.6274 157.029 21.0564 156.449 20.2889C155.887 19.5026 155.607 18.5386 155.607 17.3966C155.607 15.6744 156.215 14.3453 157.432 13.4093C158.649 12.4733 160.324 12.0053 162.458 12.0053H169.338ZM162.571 14.9537C160.305 14.9537 159.173 15.8054 159.173 17.509C159.173 19.1938 160.268 20.0362 162.458 20.0362H166.193V14.9537H162.571ZM182.174 12.7354C183.597 12.7354 184.851 13.0442 185.937 13.662C187.023 14.261 187.865 15.1034 188.464 16.1892C189.082 17.275 189.391 18.5198 189.391 19.9238C189.391 21.3653 189.054 22.6476 188.38 23.7708C187.706 24.8753 186.761 25.7364 185.544 26.3542C184.327 26.9719 182.942 27.2808 181.388 27.2808C178.786 27.2808 176.774 26.4197 175.351 24.6974C173.928 22.9752 173.217 20.4948 173.217 17.2562C173.217 14.2423 173.863 11.8555 175.154 10.0958C176.446 8.33616 178.421 7.17552 181.079 6.61392L188.043 5.12568L188.548 8.27064L182.23 9.56232C180.415 9.93672 179.057 10.5732 178.159 11.4718C177.26 12.3703 176.736 13.6339 176.586 15.2626C177.26 14.4576 178.075 13.8398 179.029 13.4093C179.984 12.96 181.032 12.7354 182.174 12.7354ZM181.472 24.4447C182.764 24.4447 183.803 24.0329 184.589 23.2092C185.394 22.3668 185.797 21.2998 185.797 20.0081C185.797 18.7164 185.394 17.6774 184.589 16.8912C183.803 16.105 182.764 15.7118 181.472 15.7118C180.162 15.7118 179.104 16.105 178.299 16.8912C177.494 17.6774 177.092 18.7164 177.092 20.0081C177.092 21.3185 177.494 22.3855 178.299 23.2092C179.123 24.0329 180.181 24.4447 181.472 24.4447ZM201.1 11.8368C202.56 11.8368 203.861 12.155 205.003 12.7915C206.164 13.428 207.072 14.3266 207.727 15.4872C208.382 16.6478 208.71 17.9863 208.71 19.5026C208.71 21.019 208.382 22.3668 207.727 23.5462C207.072 24.7068 206.164 25.6054 205.003 26.2418C203.861 26.8783 202.56 27.1966 201.1 27.1966C199.078 27.1966 197.478 26.5226 196.298 25.1748V32.4475H192.788V12.0053H196.13V13.9709C196.71 13.2595 197.422 12.726 198.264 12.3703C199.125 12.0146 200.07 11.8368 201.1 11.8368ZM200.707 24.192C201.999 24.192 203.056 23.7614 203.88 22.9003C204.722 22.0392 205.144 20.9066 205.144 19.5026C205.144 18.0986 204.722 16.9661 203.88 16.105C203.056 15.2438 201.999 14.8133 200.707 14.8133C199.864 14.8133 199.106 15.0098 198.432 15.403C197.758 15.7774 197.225 16.3202 196.832 17.0316C196.439 17.743 196.242 18.5666 196.242 19.5026C196.242 20.4386 196.439 21.2623 196.832 21.9737C197.225 22.685 197.758 23.2373 198.432 23.6304C199.106 24.0048 199.864 24.192 200.707 24.192ZM219.728 16.9474C221.638 16.9474 223.098 17.3779 224.109 18.239C225.139 19.1002 225.653 20.317 225.653 21.8894C225.653 23.5368 225.092 24.8098 223.969 25.7083C222.845 26.6069 221.263 27.0468 219.223 27.0281L212.203 27V12.0053H215.713V16.9193L219.728 16.9474ZM218.914 24.4447C219.944 24.4634 220.73 24.2482 221.273 23.7989C221.816 23.3496 222.087 22.6944 222.087 21.8333C222.087 20.9909 221.825 20.3731 221.301 19.98C220.777 19.5869 219.981 19.381 218.914 19.3622L215.713 19.3342V24.4166L218.914 24.4447Z" fill="#555252"/>
<path d="M16.8012 78.6603V95.0403H13.806V81.2343H5.3118V95.0403H2.3166V78.6603H16.8012ZM21.0924 82.5447H24.0174V87.6225H30.312V82.5447H33.237V95.0403H30.312V90.1029H24.0174V95.0403H21.0924V82.5447Z" fill="#555252"/>
<path d="M68.4829 86.5227C69.5281 86.8035 70.3237 87.2871 70.8697 87.9735C71.4157 88.6443 71.6887 89.4867 71.6887 90.5007C71.6887 91.9359 71.1583 93.0513 70.0975 93.8469C69.0367 94.6425 67.5001 95.0403 65.4877 95.0403H57.7189V78.6603H65.0431C66.8839 78.6603 68.3191 79.0269 69.3487 79.7601C70.3783 80.4933 70.8931 81.5307 70.8931 82.8723C70.8931 83.7303 70.6825 84.4713 70.2613 85.0953C69.8557 85.7193 69.2629 86.1951 68.4829 86.5227ZM60.7141 85.6569H64.7857C65.7685 85.6569 66.5173 85.4619 67.0321 85.0719C67.5469 84.6819 67.8043 84.1047 67.8043 83.3403C67.8043 82.5759 67.5469 81.9987 67.0321 81.6087C66.5173 81.2031 65.7685 81.0003 64.7857 81.0003H60.7141V85.6569ZM65.3941 92.7003C67.5469 92.7003 68.6233 91.8891 68.6233 90.2667C68.6233 88.6755 67.5469 87.8799 65.3941 87.8799H60.7141V92.7003H65.3941ZM84.7247 85.0251H80.3489V95.0403H77.4239V85.0251H73.0247V82.5447H84.7247V85.0251Z" fill="#555252"/>
<path d="M115.484 95.2743C113.831 95.2743 112.333 94.9155 110.991 94.1979C109.665 93.4647 108.62 92.4585 107.856 91.1793C107.107 89.9001 106.733 88.4571 106.733 86.8503C106.733 85.2435 107.115 83.8005 107.879 82.5213C108.644 81.2421 109.689 80.2437 111.015 79.5261C112.356 78.7929 113.854 78.4263 115.508 78.4263C116.849 78.4263 118.074 78.6603 119.181 79.1283C120.289 79.5963 121.225 80.2749 121.989 81.1641L120.024 83.0127C118.838 81.7335 117.38 81.0939 115.648 81.0939C114.525 81.0939 113.519 81.3435 112.629 81.8427C111.74 82.3263 111.046 83.0049 110.547 83.8785C110.048 84.7521 109.798 85.7427 109.798 86.8503C109.798 87.9579 110.048 88.9485 110.547 89.8221C111.046 90.6957 111.74 91.3821 112.629 91.8813C113.519 92.3649 114.525 92.6067 115.648 92.6067C117.38 92.6067 118.838 91.9593 120.024 90.6645L121.989 92.5365C121.225 93.4257 120.281 94.1043 119.158 94.5723C118.05 95.0403 116.826 95.2743 115.484 95.2743ZM131.413 82.4043C132.63 82.4043 133.714 82.6695 134.665 83.1999C135.633 83.7303 136.389 84.4791 136.935 85.4463C137.481 86.4135 137.754 87.5289 137.754 88.7925C137.754 90.0561 137.481 91.1793 136.935 92.1621C136.389 93.1293 135.633 93.8781 134.665 94.4085C133.714 94.9389 132.63 95.2041 131.413 95.2041C129.728 95.2041 128.394 94.6425 127.411 93.5193V99.5799H124.486V82.5447H127.271V84.1827C127.755 83.5899 128.347 83.1453 129.049 82.8489C129.767 82.5525 130.555 82.4043 131.413 82.4043ZM131.085 92.7003C132.162 92.7003 133.043 92.3415 133.729 91.6239C134.431 90.9063 134.782 89.9625 134.782 88.7925C134.782 87.6225 134.431 86.6787 133.729 85.9611C133.043 85.2435 132.162 84.8847 131.085 84.8847C130.383 84.8847 129.751 85.0485 129.19 85.3761C128.628 85.6881 128.184 86.1405 127.856 86.7333C127.528 87.3261 127.365 88.0125 127.365 88.7925C127.365 89.5725 127.528 90.2589 127.856 90.8517C128.184 91.4445 128.628 91.9047 129.19 92.2323C129.751 92.5443 130.383 92.7003 131.085 92.7003Z" fill="#555252"/>
<path d="M173.554 78.6603V95.0403H170.535V88.8627C168.991 89.4399 167.525 89.7285 166.136 89.7285C164.046 89.7285 162.431 89.2293 161.292 88.2309C160.169 87.2169 159.608 85.7661 159.608 83.8785V78.6603H162.626V83.5509C162.626 84.7053 162.962 85.5867 163.632 86.1951C164.303 86.8035 165.263 87.1077 166.511 87.1077C167.93 87.1077 169.272 86.8191 170.535 86.2419V78.6603H173.554ZM187.715 85.0251H183.34V95.0403H180.415V85.0251H176.015V82.5447H187.715V85.0251Z" fill="#555252"/>
<path d="M224.254 78.6603V95.0403H221.259V81.2343H212.765V95.0403H209.77V78.6603H224.254ZM238.444 85.0251H234.068V95.0403H231.143V85.0251H226.744V82.5447H238.444V85.0251Z" fill="#555252"/>
<path d="M268.824 95.2743C267.17 95.2743 265.673 94.9155 264.331 94.1979C263.005 93.4647 261.96 92.4585 261.196 91.1793C260.447 89.9001 260.072 88.4571 260.072 86.8503C260.072 85.2435 260.455 83.8005 261.219 82.5213C261.983 81.2421 263.029 80.2437 264.355 79.5261C265.696 78.7929 267.194 78.4263 268.847 78.4263C270.189 78.4263 271.414 78.6603 272.521 79.1283C273.629 79.5963 274.565 80.2749 275.329 81.1641L273.364 83.0127C272.178 81.7335 270.719 81.0939 268.988 81.0939C267.865 81.0939 266.858 81.3435 265.969 81.8427C265.08 82.3263 264.386 83.0049 263.887 83.8785C263.387 84.7521 263.138 85.7427 263.138 86.8503C263.138 87.9579 263.387 88.9485 263.887 89.8221C264.386 90.6957 265.08 91.3821 265.969 91.8813C266.858 92.3649 267.865 92.6067 268.988 92.6067C270.719 92.6067 272.178 91.9593 273.364 90.6645L275.329 92.5365C274.565 93.4257 273.621 94.1043 272.498 94.5723C271.39 95.0403 270.166 95.2743 268.824 95.2743ZM284.246 83.1531C285.432 83.1531 286.477 83.4105 287.382 83.9253C288.286 84.4245 288.988 85.1265 289.488 86.0313C290.002 86.9361 290.26 87.9735 290.26 89.1435C290.26 90.3447 289.979 91.4133 289.417 92.3493C288.856 93.2697 288.068 93.9873 287.054 94.5021C286.04 95.0169 284.886 95.2743 283.591 95.2743C281.422 95.2743 279.745 94.5567 278.56 93.1215C277.374 91.6863 276.781 89.6193 276.781 86.9205C276.781 84.4089 277.32 82.4199 278.396 80.9535C279.472 79.4871 281.118 78.5199 283.333 78.0519L289.137 76.8117L289.558 79.4325L284.293 80.5089C282.78 80.8209 281.649 81.3513 280.9 82.1001C280.151 82.8489 279.714 83.9019 279.589 85.2591C280.151 84.5883 280.83 84.0735 281.625 83.7147C282.421 83.3403 283.294 83.1531 284.246 83.1531ZM283.661 92.9109C284.737 92.9109 285.603 92.5677 286.258 91.8813C286.929 91.1793 287.265 90.2901 287.265 89.2137C287.265 88.1373 286.929 87.2715 286.258 86.6163C285.603 85.9611 284.737 85.6335 283.661 85.6335C282.569 85.6335 281.688 85.9611 281.017 86.6163C280.346 87.2715 280.011 88.1373 280.011 89.2137C280.011 90.3057 280.346 91.1949 281.017 91.8813C281.703 92.5677 282.585 92.9109 283.661 92.9109Z" fill="#555252"/>
<path d="M324.901 86.5227C325.946 86.8035 326.742 87.2871 327.288 87.9735C327.834 88.6443 328.107 89.4867 328.107 90.5007C328.107 91.9359 327.576 93.0513 326.516 93.8469C325.455 94.6425 323.918 95.0403 321.906 95.0403H314.137V78.6603H321.461C323.302 78.6603 324.737 79.0269 325.767 79.7601C326.796 80.4933 327.311 81.5307 327.311 82.8723C327.311 83.7303 327.101 84.4713 326.679 85.0953C326.274 85.7193 325.681 86.1951 324.901 86.5227ZM317.132 85.6569H321.204C322.187 85.6569 322.935 85.4619 323.45 85.0719C323.965 84.6819 324.222 84.1047 324.222 83.3403C324.222 82.5759 323.965 81.9987 323.45 81.6087C322.935 81.2031 322.187 81.0003 321.204 81.0003H317.132V85.6569ZM321.812 92.7003C323.965 92.7003 325.041 91.8891 325.041 90.2667C325.041 88.6755 323.965 87.8799 321.812 87.8799H317.132V92.7003H321.812ZM336.931 95.2041C335.636 95.2041 334.474 94.9311 333.444 94.3851C332.415 93.8391 331.611 93.0825 331.034 92.1153C330.457 91.1325 330.168 90.0249 330.168 88.7925C330.168 87.5601 330.457 86.4603 331.034 85.4931C331.611 84.5259 332.407 83.7693 333.421 83.2233C334.45 82.6773 335.62 82.4043 336.931 82.4043C338.163 82.4043 339.24 82.6539 340.16 83.1531C341.096 83.6523 341.798 84.3699 342.266 85.3059L340.02 86.6163C339.661 86.0391 339.208 85.6101 338.662 85.3293C338.132 85.0329 337.547 84.8847 336.907 84.8847C335.815 84.8847 334.911 85.2435 334.193 85.9611C333.475 86.6631 333.117 87.6069 333.117 88.7925C333.117 89.9781 333.468 90.9297 334.17 91.6473C334.887 92.3493 335.8 92.7003 336.907 92.7003C337.547 92.7003 338.132 92.5599 338.662 92.2791C339.208 91.9827 339.661 91.5459 340.02 90.9687L342.266 92.2791C341.782 93.2151 341.073 93.9405 340.137 94.4553C339.216 94.9545 338.148 95.2041 336.931 95.2041Z" fill="#555252"/>
<path d="M20.1618 178.246C21.0978 178.605 21.8154 179.12 22.3146 179.79C22.8138 180.461 23.0634 181.265 23.0634 182.201C23.0634 183.183 22.7982 184.041 22.2678 184.775C21.7374 185.492 20.9808 186.046 19.998 186.436C19.0152 186.826 17.8608 187.021 16.5348 187.021C15.2244 187.021 14.0778 186.826 13.095 186.436C12.1278 186.046 11.379 185.492 10.8486 184.775C10.3182 184.041 10.053 183.183 10.053 182.201C10.053 181.265 10.2948 180.461 10.7784 179.79C11.2776 179.12 11.9952 178.605 12.9312 178.246C12.1824 177.887 11.613 177.411 11.223 176.819C10.833 176.226 10.638 175.524 10.638 174.713C10.638 173.808 10.8798 173.02 11.3634 172.349C11.8626 171.678 12.5568 171.164 13.446 170.805C14.3352 170.446 15.3648 170.267 16.5348 170.267C17.7204 170.267 18.7578 170.446 19.647 170.805C20.5518 171.164 21.246 171.678 21.7296 172.349C22.2288 173.02 22.4784 173.808 22.4784 174.713C22.4784 175.508 22.2756 176.21 21.87 176.819C21.48 177.411 20.9106 177.887 20.1618 178.246ZM16.5348 172.162C15.4272 172.162 14.5536 172.404 13.914 172.887C13.2744 173.355 12.9546 173.995 12.9546 174.806C12.9546 175.617 13.2666 176.257 13.8906 176.725C14.5302 177.193 15.4116 177.427 16.5348 177.427C17.6736 177.427 18.5628 177.193 19.2024 176.725C19.8576 176.257 20.1852 175.617 20.1852 174.806C20.1852 173.995 19.8498 173.355 19.179 172.887C18.5238 172.404 17.6424 172.162 16.5348 172.162ZM16.5348 185.126C17.8296 185.126 18.8514 184.86 19.6002 184.33C20.349 183.784 20.7234 183.051 20.7234 182.13C20.7234 181.226 20.349 180.516 19.6002 180.001C18.8514 179.471 17.8296 179.205 16.5348 179.205C15.24 179.205 14.226 179.471 13.4928 180.001C12.7596 180.516 12.393 181.226 12.393 182.13C12.393 183.051 12.7596 183.784 13.4928 184.33C14.226 184.86 15.24 185.126 16.5348 185.126Z" fill="#555252"/>
<path d="M11.0721 212.405V228.785H8.75549V214.441H5.05829V212.405H11.0721ZM19.335 218.934C21.675 218.934 23.391 219.379 24.483 220.268C25.5906 221.141 26.1444 222.343 26.1444 223.871C26.1444 224.839 25.9104 225.712 25.4424 226.492C24.99 227.257 24.2958 227.865 23.3598 228.317C22.4394 228.754 21.3006 228.973 19.9434 228.973C18.789 228.973 17.6736 228.801 16.5972 228.458C15.5208 228.099 14.6316 227.608 13.9296 226.984L15.006 225.135C15.5676 225.665 16.2852 226.094 17.1588 226.422C18.0324 226.734 18.9528 226.89 19.92 226.89C21.1524 226.89 22.104 226.633 22.7748 226.118C23.4612 225.587 23.8044 224.87 23.8044 223.965C23.8044 222.982 23.43 222.241 22.6812 221.742C21.9324 221.227 20.6532 220.97 18.8436 220.97H15.123L15.9888 212.405H25.2318V214.441H17.9544L17.5098 218.934H19.335Z" fill="#555252"/>
<path d="M17.5071 268.701V270.736H5.73689V269.145L12.4059 262.71C13.2171 261.93 13.7631 261.259 14.0439 260.698C14.3247 260.121 14.4651 259.543 14.4651 258.966C14.4651 258.108 14.1609 257.445 13.5525 256.977C12.9597 256.494 12.1017 256.252 10.9785 256.252C9.16889 256.252 7.77269 256.845 6.78989 258.03L5.19869 256.65C5.83829 255.87 6.67289 255.261 7.70249 254.824C8.74769 254.388 9.90989 254.169 11.1891 254.169C12.9051 254.169 14.2701 254.583 15.2841 255.409C16.2981 256.221 16.8051 257.328 16.8051 258.732C16.8051 259.606 16.6179 260.433 16.2435 261.213C15.8691 261.993 15.1593 262.882 14.1141 263.88L9.10649 268.701H17.5071ZM30.9438 268.701V270.736H19.1736V269.145L25.8426 262.71C26.6538 261.93 27.1998 261.259 27.4806 260.698C27.7614 260.121 27.9018 259.543 27.9018 258.966C27.9018 258.108 27.5976 257.445 26.9892 256.977C26.3964 256.494 25.5384 256.252 24.4152 256.252C22.6056 256.252 21.2094 256.845 20.2266 258.03L18.6354 256.65C19.275 255.87 20.1096 255.261 21.1392 254.824C22.1844 254.388 23.3466 254.169 24.6258 254.169C26.3418 254.169 27.7068 254.583 28.7208 255.409C29.7348 256.221 30.2418 257.328 30.2418 258.732C30.2418 259.606 30.0546 260.433 29.6802 261.213C29.3058 261.993 28.596 262.882 27.5508 263.88L22.5432 268.701H30.9438Z" fill="#555252"/>
<path d="M17.3118 313.092V315.128H5.54158V313.537L12.2106 307.102C13.0218 306.322 13.5678 305.651 13.8486 305.09C14.1294 304.512 14.2698 303.935 14.2698 303.358C14.2698 302.5 13.9656 301.837 13.3572 301.369C12.7644 300.885 11.9064 300.644 10.7832 300.644C8.97358 300.644 7.57738 301.236 6.59458 302.422L5.00338 301.041C5.64298 300.261 6.47758 299.653 7.50718 299.216C8.55238 298.779 9.71458 298.561 10.9938 298.561C12.7098 298.561 14.0748 298.974 15.0888 299.801C16.1028 300.612 16.6098 301.72 16.6098 303.124C16.6098 303.998 16.4226 304.824 16.0482 305.604C15.6738 306.384 14.964 307.274 13.9188 308.272L8.91118 313.092H17.3118ZM24.5475 298.561C26.7471 298.561 28.4397 299.271 29.6253 300.69C30.8265 302.11 31.4271 304.122 31.4271 306.728C31.4271 308.553 31.0995 310.113 30.4443 311.408C29.8047 312.687 28.8999 313.662 27.7299 314.333C26.5755 314.988 25.2261 315.315 23.6817 315.315C22.8861 315.315 22.1373 315.237 21.4353 315.081C20.7333 314.91 20.1249 314.668 19.6101 314.356L20.4993 312.531C21.2949 313.046 22.3479 313.303 23.6583 313.303C25.3587 313.303 26.6847 312.78 27.6363 311.735C28.6035 310.674 29.0871 309.138 29.0871 307.125V306.54C28.6191 307.242 27.9717 307.781 27.1449 308.155C26.3181 308.514 25.3899 308.693 24.3603 308.693C23.2839 308.693 22.3167 308.49 21.4587 308.085C20.6163 307.679 19.9533 307.102 19.4697 306.353C19.0017 305.589 18.7677 304.715 18.7677 303.732C18.7677 302.703 19.0173 301.798 19.5165 301.018C20.0313 300.238 20.7255 299.637 21.5991 299.216C22.4727 298.779 23.4555 298.561 24.5475 298.561ZM24.7581 306.798C25.4913 306.798 26.1465 306.657 26.7237 306.377C27.3009 306.096 27.7455 305.714 28.0575 305.23C28.3851 304.746 28.5489 304.208 28.5489 303.615C28.5489 303.038 28.3929 302.516 28.0809 302.048C27.7845 301.564 27.3399 301.182 26.7471 300.901C26.1699 300.605 25.4679 300.456 24.6411 300.456C23.5647 300.456 22.6911 300.745 22.0203 301.322C21.3651 301.899 21.0375 302.672 21.0375 303.639C21.0375 304.606 21.3729 305.378 22.0437 305.955C22.7145 306.517 23.6193 306.798 24.7581 306.798Z" fill="#555252"/>
<path d="M179.018 140.858H175.906V144.883H173.636V140.858H164.534V139.22L172.911 128.503H175.438L167.412 138.845H173.707V135.289H175.906V138.845H179.018V140.858Z" fill="#555252"/>
<path d="M221.71 133.939C224.788 133.939 227.066 134.542 228.542 135.748C230.019 136.934 230.758 138.556 230.758 140.615C230.758 141.926 230.435 143.111 229.79 144.172C229.146 145.233 228.178 146.075 226.889 146.699C225.599 147.323 224.008 147.635 222.115 147.635C220.555 147.635 219.047 147.417 217.591 146.98C216.135 146.523 214.908 145.899 213.91 145.108L215.626 141.957C216.437 142.623 217.404 143.153 218.527 143.548C219.671 143.923 220.846 144.11 222.053 144.11C223.488 144.11 224.611 143.819 225.422 143.236C226.254 142.633 226.67 141.811 226.67 140.771C226.67 139.648 226.223 138.806 225.329 138.244C224.455 137.662 222.947 137.371 220.805 137.371H215.532L216.655 125.483H229.478V128.884H220.087L219.619 133.939H221.71Z" fill="#FFA751"/>
<path d="M164.795 169.914V186.294H162.478V171.95H158.781V169.914H164.795ZM173.455 169.914V186.294H171.139V171.95H167.442V169.914H173.455Z" fill="#555252"/>
<path d="M164.795 212.072V228.452H162.478V214.107H158.781V212.072H164.795ZM178.393 219.864C179.329 220.223 180.046 220.737 180.546 221.408C181.045 222.079 181.294 222.882 181.294 223.818C181.294 224.801 181.029 225.659 180.499 226.392C179.968 227.11 179.212 227.664 178.229 228.054C177.246 228.444 176.092 228.639 174.766 228.639C173.455 228.639 172.309 228.444 171.326 228.054C170.359 227.664 169.61 227.11 169.08 226.392C168.549 225.659 168.284 224.801 168.284 223.818C168.284 222.882 168.526 222.079 169.009 221.408C169.509 220.737 170.226 220.223 171.162 219.864C170.413 219.505 169.844 219.029 169.454 218.436C169.064 217.844 168.869 217.142 168.869 216.33C168.869 215.426 169.111 214.638 169.594 213.967C170.094 213.296 170.788 212.781 171.677 212.423C172.566 212.064 173.596 211.884 174.766 211.884C175.951 211.884 176.989 212.064 177.878 212.423C178.783 212.781 179.477 213.296 179.961 213.967C180.46 214.638 180.709 215.426 180.709 216.33C180.709 217.126 180.507 217.828 180.101 218.436C179.711 219.029 179.142 219.505 178.393 219.864ZM174.766 213.78C173.658 213.78 172.785 214.022 172.145 214.505C171.505 214.973 171.186 215.613 171.186 216.424C171.186 217.235 171.498 217.875 172.122 218.343C172.761 218.811 173.643 219.045 174.766 219.045C175.905 219.045 176.794 218.811 177.433 218.343C178.089 217.875 178.416 217.235 178.416 216.424C178.416 215.613 178.081 214.973 177.41 214.505C176.755 214.022 175.873 213.78 174.766 213.78ZM174.766 226.743C176.061 226.743 177.082 226.478 177.831 225.948C178.58 225.402 178.954 224.669 178.954 223.748C178.954 222.843 178.58 222.134 177.831 221.619C177.082 221.088 176.061 220.823 174.766 220.823C173.471 220.823 172.457 221.088 171.724 221.619C170.991 222.134 170.624 222.843 170.624 223.748C170.624 224.669 170.991 225.402 171.724 225.948C172.457 226.478 173.471 226.743 174.766 226.743Z" fill="#555252"/>
<path d="M173.304 268.572V270.608H161.534V269.017L168.203 262.582C169.014 261.802 169.56 261.131 169.841 260.57C170.122 259.992 170.262 259.415 170.262 258.838C170.262 257.98 169.958 257.317 169.349 256.849C168.757 256.365 167.899 256.124 166.775 256.124C164.966 256.124 163.57 256.716 162.587 257.902L160.996 256.521C161.635 255.741 162.47 255.133 163.499 254.696C164.545 254.259 165.707 254.041 166.986 254.041C168.702 254.041 170.067 254.454 171.081 255.281C172.095 256.092 172.602 257.2 172.602 258.604C172.602 259.478 172.415 260.304 172.04 261.084C171.666 261.864 170.956 262.754 169.911 263.752L164.903 268.572H173.304ZM179.908 260.757C182.248 260.757 183.964 261.201 185.056 262.091C186.163 262.964 186.717 264.165 186.717 265.694C186.717 266.661 186.483 267.535 186.015 268.315C185.563 269.079 184.869 269.688 183.933 270.14C183.012 270.577 181.873 270.795 180.516 270.795C179.362 270.795 178.246 270.624 177.17 270.281C176.094 269.922 175.204 269.43 174.502 268.806L175.579 266.958C176.14 267.488 176.858 267.917 177.732 268.245C178.605 268.557 179.526 268.713 180.493 268.713C181.725 268.713 182.677 268.455 183.348 267.941C184.034 267.41 184.377 266.693 184.377 265.788C184.377 264.805 184.003 264.064 183.254 263.565C182.505 263.05 181.226 262.793 179.416 262.793H175.696L176.562 254.228H185.805V256.264H178.527L178.083 260.757H179.908Z" fill="#555252"/>
<path d="M74.4876 142.847V144.883H62.7174V143.291L69.3864 136.856C70.1976 136.076 70.7436 135.406 71.0244 134.844C71.3052 134.267 71.4456 133.69 71.4456 133.112C71.4456 132.254 71.1414 131.591 70.533 131.123C69.9402 130.64 69.0822 130.398 67.959 130.398C66.1494 130.398 64.7532 130.991 63.7704 132.176L62.1792 130.796C62.8188 130.016 63.6534 129.407 64.683 128.971C65.7282 128.534 66.8904 128.315 68.1696 128.315C69.8856 128.315 71.2506 128.729 72.2646 129.556C73.2786 130.367 73.7856 131.474 73.7856 132.878C73.7856 133.752 73.5984 134.579 73.224 135.359C72.8496 136.139 72.1398 137.028 71.0946 138.026L66.087 142.847H74.4876Z" fill="#555252"/>
<path d="M20.4037 126.538V148.378H16.3477V129.938H11.7301V126.538H20.4037Z" fill="#FFA751"/>
<path d="M61.4233 169.727C63.6229 169.727 65.3155 170.437 66.5011 171.857C67.7023 173.276 68.3029 175.289 68.3029 177.894C68.3029 179.719 67.9753 181.279 67.3201 182.574C66.6805 183.853 65.7757 184.828 64.6057 185.499C63.4513 186.154 62.1019 186.482 60.5575 186.482C59.7619 186.482 59.0131 186.404 58.3111 186.248C57.6091 186.076 57.0007 185.834 56.4859 185.522L57.3751 183.697C58.1707 184.212 59.2237 184.469 60.5341 184.469C62.2345 184.469 63.5605 183.947 64.5121 182.901C65.4793 181.841 65.9629 180.304 65.9629 178.292V177.707C65.4949 178.409 64.8475 178.947 64.0207 179.321C63.1939 179.68 62.2657 179.859 61.2361 179.859C60.1597 179.859 59.1925 179.657 58.3345 179.251C57.4921 178.845 56.8291 178.268 56.3455 177.519C55.8775 176.755 55.6435 175.881 55.6435 174.899C55.6435 173.869 55.8931 172.964 56.3923 172.184C56.9071 171.404 57.6013 170.804 58.4749 170.382C59.3485 169.946 60.3313 169.727 61.4233 169.727ZM61.6339 177.964C62.3671 177.964 63.0223 177.824 63.5995 177.543C64.1767 177.262 64.6213 176.88 64.9333 176.396C65.2609 175.913 65.4247 175.374 65.4247 174.782C65.4247 174.204 65.2687 173.682 64.9567 173.214C64.6603 172.73 64.2157 172.348 63.6229 172.067C63.0457 171.771 62.3437 171.623 61.5169 171.623C60.4405 171.623 59.5669 171.911 58.8961 172.488C58.2409 173.066 57.9133 173.838 57.9133 174.805C57.9133 175.772 58.2487 176.544 58.9195 177.122C59.5903 177.683 60.4951 177.964 61.6339 177.964Z" fill="#555252"/>
<path d="M61.1893 212.072V228.452H58.8727V214.107H55.1755V212.072H61.1893ZM71.839 218.507C72.9154 218.507 73.8748 218.709 74.7172 219.115C75.5752 219.521 76.246 220.106 76.7296 220.87C77.2132 221.619 77.455 222.485 77.455 223.467C77.455 224.497 77.1976 225.402 76.6828 226.182C76.1836 226.962 75.4894 227.57 74.6002 228.007C73.7266 228.428 72.7438 228.639 71.6518 228.639C69.4522 228.639 67.7518 227.929 66.5506 226.509C65.365 225.09 64.7722 223.077 64.7722 220.472C64.7722 218.647 65.092 217.095 65.7316 215.816C66.3868 214.521 67.2916 213.546 68.446 212.891C69.616 212.22 70.9732 211.884 72.5176 211.884C73.3132 211.884 74.062 211.97 74.764 212.142C75.466 212.298 76.0744 212.532 76.5892 212.844L75.7 214.669C74.92 214.154 73.8748 213.897 72.5644 213.897C70.864 213.897 69.5302 214.427 68.563 215.488C67.5958 216.533 67.1122 218.062 67.1122 220.074C67.1122 220.324 67.12 220.519 67.1356 220.659C67.6036 219.957 68.2432 219.427 69.0544 219.068C69.8812 218.694 70.8094 218.507 71.839 218.507ZM71.5582 226.743C72.6346 226.743 73.5082 226.455 74.179 225.878C74.8498 225.3 75.1852 224.528 75.1852 223.561C75.1852 222.594 74.842 221.829 74.1556 221.268C73.4848 220.691 72.58 220.402 71.4412 220.402C70.708 220.402 70.0528 220.542 69.4756 220.823C68.914 221.104 68.4694 221.486 68.1418 221.97C67.8298 222.453 67.6738 222.992 67.6738 223.584C67.6738 224.162 67.822 224.692 68.1184 225.176C68.4304 225.644 68.875 226.026 69.4522 226.322C70.045 226.603 70.747 226.743 71.5582 226.743Z" fill="#555252"/>
<path d="M68.6633 268.572V270.608H56.8931V269.017L63.5621 262.582C64.3733 261.802 64.9193 261.131 65.2001 260.57C65.4809 259.992 65.6213 259.415 65.6213 258.838C65.6213 257.98 65.3171 257.317 64.7087 256.849C64.1159 256.365 63.2579 256.124 62.1347 256.124C60.3251 256.124 58.9289 256.716 57.9461 257.902L56.3549 256.521C56.9945 255.741 57.8291 255.133 58.8587 254.696C59.9039 254.259 61.0661 254.041 62.3453 254.041C64.0613 254.041 65.4263 254.454 66.4403 255.281C67.4543 256.092 67.9613 257.2 67.9613 258.604C67.9613 259.478 67.7741 260.304 67.3997 261.084C67.0253 261.864 66.3155 262.754 65.2703 263.752L60.2627 268.572H68.6633ZM76.8585 261.108C78.4653 261.264 79.6899 261.763 80.5323 262.605C81.3747 263.432 81.7959 264.493 81.7959 265.788C81.7959 266.724 81.5619 267.574 81.0939 268.338C80.6259 269.087 79.9239 269.688 78.9879 270.14C78.0675 270.577 76.9365 270.795 75.5949 270.795C74.4249 270.795 73.3017 270.624 72.2253 270.281C71.1489 269.922 70.2675 269.43 69.5811 268.806L70.6575 266.958C71.2191 267.488 71.9367 267.917 72.8103 268.245C73.6839 268.557 74.6121 268.713 75.5949 268.713C76.8117 268.713 77.7555 268.455 78.4263 267.941C79.1127 267.426 79.4559 266.716 79.4559 265.811C79.4559 264.906 79.1205 264.204 78.4497 263.705C77.7789 263.206 76.7649 262.956 75.4077 262.956H74.0973V261.318L78.2157 256.264H70.3299V254.228H81.1407V255.819L76.8585 261.108Z" fill="#555252"/>
<path d="M63.0702 305.5C64.677 305.656 65.9016 306.155 66.744 306.997C67.5864 307.824 68.0076 308.885 68.0076 310.18C68.0076 311.116 67.7736 311.966 67.3056 312.73C66.8376 313.479 66.1356 314.08 65.1996 314.532C64.2792 314.969 63.1482 315.187 61.8066 315.187C60.6366 315.187 59.5134 315.016 58.437 314.672C57.3606 314.314 56.4792 313.822 55.7928 313.198L56.8692 311.35C57.4308 311.88 58.1484 312.309 59.022 312.637C59.8956 312.949 60.8238 313.105 61.8066 313.105C63.0234 313.105 63.9672 312.847 64.638 312.332C65.3244 311.818 65.6676 311.108 65.6676 310.203C65.6676 309.298 65.3322 308.596 64.6614 308.097C63.9906 307.598 62.9766 307.348 61.6194 307.348H60.309V305.71L64.4274 300.656H56.5416V298.62H67.3524V300.211L63.0702 305.5ZM76.8824 315.187C75.5876 315.187 74.4332 314.86 73.4192 314.204C72.4208 313.534 71.633 312.566 71.0558 311.303C70.4786 310.039 70.19 308.542 70.19 306.81C70.19 305.078 70.4786 303.581 71.0558 302.317C71.633 301.054 72.4208 300.094 73.4192 299.439C74.4332 298.768 75.5876 298.433 76.8824 298.433C78.1616 298.433 79.3004 298.768 80.2988 299.439C81.3128 300.094 82.1084 301.054 82.6856 302.317C83.2628 303.581 83.5514 305.078 83.5514 306.81C83.5514 308.542 83.2628 310.039 82.6856 311.303C82.1084 312.566 81.3128 313.534 80.2988 314.204C79.3004 314.86 78.1616 315.187 76.8824 315.187ZM76.8824 313.105C78.1928 313.105 79.238 312.566 80.018 311.49C80.8136 310.414 81.2114 308.854 81.2114 306.81C81.2114 304.766 80.8136 303.206 80.018 302.13C79.238 301.054 78.1928 300.515 76.8824 300.515C75.5564 300.515 74.4956 301.054 73.7 302.13C72.92 303.206 72.53 304.766 72.53 306.81C72.53 308.854 72.92 310.414 73.7 311.49C74.4956 312.566 75.5564 313.105 76.8824 313.105Z" fill="#555252"/>
<path d="M215.56 169.914V186.294H213.244V171.95H209.547V169.914H215.56ZM230.656 184.259V186.294H218.886V184.703L225.555 178.268C226.366 177.488 226.912 176.817 227.193 176.256C227.474 175.679 227.614 175.101 227.614 174.524C227.614 173.666 227.31 173.003 226.702 172.535C226.109 172.052 225.251 171.81 224.128 171.81C222.318 171.81 220.922 172.403 219.939 173.588L218.348 172.208C218.987 171.428 219.822 170.819 220.852 170.382C221.897 169.946 223.059 169.727 224.338 169.727C226.054 169.727 227.419 170.141 228.433 170.967C229.447 171.779 229.954 172.886 229.954 174.29C229.954 175.164 229.767 175.991 229.393 176.771C229.018 177.551 228.308 178.44 227.263 179.438L222.256 184.259H230.656Z" fill="#555252"/>
<path d="M216.592 212.072V228.452H214.275V214.107H210.578V212.072H216.592ZM225.486 211.884C227.686 211.884 229.379 212.594 230.564 214.014C231.765 215.433 232.366 217.446 232.366 220.051C232.366 221.876 232.038 223.436 231.383 224.731C230.744 226.01 229.839 226.985 228.669 227.656C227.514 228.311 226.165 228.639 224.621 228.639C223.825 228.639 223.076 228.561 222.374 228.405C221.672 228.233 221.064 227.991 220.549 227.679L221.438 225.854C222.234 226.369 223.287 226.626 224.597 226.626C226.298 226.626 227.624 226.104 228.575 225.059C229.542 223.998 230.026 222.461 230.026 220.449V219.864C229.558 220.566 228.911 221.104 228.084 221.478C227.257 221.837 226.329 222.017 225.299 222.017C224.223 222.017 223.256 221.814 222.398 221.408C221.555 221.003 220.892 220.425 220.409 219.677C219.941 218.912 219.707 218.039 219.707 217.056C219.707 216.026 219.956 215.121 220.455 214.341C220.97 213.561 221.664 212.961 222.538 212.54C223.412 212.103 224.394 211.884 225.486 211.884ZM225.697 220.121C226.43 220.121 227.085 219.981 227.663 219.7C228.24 219.419 228.684 219.037 228.996 218.553C229.324 218.07 229.488 217.532 229.488 216.939C229.488 216.362 229.332 215.839 229.02 215.371C228.723 214.887 228.279 214.505 227.686 214.224C227.109 213.928 226.407 213.78 225.58 213.78C224.504 213.78 223.63 214.068 222.959 214.646C222.304 215.223 221.976 215.995 221.976 216.962C221.976 217.929 222.312 218.702 222.983 219.279C223.653 219.84 224.558 220.121 225.697 220.121Z" fill="#555252"/>
<path d="M225.101 268.572V270.608H213.331V269.017L220 262.582C220.811 261.802 221.357 261.131 221.638 260.57C221.918 259.992 222.059 259.415 222.059 258.838C222.059 257.98 221.755 257.317 221.146 256.849C220.553 256.365 219.695 256.124 218.572 256.124C216.763 256.124 215.366 256.716 214.384 257.902L212.792 256.521C213.432 255.741 214.267 255.133 215.296 254.696C216.341 254.259 217.504 254.041 218.783 254.041C220.499 254.041 221.864 254.454 222.878 255.281C223.892 256.092 224.399 257.2 224.399 258.604C224.399 259.478 224.212 260.304 223.837 261.084C223.463 261.864 222.753 262.754 221.708 263.752L216.7 268.572H225.101ZM234.023 260.663C235.099 260.663 236.059 260.866 236.901 261.272C237.759 261.677 238.43 262.262 238.914 263.027C239.397 263.775 239.639 264.641 239.639 265.624C239.639 266.654 239.382 267.558 238.867 268.338C238.368 269.118 237.673 269.727 236.784 270.164C235.911 270.585 234.928 270.795 233.836 270.795C231.636 270.795 229.936 270.086 228.735 268.666C227.549 267.246 226.956 265.234 226.956 262.629C226.956 260.804 227.276 259.251 227.916 257.972C228.571 256.677 229.476 255.702 230.63 255.047C231.8 254.376 233.157 254.041 234.702 254.041C235.497 254.041 236.246 254.127 236.948 254.298C237.65 254.454 238.258 254.688 238.773 255L237.884 256.826C237.104 256.311 236.059 256.053 234.748 256.053C233.048 256.053 231.714 256.584 230.747 257.645C229.78 258.69 229.296 260.219 229.296 262.231C229.296 262.481 229.304 262.676 229.32 262.816C229.788 262.114 230.427 261.584 231.238 261.225C232.065 260.85 232.993 260.663 234.023 260.663ZM233.742 268.9C234.819 268.9 235.692 268.611 236.363 268.034C237.034 267.457 237.369 266.685 237.369 265.718C237.369 264.75 237.026 263.986 236.34 263.424C235.669 262.847 234.764 262.559 233.625 262.559C232.892 262.559 232.237 262.699 231.66 262.98C231.098 263.261 230.653 263.643 230.326 264.126C230.014 264.61 229.858 265.148 229.858 265.741C229.858 266.318 230.006 266.849 230.302 267.332C230.614 267.8 231.059 268.182 231.636 268.479C232.229 268.76 232.931 268.9 233.742 268.9Z" fill="#555252"/>
<path d="M119.5 135.382C121.107 135.538 122.331 136.037 123.174 136.88C124.016 137.707 124.437 138.767 124.437 140.062C124.437 140.998 124.203 141.848 123.735 142.613C123.267 143.362 122.565 143.962 121.629 144.415C120.709 144.851 119.578 145.07 118.236 145.07C117.066 145.07 115.943 144.898 114.867 144.555C113.79 144.196 112.909 143.705 112.222 143.081L113.299 141.232C113.86 141.763 114.578 142.192 115.452 142.519C116.325 142.831 117.253 142.987 118.236 142.987C119.453 142.987 120.397 142.73 121.068 142.215C121.754 141.7 122.097 140.99 122.097 140.086C122.097 139.181 121.762 138.479 121.091 137.98C120.42 137.48 119.406 137.231 118.049 137.231H116.739V135.593L120.857 130.538H112.971V128.503H123.782V130.094L119.5 135.382Z" fill="#555252"/>
<path d="M107.81 169.914V186.294H105.494V171.95H101.797V169.914H107.81ZM118.086 186.482C116.791 186.482 115.637 186.154 114.623 185.499C113.624 184.828 112.836 183.861 112.259 182.597C111.682 181.334 111.393 179.836 111.393 178.104C111.393 176.373 111.682 174.875 112.259 173.612C112.836 172.348 113.624 171.389 114.623 170.733C115.637 170.063 116.791 169.727 118.086 169.727C119.365 169.727 120.504 170.063 121.502 170.733C122.516 171.389 123.312 172.348 123.889 173.612C124.466 174.875 124.755 176.373 124.755 178.104C124.755 179.836 124.466 181.334 123.889 182.597C123.312 183.861 122.516 184.828 121.502 185.499C120.504 186.154 119.365 186.482 118.086 186.482ZM118.086 184.399C119.396 184.399 120.441 183.861 121.221 182.784C122.017 181.708 122.415 180.148 122.415 178.104C122.415 176.061 122.017 174.501 121.221 173.424C120.441 172.348 119.396 171.81 118.086 171.81C116.76 171.81 115.699 172.348 114.903 173.424C114.123 174.501 113.733 176.061 113.733 178.104C113.733 180.148 114.123 181.708 114.903 182.784C115.699 183.861 116.76 184.399 118.086 184.399Z" fill="#555252"/>
<path d="M112.994 212.072V228.452H110.677V214.107H106.98V212.072H112.994ZM128.511 212.072V213.663L121.889 228.452H119.408L125.89 214.107H118.402V217.032H116.156V212.072H128.511Z" fill="#555252"/>
<path d="M120.468 268.572V270.608H108.698V269.017L115.367 262.582C116.178 261.802 116.724 261.131 117.005 260.57C117.286 259.992 117.426 259.415 117.426 258.838C117.426 257.98 117.122 257.317 116.513 256.849C115.921 256.365 115.063 256.124 113.939 256.124C112.13 256.124 110.734 256.716 109.751 257.902L108.16 256.521C108.799 255.741 109.634 255.133 110.663 254.696C111.709 254.259 112.871 254.041 114.15 254.041C115.866 254.041 117.231 254.454 118.245 255.281C119.259 256.092 119.766 257.2 119.766 258.604C119.766 259.478 119.579 260.304 119.204 261.084C118.83 261.864 118.12 262.754 117.075 263.752L112.067 268.572H120.468ZM136.208 266.583H133.096V270.608H130.826V266.583H121.724V264.945L130.101 254.228H132.628L124.602 264.571H130.897V261.014H133.096V264.571H136.208V266.583Z" fill="#555252"/>
<path d="M273.628 134.938C274.704 134.938 275.663 135.14 276.506 135.546C277.364 135.952 278.034 136.537 278.518 137.301C279.002 138.05 279.244 138.916 279.244 139.898C279.244 140.928 278.986 141.833 278.471 142.613C277.972 143.393 277.278 144.001 276.389 144.438C275.515 144.859 274.532 145.07 273.44 145.07C271.241 145.07 269.54 144.36 268.339 142.94C267.154 141.521 266.561 139.508 266.561 136.903C266.561 135.078 266.88 133.526 267.52 132.247C268.175 130.952 269.08 129.977 270.235 129.322C271.405 128.651 272.762 128.315 274.306 128.315C275.102 128.315 275.851 128.401 276.553 128.573C277.255 128.729 277.863 128.963 278.378 129.275L277.489 131.1C276.709 130.585 275.663 130.328 274.353 130.328C272.653 130.328 271.319 130.858 270.352 131.919C269.384 132.964 268.901 134.493 268.901 136.505C268.901 136.755 268.909 136.95 268.924 137.09C269.392 136.388 270.032 135.858 270.843 135.499C271.67 135.125 272.598 134.938 273.628 134.938ZM273.347 143.174C274.423 143.174 275.297 142.886 275.968 142.309C276.638 141.731 276.974 140.959 276.974 139.992C276.974 139.025 276.631 138.26 275.944 137.699C275.273 137.122 274.369 136.833 273.23 136.833C272.497 136.833 271.841 136.973 271.264 137.254C270.703 137.535 270.258 137.917 269.93 138.401C269.618 138.884 269.462 139.423 269.462 140.015C269.462 140.593 269.611 141.123 269.907 141.607C270.219 142.075 270.664 142.457 271.241 142.753C271.834 143.034 272.536 143.174 273.347 143.174Z" fill="#555252"/>
<path d="M269.435 169.914V186.294H267.119V171.95H263.422V169.914H269.435ZM279.29 176.794C280.896 176.95 282.121 177.449 282.963 178.292C283.806 179.118 284.227 180.179 284.227 181.474C284.227 182.41 283.993 183.26 283.525 184.025C283.057 184.773 282.355 185.374 281.419 185.826C280.499 186.263 279.368 186.482 278.026 186.482C276.856 186.482 275.733 186.31 274.656 185.967C273.58 185.608 272.699 185.117 272.012 184.493L273.089 182.644C273.65 183.174 274.368 183.603 275.241 183.931C276.115 184.243 277.043 184.399 278.026 184.399C279.243 184.399 280.187 184.142 280.857 183.627C281.544 183.112 281.887 182.402 281.887 181.497C281.887 180.593 281.552 179.891 280.881 179.391C280.21 178.892 279.196 178.643 277.839 178.643H276.528V177.005L280.647 171.95H272.761V169.914H283.572V171.506L279.29 176.794Z" fill="#555252"/>
<path d="M274.831 226.416V228.452H263.061V226.86L269.73 220.425C270.541 219.645 271.087 218.975 271.368 218.413C271.649 217.836 271.789 217.259 271.789 216.681C271.789 215.823 271.485 215.16 270.877 214.692C270.284 214.209 269.426 213.967 268.303 213.967C266.493 213.967 265.097 214.56 264.114 215.745L262.523 214.365C263.163 213.585 263.997 212.976 265.027 212.54C266.072 212.103 267.234 211.884 268.513 211.884C270.229 211.884 271.594 212.298 272.608 213.125C273.622 213.936 274.129 215.043 274.129 216.447C274.129 217.321 273.942 218.148 273.568 218.928C273.193 219.708 272.484 220.597 271.438 221.595L266.431 226.416H274.831ZM283.379 228.639C282.084 228.639 280.93 228.311 279.916 227.656C278.917 226.985 278.13 226.018 277.552 224.754C276.975 223.491 276.687 221.993 276.687 220.262C276.687 218.53 276.975 217.032 277.552 215.769C278.13 214.505 278.917 213.546 279.916 212.891C280.93 212.22 282.084 211.884 283.379 211.884C284.658 211.884 285.797 212.22 286.795 212.891C287.809 213.546 288.605 214.505 289.182 215.769C289.759 217.032 290.048 218.53 290.048 220.262C290.048 221.993 289.759 223.491 289.182 224.754C288.605 226.018 287.809 226.985 286.795 227.656C285.797 228.311 284.658 228.639 283.379 228.639ZM283.379 226.556C284.689 226.556 285.735 226.018 286.515 224.942C287.31 223.865 287.708 222.305 287.708 220.262C287.708 218.218 287.31 216.658 286.515 215.582C285.735 214.505 284.689 213.967 283.379 213.967C282.053 213.967 280.992 214.505 280.197 215.582C279.417 216.658 279.027 218.218 279.027 220.262C279.027 222.305 279.417 223.865 280.197 224.942C280.992 226.018 282.053 226.556 283.379 226.556Z" fill="#555252"/>
<path d="M277.945 268.572V270.608H266.174V269.017L272.843 262.582C273.655 261.802 274.201 261.131 274.481 260.57C274.762 259.992 274.903 259.415 274.903 258.838C274.903 257.98 274.598 257.317 273.99 256.849C273.397 256.365 272.539 256.124 271.416 256.124C269.606 256.124 268.21 256.716 267.227 257.902L265.636 256.521C266.276 255.741 267.11 255.133 268.14 254.696C269.185 254.259 270.347 254.041 271.627 254.041C273.343 254.041 274.708 254.454 275.722 255.281C276.736 256.092 277.243 257.2 277.243 258.604C277.243 259.478 277.055 260.304 276.681 261.084C276.307 261.864 275.597 262.754 274.552 263.752L269.544 268.572H277.945ZM291.734 254.228V255.819L285.112 270.608H282.631L289.113 256.264H281.625V259.189H279.379V254.228H291.734Z" fill="#555252"/>
<path d="M330.034 128.503V130.094L323.412 144.883H320.931L327.413 130.538H319.925V133.463H317.679V128.503H330.034Z" fill="#555252"/>
<path d="M323.314 169.914V186.294H320.998V171.95H317.3V169.914H323.314ZM341.148 182.27H338.036V186.294H335.766V182.27H326.663V180.632L335.04 169.914H337.568L329.541 180.257H335.836V176.7H338.036V180.257H341.148V182.27Z" fill="#555252"/>
<path d="M331.82 226.416V228.452H320.049V226.86L326.718 220.425C327.53 219.645 328.076 218.975 328.356 218.413C328.637 217.836 328.778 217.259 328.778 216.681C328.778 215.823 328.473 215.16 327.865 214.692C327.272 214.209 326.414 213.967 325.291 213.967C323.481 213.967 322.085 214.56 321.102 215.745L319.511 214.365C320.151 213.585 320.985 212.976 322.015 212.54C323.06 212.103 324.222 211.884 325.502 211.884C327.218 211.884 328.583 212.298 329.597 213.125C330.611 213.936 331.118 215.043 331.118 216.447C331.118 217.321 330.93 218.148 330.556 218.928C330.182 219.708 329.472 220.597 328.427 221.595L323.419 226.416H331.82ZM338.821 212.072V228.452H336.505V214.107H332.808V212.072H338.821Z" fill="#555252"/>
<path d="M329.749 268.572V270.608H317.979V269.017L324.648 262.582C325.459 261.802 326.005 261.131 326.286 260.57C326.567 259.992 326.707 259.415 326.707 258.838C326.707 257.98 326.403 257.317 325.795 256.849C325.202 256.365 324.344 256.124 323.221 256.124C321.411 256.124 320.015 256.716 319.032 257.902L317.441 256.521C318.08 255.741 318.915 255.133 319.945 254.696C320.99 254.259 322.152 254.041 323.431 254.041C325.147 254.041 326.512 254.454 327.526 255.281C328.54 256.092 329.047 257.2 329.047 258.604C329.047 259.478 328.86 260.304 328.486 261.084C328.111 261.864 327.401 262.754 326.356 263.752L321.349 268.572H329.749ZM341.688 262.02C342.624 262.379 343.342 262.894 343.841 263.565C344.34 264.236 344.59 265.039 344.59 265.975C344.59 266.958 344.325 267.816 343.794 268.549C343.264 269.267 342.507 269.82 341.525 270.21C340.542 270.6 339.387 270.795 338.061 270.795C336.751 270.795 335.604 270.6 334.622 270.21C333.654 269.82 332.906 269.267 332.375 268.549C331.845 267.816 331.58 266.958 331.58 265.975C331.58 265.039 331.821 264.236 332.305 263.565C332.804 262.894 333.522 262.379 334.458 262.02C333.709 261.662 333.14 261.186 332.75 260.593C332.36 260 332.165 259.298 332.165 258.487C332.165 257.582 332.406 256.794 332.89 256.124C333.389 255.453 334.083 254.938 334.973 254.579C335.862 254.22 336.891 254.041 338.061 254.041C339.247 254.041 340.284 254.22 341.174 254.579C342.078 254.938 342.773 255.453 343.256 256.124C343.755 256.794 344.005 257.582 344.005 258.487C344.005 259.283 343.802 259.985 343.397 260.593C343.007 261.186 342.437 261.662 341.688 262.02ZM338.061 255.936C336.954 255.936 336.08 256.178 335.441 256.662C334.801 257.13 334.481 257.769 334.481 258.581C334.481 259.392 334.793 260.031 335.417 260.499C336.057 260.967 336.938 261.201 338.061 261.201C339.2 261.201 340.089 260.967 340.729 260.499C341.384 260.031 341.712 259.392 341.712 258.581C341.712 257.769 341.376 257.13 340.706 256.662C340.05 256.178 339.169 255.936 338.061 255.936ZM338.061 268.9C339.356 268.9 340.378 268.635 341.127 268.104C341.876 267.558 342.25 266.825 342.25 265.905C342.25 265 341.876 264.29 341.127 263.775C340.378 263.245 339.356 262.98 338.061 262.98C336.767 262.98 335.753 263.245 335.019 263.775C334.286 264.29 333.92 265 333.92 265.905C333.92 266.825 334.286 267.558 335.019 268.104C335.753 268.635 336.767 268.9 338.061 268.9Z" fill="#555252"/>
</svg>
