<svg width="347" height="277" viewBox="0 0 347 277" fill="none" xmlns="http://www.w3.org/2000/svg">
<path d="M132.009 17.1439C132.009 19.7273 131.11 21.7678 129.313 23.2654C127.516 24.763 124.961 25.5773 121.647 25.7083V27.7862H118.278V25.7083C114.964 25.5398 112.4 24.7162 110.584 23.2373C108.787 21.7584 107.888 19.7273 107.888 17.1439C107.888 14.5606 108.787 12.5294 110.584 11.0506C112.4 9.55296 114.964 8.71992 118.278 8.55144V6.55776H121.647V8.55144C124.961 8.71992 127.516 9.55296 129.313 11.0506C131.11 12.5294 132.009 14.5606 132.009 17.1439ZM121.647 22.8442C123.894 22.6757 125.597 22.1141 126.758 21.1594C127.918 20.1859 128.499 18.8381 128.499 17.1158C128.499 15.3936 127.909 14.0551 126.73 13.1004C125.569 12.1457 123.875 11.5934 121.647 11.4437V22.8442ZM111.454 17.1439C111.454 18.8474 112.035 20.1766 113.195 21.1313C114.375 22.086 116.069 22.657 118.278 22.8442V11.4437C113.729 11.7806 111.454 13.6807 111.454 17.1439ZM149.489 19.5869C149.489 19.8302 149.471 20.1766 149.433 20.6258H137.668C137.874 21.7303 138.407 22.6102 139.268 23.2654C140.148 23.9018 141.234 24.2201 142.525 24.2201C144.173 24.2201 145.53 23.6772 146.597 22.5914L148.478 24.7536C147.804 25.5586 146.953 26.167 145.923 26.5788C144.894 26.9906 143.733 27.1966 142.441 27.1966C140.794 27.1966 139.343 26.869 138.089 26.2138C136.835 25.5586 135.861 24.6506 135.168 23.49C134.495 22.3106 134.158 20.9815 134.158 19.5026C134.158 18.0425 134.485 16.7321 135.14 15.5714C135.814 14.3921 136.741 13.4748 137.92 12.8196C139.1 12.1644 140.429 11.8368 141.908 11.8368C143.368 11.8368 144.669 12.1644 145.811 12.8196C146.971 13.4561 147.87 14.364 148.506 15.5434C149.162 16.704 149.489 18.0518 149.489 19.5869ZM141.908 14.6448C140.784 14.6448 139.83 14.9818 139.044 15.6557C138.276 16.3109 137.808 17.1907 137.64 18.2952H146.148C145.998 17.2094 145.539 16.3296 144.772 15.6557C144.004 14.9818 143.05 14.6448 141.908 14.6448ZM164.195 19.1938C166.049 19.7554 166.975 20.9534 166.975 22.788C166.975 24.1358 166.47 25.1748 165.459 25.9049C164.448 26.635 162.95 27 160.966 27H153.328V12.0053H160.657C162.492 12.0053 163.924 12.3422 164.953 13.0162C165.983 13.6901 166.498 14.6448 166.498 15.8803C166.498 16.6478 166.292 17.3124 165.88 17.874C165.487 18.4356 164.925 18.8755 164.195 19.1938ZM156.67 18.2671H160.348C162.164 18.2671 163.072 17.64 163.072 16.3858C163.072 15.169 162.164 14.5606 160.348 14.5606H156.67V18.2671ZM160.685 24.4447C162.613 24.4447 163.578 23.8176 163.578 22.5634C163.578 21.9082 163.353 21.4214 162.904 21.1032C162.454 20.7662 161.752 20.5978 160.798 20.5978H156.67V24.4447H160.685ZM179.025 11.8368C180.486 11.8368 181.787 12.155 182.929 12.7915C184.089 13.428 184.997 14.3266 185.652 15.4872C186.308 16.6478 186.635 17.9863 186.635 19.5026C186.635 21.019 186.308 22.3668 185.652 23.5462C184.997 24.7068 184.089 25.6054 182.929 26.2418C181.787 26.8783 180.486 27.1966 179.025 27.1966C177.004 27.1966 175.403 26.5226 174.224 25.1748V32.4475H170.714V12.0053H174.055V13.9709C174.636 13.2595 175.347 12.726 176.189 12.3703C177.051 12.0146 177.996 11.8368 179.025 11.8368ZM178.632 24.192C179.924 24.192 180.982 23.7614 181.805 22.9003C182.648 22.0392 183.069 20.9066 183.069 19.5026C183.069 18.0986 182.648 16.9661 181.805 16.105C180.982 15.2438 179.924 14.8133 178.632 14.8133C177.79 14.8133 177.032 15.0098 176.358 15.403C175.684 15.7774 175.15 16.3202 174.757 17.0316C174.364 17.743 174.168 18.5666 174.168 19.5026C174.168 20.4386 174.364 21.2623 174.757 21.9737C175.15 22.685 175.684 23.2373 176.358 23.6304C177.032 24.0048 177.79 24.192 178.632 24.192ZM195.524 11.8368C197.733 11.8368 199.418 12.3703 200.579 13.4374C201.758 14.4857 202.348 16.0769 202.348 18.211V27H199.034V25.1748C198.604 25.83 197.986 26.3354 197.181 26.6911C196.395 27.0281 195.44 27.1966 194.317 27.1966C193.194 27.1966 192.211 27.0094 191.369 26.635C190.526 26.2418 189.871 25.7083 189.403 25.0344C188.954 24.3418 188.729 23.5649 188.729 22.7038C188.729 21.3559 189.225 20.2795 190.217 19.4746C191.228 18.6509 192.81 18.239 194.963 18.239H198.838V18.0144C198.838 16.9661 198.52 16.1611 197.883 15.5995C197.265 15.0379 196.339 14.7571 195.103 14.7571C194.261 14.7571 193.428 14.8882 192.604 15.1502C191.799 15.4123 191.116 15.7774 190.554 16.2454L189.178 13.6901C189.965 13.091 190.91 12.6324 192.014 12.3142C193.119 11.9959 194.289 11.8368 195.524 11.8368ZM195.047 24.6413C195.927 24.6413 196.704 24.4447 197.378 24.0516C198.07 23.6398 198.557 23.0594 198.838 22.3106V20.5697H195.216C193.194 20.5697 192.183 21.2342 192.183 22.5634C192.183 23.1998 192.436 23.7053 192.941 24.0797C193.447 24.4541 194.149 24.6413 195.047 24.6413ZM220.282 12.0053V27H216.772V14.9818H211.156L211.016 17.9582C210.922 19.9426 210.735 21.6086 210.454 22.9565C210.192 24.2856 209.733 25.3433 209.078 26.1295C208.442 26.897 207.562 27.2808 206.439 27.2808C205.914 27.2808 205.269 27.1778 204.501 26.9719L204.67 24.0235C204.932 24.0797 205.156 24.1078 205.343 24.1078C206.055 24.1078 206.588 23.827 206.944 23.2654C207.3 22.685 207.524 22.0018 207.618 21.2155C207.73 20.4106 207.824 19.2686 207.899 17.7898L208.151 12.0053H220.282ZM232.535 16.9474C234.444 16.9474 235.904 17.3779 236.915 18.239C237.945 19.1002 238.459 20.317 238.459 21.8894C238.459 23.5368 237.898 24.8098 236.775 25.7083C235.651 26.6069 234.07 27.0468 232.029 27.0281L225.009 27V12.0053H228.519V16.9193L232.535 16.9474ZM231.72 24.4447C232.75 24.4634 233.536 24.2482 234.079 23.7989C234.622 23.3496 234.893 22.6944 234.893 21.8333C234.893 20.9909 234.631 20.3731 234.107 19.98C233.583 19.5869 232.787 19.381 231.72 19.3622L228.519 19.3342V24.4166L231.72 24.4447Z" fill="#555252"/>
<path d="M16.8012 78.724V95.104H13.806V81.298H5.3118V95.104H2.3166V78.724H16.8012ZM21.0924 82.6084H24.0174V87.6862H30.312V82.6084H33.237V95.104H30.312V90.1666H24.0174V95.104H21.0924V82.6084Z" fill="#555252"/>
<path d="M68.4829 86.5864C69.5281 86.8672 70.3237 87.3508 70.8697 88.0372C71.4157 88.708 71.6887 89.5504 71.6887 90.5644C71.6887 91.9996 71.1583 93.115 70.0975 93.9106C69.0367 94.7062 67.5001 95.104 65.4877 95.104H57.7189V78.724H65.0431C66.8839 78.724 68.3191 79.0906 69.3487 79.8238C70.3783 80.557 70.8931 81.5944 70.8931 82.936C70.8931 83.794 70.6825 84.535 70.2613 85.159C69.8557 85.783 69.2629 86.2588 68.4829 86.5864ZM60.7141 85.7206H64.7857C65.7685 85.7206 66.5173 85.5256 67.0321 85.1356C67.5469 84.7456 67.8043 84.1684 67.8043 83.404C67.8043 82.6396 67.5469 82.0624 67.0321 81.6724C66.5173 81.2668 65.7685 81.064 64.7857 81.064H60.7141V85.7206ZM65.3941 92.764C67.5469 92.764 68.6233 91.9528 68.6233 90.3304C68.6233 88.7392 67.5469 87.9436 65.3941 87.9436H60.7141V92.764H65.3941ZM84.7247 85.0888H80.3489V95.104H77.4239V85.0888H73.0247V82.6084H84.7247V85.0888Z" fill="#555252"/>
<path d="M115.484 95.338C113.831 95.338 112.333 94.9792 110.991 94.2616C109.665 93.5284 108.62 92.5222 107.856 91.243C107.107 89.9638 106.733 88.5208 106.733 86.914C106.733 85.3072 107.115 83.8642 107.879 82.585C108.644 81.3058 109.689 80.3074 111.015 79.5898C112.356 78.8566 113.854 78.49 115.508 78.49C116.849 78.49 118.074 78.724 119.181 79.192C120.289 79.66 121.225 80.3386 121.989 81.2278L120.024 83.0764C118.838 81.7972 117.38 81.1576 115.648 81.1576C114.525 81.1576 113.519 81.4072 112.629 81.9064C111.74 82.39 111.046 83.0686 110.547 83.9422C110.048 84.8158 109.798 85.8064 109.798 86.914C109.798 88.0216 110.048 89.0122 110.547 89.8858C111.046 90.7594 111.74 91.4458 112.629 91.945C113.519 92.4286 114.525 92.6704 115.648 92.6704C117.38 92.6704 118.838 92.023 120.024 90.7282L121.989 92.6002C121.225 93.4894 120.281 94.168 119.158 94.636C118.05 95.104 116.826 95.338 115.484 95.338ZM131.413 82.468C132.63 82.468 133.714 82.7332 134.665 83.2636C135.633 83.794 136.389 84.5428 136.935 85.51C137.481 86.4772 137.754 87.5926 137.754 88.8562C137.754 90.1198 137.481 91.243 136.935 92.2258C136.389 93.193 135.633 93.9418 134.665 94.4722C133.714 95.0026 132.63 95.2678 131.413 95.2678C129.728 95.2678 128.394 94.7062 127.411 93.583V99.6436H124.486V82.6084H127.271V84.2464C127.755 83.6536 128.347 83.209 129.049 82.9126C129.767 82.6162 130.555 82.468 131.413 82.468ZM131.085 92.764C132.162 92.764 133.043 92.4052 133.729 91.6876C134.431 90.97 134.782 90.0262 134.782 88.8562C134.782 87.6862 134.431 86.7424 133.729 86.0248C133.043 85.3072 132.162 84.9484 131.085 84.9484C130.383 84.9484 129.751 85.1122 129.19 85.4398C128.628 85.7518 128.184 86.2042 127.856 86.797C127.528 87.3898 127.365 88.0762 127.365 88.8562C127.365 89.6362 127.528 90.3226 127.856 90.9154C128.184 91.5082 128.628 91.9684 129.19 92.296C129.751 92.608 130.383 92.764 131.085 92.764Z" fill="#555252"/>
<path d="M173.554 78.724V95.104H170.535V88.9264C168.991 89.5036 167.525 89.7922 166.136 89.7922C164.046 89.7922 162.431 89.293 161.292 88.2946C160.169 87.2806 159.608 85.8298 159.608 83.9422V78.724H162.626V83.6146C162.626 84.769 162.962 85.6504 163.632 86.2588C164.303 86.8672 165.263 87.1714 166.511 87.1714C167.93 87.1714 169.272 86.8828 170.535 86.3056V78.724H173.554ZM187.715 85.0888H183.34V95.104H180.415V85.0888H176.015V82.6084H187.715V85.0888Z" fill="#555252"/>
<path d="M224.254 78.724V95.104H221.259V81.298H212.765V95.104H209.77V78.724H224.254ZM238.444 85.0888H234.068V95.104H231.143V85.0888H226.744V82.6084H238.444V85.0888Z" fill="#555252"/>
<path d="M268.824 95.338C267.17 95.338 265.673 94.9792 264.331 94.2616C263.005 93.5284 261.96 92.5222 261.196 91.243C260.447 89.9638 260.072 88.5208 260.072 86.914C260.072 85.3072 260.455 83.8642 261.219 82.585C261.983 81.3058 263.029 80.3074 264.355 79.5898C265.696 78.8566 267.194 78.49 268.847 78.49C270.189 78.49 271.414 78.724 272.521 79.192C273.629 79.66 274.565 80.3386 275.329 81.2278L273.364 83.0764C272.178 81.7972 270.719 81.1576 268.988 81.1576C267.865 81.1576 266.858 81.4072 265.969 81.9064C265.08 82.39 264.386 83.0686 263.887 83.9422C263.387 84.8158 263.138 85.8064 263.138 86.914C263.138 88.0216 263.387 89.0122 263.887 89.8858C264.386 90.7594 265.08 91.4458 265.969 91.945C266.858 92.4286 267.865 92.6704 268.988 92.6704C270.719 92.6704 272.178 92.023 273.364 90.7282L275.329 92.6002C274.565 93.4894 273.621 94.168 272.498 94.636C271.39 95.104 270.166 95.338 268.824 95.338ZM284.246 83.2168C285.432 83.2168 286.477 83.4742 287.382 83.989C288.286 84.4882 288.988 85.1902 289.488 86.095C290.002 86.9998 290.26 88.0372 290.26 89.2072C290.26 90.4084 289.979 91.477 289.417 92.413C288.856 93.3334 288.068 94.051 287.054 94.5658C286.04 95.0806 284.886 95.338 283.591 95.338C281.422 95.338 279.745 94.6204 278.56 93.1852C277.374 91.75 276.781 89.683 276.781 86.9842C276.781 84.4726 277.32 82.4836 278.396 81.0172C279.472 79.5508 281.118 78.5836 283.333 78.1156L289.137 76.8754L289.558 79.4962L284.293 80.5726C282.78 80.8846 281.649 81.415 280.9 82.1638C280.151 82.9126 279.714 83.9656 279.589 85.3228C280.151 84.652 280.83 84.1372 281.625 83.7784C282.421 83.404 283.294 83.2168 284.246 83.2168ZM283.661 92.9746C284.737 92.9746 285.603 92.6314 286.258 91.945C286.929 91.243 287.265 90.3538 287.265 89.2774C287.265 88.201 286.929 87.3352 286.258 86.68C285.603 86.0248 284.737 85.6972 283.661 85.6972C282.569 85.6972 281.688 86.0248 281.017 86.68C280.346 87.3352 280.011 88.201 280.011 89.2774C280.011 90.3694 280.346 91.2586 281.017 91.945C281.703 92.6314 282.585 92.9746 283.661 92.9746Z" fill="#555252"/>
<path d="M324.901 86.5864C325.946 86.8672 326.742 87.3508 327.288 88.0372C327.834 88.708 328.107 89.5504 328.107 90.5644C328.107 91.9996 327.576 93.115 326.516 93.9106C325.455 94.7062 323.918 95.104 321.906 95.104H314.137V78.724H321.461C323.302 78.724 324.737 79.0906 325.767 79.8238C326.796 80.557 327.311 81.5944 327.311 82.936C327.311 83.794 327.101 84.535 326.679 85.159C326.274 85.783 325.681 86.2588 324.901 86.5864ZM317.132 85.7206H321.204C322.187 85.7206 322.935 85.5256 323.45 85.1356C323.965 84.7456 324.222 84.1684 324.222 83.404C324.222 82.6396 323.965 82.0624 323.45 81.6724C322.935 81.2668 322.187 81.064 321.204 81.064H317.132V85.7206ZM321.812 92.764C323.965 92.764 325.041 91.9528 325.041 90.3304C325.041 88.7392 323.965 87.9436 321.812 87.9436H317.132V92.764H321.812ZM336.931 95.2678C335.636 95.2678 334.474 94.9948 333.444 94.4488C332.415 93.9028 331.611 93.1462 331.034 92.179C330.457 91.1962 330.168 90.0886 330.168 88.8562C330.168 87.6238 330.457 86.524 331.034 85.5568C331.611 84.5896 332.407 83.833 333.421 83.287C334.45 82.741 335.62 82.468 336.931 82.468C338.163 82.468 339.24 82.7176 340.16 83.2168C341.096 83.716 341.798 84.4336 342.266 85.3696L340.02 86.68C339.661 86.1028 339.208 85.6738 338.662 85.393C338.132 85.0966 337.547 84.9484 336.907 84.9484C335.815 84.9484 334.911 85.3072 334.193 86.0248C333.475 86.7268 333.117 87.6706 333.117 88.8562C333.117 90.0418 333.468 90.9934 334.17 91.711C334.887 92.413 335.8 92.764 336.907 92.764C337.547 92.764 338.132 92.6236 338.662 92.3428C339.208 92.0464 339.661 91.6096 340.02 91.0324L342.266 92.3428C341.782 93.2788 341.073 94.0042 340.137 94.519C339.216 95.0182 338.148 95.2678 336.931 95.2678Z" fill="#555252"/>
<path d="M20.1618 178.31C21.0978 178.668 21.8154 179.183 22.3146 179.854C22.8138 180.525 23.0634 181.328 23.0634 182.264C23.0634 183.247 22.7982 184.105 22.2678 184.838C21.7374 185.556 20.9808 186.11 19.998 186.5C19.0152 186.89 17.8608 187.085 16.5348 187.085C15.2244 187.085 14.0778 186.89 13.095 186.5C12.1278 186.11 11.379 185.556 10.8486 184.838C10.3182 184.105 10.053 183.247 10.053 182.264C10.053 181.328 10.2948 180.525 10.7784 179.854C11.2776 179.183 11.9952 178.668 12.9312 178.31C12.1824 177.951 11.613 177.475 11.223 176.882C10.833 176.289 10.638 175.587 10.638 174.776C10.638 173.871 10.8798 173.084 11.3634 172.413C11.8626 171.742 12.5568 171.227 13.446 170.868C14.3352 170.51 15.3648 170.33 16.5348 170.33C17.7204 170.33 18.7578 170.51 19.647 170.868C20.5518 171.227 21.246 171.742 21.7296 172.413C22.2288 173.084 22.4784 173.871 22.4784 174.776C22.4784 175.572 22.2756 176.274 21.87 176.882C21.48 177.475 20.9106 177.951 20.1618 178.31ZM16.5348 172.226C15.4272 172.226 14.5536 172.467 13.914 172.951C13.2744 173.419 12.9546 174.059 12.9546 174.87C12.9546 175.681 13.2666 176.321 13.8906 176.789C14.5302 177.257 15.4116 177.491 16.5348 177.491C17.6736 177.491 18.5628 177.257 19.2024 176.789C19.8576 176.321 20.1852 175.681 20.1852 174.87C20.1852 174.059 19.8498 173.419 19.179 172.951C18.5238 172.467 17.6424 172.226 16.5348 172.226ZM16.5348 185.189C17.8296 185.189 18.8514 184.924 19.6002 184.394C20.349 183.848 20.7234 183.114 20.7234 182.194C20.7234 181.289 20.349 180.579 19.6002 180.065C18.8514 179.534 17.8296 179.269 16.5348 179.269C15.24 179.269 14.226 179.534 13.4928 180.065C12.7596 180.579 12.393 181.289 12.393 182.194C12.393 183.114 12.7596 183.848 13.4928 184.394C14.226 184.924 15.24 185.189 16.5348 185.189Z" fill="#555252"/>
<path d="M11.0721 212.469V228.849H8.75549V214.505H5.05829V212.469H11.0721ZM19.335 218.998C21.675 218.998 23.391 219.442 24.483 220.332C25.5906 221.205 26.1444 222.406 26.1444 223.935C26.1444 224.902 25.9104 225.776 25.4424 226.556C24.99 227.32 24.2958 227.929 23.3598 228.381C22.4394 228.818 21.3006 229.036 19.9434 229.036C18.789 229.036 17.6736 228.865 16.5972 228.522C15.5208 228.163 14.6316 227.671 13.9296 227.047L15.006 225.199C15.5676 225.729 16.2852 226.158 17.1588 226.486C18.0324 226.798 18.9528 226.954 19.92 226.954C21.1524 226.954 22.104 226.696 22.7748 226.182C23.4612 225.651 23.8044 224.934 23.8044 224.029C23.8044 223.046 23.43 222.305 22.6812 221.806C21.9324 221.291 20.6532 221.034 18.8436 221.034H15.123L15.9888 212.469H25.2318V214.505H17.9544L17.5098 218.998H19.335Z" fill="#555252"/>
<path d="M17.5071 268.764V270.8H5.73689V269.209L12.4059 262.774C13.2171 261.994 13.7631 261.323 14.0439 260.761C14.3247 260.184 14.4651 259.607 14.4651 259.03C14.4651 258.172 14.1609 257.509 13.5525 257.041C12.9597 256.557 12.1017 256.315 10.9785 256.315C9.16889 256.315 7.77269 256.908 6.78989 258.094L5.19869 256.713C5.83829 255.933 6.67289 255.325 7.70249 254.888C8.74769 254.451 9.90989 254.233 11.1891 254.233C12.9051 254.233 14.2701 254.646 15.2841 255.473C16.2981 256.284 16.8051 257.392 16.8051 258.796C16.8051 259.669 16.6179 260.496 16.2435 261.276C15.8691 262.056 15.1593 262.945 14.1141 263.944L9.10649 268.764H17.5071ZM30.9438 268.764V270.8H19.1736V269.209L25.8426 262.774C26.6538 261.994 27.1998 261.323 27.4806 260.761C27.7614 260.184 27.9018 259.607 27.9018 259.03C27.9018 258.172 27.5976 257.509 26.9892 257.041C26.3964 256.557 25.5384 256.315 24.4152 256.315C22.6056 256.315 21.2094 256.908 20.2266 258.094L18.6354 256.713C19.275 255.933 20.1096 255.325 21.1392 254.888C22.1844 254.451 23.3466 254.233 24.6258 254.233C26.3418 254.233 27.7068 254.646 28.7208 255.473C29.7348 256.284 30.2418 257.392 30.2418 258.796C30.2418 259.669 30.0546 260.496 29.6802 261.276C29.3058 262.056 28.596 262.945 27.5508 263.944L22.5432 268.764H30.9438Z" fill="#555252"/>
<path d="M179.018 140.921H175.906V144.946H173.636V140.921H164.534V139.283L172.911 128.566H175.438L167.412 138.909H173.707V135.352H175.906V138.909H179.018V140.921Z" fill="#555252"/>
<path d="M221.71 132.002C224.788 132.002 227.066 132.606 228.542 133.812C230.019 134.998 230.758 136.62 230.758 138.679C230.758 139.99 230.435 141.175 229.79 142.236C229.146 143.297 228.178 144.139 226.889 144.763C225.599 145.387 224.008 145.699 222.115 145.699C220.555 145.699 219.047 145.481 217.591 145.044C216.135 144.586 214.908 143.962 213.91 143.172L215.626 140.021C216.437 140.686 217.404 141.217 218.527 141.612C219.671 141.986 220.846 142.174 222.053 142.174C223.488 142.174 224.611 141.882 225.422 141.3C226.254 140.697 226.67 139.875 226.67 138.835C226.67 137.712 226.223 136.87 225.329 136.308C224.455 135.726 222.947 135.434 220.805 135.434H215.532L216.655 123.547H229.478V126.948H220.087L219.619 132.002H221.71Z" fill="#FFA751"/>
<path d="M164.795 169.978V186.358H162.478V172.014H158.781V169.978H164.795ZM173.455 169.978V186.358H171.139V172.014H167.442V169.978H173.455Z" fill="#555252"/>
<path d="M164.795 212.135V228.515H162.478V214.171H158.781V212.135H164.795ZM178.393 219.927C179.329 220.286 180.046 220.801 180.546 221.472C181.045 222.143 181.294 222.946 181.294 223.882C181.294 224.865 181.029 225.723 180.499 226.456C179.968 227.174 179.212 227.727 178.229 228.117C177.246 228.507 176.092 228.702 174.766 228.702C173.455 228.702 172.309 228.507 171.326 228.117C170.359 227.727 169.61 227.174 169.08 226.456C168.549 225.723 168.284 224.865 168.284 223.882C168.284 222.946 168.526 222.143 169.009 221.472C169.509 220.801 170.226 220.286 171.162 219.927C170.413 219.569 169.844 219.093 169.454 218.5C169.064 217.907 168.869 217.205 168.869 216.394C168.869 215.489 169.111 214.701 169.594 214.031C170.094 213.36 170.788 212.845 171.677 212.486C172.566 212.127 173.596 211.948 174.766 211.948C175.951 211.948 176.989 212.127 177.878 212.486C178.783 212.845 179.477 213.36 179.961 214.031C180.46 214.701 180.709 215.489 180.709 216.394C180.709 217.19 180.507 217.892 180.101 218.5C179.711 219.093 179.142 219.569 178.393 219.927ZM174.766 213.843C173.658 213.843 172.785 214.085 172.145 214.569C171.505 215.037 171.186 215.676 171.186 216.488C171.186 217.299 171.498 217.938 172.122 218.406C172.761 218.874 173.643 219.108 174.766 219.108C175.905 219.108 176.794 218.874 177.433 218.406C178.089 217.938 178.416 217.299 178.416 216.488C178.416 215.676 178.081 215.037 177.41 214.569C176.755 214.085 175.873 213.843 174.766 213.843ZM174.766 226.807C176.061 226.807 177.082 226.542 177.831 226.011C178.58 225.465 178.954 224.732 178.954 223.812C178.954 222.907 178.58 222.197 177.831 221.682C177.082 221.152 176.061 220.887 174.766 220.887C173.471 220.887 172.457 221.152 171.724 221.682C170.991 222.197 170.624 222.907 170.624 223.812C170.624 224.732 170.991 225.465 171.724 226.011C172.457 226.542 173.471 226.807 174.766 226.807Z" fill="#555252"/>
<path d="M173.304 268.636V270.672H161.534V269.081L168.203 262.646C169.014 261.866 169.56 261.195 169.841 260.633C170.122 260.056 170.262 259.479 170.262 258.902C170.262 258.044 169.958 257.381 169.349 256.913C168.757 256.429 167.899 256.187 166.775 256.187C164.966 256.187 163.57 256.78 162.587 257.966L160.996 256.585C161.635 255.805 162.47 255.197 163.499 254.76C164.545 254.323 165.707 254.105 166.986 254.105C168.702 254.105 170.067 254.518 171.081 255.345C172.095 256.156 172.602 257.264 172.602 258.668C172.602 259.541 172.415 260.368 172.04 261.148C171.666 261.928 170.956 262.817 169.911 263.816L164.903 268.636H173.304ZM179.908 260.82C182.248 260.82 183.964 261.265 185.056 262.154C186.163 263.028 186.717 264.229 186.717 265.758C186.717 266.725 186.483 267.599 186.015 268.379C185.563 269.143 184.869 269.751 183.933 270.204C183.012 270.641 181.873 270.859 180.516 270.859C179.362 270.859 178.246 270.687 177.17 270.344C176.094 269.985 175.204 269.494 174.502 268.87L175.579 267.021C176.14 267.552 176.858 267.981 177.732 268.308C178.605 268.62 179.526 268.776 180.493 268.776C181.725 268.776 182.677 268.519 183.348 268.004C184.034 267.474 184.377 266.756 184.377 265.851C184.377 264.869 184.003 264.128 183.254 263.628C182.505 263.114 181.226 262.856 179.416 262.856H175.696L176.562 254.292H185.805V256.328H178.527L178.083 260.82H179.908Z" fill="#555252"/>
<path d="M74.4876 142.91V144.946H62.7174V143.355L69.3864 136.92C70.1976 136.14 70.7436 135.469 71.0244 134.908C71.3052 134.33 71.4456 133.753 71.4456 133.176C71.4456 132.318 71.1414 131.655 70.533 131.187C69.9402 130.703 69.0822 130.462 67.959 130.462C66.1494 130.462 64.7532 131.054 63.7704 132.24L62.1792 130.859C62.8188 130.079 63.6534 129.471 64.683 129.034C65.7282 128.597 66.8904 128.379 68.1696 128.379C69.8856 128.379 71.2506 128.792 72.2646 129.619C73.2786 130.43 73.7856 131.538 73.7856 132.942C73.7856 133.816 73.5984 134.642 73.224 135.422C72.8496 136.202 72.1398 137.092 71.0946 138.09L66.087 142.91H74.4876Z" fill="#555252"/>
<path d="M20.4037 124.601V146.441H16.3477V128.002H11.7301V124.601H20.4037Z" fill="#FFA751"/>
<path d="M61.4233 169.791C63.6229 169.791 65.3155 170.501 66.5011 171.92C67.7023 173.34 68.3029 175.352 68.3029 177.958C68.3029 179.783 67.9753 181.343 67.3201 182.638C66.6805 183.917 65.7757 184.892 64.6057 185.563C63.4513 186.218 62.1019 186.545 60.5575 186.545C59.7619 186.545 59.0131 186.467 58.3111 186.311C57.6091 186.14 57.0007 185.898 56.4859 185.586L57.3751 183.761C58.1707 184.276 59.2237 184.533 60.5341 184.533C62.2345 184.533 63.5605 184.01 64.5121 182.965C65.4793 181.904 65.9629 180.368 65.9629 178.355V177.77C65.4949 178.472 64.8475 179.011 64.0207 179.385C63.1939 179.744 62.2657 179.923 61.2361 179.923C60.1597 179.923 59.1925 179.72 58.3345 179.315C57.4921 178.909 56.8291 178.332 56.3455 177.583C55.8775 176.819 55.6435 175.945 55.6435 174.962C55.6435 173.933 55.8931 173.028 56.3923 172.248C56.9071 171.468 57.6013 170.867 58.4749 170.446C59.3485 170.009 60.3313 169.791 61.4233 169.791ZM61.6339 178.028C62.3671 178.028 63.0223 177.887 63.5995 177.607C64.1767 177.326 64.6213 176.944 64.9333 176.46C65.2609 175.976 65.4247 175.438 65.4247 174.845C65.4247 174.268 65.2687 173.746 64.9567 173.278C64.6603 172.794 64.2157 172.412 63.6229 172.131C63.0457 171.835 62.3437 171.686 61.5169 171.686C60.4405 171.686 59.5669 171.975 58.8961 172.552C58.2409 173.129 57.9133 173.902 57.9133 174.869C57.9133 175.836 58.2487 176.608 58.9195 177.185C59.5903 177.747 60.4951 178.028 61.6339 178.028Z" fill="#555252"/>
<path d="M61.1893 212.135V228.515H58.8727V214.171H55.1755V212.135H61.1893ZM71.839 218.57C72.9154 218.57 73.8748 218.773 74.7172 219.179C75.5752 219.584 76.246 220.169 76.7296 220.934C77.2132 221.682 77.455 222.548 77.455 223.531C77.455 224.561 77.1976 225.465 76.6828 226.245C76.1836 227.025 75.4894 227.634 74.6002 228.071C73.7266 228.492 72.7438 228.702 71.6518 228.702C69.4522 228.702 67.7518 227.993 66.5506 226.573C65.365 225.153 64.7722 223.141 64.7722 220.536C64.7722 218.711 65.092 217.158 65.7316 215.879C66.3868 214.584 67.2916 213.609 68.446 212.954C69.616 212.283 70.9732 211.948 72.5176 211.948C73.3132 211.948 74.062 212.034 74.764 212.205C75.466 212.361 76.0744 212.595 76.5892 212.907L75.7 214.733C74.92 214.218 73.8748 213.96 72.5644 213.96C70.864 213.96 69.5302 214.491 68.563 215.552C67.5958 216.597 67.1122 218.126 67.1122 220.138C67.1122 220.388 67.12 220.583 67.1356 220.723C67.6036 220.021 68.2432 219.491 69.0544 219.132C69.8812 218.757 70.8094 218.57 71.839 218.57ZM71.5582 226.807C72.6346 226.807 73.5082 226.518 74.179 225.941C74.8498 225.364 75.1852 224.592 75.1852 223.625C75.1852 222.657 74.842 221.893 74.1556 221.331C73.4848 220.754 72.58 220.466 71.4412 220.466C70.708 220.466 70.0528 220.606 69.4756 220.887C68.914 221.168 68.4694 221.55 68.1418 222.033C67.8298 222.517 67.6738 223.055 67.6738 223.648C67.6738 224.225 67.822 224.756 68.1184 225.239C68.4304 225.707 68.875 226.089 69.4522 226.386C70.045 226.667 70.747 226.807 71.5582 226.807Z" fill="#555252"/>
<path d="M68.6633 268.636V270.672H56.8931V269.081L63.5621 262.646C64.3733 261.866 64.9193 261.195 65.2001 260.633C65.4809 260.056 65.6213 259.479 65.6213 258.902C65.6213 258.044 65.3171 257.381 64.7087 256.913C64.1159 256.429 63.2579 256.187 62.1347 256.187C60.3251 256.187 58.9289 256.78 57.9461 257.966L56.3549 256.585C56.9945 255.805 57.8291 255.197 58.8587 254.76C59.9039 254.323 61.0661 254.105 62.3453 254.105C64.0613 254.105 65.4263 254.518 66.4403 255.345C67.4543 256.156 67.9613 257.264 67.9613 258.668C67.9613 259.541 67.7741 260.368 67.3997 261.148C67.0253 261.928 66.3155 262.817 65.2703 263.816L60.2627 268.636H68.6633ZM76.8585 261.171C78.4653 261.327 79.6899 261.827 80.5323 262.669C81.3747 263.496 81.7959 264.557 81.7959 265.851C81.7959 266.787 81.5619 267.638 81.0939 268.402C80.6259 269.151 79.9239 269.751 78.9879 270.204C78.0675 270.641 76.9365 270.859 75.5949 270.859C74.4249 270.859 73.3017 270.687 72.2253 270.344C71.1489 269.985 70.2675 269.494 69.5811 268.87L70.6575 267.021C71.2191 267.552 71.9367 267.981 72.8103 268.308C73.6839 268.62 74.6121 268.776 75.5949 268.776C76.8117 268.776 77.7555 268.519 78.4263 268.004C79.1127 267.489 79.4559 266.78 79.4559 265.875C79.4559 264.97 79.1205 264.268 78.4497 263.769C77.7789 263.27 76.7649 263.02 75.4077 263.02H74.0973V261.382L78.2157 256.328H70.3299V254.292H81.1407V255.883L76.8585 261.171Z" fill="#555252"/>
<path d="M215.56 169.978V186.358H213.244V172.014H209.547V169.978H215.56ZM230.656 184.322V186.358H218.886V184.767L225.555 178.332C226.366 177.552 226.912 176.881 227.193 176.32C227.474 175.742 227.614 175.165 227.614 174.588C227.614 173.73 227.31 173.067 226.702 172.599C226.109 172.115 225.251 171.874 224.128 171.874C222.318 171.874 220.922 172.466 219.939 173.652L218.348 172.271C218.987 171.491 219.822 170.883 220.852 170.446C221.897 170.009 223.059 169.791 224.338 169.791C226.054 169.791 227.419 170.204 228.433 171.031C229.447 171.842 229.954 172.95 229.954 174.354C229.954 175.228 229.767 176.054 229.393 176.834C229.018 177.614 228.308 178.504 227.263 179.502L222.256 184.322H230.656Z" fill="#555252"/>
<path d="M216.592 212.135V228.515H214.275V214.171H210.578V212.135H216.592ZM225.486 211.948C227.686 211.948 229.379 212.658 230.564 214.077C231.765 215.497 232.366 217.509 232.366 220.115C232.366 221.94 232.038 223.5 231.383 224.795C230.744 226.074 229.839 227.049 228.669 227.72C227.514 228.375 226.165 228.702 224.621 228.702C223.825 228.702 223.076 228.624 222.374 228.468C221.672 228.297 221.064 228.055 220.549 227.743L221.438 225.918C222.234 226.433 223.287 226.69 224.597 226.69C226.298 226.69 227.624 226.167 228.575 225.122C229.542 224.061 230.026 222.525 230.026 220.512V219.927C229.558 220.629 228.911 221.168 228.084 221.542C227.257 221.901 226.329 222.08 225.299 222.08C224.223 222.08 223.256 221.877 222.398 221.472C221.555 221.066 220.892 220.489 220.409 219.74C219.941 218.976 219.707 218.102 219.707 217.119C219.707 216.09 219.956 215.185 220.455 214.405C220.97 213.625 221.664 213.024 222.538 212.603C223.412 212.166 224.394 211.948 225.486 211.948ZM225.697 220.185C226.43 220.185 227.085 220.044 227.663 219.764C228.24 219.483 228.684 219.101 228.996 218.617C229.324 218.133 229.488 217.595 229.488 217.002C229.488 216.425 229.332 215.903 229.02 215.435C228.723 214.951 228.279 214.569 227.686 214.288C227.109 213.992 226.407 213.843 225.58 213.843C224.504 213.843 223.63 214.132 222.959 214.709C222.304 215.286 221.976 216.059 221.976 217.026C221.976 217.993 222.312 218.765 222.983 219.342C223.653 219.904 224.558 220.185 225.697 220.185Z" fill="#555252"/>
<path d="M225.101 268.636V270.672H213.331V269.081L220 262.646C220.811 261.866 221.357 261.195 221.638 260.633C221.918 260.056 222.059 259.479 222.059 258.902C222.059 258.044 221.755 257.381 221.146 256.913C220.553 256.429 219.695 256.187 218.572 256.187C216.763 256.187 215.366 256.78 214.384 257.966L212.792 256.585C213.432 255.805 214.267 255.197 215.296 254.76C216.341 254.323 217.504 254.105 218.783 254.105C220.499 254.105 221.864 254.518 222.878 255.345C223.892 256.156 224.399 257.264 224.399 258.668C224.399 259.541 224.212 260.368 223.837 261.148C223.463 261.928 222.753 262.817 221.708 263.816L216.7 268.636H225.101ZM234.023 260.727C235.099 260.727 236.059 260.93 236.901 261.335C237.759 261.741 238.43 262.326 238.914 263.09C239.397 263.839 239.639 264.705 239.639 265.688C239.639 266.717 239.382 267.622 238.867 268.402C238.368 269.182 237.673 269.79 236.784 270.227C235.911 270.648 234.928 270.859 233.836 270.859C231.636 270.859 229.936 270.149 228.735 268.73C227.549 267.31 226.956 265.298 226.956 262.692C226.956 260.867 227.276 259.315 227.916 258.036C228.571 256.741 229.476 255.766 230.63 255.111C231.8 254.44 233.157 254.105 234.702 254.105C235.497 254.105 236.246 254.19 236.948 254.362C237.65 254.518 238.258 254.752 238.773 255.064L237.884 256.889C237.104 256.374 236.059 256.117 234.748 256.117C233.048 256.117 231.714 256.647 230.747 257.708C229.78 258.753 229.296 260.282 229.296 262.295C229.296 262.544 229.304 262.739 229.32 262.88C229.788 262.178 230.427 261.647 231.238 261.288C232.065 260.914 232.993 260.727 234.023 260.727ZM233.742 268.964C234.819 268.964 235.692 268.675 236.363 268.098C237.034 267.521 237.369 266.748 237.369 265.781C237.369 264.814 237.026 264.05 236.34 263.488C235.669 262.911 234.764 262.622 233.625 262.622C232.892 262.622 232.237 262.763 231.66 263.043C231.098 263.324 230.653 263.706 230.326 264.19C230.014 264.674 229.858 265.212 229.858 265.805C229.858 266.382 230.006 266.912 230.302 267.396C230.614 267.864 231.059 268.246 231.636 268.542C232.229 268.823 232.931 268.964 233.742 268.964Z" fill="#555252"/>
<path d="M119.5 135.446C121.107 135.602 122.331 136.101 123.174 136.943C124.016 137.77 124.437 138.831 124.437 140.126C124.437 141.062 124.203 141.912 123.735 142.676C123.267 143.425 122.565 144.026 121.629 144.478C120.709 144.915 119.578 145.133 118.236 145.133C117.066 145.133 115.943 144.962 114.867 144.619C113.79 144.26 112.909 143.768 112.222 143.144L113.299 141.296C113.86 141.826 114.578 142.255 115.452 142.583C116.325 142.895 117.253 143.051 118.236 143.051C119.453 143.051 120.397 142.793 121.068 142.279C121.754 141.764 122.097 141.054 122.097 140.149C122.097 139.244 121.762 138.542 121.091 138.043C120.42 137.544 119.406 137.294 118.049 137.294H116.739V135.656L120.857 130.602H112.971V128.566H123.782V130.157L119.5 135.446Z" fill="#555252"/>
<path d="M107.81 169.978V186.358H105.494V172.014H101.797V169.978H107.81ZM118.086 186.545C116.791 186.545 115.637 186.218 114.623 185.563C113.624 184.892 112.836 183.925 112.259 182.661C111.682 181.397 111.393 179.9 111.393 178.168C111.393 176.437 111.682 174.939 112.259 173.675C112.836 172.412 113.624 171.452 114.623 170.797C115.637 170.126 116.791 169.791 118.086 169.791C119.365 169.791 120.504 170.126 121.502 170.797C122.516 171.452 123.312 172.412 123.889 173.675C124.466 174.939 124.755 176.437 124.755 178.168C124.755 179.9 124.466 181.397 123.889 182.661C123.312 183.925 122.516 184.892 121.502 185.563C120.504 186.218 119.365 186.545 118.086 186.545ZM118.086 184.463C119.396 184.463 120.441 183.925 121.221 182.848C122.017 181.772 122.415 180.212 122.415 178.168C122.415 176.125 122.017 174.565 121.221 173.488C120.441 172.412 119.396 171.874 118.086 171.874C116.76 171.874 115.699 172.412 114.903 173.488C114.123 174.565 113.733 176.125 113.733 178.168C113.733 180.212 114.123 181.772 114.903 182.848C115.699 183.925 116.76 184.463 118.086 184.463Z" fill="#555252"/>
<path d="M112.994 212.135V228.515H110.677V214.171H106.98V212.135H112.994ZM128.511 212.135V213.726L121.889 228.515H119.408L125.89 214.171H118.402V217.096H116.156V212.135H128.511Z" fill="#555252"/>
<path d="M120.468 268.636V270.672H108.698V269.081L115.367 262.646C116.178 261.866 116.724 261.195 117.005 260.633C117.286 260.056 117.426 259.479 117.426 258.902C117.426 258.044 117.122 257.381 116.513 256.913C115.921 256.429 115.063 256.187 113.939 256.187C112.13 256.187 110.734 256.78 109.751 257.966L108.16 256.585C108.799 255.805 109.634 255.197 110.663 254.76C111.709 254.323 112.871 254.105 114.15 254.105C115.866 254.105 117.231 254.518 118.245 255.345C119.259 256.156 119.766 257.264 119.766 258.668C119.766 259.541 119.579 260.368 119.204 261.148C118.83 261.928 118.12 262.817 117.075 263.816L112.067 268.636H120.468ZM136.208 266.647H133.096V270.672H130.826V266.647H121.724V265.009L130.101 254.292H132.628L124.602 264.635H130.897V261.078H133.096V264.635H136.208V266.647Z" fill="#555252"/>
<path d="M273.628 135.001C274.704 135.001 275.663 135.204 276.506 135.61C277.364 136.015 278.034 136.6 278.518 137.365C279.002 138.113 279.244 138.979 279.244 139.962C279.244 140.992 278.986 141.896 278.471 142.676C277.972 143.456 277.278 144.065 276.389 144.502C275.515 144.923 274.532 145.133 273.44 145.133C271.241 145.133 269.54 144.424 268.339 143.004C267.154 141.584 266.561 139.572 266.561 136.967C266.561 135.142 266.88 133.589 267.52 132.31C268.175 131.015 269.08 130.04 270.235 129.385C271.405 128.714 272.762 128.379 274.306 128.379C275.102 128.379 275.851 128.465 276.553 128.636C277.255 128.792 277.863 129.026 278.378 129.338L277.489 131.164C276.709 130.649 275.663 130.391 274.353 130.391C272.653 130.391 271.319 130.922 270.352 131.983C269.384 133.028 268.901 134.557 268.901 136.569C268.901 136.819 268.909 137.014 268.924 137.154C269.392 136.452 270.032 135.922 270.843 135.563C271.67 135.188 272.598 135.001 273.628 135.001ZM273.347 143.238C274.423 143.238 275.297 142.949 275.968 142.372C276.638 141.795 276.974 141.023 276.974 140.056C276.974 139.088 276.631 138.324 275.944 137.762C275.273 137.185 274.369 136.897 273.23 136.897C272.497 136.897 271.841 137.037 271.264 137.318C270.703 137.599 270.258 137.981 269.93 138.464C269.618 138.948 269.462 139.486 269.462 140.079C269.462 140.656 269.611 141.187 269.907 141.67C270.219 142.138 270.664 142.52 271.241 142.817C271.834 143.098 272.536 143.238 273.347 143.238Z" fill="#555252"/>
<path d="M269.435 169.978V186.358H267.119V172.014H263.422V169.978H269.435ZM279.29 176.858C280.896 177.014 282.121 177.513 282.963 178.355C283.806 179.182 284.227 180.243 284.227 181.538C284.227 182.474 283.993 183.324 283.525 184.088C283.057 184.837 282.355 185.438 281.419 185.89C280.499 186.327 279.368 186.545 278.026 186.545C276.856 186.545 275.733 186.374 274.656 186.031C273.58 185.672 272.699 185.18 272.012 184.556L273.089 182.708C273.65 183.238 274.368 183.667 275.241 183.995C276.115 184.307 277.043 184.463 278.026 184.463C279.243 184.463 280.187 184.205 280.857 183.691C281.544 183.176 281.887 182.466 281.887 181.561C281.887 180.656 281.552 179.954 280.881 179.455C280.21 178.956 279.196 178.706 277.839 178.706H276.528V177.068L280.647 172.014H272.761V169.978H283.572V171.569L279.29 176.858Z" fill="#555252"/>
<path d="M274.831 226.479V228.515H263.061V226.924L269.73 220.489C270.541 219.709 271.087 219.038 271.368 218.477C271.649 217.899 271.789 217.322 271.789 216.745C271.789 215.887 271.485 215.224 270.877 214.756C270.284 214.272 269.426 214.031 268.303 214.031C266.493 214.031 265.097 214.623 264.114 215.809L262.523 214.428C263.163 213.648 263.997 213.04 265.027 212.603C266.072 212.166 267.234 211.948 268.513 211.948C270.229 211.948 271.594 212.361 272.608 213.188C273.622 213.999 274.129 215.107 274.129 216.511C274.129 217.385 273.942 218.211 273.568 218.991C273.193 219.771 272.484 220.661 271.438 221.659L266.431 226.479H274.831ZM283.379 228.702C282.084 228.702 280.93 228.375 279.916 227.72C278.917 227.049 278.13 226.082 277.552 224.818C276.975 223.554 276.687 222.057 276.687 220.325C276.687 218.594 276.975 217.096 277.552 215.832C278.13 214.569 278.917 213.609 279.916 212.954C280.93 212.283 282.084 211.948 283.379 211.948C284.658 211.948 285.797 212.283 286.795 212.954C287.809 213.609 288.605 214.569 289.182 215.832C289.759 217.096 290.048 218.594 290.048 220.325C290.048 222.057 289.759 223.554 289.182 224.818C288.605 226.082 287.809 227.049 286.795 227.72C285.797 228.375 284.658 228.702 283.379 228.702ZM283.379 226.62C284.689 226.62 285.735 226.082 286.515 225.005C287.31 223.929 287.708 222.369 287.708 220.325C287.708 218.282 287.31 216.722 286.515 215.645C285.735 214.569 284.689 214.031 283.379 214.031C282.053 214.031 280.992 214.569 280.197 215.645C279.417 216.722 279.027 218.282 279.027 220.325C279.027 222.369 279.417 223.929 280.197 225.005C280.992 226.082 282.053 226.62 283.379 226.62Z" fill="#555252"/>
<path d="M277.945 268.636V270.672H266.174V269.081L272.843 262.646C273.655 261.866 274.201 261.195 274.481 260.633C274.762 260.056 274.903 259.479 274.903 258.902C274.903 258.044 274.598 257.381 273.99 256.913C273.397 256.429 272.539 256.187 271.416 256.187C269.606 256.187 268.21 256.78 267.227 257.966L265.636 256.585C266.276 255.805 267.11 255.197 268.14 254.76C269.185 254.323 270.347 254.105 271.627 254.105C273.343 254.105 274.708 254.518 275.722 255.345C276.736 256.156 277.243 257.264 277.243 258.668C277.243 259.541 277.055 260.368 276.681 261.148C276.307 261.928 275.597 262.817 274.552 263.816L269.544 268.636H277.945ZM291.734 254.292V255.883L285.112 270.672H282.631L289.113 256.328H281.625V259.253H279.379V254.292H291.734Z" fill="#555252"/>
<path d="M330.034 128.566V130.157L323.412 144.946H320.931L327.413 130.602H319.925V133.527H317.679V128.566H330.034Z" fill="#555252"/>
<path d="M323.314 169.978V186.358H320.998V172.014H317.3V169.978H323.314ZM341.148 182.333H338.036V186.358H335.766V182.333H326.663V180.695L335.04 169.978H337.568L329.541 180.321H335.836V176.764H338.036V180.321H341.148V182.333Z" fill="#555252"/>
<path d="M331.82 226.479V228.515H320.049V226.924L326.718 220.489C327.53 219.709 328.076 219.038 328.356 218.477C328.637 217.899 328.778 217.322 328.778 216.745C328.778 215.887 328.473 215.224 327.865 214.756C327.272 214.272 326.414 214.031 325.291 214.031C323.481 214.031 322.085 214.623 321.102 215.809L319.511 214.428C320.151 213.648 320.985 213.04 322.015 212.603C323.06 212.166 324.222 211.948 325.502 211.948C327.218 211.948 328.583 212.361 329.597 213.188C330.611 213.999 331.118 215.107 331.118 216.511C331.118 217.385 330.93 218.211 330.556 218.991C330.182 219.771 329.472 220.661 328.427 221.659L323.419 226.479H331.82ZM338.821 212.135V228.515H336.505V214.171H332.808V212.135H338.821Z" fill="#555252"/>
<path d="M329.749 268.636V270.672H317.979V269.081L324.648 262.646C325.459 261.866 326.005 261.195 326.286 260.633C326.567 260.056 326.707 259.479 326.707 258.902C326.707 258.044 326.403 257.381 325.795 256.913C325.202 256.429 324.344 256.187 323.221 256.187C321.411 256.187 320.015 256.78 319.032 257.966L317.441 256.585C318.08 255.805 318.915 255.197 319.945 254.76C320.99 254.323 322.152 254.105 323.431 254.105C325.147 254.105 326.512 254.518 327.526 255.345C328.54 256.156 329.047 257.264 329.047 258.668C329.047 259.541 328.86 260.368 328.486 261.148C328.111 261.928 327.401 262.817 326.356 263.816L321.349 268.636H329.749ZM341.688 262.084C342.624 262.443 343.342 262.958 343.841 263.628C344.34 264.299 344.59 265.103 344.59 266.039C344.59 267.021 344.325 267.879 343.794 268.613C343.264 269.33 342.507 269.884 341.525 270.274C340.542 270.664 339.387 270.859 338.061 270.859C336.751 270.859 335.604 270.664 334.622 270.274C333.654 269.884 332.906 269.33 332.375 268.613C331.845 267.879 331.58 267.021 331.58 266.039C331.58 265.103 331.821 264.299 332.305 263.628C332.804 262.958 333.522 262.443 334.458 262.084C333.709 261.725 333.14 261.249 332.75 260.657C332.36 260.064 332.165 259.362 332.165 258.551C332.165 257.646 332.406 256.858 332.89 256.187C333.389 255.516 334.083 255.002 334.973 254.643C335.862 254.284 336.891 254.105 338.061 254.105C339.247 254.105 340.284 254.284 341.174 254.643C342.078 255.002 342.773 255.516 343.256 256.187C343.755 256.858 344.005 257.646 344.005 258.551C344.005 259.346 343.802 260.048 343.397 260.657C343.007 261.249 342.437 261.725 341.688 262.084ZM338.061 256C336.954 256 336.08 256.242 335.441 256.725C334.801 257.193 334.481 257.833 334.481 258.644C334.481 259.455 334.793 260.095 335.417 260.563C336.057 261.031 336.938 261.265 338.061 261.265C339.2 261.265 340.089 261.031 340.729 260.563C341.384 260.095 341.712 259.455 341.712 258.644C341.712 257.833 341.376 257.193 340.706 256.725C340.05 256.242 339.169 256 338.061 256ZM338.061 268.964C339.356 268.964 340.378 268.698 341.127 268.168C341.876 267.622 342.25 266.889 342.25 265.968C342.25 265.064 341.876 264.354 341.127 263.839C340.378 263.309 339.356 263.043 338.061 263.043C336.767 263.043 335.753 263.309 335.019 263.839C334.286 264.354 333.92 265.064 333.92 265.968C333.92 266.889 334.286 267.622 335.019 268.168C335.753 268.698 336.767 268.964 338.061 268.964Z" fill="#555252"/>
</svg>
