<svg width="346" height="321" viewBox="0 0 346 321" fill="none" xmlns="http://www.w3.org/2000/svg">
<path d="M133.759 8.25791V27.8579H130.175V22.3979H125.331H124.939L121.299 27.8579H117.463L121.663 21.8099C120.3 21.3059 119.246 20.5126 118.499 19.4299C117.771 18.3286 117.407 17.0032 117.407 15.4539C117.407 13.9606 117.743 12.6726 118.415 11.5899C119.087 10.5072 120.039 9.68591 121.271 9.12591C122.503 8.54724 123.95 8.25791 125.611 8.25791H133.759ZM125.723 11.3379C124.23 11.3379 123.082 11.6832 122.279 12.3739C121.495 13.0646 121.103 14.0726 121.103 15.3979C121.103 16.6859 121.486 17.6846 122.251 18.3939C123.016 19.0846 124.127 19.4299 125.583 19.4299H130.175V11.3379H125.723ZM138.895 12.9059H142.395V18.9819H149.927V12.9059H153.427V27.8579H149.927V21.9499H142.395V27.8579H138.895V12.9059ZM168.954 20.0739C170.802 20.6339 171.726 21.8286 171.726 23.6579C171.726 25.0019 171.222 26.0379 170.214 26.7659C169.206 27.4939 167.712 27.8579 165.734 27.8579H158.118V12.9059H165.426C167.255 12.9059 168.683 13.2419 169.71 13.9139C170.736 14.5859 171.25 15.5379 171.25 16.7699C171.25 17.5352 171.044 18.1979 170.634 18.7579C170.242 19.3179 169.682 19.7566 168.954 20.0739ZM161.45 19.1499H165.118C166.928 19.1499 167.834 18.5246 167.834 17.2739C167.834 16.0606 166.928 15.4539 165.118 15.4539H161.45V19.1499ZM165.454 25.3099C167.376 25.3099 168.338 24.6846 168.338 23.4339C168.338 22.7806 168.114 22.2952 167.666 21.9779C167.218 21.6419 166.518 21.4739 165.566 21.4739H161.45V25.3099H165.454ZM181.026 12.7379C183.228 12.7379 184.908 13.2699 186.066 14.3339C187.242 15.3792 187.83 16.9659 187.83 19.0939V27.8579H184.526V26.0379C184.096 26.6912 183.48 27.1952 182.678 27.5499C181.894 27.8859 180.942 28.0539 179.822 28.0539C178.702 28.0539 177.722 27.8672 176.882 27.4939C176.042 27.1019 175.388 26.5699 174.922 25.8979C174.474 25.2072 174.25 24.4326 174.25 23.5739C174.25 22.2299 174.744 21.1566 175.734 20.3539C176.742 19.5326 178.319 19.1219 180.466 19.1219H184.33V18.8979C184.33 17.8526 184.012 17.0499 183.378 16.4899C182.762 15.9299 181.838 15.6499 180.606 15.6499C179.766 15.6499 178.935 15.7806 178.114 16.0419C177.311 16.3032 176.63 16.6672 176.07 17.1339L174.698 14.5859C175.482 13.9886 176.424 13.5312 177.526 13.2139C178.627 12.8966 179.794 12.7379 181.026 12.7379ZM180.55 25.5059C181.427 25.5059 182.202 25.3099 182.874 24.9179C183.564 24.5072 184.05 23.9286 184.33 23.1819V21.4459H180.718C178.702 21.4459 177.694 22.1086 177.694 23.4339C177.694 24.0686 177.946 24.5726 178.45 24.9459C178.954 25.3192 179.654 25.5059 180.55 25.5059ZM200.449 12.7379C201.905 12.7379 203.202 13.0552 204.341 13.6899C205.498 14.3246 206.403 15.2206 207.057 16.3779C207.71 17.5352 208.037 18.8699 208.037 20.3819C208.037 21.8939 207.71 23.2379 207.057 24.4139C206.403 25.5712 205.498 26.4672 204.341 27.1019C203.202 27.7366 201.905 28.0539 200.449 28.0539C198.433 28.0539 196.837 27.3819 195.661 26.0379V33.2899H192.161V12.9059H195.493V14.8659C196.071 14.1566 196.781 13.6246 197.621 13.2699C198.479 12.9152 199.422 12.7379 200.449 12.7379ZM200.057 25.0579C201.345 25.0579 202.399 24.6286 203.221 23.7699C204.061 22.9112 204.481 21.7819 204.481 20.3819C204.481 18.9819 204.061 17.8526 203.221 16.9939C202.399 16.1352 201.345 15.7059 200.057 15.7059C199.217 15.7059 198.461 15.9019 197.789 16.2939C197.117 16.6672 196.585 17.2086 196.193 17.9179C195.801 18.6272 195.605 19.4486 195.605 20.3819C195.605 21.3152 195.801 22.1366 196.193 22.8459C196.585 23.5552 197.117 24.1059 197.789 24.4979C198.461 24.8712 199.217 25.0579 200.057 25.0579ZM219.024 17.8339C220.928 17.8339 222.384 18.2632 223.392 19.1219C224.419 19.9806 224.932 21.1939 224.932 22.7619C224.932 24.4046 224.372 25.6739 223.252 26.5699C222.132 27.4659 220.555 27.9046 218.52 27.8859L211.52 27.8579V12.9059H215.02V17.8059L219.024 17.8339ZM218.212 25.3099C219.239 25.3286 220.023 25.1139 220.564 24.6659C221.105 24.2179 221.376 23.5646 221.376 22.7059C221.376 21.8659 221.115 21.2499 220.592 20.8579C220.069 20.4659 219.276 20.2606 218.212 20.2419L215.02 20.2139V25.2819L218.212 25.3099Z" fill="#555252"/>
<path d="M16.514 78.8614V94.9614H13.57V81.3914H5.221V94.9614H2.277V78.8614H16.514ZM20.7318 82.6794H23.6068V87.6704H29.7938V82.6794H32.6688V94.9614H29.7938V90.1084H23.6068V94.9614H20.7318V82.6794Z" fill="#555252"/>
<path d="M68.2633 86.5894C69.2906 86.8654 70.0726 87.3408 70.6093 88.0154C71.1459 88.6748 71.4143 89.5028 71.4143 90.4994C71.4143 91.9101 70.8929 93.0064 69.8503 93.7884C68.8076 94.5704 67.2973 94.9614 65.3193 94.9614H57.6833V78.8614H64.8823C66.6916 78.8614 68.1023 79.2218 69.1143 79.9424C70.1263 80.6631 70.6323 81.6828 70.6323 83.0014C70.6323 83.8448 70.4253 84.5731 70.0113 85.1864C69.6126 85.7998 69.0299 86.2674 68.2633 86.5894ZM60.6273 85.7384H64.6293C65.5953 85.7384 66.3313 85.5468 66.8373 85.1634C67.3433 84.7801 67.5963 84.2128 67.5963 83.4614C67.5963 82.7101 67.3433 82.1428 66.8373 81.7594C66.3313 81.3608 65.5953 81.1614 64.6293 81.1614H60.6273V85.7384ZM65.2273 92.6614C67.3433 92.6614 68.4012 91.8641 68.4012 90.2694C68.4012 88.7054 67.3433 87.9234 65.2273 87.9234H60.6273V92.6614H65.2273ZM84.2274 85.1174H79.9264V94.9614H77.0514V85.1174H72.7274V82.6794H84.2274V85.1174Z" fill="#555252"/>
<path d="M115.318 95.1914C113.693 95.1914 112.221 94.8388 110.902 94.1334C109.599 93.4128 108.572 92.4238 107.82 91.1664C107.084 89.9091 106.716 88.4908 106.716 86.9114C106.716 85.3321 107.092 83.9138 107.843 82.6564C108.595 81.3991 109.622 80.4178 110.925 79.7124C112.244 78.9918 113.716 78.6314 115.341 78.6314C116.66 78.6314 117.864 78.8614 118.952 79.3214C120.041 79.7814 120.961 80.4484 121.712 81.3224L119.78 83.1394C118.615 81.8821 117.181 81.2534 115.479 81.2534C114.375 81.2534 113.386 81.4988 112.512 81.9894C111.638 82.4648 110.956 83.1318 110.465 83.9904C109.975 84.8491 109.729 85.8228 109.729 86.9114C109.729 88.0001 109.975 88.9738 110.465 89.8324C110.956 90.6911 111.638 91.3658 112.512 91.8564C113.386 92.3318 114.375 92.5694 115.479 92.5694C117.181 92.5694 118.615 91.9331 119.78 90.6604L121.712 92.5004C120.961 93.3744 120.033 94.0414 118.929 94.5014C117.841 94.9614 116.637 95.1914 115.318 95.1914ZM130.974 82.5414C132.17 82.5414 133.236 82.8021 134.171 83.3234C135.122 83.8448 135.866 84.5808 136.402 85.5314C136.939 86.4821 137.207 87.5784 137.207 88.8204C137.207 90.0624 136.939 91.1664 136.402 92.1324C135.866 93.0831 135.122 93.8191 134.171 94.3404C133.236 94.8618 132.17 95.1224 130.974 95.1224C129.318 95.1224 128.007 94.5704 127.041 93.4664V99.4234H124.166V82.6794H126.903V84.2894C127.379 83.7068 127.961 83.2698 128.651 82.9784C129.357 82.6871 130.131 82.5414 130.974 82.5414ZM130.652 92.6614C131.71 92.6614 132.577 92.3088 133.251 91.6034C133.941 90.8981 134.286 89.9704 134.286 88.8204C134.286 87.6704 133.941 86.7428 133.251 86.0374C132.577 85.3321 131.71 84.9794 130.652 84.9794C129.962 84.9794 129.341 85.1404 128.789 85.4624C128.237 85.7691 127.8 86.2138 127.478 86.7964C127.156 87.3791 126.995 88.0538 126.995 88.8204C126.995 89.5871 127.156 90.2618 127.478 90.8444C127.8 91.4271 128.237 91.8794 128.789 92.2014C129.341 92.5081 129.962 92.6614 130.652 92.6614Z" fill="#555252"/>
<path d="M173.298 78.8614V94.9614H170.331V88.8894C168.813 89.4568 167.372 89.7404 166.007 89.7404C163.953 89.7404 162.366 89.2498 161.246 88.2684C160.142 87.2718 159.59 85.8458 159.59 83.9904V78.8614H162.557V83.6684C162.557 84.8031 162.887 85.6694 163.546 86.2674C164.206 86.8654 165.149 87.1644 166.375 87.1644C167.771 87.1644 169.089 86.8808 170.331 86.3134V78.8614H173.298ZM187.218 85.1174H182.917V94.9614H180.042V85.1174H175.718V82.6794H187.218V85.1174Z" fill="#555252"/>
<path d="M223.965 78.8614V94.9614H221.021V81.3914H212.672V94.9614H209.728V78.8614H223.965ZM237.912 85.1174H233.611V94.9614H230.736V85.1174H226.412V82.6794H237.912V85.1174Z" fill="#555252"/>
<path d="M268.65 95.1914C267.025 95.1914 265.553 94.8388 264.234 94.1334C262.931 93.4128 261.904 92.4238 261.152 91.1664C260.416 89.9091 260.048 88.4908 260.048 86.9114C260.048 85.3321 260.424 83.9138 261.175 82.6564C261.927 81.3991 262.954 80.4178 264.257 79.7124C265.576 78.9918 267.048 78.6314 268.673 78.6314C269.992 78.6314 271.196 78.8614 272.284 79.3214C273.373 79.7814 274.293 80.4484 275.044 81.3224L273.112 83.1394C271.947 81.8821 270.513 81.2534 268.811 81.2534C267.707 81.2534 266.718 81.4988 265.844 81.9894C264.97 82.4648 264.288 83.1318 263.797 83.9904C263.307 84.8491 263.061 85.8228 263.061 86.9114C263.061 88.0001 263.307 88.9738 263.797 89.8324C264.288 90.6911 264.97 91.3658 265.844 91.8564C266.718 92.3318 267.707 92.5694 268.811 92.5694C270.513 92.5694 271.947 91.9331 273.112 90.6604L275.044 92.5004C274.293 93.3744 273.365 94.0414 272.261 94.5014C271.173 94.9614 269.969 95.1914 268.65 95.1914ZM283.808 83.2774C284.974 83.2774 286.001 83.5304 286.89 84.0364C287.78 84.5271 288.47 85.2171 288.96 86.1064C289.466 86.9958 289.719 88.0154 289.719 89.1654C289.719 90.3461 289.443 91.3964 288.891 92.3164C288.339 93.2211 287.565 93.9264 286.568 94.4324C285.572 94.9384 284.437 95.1914 283.164 95.1914C281.033 95.1914 279.385 94.4861 278.219 93.0754C277.054 91.6648 276.471 89.6331 276.471 86.9804C276.471 84.5118 277 82.5568 278.058 81.1154C279.116 79.6741 280.734 78.7234 282.911 78.2634L288.615 77.0444L289.029 79.6204L283.854 80.6784C282.367 80.9851 281.255 81.5064 280.519 82.2424C279.783 82.9784 279.354 84.0134 279.231 85.3474C279.783 84.6881 280.45 84.1821 281.232 83.8294C282.014 83.4614 282.873 83.2774 283.808 83.2774ZM283.233 92.8684C284.291 92.8684 285.142 92.5311 285.786 91.8564C286.446 91.1664 286.775 90.2924 286.775 89.2344C286.775 88.1764 286.446 87.3254 285.786 86.6814C285.142 86.0374 284.291 85.7154 283.233 85.7154C282.16 85.7154 281.294 86.0374 280.634 86.6814C279.975 87.3254 279.645 88.1764 279.645 89.2344C279.645 90.3078 279.975 91.1818 280.634 91.8564C281.309 92.5311 282.175 92.8684 283.233 92.8684Z" fill="#555252"/>
<path d="M324.675 86.5894C325.703 86.8654 326.485 87.3408 327.021 88.0154C327.558 88.6748 327.826 89.5028 327.826 90.4994C327.826 91.9101 327.305 93.0064 326.262 93.7884C325.22 94.5704 323.709 94.9614 321.731 94.9614H314.095V78.8614H321.294C323.104 78.8614 324.514 79.2218 325.526 79.9424C326.538 80.6631 327.044 81.6828 327.044 83.0014C327.044 83.8448 326.837 84.5731 326.423 85.1864C326.025 85.7998 325.442 86.2674 324.675 86.5894ZM317.039 85.7384H321.041C322.007 85.7384 322.743 85.5468 323.249 85.1634C323.755 84.7801 324.008 84.2128 324.008 83.4614C324.008 82.7101 323.755 82.1428 323.249 81.7594C322.743 81.3608 322.007 81.1614 321.041 81.1614H317.039V85.7384ZM321.639 92.6614C323.755 92.6614 324.813 91.8641 324.813 90.2694C324.813 88.7054 323.755 87.9234 321.639 87.9234H317.039V92.6614H321.639ZM336.5 95.1224C335.227 95.1224 334.085 94.8541 333.073 94.3174C332.061 93.7808 331.271 93.0371 330.704 92.0864C330.136 91.1204 329.853 90.0318 329.853 88.8204C329.853 87.6091 330.136 86.5281 330.704 85.5774C331.271 84.6268 332.053 83.8831 333.05 83.3464C334.062 82.8098 335.212 82.5414 336.5 82.5414C337.711 82.5414 338.769 82.7868 339.674 83.2774C340.594 83.7681 341.284 84.4734 341.744 85.3934L339.536 86.6814C339.183 86.1141 338.738 85.6924 338.202 85.4164C337.68 85.1251 337.105 84.9794 336.477 84.9794C335.403 84.9794 334.514 85.3321 333.809 86.0374C333.103 86.7274 332.751 87.6551 332.751 88.8204C332.751 89.9858 333.096 90.9211 333.786 91.6264C334.491 92.3164 335.388 92.6614 336.477 92.6614C337.105 92.6614 337.68 92.5234 338.202 92.2474C338.738 91.9561 339.183 91.5268 339.536 90.9594L341.744 92.2474C341.268 93.1674 340.571 93.8804 339.651 94.3864C338.746 94.8771 337.696 95.1224 336.5 95.1224Z" fill="#555252"/>
<path d="M225.14 123.435V139.535H222.863V125.436H219.229V123.435H225.14Z" fill="#555252"/>
<path d="M24.1286 178.841H21.0696V182.797H18.8386V178.841H9.89158V177.231L18.1256 166.697H20.6096L12.7206 176.863H18.9076V173.367H21.0696V176.863H24.1286V178.841Z" fill="#555252"/>
<path d="M17.948 205.635V227.335H13.918V209.014H9.33003V205.635H17.948ZM29.7547 205.635V227.335H25.7247V209.014H21.1367V205.635H29.7547Z" fill="#FFA751"/>
<path d="M14.8367 247.319V269.019H10.8067V250.698H6.2187V247.319H14.8367ZM33.2153 257.611C34.352 258.127 35.22 258.83 35.8193 259.719C36.4393 260.587 36.7493 261.61 36.7493 262.788C36.7493 264.11 36.3773 265.268 35.6333 266.26C34.91 267.252 33.8767 268.016 32.5333 268.554C31.19 269.07 29.6297 269.329 27.8523 269.329C26.075 269.329 24.5147 269.07 23.1713 268.554C21.8487 268.016 20.8257 267.252 20.1023 266.26C19.379 265.268 19.0173 264.11 19.0173 262.788C19.0173 261.61 19.317 260.587 19.9163 259.719C20.5157 258.83 21.3733 258.127 22.4893 257.611C21.6213 257.135 20.9497 256.515 20.4743 255.751C20.0197 254.965 19.7923 254.066 19.7923 253.054C19.7923 251.834 20.123 250.77 20.7843 249.861C21.4663 248.951 22.417 248.249 23.6363 247.753C24.8557 247.257 26.261 247.009 27.8523 247.009C29.4643 247.009 30.88 247.257 32.0993 247.753C33.3187 248.249 34.2693 248.951 34.9513 249.861C35.6333 250.77 35.9743 251.834 35.9743 253.054C35.9743 254.066 35.7367 254.955 35.2613 255.72C34.786 256.484 34.104 257.115 33.2153 257.611ZM27.8523 250.171C26.5917 250.171 25.5893 250.439 24.8453 250.977C24.122 251.514 23.7603 252.268 23.7603 253.24C23.7603 254.17 24.122 254.914 24.8453 255.472C25.5893 256.009 26.5917 256.278 27.8523 256.278C29.1337 256.278 30.1463 256.009 30.8903 255.472C31.6343 254.914 32.0063 254.17 32.0063 253.24C32.0063 252.268 31.624 251.514 30.8593 250.977C30.1153 250.439 29.113 250.171 27.8523 250.171ZM27.8523 266.167C29.3403 266.167 30.5183 265.857 31.3863 265.237C32.2543 264.617 32.6883 263.759 32.6883 262.664C32.6883 261.589 32.2543 260.742 31.3863 260.122C30.5183 259.502 29.3403 259.192 27.8523 259.192C26.3643 259.192 25.1967 259.502 24.3493 260.122C23.502 260.742 23.0783 261.589 23.0783 262.664C23.0783 263.759 23.502 264.617 24.3493 265.237C25.1967 265.857 26.3643 266.167 27.8523 266.167Z" fill="#FFA751"/>
<path d="M19.9482 307.766V311.176H3.95219V308.479L12.5702 300.295C13.5415 299.365 14.1925 298.559 14.5232 297.877C14.8745 297.174 15.0502 296.482 15.0502 295.8C15.0502 294.787 14.7092 294.012 14.0272 293.475C13.3452 292.938 12.3429 292.669 11.0202 292.669C8.80885 292.669 7.11419 293.423 5.93619 294.932L3.11519 292.762C3.96252 291.625 5.09919 290.747 6.52519 290.127C7.97185 289.486 9.58385 289.166 11.3612 289.166C13.7172 289.166 15.5979 289.724 17.0032 290.84C18.4085 291.956 19.1112 293.475 19.1112 295.397C19.1112 296.575 18.8632 297.681 18.3672 298.714C17.8712 299.747 16.9205 300.925 15.5152 302.248L9.71819 307.766H19.9482ZM29.0632 297.877C32.1218 297.877 34.3848 298.476 35.8522 299.675C37.3195 300.853 38.0532 302.465 38.0532 304.511C38.0532 305.813 37.7328 306.991 37.0922 308.045C36.4515 309.099 35.4905 309.936 34.2092 310.556C32.9278 311.176 31.3468 311.486 29.4662 311.486C27.9162 311.486 26.4178 311.269 24.9712 310.835C23.5245 310.38 22.3052 309.76 21.3132 308.975L23.0182 305.844C23.8242 306.505 24.7852 307.032 25.9012 307.425C27.0378 307.797 28.2055 307.983 29.4042 307.983C30.8302 307.983 31.9462 307.694 32.7522 307.115C33.5788 306.516 33.9922 305.699 33.9922 304.666C33.9922 303.55 33.5478 302.713 32.6592 302.155C31.7912 301.576 30.2928 301.287 28.1642 301.287H22.9252L24.0412 289.476H36.7822V292.855H27.4512L26.9862 297.877H29.0632Z" fill="#FFA751"/>
<path d="M177.563 166.697V168.261L171.054 182.797H168.616L174.987 168.698H167.627V171.573H165.419V166.697H177.563Z" fill="#555252"/>
<path d="M163.574 208.649V224.749H161.297V210.65H157.663V208.649H163.574ZM181.102 220.793H178.043V224.749H175.812V220.793H166.865V219.183L175.099 208.649H177.583L169.694 218.815H175.881V215.319H178.043V218.815H181.102V220.793Z" fill="#555252"/>
<path d="M173.004 264.698V266.699H161.435V265.135L167.99 258.81C168.787 258.044 169.324 257.384 169.6 256.832C169.876 256.265 170.014 255.698 170.014 255.13C170.014 254.287 169.715 253.635 169.117 253.175C168.534 252.7 167.691 252.462 166.587 252.462C164.808 252.462 163.436 253.045 162.47 254.21L160.906 252.853C161.535 252.087 162.355 251.489 163.367 251.059C164.394 250.63 165.537 250.415 166.794 250.415C168.481 250.415 169.822 250.822 170.819 251.634C171.816 252.432 172.314 253.52 172.314 254.9C172.314 255.759 172.13 256.572 171.762 257.338C171.394 258.105 170.696 258.979 169.669 259.96L164.747 264.698H173.004ZM179.886 250.599V266.699H177.609V252.6H173.975V250.599H179.886Z" fill="#555252"/>
<path d="M169.899 306.649V308.65H158.33V307.086L164.885 300.761C165.682 299.995 166.219 299.335 166.495 298.783C166.771 298.216 166.909 297.649 166.909 297.081C166.909 296.238 166.61 295.586 166.012 295.126C165.429 294.651 164.586 294.413 163.482 294.413C161.703 294.413 160.331 294.996 159.365 296.161L157.801 294.804C158.429 294.038 159.25 293.44 160.262 293.01C161.289 292.581 162.431 292.366 163.689 292.366C165.375 292.366 166.717 292.773 167.714 293.585C168.71 294.383 169.209 295.471 169.209 296.851C169.209 297.71 169.025 298.523 168.657 299.289C168.289 300.056 167.591 300.93 166.564 301.911L161.642 306.649H169.899ZM181.634 300.209C182.554 300.562 183.259 301.068 183.75 301.727C184.24 302.387 184.486 303.176 184.486 304.096C184.486 305.062 184.225 305.906 183.704 306.626C183.182 307.332 182.439 307.876 181.473 308.259C180.507 308.643 179.372 308.834 178.069 308.834C176.781 308.834 175.654 308.643 174.688 308.259C173.737 307.876 173.001 307.332 172.48 306.626C171.958 305.906 171.698 305.062 171.698 304.096C171.698 303.176 171.935 302.387 172.411 301.727C172.901 301.068 173.607 300.562 174.527 300.209C173.791 299.857 173.231 299.389 172.848 298.806C172.464 298.224 172.273 297.534 172.273 296.736C172.273 295.847 172.51 295.073 172.986 294.413C173.476 293.754 174.159 293.248 175.033 292.895C175.907 292.543 176.919 292.366 178.069 292.366C179.234 292.366 180.254 292.543 181.128 292.895C182.017 293.248 182.699 293.754 183.175 294.413C183.665 295.073 183.911 295.847 183.911 296.736C183.911 297.518 183.711 298.208 183.313 298.806C182.929 299.389 182.37 299.857 181.634 300.209ZM178.069 294.229C176.98 294.229 176.121 294.467 175.493 294.942C174.864 295.402 174.55 296.031 174.55 296.828C174.55 297.626 174.856 298.254 175.47 298.714C176.098 299.174 176.965 299.404 178.069 299.404C179.188 299.404 180.062 299.174 180.691 298.714C181.335 298.254 181.657 297.626 181.657 296.828C181.657 296.031 181.327 295.402 180.668 294.942C180.024 294.467 179.157 294.229 178.069 294.229ZM178.069 306.971C179.341 306.971 180.346 306.711 181.082 306.189C181.818 305.653 182.186 304.932 182.186 304.027C182.186 303.138 181.818 302.44 181.082 301.934C180.346 301.413 179.341 301.152 178.069 301.152C176.796 301.152 175.799 301.413 175.079 301.934C174.358 302.44 173.998 303.138 173.998 304.027C173.998 304.932 174.358 305.653 175.079 306.189C175.799 306.711 176.796 306.971 178.069 306.971Z" fill="#555252"/>
<path d="M278.68 137.534V139.535H267.111V137.971L273.666 131.646C274.463 130.88 275 130.22 275.276 129.668C275.552 129.101 275.69 128.534 275.69 127.966C275.69 127.123 275.391 126.471 274.793 126.011C274.21 125.536 273.367 125.298 272.263 125.298C270.484 125.298 269.112 125.881 268.146 127.046L266.582 125.689C267.21 124.923 268.031 124.325 269.043 123.895C270.07 123.466 271.212 123.251 272.47 123.251C274.156 123.251 275.498 123.658 276.495 124.47C277.491 125.268 277.99 126.356 277.99 127.736C277.99 128.595 277.806 129.408 277.438 130.174C277.07 130.941 276.372 131.815 275.345 132.796L270.423 137.534H278.68Z" fill="#555252"/>
<path d="M67.8681 173.114C70.1681 173.114 71.8547 173.551 72.9281 174.425C74.0167 175.284 74.5611 176.464 74.5611 177.967C74.5611 178.918 74.3311 179.776 73.8711 180.543C73.4264 181.294 72.7441 181.892 71.8241 182.337C70.9194 182.766 69.8001 182.981 68.4661 182.981C67.3314 182.981 66.2351 182.812 65.1771 182.475C64.1191 182.122 63.2451 181.639 62.5551 181.026L63.6131 179.209C64.1651 179.73 64.8704 180.152 65.7291 180.474C66.5877 180.781 67.4924 180.934 68.4431 180.934C69.6544 180.934 70.5897 180.681 71.2491 180.175C71.9237 179.654 72.2611 178.948 72.2611 178.059C72.2611 177.093 71.8931 176.365 71.1571 175.874C70.4211 175.368 69.1637 175.115 67.3851 175.115H63.7281L64.5791 166.697H73.6641V168.698H66.5111L66.0741 173.114H67.8681Z" fill="#555252"/>
<path d="M68.2591 208.649V224.749H65.9821V210.65H62.3481V208.649H68.2591ZM83.0968 222.748V224.749H71.5278V223.185L78.0828 216.86C78.8801 216.093 79.4168 215.434 79.6928 214.882C79.9688 214.315 80.1068 213.747 80.1068 213.18C80.1068 212.337 79.8078 211.685 79.2098 211.225C78.6271 210.75 77.7838 210.512 76.6798 210.512C74.9011 210.512 73.5288 211.095 72.5628 212.26L70.9988 210.903C71.6274 210.136 72.4478 209.538 73.4598 209.109C74.4871 208.68 75.6294 208.465 76.8868 208.465C78.5734 208.465 79.9151 208.871 80.9118 209.684C81.9084 210.481 82.4068 211.57 82.4068 212.95C82.4068 213.809 82.2228 214.621 81.8548 215.388C81.4868 216.155 80.7891 217.029 79.7618 218.01L74.8398 222.748H83.0968Z" fill="#555252"/>
<path d="M72.3997 250.599V266.699H70.1227V252.6H66.4887V250.599H72.3997ZM81.1424 250.415C83.3044 250.415 84.968 251.113 86.1334 252.508C87.314 253.904 87.9044 255.882 87.9044 258.442C87.9044 260.236 87.5824 261.77 86.9384 263.042C86.3097 264.3 85.4204 265.258 84.2704 265.917C83.1357 266.561 81.8094 266.883 80.2914 266.883C79.5094 266.883 78.7734 266.807 78.0834 266.653C77.3934 266.485 76.7954 266.247 76.2894 265.94L77.1634 264.146C77.9454 264.652 78.9804 264.905 80.2684 264.905C81.9397 264.905 83.243 264.392 84.1784 263.364C85.129 262.322 85.6044 260.811 85.6044 258.833V258.258C85.1444 258.948 84.508 259.477 83.6954 259.845C82.8827 260.198 81.9704 260.374 80.9584 260.374C79.9004 260.374 78.9497 260.175 78.1064 259.776C77.2784 259.378 76.6267 258.81 76.1514 258.074C75.6914 257.323 75.4614 256.464 75.4614 255.498C75.4614 254.486 75.7067 253.597 76.1974 252.83C76.7034 252.064 77.3857 251.473 78.2444 251.059C79.103 250.63 80.069 250.415 81.1424 250.415ZM81.3494 258.511C82.0701 258.511 82.7141 258.373 83.2814 258.097C83.8487 257.821 84.2857 257.446 84.5924 256.97C84.9144 256.495 85.0754 255.966 85.0754 255.383C85.0754 254.816 84.922 254.302 84.6154 253.842C84.324 253.367 83.887 252.991 83.3044 252.715C82.737 252.424 82.047 252.278 81.2344 252.278C80.1764 252.278 79.3177 252.562 78.6584 253.129C78.0144 253.697 77.6924 254.456 77.6924 255.406C77.6924 256.357 78.022 257.116 78.6814 257.683C79.3407 258.235 80.23 258.511 81.3494 258.511Z" fill="#555252"/>
<path d="M75.6192 306.649V308.65H64.0502V307.086L70.6052 300.761C71.4026 299.995 71.9392 299.335 72.2152 298.783C72.4912 298.216 72.6292 297.649 72.6292 297.081C72.6292 296.238 72.3302 295.586 71.7322 295.126C71.1496 294.651 70.3062 294.413 69.2022 294.413C67.4236 294.413 66.0512 294.996 65.0852 296.161L63.5212 294.804C64.1499 294.038 64.9702 293.44 65.9822 293.01C67.0096 292.581 68.1519 292.366 69.4092 292.366C71.0959 292.366 72.4376 292.773 73.4342 293.585C74.4309 294.383 74.9292 295.471 74.9292 296.851C74.9292 297.71 74.7452 298.523 74.3772 299.289C74.0092 300.056 73.3116 300.93 72.2842 301.911L67.3622 306.649H75.6192ZM84.3889 298.875C85.4469 298.875 86.3899 299.075 87.2179 299.473C88.0612 299.872 88.7205 300.447 89.1959 301.198C89.6712 301.934 89.9089 302.785 89.9089 303.751C89.9089 304.763 89.6559 305.653 89.1499 306.419C88.6592 307.186 87.9769 307.784 87.1029 308.213C86.2442 308.627 85.2782 308.834 84.2049 308.834C82.0429 308.834 80.3715 308.137 79.1909 306.741C78.0255 305.346 77.4429 303.368 77.4429 300.807C77.4429 299.013 77.7572 297.488 78.3859 296.23C79.0299 294.958 79.9192 293.999 81.0539 293.355C82.2039 292.696 83.5379 292.366 85.0559 292.366C85.8379 292.366 86.5739 292.451 87.2639 292.619C87.9539 292.773 88.5519 293.003 89.0579 293.309L88.1839 295.103C87.4172 294.597 86.3899 294.344 85.1019 294.344C83.4305 294.344 82.1195 294.866 81.1689 295.908C80.2182 296.936 79.7429 298.438 79.7429 300.416C79.7429 300.662 79.7505 300.853 79.7659 300.991C80.2259 300.301 80.8545 299.78 81.6519 299.427C82.4645 299.059 83.3769 298.875 84.3889 298.875ZM84.1129 306.971C85.1709 306.971 86.0295 306.688 86.6889 306.12C87.3482 305.553 87.6779 304.794 87.6779 303.843C87.6779 302.893 87.3405 302.141 86.6659 301.589C86.0065 301.022 85.1172 300.738 83.9979 300.738C83.2772 300.738 82.6332 300.876 82.0659 301.152C81.5139 301.428 81.0769 301.804 80.7549 302.279C80.4482 302.755 80.2949 303.284 80.2949 303.866C80.2949 304.434 80.4405 304.955 80.7319 305.43C81.0385 305.89 81.4755 306.266 82.0429 306.557C82.6255 306.833 83.3155 306.971 84.1129 306.971Z" fill="#555252"/>
<path d="M226.446 174.356C227.366 174.709 228.071 175.215 228.562 175.874C229.053 176.533 229.298 177.323 229.298 178.243C229.298 179.209 229.037 180.052 228.516 180.773C227.995 181.478 227.251 182.023 226.285 182.406C225.319 182.789 224.184 182.981 222.881 182.981C221.593 182.981 220.466 182.789 219.5 182.406C218.549 182.023 217.813 181.478 217.292 180.773C216.771 180.052 216.51 179.209 216.51 178.243C216.51 177.323 216.748 176.533 217.223 175.874C217.714 175.215 218.419 174.709 219.339 174.356C218.603 174.003 218.043 173.536 217.66 172.953C217.277 172.37 217.085 171.68 217.085 170.883C217.085 169.994 217.323 169.219 217.798 168.56C218.289 167.901 218.971 167.395 219.845 167.042C220.719 166.689 221.731 166.513 222.881 166.513C224.046 166.513 225.066 166.689 225.94 167.042C226.829 167.395 227.512 167.901 227.987 168.56C228.478 169.219 228.723 169.994 228.723 170.883C228.723 171.665 228.524 172.355 228.125 172.953C227.742 173.536 227.182 174.003 226.446 174.356ZM222.881 168.376C221.792 168.376 220.934 168.614 220.305 169.089C219.676 169.549 219.362 170.178 219.362 170.975C219.362 171.772 219.669 172.401 220.282 172.861C220.911 173.321 221.777 173.551 222.881 173.551C224 173.551 224.874 173.321 225.503 172.861C226.147 172.401 226.469 171.772 226.469 170.975C226.469 170.178 226.139 169.549 225.48 169.089C224.836 168.614 223.97 168.376 222.881 168.376ZM222.881 181.118C224.154 181.118 225.158 180.857 225.894 180.336C226.63 179.799 226.998 179.079 226.998 178.174C226.998 177.285 226.63 176.587 225.894 176.081C225.158 175.56 224.154 175.299 222.881 175.299C221.608 175.299 220.612 175.56 219.891 176.081C219.17 176.587 218.81 177.285 218.81 178.174C218.81 179.079 219.17 179.799 219.891 180.336C220.612 180.857 221.608 181.118 222.881 181.118Z" fill="#555252"/>
<path d="M217.106 204.581V226.281H213.076V207.96H208.488V204.581H217.106ZM228.2 212.982C231.259 212.982 233.522 213.581 234.989 214.78C236.456 215.958 237.19 217.57 237.19 219.616C237.19 220.918 236.87 222.096 236.229 223.15C235.588 224.204 234.627 225.041 233.346 225.661C232.065 226.281 230.484 226.591 228.603 226.591C227.053 226.591 225.555 226.374 224.108 225.94C222.661 225.485 221.442 224.865 220.45 224.08L222.155 220.949C222.961 221.61 223.922 222.137 225.038 222.53C226.175 222.902 227.342 223.088 228.541 223.088C229.967 223.088 231.083 222.798 231.889 222.22C232.716 221.62 233.129 220.804 233.129 219.771C233.129 218.655 232.685 217.818 231.796 217.26C230.928 216.681 229.43 216.392 227.301 216.392H222.062L223.178 204.581H235.919V207.96H226.588L226.123 212.982H228.2Z" fill="#FFA751"/>
<path d="M221.181 264.555V267.965H205.185V265.268L213.803 257.084C214.774 256.154 215.425 255.348 215.756 254.666C216.107 253.963 216.283 253.271 216.283 252.589C216.283 251.576 215.942 250.801 215.26 250.264C214.578 249.727 213.575 249.458 212.253 249.458C210.041 249.458 208.347 250.212 207.169 251.721L204.348 249.551C205.195 248.414 206.332 247.536 207.758 246.916C209.204 246.275 210.816 245.955 212.594 245.955C214.95 245.955 216.83 246.513 218.236 247.629C219.641 248.745 220.344 250.264 220.344 252.186C220.344 253.364 220.096 254.47 219.6 255.503C219.104 256.536 218.153 257.714 216.748 259.037L210.951 264.555H221.181ZM239.224 264.555V267.965H223.228V265.268L231.846 257.084C232.817 256.154 233.468 255.348 233.799 254.666C234.15 253.963 234.326 253.271 234.326 252.589C234.326 251.576 233.985 250.801 233.303 250.264C232.621 249.727 231.618 249.458 230.296 249.458C228.084 249.458 226.39 250.212 225.212 251.721L222.391 249.551C223.238 248.414 224.375 247.536 225.801 246.916C227.247 246.275 228.859 245.955 230.637 245.955C232.993 245.955 234.873 246.513 236.279 247.629C237.684 248.745 238.387 250.264 238.387 252.186C238.387 253.364 238.139 254.47 237.643 255.503C237.147 256.536 236.196 257.714 234.791 259.037L228.994 264.555H239.224Z" fill="#FFA751"/>
<path d="M222.216 306.711V310.121H206.22V307.424L214.838 299.24C215.809 298.31 216.46 297.504 216.791 296.822C217.142 296.12 217.318 295.427 217.318 294.745C217.318 293.733 216.977 292.958 216.295 292.42C215.613 291.883 214.61 291.614 213.288 291.614C211.076 291.614 209.382 292.369 208.204 293.877L205.383 291.707C206.23 290.571 207.367 289.692 208.793 289.072C210.239 288.432 211.851 288.111 213.629 288.111C215.985 288.111 217.865 288.669 219.271 289.785C220.676 290.901 221.379 292.42 221.379 294.342C221.379 295.52 221.131 296.626 220.635 297.659C220.139 298.693 219.188 299.871 217.783 301.193L211.986 306.711H222.216ZM231.858 288.111C234.834 288.111 237.138 289.041 238.771 290.901C240.424 292.761 241.251 295.427 241.251 298.899C241.251 301.338 240.806 303.425 239.918 305.161C239.029 306.877 237.779 308.189 236.167 309.098C234.575 309.987 232.726 310.431 230.618 310.431C229.502 310.431 228.448 310.318 227.456 310.09C226.484 309.842 225.637 309.491 224.914 309.036L226.402 305.998C227.476 306.701 228.851 307.052 230.525 307.052C232.612 307.052 234.245 306.412 235.423 305.13C236.601 303.849 237.19 301.999 237.19 299.581V299.55C236.549 300.294 235.733 300.863 234.741 301.255C233.749 301.627 232.633 301.813 231.393 301.813C229.967 301.813 228.685 301.545 227.549 301.007C226.412 300.449 225.523 299.664 224.883 298.651C224.242 297.639 223.922 296.471 223.922 295.148C223.922 293.743 224.273 292.513 224.976 291.459C225.678 290.385 226.629 289.558 227.828 288.979C229.026 288.401 230.37 288.111 231.858 288.111ZM232.168 298.651C233.47 298.651 234.524 298.3 235.33 297.597C236.156 296.895 236.57 296.006 236.57 294.931C236.57 293.877 236.167 293.009 235.361 292.327C234.575 291.625 233.48 291.273 232.075 291.273C230.814 291.273 229.791 291.614 229.006 292.296C228.22 292.958 227.828 293.846 227.828 294.962C227.828 296.099 228.22 296.998 229.006 297.659C229.791 298.321 230.845 298.651 232.168 298.651Z" fill="#FFA751"/>
<path d="M326.368 130.197C327.947 130.351 329.151 130.841 329.979 131.669C330.807 132.482 331.221 133.525 331.221 134.797C331.221 135.717 330.991 136.553 330.531 137.304C330.071 138.04 329.381 138.631 328.461 139.075C327.556 139.505 326.444 139.719 325.126 139.719C323.976 139.719 322.872 139.551 321.814 139.213C320.756 138.861 319.889 138.378 319.215 137.764L320.273 135.947C320.825 136.469 321.53 136.89 322.389 137.212C323.247 137.519 324.16 137.672 325.126 137.672C326.322 137.672 327.249 137.419 327.909 136.913C328.583 136.407 328.921 135.71 328.921 134.82C328.921 133.931 328.591 133.241 327.932 132.75C327.272 132.26 326.276 132.014 324.942 132.014H323.654V130.404L327.702 125.436H319.951V123.435H330.577V124.999L326.368 130.197Z" fill="#555252"/>
<path d="M120.978 173.022C122.036 173.022 122.979 173.221 123.807 173.62C124.65 174.019 125.309 174.594 125.785 175.345C126.26 176.081 126.498 176.932 126.498 177.898C126.498 178.91 126.245 179.799 125.739 180.566C125.248 181.333 124.566 181.931 123.692 182.36C122.833 182.774 121.867 182.981 120.794 182.981C118.632 182.981 116.96 182.283 115.78 180.888C114.614 179.493 114.032 177.515 114.032 174.954C114.032 173.16 114.346 171.634 114.975 170.377C115.619 169.104 116.508 168.146 117.643 167.502C118.793 166.843 120.127 166.513 121.645 166.513C122.427 166.513 123.163 166.597 123.853 166.766C124.543 166.919 125.141 167.149 125.647 167.456L124.773 169.25C124.006 168.744 122.979 168.491 121.691 168.491C120.019 168.491 118.708 169.012 117.758 170.055C116.807 171.082 116.332 172.585 116.332 174.563C116.332 174.808 116.339 175 116.355 175.138C116.815 174.448 117.443 173.927 118.241 173.574C119.053 173.206 119.966 173.022 120.978 173.022ZM120.702 181.118C121.76 181.118 122.618 180.834 123.278 180.267C123.937 179.7 124.267 178.941 124.267 177.99C124.267 177.039 123.929 176.288 123.255 175.736C122.595 175.169 121.706 174.885 120.587 174.885C119.866 174.885 119.222 175.023 118.655 175.299C118.103 175.575 117.666 175.951 117.344 176.426C117.037 176.901 116.884 177.43 116.884 178.013C116.884 178.58 117.029 179.102 117.321 179.577C117.627 180.037 118.064 180.413 118.632 180.704C119.214 180.98 119.904 181.118 120.702 181.118Z" fill="#555252"/>
<path d="M115.915 208.649V224.749H113.638V210.65H110.004V208.649H115.915ZM125.601 215.411C127.18 215.564 128.384 216.055 129.212 216.883C130.04 217.696 130.454 218.738 130.454 220.011C130.454 220.931 130.224 221.767 129.764 222.518C129.304 223.254 128.614 223.844 127.694 224.289C126.789 224.718 125.678 224.933 124.359 224.933C123.209 224.933 122.105 224.764 121.047 224.427C119.989 224.074 119.123 223.591 118.448 222.978L119.506 221.161C120.058 221.682 120.763 222.104 121.622 222.426C122.481 222.733 123.393 222.886 124.359 222.886C125.555 222.886 126.483 222.633 127.142 222.127C127.817 221.621 128.154 220.923 128.154 220.034C128.154 219.145 127.824 218.455 127.165 217.964C126.506 217.473 125.509 217.228 124.175 217.228H122.887V215.618L126.935 210.65H119.184V208.649H129.81V210.213L125.601 215.411Z" fill="#555252"/>
<path d="M123.275 264.698V266.699H111.706V265.135L118.261 258.81C119.059 258.044 119.595 257.384 119.871 256.832C120.147 256.265 120.285 255.698 120.285 255.13C120.285 254.287 119.986 253.635 119.388 253.175C118.806 252.7 117.962 252.462 116.858 252.462C115.08 252.462 113.707 253.045 112.741 254.21L111.177 252.853C111.806 252.087 112.626 251.489 113.638 251.059C114.666 250.63 115.808 250.415 117.065 250.415C118.752 250.415 120.094 250.822 121.09 251.634C122.087 252.432 122.585 253.52 122.585 254.9C122.585 255.759 122.401 256.572 122.033 257.338C121.665 258.105 120.968 258.979 119.94 259.96L115.018 264.698H123.275ZM131.677 266.883C130.404 266.883 129.27 266.561 128.273 265.917C127.292 265.258 126.517 264.307 125.95 263.065C125.383 261.823 125.099 260.351 125.099 258.649C125.099 256.947 125.383 255.475 125.95 254.233C126.517 252.991 127.292 252.048 128.273 251.404C129.27 250.745 130.404 250.415 131.677 250.415C132.934 250.415 134.054 250.745 135.035 251.404C136.032 252.048 136.814 252.991 137.381 254.233C137.948 255.475 138.232 256.947 138.232 258.649C138.232 260.351 137.948 261.823 137.381 263.065C136.814 264.307 136.032 265.258 135.035 265.917C134.054 266.561 132.934 266.883 131.677 266.883ZM131.677 264.836C132.965 264.836 133.992 264.307 134.759 263.249C135.541 262.191 135.932 260.658 135.932 258.649C135.932 256.641 135.541 255.107 134.759 254.049C133.992 252.991 132.965 252.462 131.677 252.462C130.374 252.462 129.331 252.991 128.549 254.049C127.782 255.107 127.399 256.641 127.399 258.649C127.399 260.658 127.782 262.191 128.549 263.249C129.331 264.307 130.374 264.836 131.677 264.836Z" fill="#555252"/>
<path d="M123.275 306.649V308.65H111.706V307.086L118.261 300.761C119.059 299.995 119.595 299.335 119.871 298.783C120.147 298.216 120.285 297.649 120.285 297.081C120.285 296.238 119.986 295.586 119.388 295.126C118.806 294.651 117.962 294.413 116.858 294.413C115.08 294.413 113.707 294.996 112.741 296.161L111.177 294.804C111.806 294.038 112.626 293.44 113.638 293.01C114.666 292.581 115.808 292.366 117.065 292.366C118.752 292.366 120.094 292.773 121.09 293.585C122.087 294.383 122.585 295.471 122.585 296.851C122.585 297.71 122.401 298.523 122.033 299.289C121.665 300.056 120.968 300.93 119.94 301.911L115.018 306.649H123.275ZM136.829 292.55V294.114L130.32 308.65H127.882L134.253 294.551H126.893V297.426H124.685V292.55H136.829Z" fill="#555252"/>
<path d="M273.62 166.513C275.782 166.513 277.446 167.211 278.611 168.606C279.792 170.001 280.382 171.979 280.382 174.54C280.382 176.334 280.06 177.867 279.416 179.14C278.787 180.397 277.898 181.356 276.748 182.015C275.613 182.659 274.287 182.981 272.769 182.981C271.987 182.981 271.251 182.904 270.561 182.751C269.871 182.582 269.273 182.345 268.767 182.038L269.641 180.244C270.423 180.75 271.458 181.003 272.746 181.003C274.417 181.003 275.721 180.489 276.656 179.462C277.607 178.419 278.082 176.909 278.082 174.931V174.356C277.622 175.046 276.986 175.575 276.173 175.943C275.36 176.296 274.448 176.472 273.436 176.472C272.378 176.472 271.427 176.273 270.584 175.874C269.756 175.475 269.104 174.908 268.629 174.172C268.169 173.421 267.939 172.562 267.939 171.596C267.939 170.584 268.184 169.695 268.675 168.928C269.181 168.161 269.863 167.571 270.722 167.157C271.581 166.728 272.547 166.513 273.62 166.513ZM273.827 174.609C274.548 174.609 275.192 174.471 275.759 174.195C276.326 173.919 276.763 173.543 277.07 173.068C277.392 172.593 277.553 172.064 277.553 171.481C277.553 170.914 277.4 170.4 277.093 169.94C276.802 169.465 276.365 169.089 275.782 168.813C275.215 168.522 274.525 168.376 273.712 168.376C272.654 168.376 271.795 168.66 271.136 169.227C270.492 169.794 270.17 170.553 270.17 171.504C270.17 172.455 270.5 173.214 271.159 173.781C271.818 174.333 272.708 174.609 273.827 174.609Z" fill="#555252"/>
<path d="M273.39 208.649V224.749H271.113V210.65H267.479V208.649H273.39ZM283.858 214.974C284.916 214.974 285.859 215.173 286.687 215.572C287.53 215.971 288.189 216.546 288.665 217.297C289.14 218.033 289.378 218.884 289.378 219.85C289.378 220.862 289.125 221.751 288.619 222.518C288.128 223.285 287.446 223.883 286.572 224.312C285.713 224.726 284.747 224.933 283.674 224.933C281.512 224.933 279.84 224.235 278.66 222.84C277.494 221.445 276.912 219.467 276.912 216.906C276.912 215.112 277.226 213.586 277.855 212.329C278.499 211.056 279.388 210.098 280.523 209.454C281.673 208.795 283.007 208.465 284.525 208.465C285.307 208.465 286.043 208.549 286.733 208.718C287.423 208.871 288.021 209.101 288.527 209.408L287.653 211.202C286.886 210.696 285.859 210.443 284.571 210.443C282.899 210.443 281.588 210.964 280.638 212.007C279.687 213.034 279.212 214.537 279.212 216.515C279.212 216.76 279.219 216.952 279.235 217.09C279.695 216.4 280.323 215.879 281.121 215.526C281.933 215.158 282.846 214.974 283.858 214.974ZM283.582 223.07C284.64 223.07 285.498 222.786 286.158 222.219C286.817 221.652 287.147 220.893 287.147 219.942C287.147 218.991 286.809 218.24 286.135 217.688C285.475 217.121 284.586 216.837 283.467 216.837C282.746 216.837 282.102 216.975 281.535 217.251C280.983 217.527 280.546 217.903 280.224 218.378C279.917 218.853 279.764 219.382 279.764 219.965C279.764 220.532 279.909 221.054 280.201 221.529C280.507 221.989 280.944 222.365 281.512 222.656C282.094 222.932 282.784 223.07 283.582 223.07Z" fill="#555252"/>
<path d="M279.715 264.698V266.699H268.146V265.135L274.701 258.81C275.498 258.044 276.035 257.384 276.311 256.832C276.587 256.265 276.725 255.698 276.725 255.13C276.725 254.287 276.426 253.635 275.828 253.175C275.245 252.7 274.402 252.462 273.298 252.462C271.519 252.462 270.147 253.045 269.181 254.21L267.617 252.853C268.246 252.087 269.066 251.489 270.078 251.059C271.105 250.63 272.248 250.415 273.505 250.415C275.192 250.415 276.533 250.822 277.53 251.634C278.527 252.432 279.025 253.52 279.025 254.9C279.025 255.759 278.841 256.572 278.473 257.338C278.105 258.105 277.407 258.979 276.38 259.96L271.458 264.698H279.715ZM287.77 257.361C289.349 257.515 290.553 258.005 291.381 258.833C292.209 259.646 292.623 260.689 292.623 261.961C292.623 262.881 292.393 263.717 291.933 264.468C291.473 265.204 290.783 265.795 289.863 266.239C288.958 266.669 287.847 266.883 286.528 266.883C285.378 266.883 284.274 266.715 283.216 266.377C282.158 266.025 281.292 265.542 280.617 264.928L281.675 263.111C282.227 263.633 282.932 264.054 283.791 264.376C284.65 264.683 285.562 264.836 286.528 264.836C287.724 264.836 288.652 264.583 289.311 264.077C289.986 263.571 290.323 262.874 290.323 261.984C290.323 261.095 289.993 260.405 289.334 259.914C288.675 259.424 287.678 259.178 286.344 259.178H285.056V257.568L289.104 252.6H281.353V250.599H291.979V252.163L287.77 257.361Z" fill="#555252"/>
<path d="M275.602 299.312C277.181 299.466 278.385 299.956 279.213 300.784C280.041 301.597 280.455 302.64 280.455 303.912C280.455 304.832 280.225 305.668 279.765 306.419C279.305 307.155 278.615 307.746 277.695 308.19C276.79 308.62 275.679 308.834 274.36 308.834C273.21 308.834 272.106 308.666 271.048 308.328C269.99 307.976 269.124 307.493 268.449 306.879L269.507 305.062C270.059 305.584 270.764 306.005 271.623 306.327C272.482 306.634 273.394 306.787 274.36 306.787C275.556 306.787 276.484 306.534 277.143 306.028C277.818 305.522 278.155 304.825 278.155 303.935C278.155 303.046 277.825 302.356 277.166 301.865C276.507 301.375 275.51 301.129 274.176 301.129H272.888V299.519L276.936 294.551H269.185V292.55H279.811V294.114L275.602 299.312ZM289.178 308.834C287.905 308.834 286.771 308.512 285.774 307.868C284.793 307.209 284.018 306.258 283.451 305.016C282.884 303.774 282.6 302.302 282.6 300.6C282.6 298.898 282.884 297.426 283.451 296.184C284.018 294.942 284.793 293.999 285.774 293.355C286.771 292.696 287.905 292.366 289.178 292.366C290.435 292.366 291.555 292.696 292.536 293.355C293.533 293.999 294.315 294.942 294.882 296.184C295.449 297.426 295.733 298.898 295.733 300.6C295.733 302.302 295.449 303.774 294.882 305.016C294.315 306.258 293.533 307.209 292.536 307.868C291.555 308.512 290.435 308.834 289.178 308.834ZM289.178 306.787C290.466 306.787 291.493 306.258 292.26 305.2C293.042 304.142 293.433 302.609 293.433 300.6C293.433 298.592 293.042 297.058 292.26 296C291.493 294.942 290.466 294.413 289.178 294.413C287.875 294.413 286.832 294.942 286.05 296C285.283 297.058 284.9 298.592 284.9 300.6C284.9 302.609 285.283 304.142 286.05 305.2C286.832 306.258 287.875 306.787 289.178 306.787Z" fill="#555252"/>
<path d="M325.195 166.697V182.797H322.918V168.698H319.284V166.697H325.195ZM335.294 182.981C334.022 182.981 332.887 182.659 331.89 182.015C330.909 181.356 330.135 180.405 329.567 179.163C329 177.921 328.716 176.449 328.716 174.747C328.716 173.045 329 171.573 329.567 170.331C330.135 169.089 330.909 168.146 331.89 167.502C332.887 166.843 334.022 166.513 335.294 166.513C336.552 166.513 337.671 166.843 338.652 167.502C339.649 168.146 340.431 169.089 340.998 170.331C341.566 171.573 341.849 173.045 341.849 174.747C341.849 176.449 341.566 177.921 340.998 179.163C340.431 180.405 339.649 181.356 338.652 182.015C337.671 182.659 336.552 182.981 335.294 182.981ZM335.294 180.934C336.582 180.934 337.61 180.405 338.376 179.347C339.158 178.289 339.549 176.756 339.549 174.747C339.549 172.738 339.158 171.205 338.376 170.147C337.61 169.089 336.582 168.56 335.294 168.56C333.991 168.56 332.948 169.089 332.166 170.147C331.4 171.205 331.016 172.738 331.016 174.747C331.016 176.756 331.4 178.289 332.166 179.347C332.948 180.405 333.991 180.934 335.294 180.934Z" fill="#555252"/>
<path d="M322.089 208.649V224.749H319.812V210.65H316.178V208.649H322.089ZM337.341 208.649V210.213L330.832 224.749H328.394L334.765 210.65H327.405V213.525H325.197V208.649H337.341Z" fill="#555252"/>
<path d="M328.414 264.698V266.699H316.845V265.135L323.4 258.81C324.197 258.044 324.734 257.384 325.01 256.832C325.286 256.265 325.424 255.698 325.424 255.13C325.424 254.287 325.125 253.635 324.527 253.175C323.944 252.7 323.101 252.462 321.997 252.462C320.218 252.462 318.846 253.045 317.88 254.21L316.316 252.853C316.945 252.087 317.765 251.489 318.777 251.059C319.804 250.63 320.947 250.415 322.204 250.415C323.891 250.415 325.232 250.822 326.229 251.634C327.226 252.432 327.724 253.52 327.724 254.9C327.724 255.759 327.54 256.572 327.172 257.338C326.804 258.105 326.106 258.979 325.079 259.96L320.157 264.698H328.414ZM343.885 262.743H340.826V266.699H338.595V262.743H329.648V261.133L337.882 250.599H340.366L332.477 260.765H338.664V257.269H340.826V260.765H343.885V262.743Z" fill="#555252"/>
<path d="M323.262 299.312C324.841 299.466 326.045 299.956 326.873 300.784C327.701 301.597 328.115 302.64 328.115 303.912C328.115 304.832 327.885 305.668 327.425 306.419C326.965 307.155 326.275 307.746 325.355 308.19C324.45 308.62 323.339 308.834 322.02 308.834C320.87 308.834 319.766 308.666 318.708 308.328C317.65 307.976 316.784 307.493 316.109 306.879L317.167 305.062C317.719 305.584 318.424 306.005 319.283 306.327C320.142 306.634 321.054 306.787 322.02 306.787C323.216 306.787 324.144 306.534 324.803 306.028C325.478 305.522 325.815 304.825 325.815 303.935C325.815 303.046 325.485 302.356 324.826 301.865C324.167 301.375 323.17 301.129 321.836 301.129H320.548V299.519L324.596 294.551H316.845V292.55H327.471V294.114L323.262 299.312ZM335.251 292.55V308.65H332.974V294.551H329.34V292.55H335.251Z" fill="#555252"/>
</svg>
