<svg width="345" height="316" viewBox="0 0 345 316" fill="none" xmlns="http://www.w3.org/2000/svg">
<path d="M130.285 24.8844V32.1364H126.925V27.9644H111.889V32.1364H108.501L108.529 24.8844H109.369C110.601 24.8284 111.46 23.923 111.945 22.1684C112.449 20.395 112.757 17.8657 112.869 14.5804L113.093 8.36435H127.457V24.8844H130.285ZM116.061 14.9164C115.968 17.455 115.763 19.5737 115.445 21.2724C115.128 22.9524 114.624 24.1564 113.933 24.8844H123.873V11.4444H116.201L116.061 14.9164ZM147.047 20.5724C147.047 20.815 147.029 21.1604 146.991 21.6084H135.259C135.465 22.7097 135.997 23.587 136.855 24.2404C137.733 24.875 138.815 25.1924 140.103 25.1924C141.746 25.1924 143.099 24.651 144.163 23.5684L146.039 25.7244C145.367 26.527 144.518 27.1337 143.491 27.5444C142.465 27.955 141.307 28.1604 140.019 28.1604C138.377 28.1604 136.93 27.8337 135.679 27.1804C134.429 26.527 133.458 25.6217 132.767 24.4644C132.095 23.2884 131.759 21.963 131.759 20.4884C131.759 19.0324 132.086 17.7257 132.739 16.5684C133.411 15.3924 134.335 14.4777 135.511 13.8244C136.687 13.171 138.013 12.8444 139.487 12.8444C140.943 12.8444 142.241 13.171 143.379 13.8244C144.537 14.459 145.433 15.3644 146.067 16.5404C146.721 17.6977 147.047 19.0417 147.047 20.5724ZM139.487 15.6444C138.367 15.6444 137.415 15.9804 136.631 16.6524C135.866 17.3057 135.399 18.183 135.231 19.2844H143.715C143.566 18.2017 143.109 17.3244 142.343 16.6524C141.578 15.9804 140.626 15.6444 139.487 15.6444ZM157.091 21.9724H154.375V27.9644H150.875V13.0124H154.375V19.0604H157.175L161.599 13.0124H165.351L159.919 20.2084L165.715 27.9644H161.599L157.091 21.9724ZM173.483 12.8444C175.685 12.8444 177.365 13.3764 178.523 14.4404C179.699 15.4857 180.287 17.0724 180.287 19.2004V27.9644H176.983V26.1444C176.553 26.7977 175.937 27.3017 175.135 27.6564C174.351 27.9924 173.399 28.1604 172.279 28.1604C171.159 28.1604 170.179 27.9737 169.339 27.6004C168.499 27.2084 167.845 26.6764 167.379 26.0044C166.931 25.3137 166.707 24.539 166.707 23.6804C166.707 22.3364 167.201 21.263 168.191 20.4604C169.199 19.639 170.776 19.2284 172.923 19.2284H176.787V19.0044C176.787 17.959 176.469 17.1564 175.835 16.5964C175.219 16.0364 174.295 15.7564 173.063 15.7564C172.223 15.7564 171.392 15.887 170.571 16.1484C169.768 16.4097 169.087 16.7737 168.527 17.2404L167.155 14.6924C167.939 14.095 168.881 13.6377 169.983 13.3204C171.084 13.003 172.251 12.8444 173.483 12.8444ZM173.007 25.6124C173.884 25.6124 174.659 25.4164 175.331 25.0244C176.021 24.6137 176.507 24.035 176.787 23.2884V21.5524H173.175C171.159 21.5524 170.151 22.215 170.151 23.5404C170.151 24.175 170.403 24.679 170.907 25.0524C171.411 25.4257 172.111 25.6124 173.007 25.6124ZM192.71 13.7404C194.128 13.7404 195.379 14.0484 196.462 14.6644C197.544 15.2617 198.384 16.1017 198.982 17.1844C199.598 18.267 199.906 19.5084 199.906 20.9084C199.906 22.3457 199.57 23.6244 198.898 24.7444C198.226 25.8457 197.283 26.7044 196.07 27.3204C194.856 27.9364 193.475 28.2444 191.926 28.2444C189.331 28.2444 187.324 27.3857 185.906 25.6684C184.487 23.951 183.778 21.4777 183.778 18.2484C183.778 15.243 184.422 12.863 185.71 11.1084C186.998 9.35369 188.967 8.19635 191.618 7.63636L198.562 6.15235L199.066 9.28835L192.766 10.5764C190.955 10.9497 189.602 11.5844 188.706 12.4804C187.81 13.3764 187.287 14.6364 187.138 16.2604C187.81 15.4577 188.622 14.8417 189.574 14.4124C190.526 13.9644 191.571 13.7404 192.71 13.7404ZM192.01 25.4164C193.298 25.4164 194.334 25.0057 195.118 24.1844C195.92 23.3444 196.322 22.2804 196.322 20.9924C196.322 19.7044 195.92 18.6684 195.118 17.8844C194.334 17.1004 193.298 16.7084 192.01 16.7084C190.703 16.7084 189.648 17.1004 188.846 17.8844C188.043 18.6684 187.642 19.7044 187.642 20.9924C187.642 22.299 188.043 23.363 188.846 24.1844C189.667 25.0057 190.722 25.4164 192.01 25.4164ZM211.581 12.8444C213.037 12.8444 214.335 13.1617 215.473 13.7964C216.631 14.431 217.536 15.327 218.189 16.4844C218.843 17.6417 219.169 18.9764 219.169 20.4884C219.169 22.0004 218.843 23.3444 218.189 24.5204C217.536 25.6777 216.631 26.5737 215.473 27.2084C214.335 27.843 213.037 28.1604 211.581 28.1604C209.565 28.1604 207.969 27.4884 206.793 26.1444V33.3964H203.293V13.0124H206.625V14.9724C207.204 14.263 207.913 13.731 208.753 13.3764C209.612 13.0217 210.555 12.8444 211.581 12.8444ZM211.189 25.1644C212.477 25.1644 213.532 24.735 214.353 23.8764C215.193 23.0177 215.613 21.8884 215.613 20.4884C215.613 19.0884 215.193 17.959 214.353 17.1004C213.532 16.2417 212.477 15.8124 211.189 15.8124C210.349 15.8124 209.593 16.0084 208.921 16.4004C208.249 16.7737 207.717 17.315 207.325 18.0244C206.933 18.7337 206.737 19.555 206.737 20.4884C206.737 21.4217 206.933 22.243 207.325 22.9524C207.717 23.6617 208.249 24.2124 208.921 24.6044C209.593 24.9777 210.349 25.1644 211.189 25.1644ZM230.157 17.9404C232.061 17.9404 233.517 18.3697 234.525 19.2284C235.551 20.087 236.065 21.3004 236.065 22.8684C236.065 24.511 235.505 25.7804 234.385 26.6764C233.265 27.5724 231.687 28.011 229.653 27.9924L222.653 27.9644V13.0124H226.153V17.9124L230.157 17.9404ZM229.345 25.4164C230.371 25.435 231.155 25.2204 231.697 24.7724C232.238 24.3244 232.509 23.671 232.509 22.8124C232.509 21.9724 232.247 21.3564 231.725 20.9644C231.202 20.5724 230.409 20.367 229.345 20.3484L226.153 20.3204V25.3884L229.345 25.4164Z" fill="#555252"/>
<path d="M16.514 78.8614V94.9614H13.57V81.3914H5.221V94.9614H2.277V78.8614H16.514ZM20.7318 82.6794H23.6068V87.6704H29.7938V82.6794H32.6688V94.9614H29.7938V90.1084H23.6068V94.9614H20.7318V82.6794Z" fill="#555252"/>
<path d="M68.2633 86.5894C69.2906 86.8654 70.0726 87.3408 70.6093 88.0154C71.1459 88.6748 71.4143 89.5028 71.4143 90.4994C71.4143 91.9101 70.8929 93.0064 69.8503 93.7884C68.8076 94.5704 67.2973 94.9614 65.3193 94.9614H57.6833V78.8614H64.8823C66.6916 78.8614 68.1023 79.2218 69.1143 79.9424C70.1263 80.6631 70.6323 81.6828 70.6323 83.0014C70.6323 83.8448 70.4253 84.5731 70.0113 85.1864C69.6126 85.7998 69.0299 86.2674 68.2633 86.5894ZM60.6273 85.7384H64.6293C65.5953 85.7384 66.3313 85.5468 66.8373 85.1634C67.3433 84.7801 67.5963 84.2128 67.5963 83.4614C67.5963 82.7101 67.3433 82.1428 66.8373 81.7594C66.3313 81.3608 65.5953 81.1614 64.6293 81.1614H60.6273V85.7384ZM65.2273 92.6614C67.3433 92.6614 68.4012 91.8641 68.4012 90.2694C68.4012 88.7054 67.3433 87.9234 65.2273 87.9234H60.6273V92.6614H65.2273ZM84.2274 85.1174H79.9264V94.9614H77.0514V85.1174H72.7274V82.6794H84.2274V85.1174Z" fill="#555252"/>
<path d="M115.316 95.1914C113.691 95.1914 112.219 94.8388 110.9 94.1334C109.597 93.4128 108.57 92.4238 107.818 91.1664C107.082 89.9091 106.714 88.4908 106.714 86.9114C106.714 85.3321 107.09 83.9138 107.841 82.6564C108.593 81.3991 109.62 80.4178 110.923 79.7124C112.242 78.9918 113.714 78.6314 115.339 78.6314C116.658 78.6314 117.862 78.8614 118.95 79.3214C120.039 79.7814 120.959 80.4484 121.71 81.3224L119.778 83.1394C118.613 81.8821 117.179 81.2534 115.477 81.2534C114.373 81.2534 113.384 81.4988 112.51 81.9894C111.636 82.4648 110.954 83.1318 110.463 83.9904C109.973 84.8491 109.727 85.8228 109.727 86.9114C109.727 88.0001 109.973 88.9738 110.463 89.8324C110.954 90.6911 111.636 91.3658 112.51 91.8564C113.384 92.3318 114.373 92.5694 115.477 92.5694C117.179 92.5694 118.613 91.9331 119.778 90.6604L121.71 92.5004C120.959 93.3744 120.031 94.0414 118.927 94.5014C117.839 94.9614 116.635 95.1914 115.316 95.1914ZM130.972 82.5414C132.168 82.5414 133.234 82.8021 134.169 83.3234C135.12 83.8448 135.864 84.5808 136.4 85.5314C136.937 86.4821 137.205 87.5784 137.205 88.8204C137.205 90.0624 136.937 91.1664 136.4 92.1324C135.864 93.0831 135.12 93.8191 134.169 94.3404C133.234 94.8618 132.168 95.1224 130.972 95.1224C129.316 95.1224 128.005 94.5704 127.039 93.4664V99.4234H124.164V82.6794H126.901V84.2894C127.377 83.7068 127.959 83.2698 128.649 82.9784C129.355 82.6871 130.129 82.5414 130.972 82.5414ZM130.65 92.6614C131.708 92.6614 132.575 92.3088 133.249 91.6034C133.939 90.8981 134.284 89.9704 134.284 88.8204C134.284 87.6704 133.939 86.7428 133.249 86.0374C132.575 85.3321 131.708 84.9794 130.65 84.9794C129.96 84.9794 129.339 85.1404 128.787 85.4624C128.235 85.7691 127.798 86.2138 127.476 86.7964C127.154 87.3791 126.993 88.0538 126.993 88.8204C126.993 89.5871 127.154 90.2618 127.476 90.8444C127.798 91.4271 128.235 91.8794 128.787 92.2014C129.339 92.5081 129.96 92.6614 130.65 92.6614Z" fill="#555252"/>
<path d="M173.296 78.8614V94.9614H170.329V88.8894C168.811 89.4568 167.37 89.7404 166.005 89.7404C163.951 89.7404 162.364 89.2498 161.244 88.2684C160.14 87.2718 159.588 85.8458 159.588 83.9904V78.8614H162.555V83.6684C162.555 84.8031 162.885 85.6694 163.544 86.2674C164.204 86.8654 165.147 87.1644 166.373 87.1644C167.769 87.1644 169.087 86.8808 170.329 86.3134V78.8614H173.296ZM187.216 85.1174H182.915V94.9614H180.04V85.1174H175.716V82.6794H187.216V85.1174Z" fill="#555252"/>
<path d="M223.967 78.8614V94.9614H221.023V81.3914H212.674V94.9614H209.73V78.8614H223.967ZM237.914 85.1174H233.613V94.9614H230.738V85.1174H226.414V82.6794H237.914V85.1174Z" fill="#555252"/>
<path d="M268.652 95.1914C267.027 95.1914 265.555 94.8388 264.236 94.1334C262.933 93.4128 261.906 92.4238 261.154 91.1664C260.418 89.9091 260.05 88.4908 260.05 86.9114C260.05 85.3321 260.426 83.9138 261.177 82.6564C261.929 81.3991 262.956 80.4178 264.259 79.7124C265.578 78.9918 267.05 78.6314 268.675 78.6314C269.994 78.6314 271.198 78.8614 272.286 79.3214C273.375 79.7814 274.295 80.4484 275.046 81.3224L273.114 83.1394C271.949 81.8821 270.515 81.2534 268.813 81.2534C267.709 81.2534 266.72 81.4988 265.846 81.9894C264.972 82.4648 264.29 83.1318 263.799 83.9904C263.309 84.8491 263.063 85.8228 263.063 86.9114C263.063 88.0001 263.309 88.9738 263.799 89.8324C264.29 90.6911 264.972 91.3658 265.846 91.8564C266.72 92.3318 267.709 92.5694 268.813 92.5694C270.515 92.5694 271.949 91.9331 273.114 90.6604L275.046 92.5004C274.295 93.3744 273.367 94.0414 272.263 94.5014C271.175 94.9614 269.971 95.1914 268.652 95.1914ZM283.81 83.2774C284.976 83.2774 286.003 83.5304 286.892 84.0364C287.782 84.5271 288.472 85.2171 288.962 86.1064C289.468 86.9958 289.721 88.0154 289.721 89.1654C289.721 90.3461 289.445 91.3964 288.893 92.3164C288.341 93.2211 287.567 93.9264 286.57 94.4324C285.574 94.9384 284.439 95.1914 283.166 95.1914C281.035 95.1914 279.387 94.4861 278.221 93.0754C277.056 91.6648 276.473 89.6331 276.473 86.9804C276.473 84.5118 277.002 82.5568 278.06 81.1154C279.118 79.6741 280.736 78.7234 282.913 78.2634L288.617 77.0444L289.031 79.6204L283.856 80.6784C282.369 80.9851 281.257 81.5064 280.521 82.2424C279.785 82.9784 279.356 84.0134 279.233 85.3474C279.785 84.6881 280.452 84.1821 281.234 83.8294C282.016 83.4614 282.875 83.2774 283.81 83.2774ZM283.235 92.8684C284.293 92.8684 285.144 92.5311 285.788 91.8564C286.448 91.1664 286.777 90.2924 286.777 89.2344C286.777 88.1764 286.448 87.3254 285.788 86.6814C285.144 86.0374 284.293 85.7154 283.235 85.7154C282.162 85.7154 281.296 86.0374 280.636 86.6814C279.977 87.3254 279.647 88.1764 279.647 89.2344C279.647 90.3078 279.977 91.1818 280.636 91.8564C281.311 92.5311 282.177 92.8684 283.235 92.8684Z" fill="#555252"/>
<path d="M324.677 86.5894C325.705 86.8654 326.487 87.3408 327.023 88.0154C327.56 88.6748 327.828 89.5028 327.828 90.4994C327.828 91.9101 327.307 93.0064 326.264 93.7884C325.222 94.5704 323.711 94.9614 321.733 94.9614H314.097V78.8614H321.296C323.106 78.8614 324.516 79.2218 325.528 79.9424C326.54 80.6631 327.046 81.6828 327.046 83.0014C327.046 83.8448 326.839 84.5731 326.425 85.1864C326.027 85.7998 325.444 86.2674 324.677 86.5894ZM317.041 85.7384H321.043C322.009 85.7384 322.745 85.5468 323.251 85.1634C323.757 84.7801 324.01 84.2128 324.01 83.4614C324.01 82.7101 323.757 82.1428 323.251 81.7594C322.745 81.3608 322.009 81.1614 321.043 81.1614H317.041V85.7384ZM321.641 92.6614C323.757 92.6614 324.815 91.8641 324.815 90.2694C324.815 88.7054 323.757 87.9234 321.641 87.9234H317.041V92.6614H321.641ZM336.501 95.1224C335.229 95.1224 334.086 94.8541 333.074 94.3174C332.062 93.7808 331.273 93.0371 330.705 92.0864C330.138 91.1204 329.854 90.0318 329.854 88.8204C329.854 87.6091 330.138 86.5281 330.705 85.5774C331.273 84.6268 332.055 83.8831 333.051 83.3464C334.063 82.8098 335.213 82.5414 336.501 82.5414C337.713 82.5414 338.771 82.7868 339.675 83.2774C340.595 83.7681 341.285 84.4734 341.745 85.3934L339.537 86.6814C339.185 86.1141 338.74 85.6924 338.203 85.4164C337.682 85.1251 337.107 84.9794 336.478 84.9794C335.405 84.9794 334.516 85.3321 333.81 86.0374C333.105 86.7274 332.752 87.6551 332.752 88.8204C332.752 89.9858 333.097 90.9211 333.787 91.6264C334.493 92.3164 335.39 92.6614 336.478 92.6614C337.107 92.6614 337.682 92.5234 338.203 92.2474C338.74 91.9561 339.185 91.5268 339.537 90.9594L341.745 92.2474C341.27 93.1674 340.572 93.8804 339.652 94.3864C338.748 94.8771 337.697 95.1224 336.501 95.1224Z" fill="#555252"/>
<path d="M219.377 130.552C220.957 130.706 222.16 131.196 222.988 132.024C223.816 132.837 224.23 133.88 224.23 135.152C224.23 136.072 224 136.908 223.54 137.659C223.08 138.395 222.39 138.986 221.47 139.43C220.566 139.86 219.454 140.074 218.135 140.074C216.985 140.074 215.881 139.906 214.823 139.568C213.765 139.216 212.899 138.733 212.224 138.119L213.282 136.302C213.834 136.824 214.54 137.245 215.398 137.567C216.257 137.874 217.169 138.027 218.135 138.027C219.331 138.027 220.259 137.774 220.918 137.268C221.593 136.762 221.93 136.065 221.93 135.175C221.93 134.286 221.601 133.596 220.941 133.105C220.282 132.615 219.285 132.369 217.951 132.369H216.663V130.759L220.711 125.791H212.96V123.79H223.586V125.354L219.377 130.552Z" fill="#555252"/>
<path d="M218.689 163V184H214.789V166.27H210.349V163H218.689ZM231.615 184.3C229.935 184.3 228.435 183.88 227.115 183.04C225.795 182.18 224.755 180.94 223.995 179.32C223.235 177.68 222.855 175.74 222.855 173.5C222.855 171.26 223.235 169.33 223.995 167.71C224.755 166.07 225.795 164.83 227.115 163.99C228.435 163.13 229.935 162.7 231.615 162.7C233.295 162.7 234.795 163.13 236.115 163.99C237.455 164.83 238.505 166.07 239.265 167.71C240.025 169.33 240.405 171.26 240.405 173.5C240.405 175.74 240.025 177.68 239.265 179.32C238.505 180.94 237.455 182.18 236.115 183.04C234.795 183.88 233.295 184.3 231.615 184.3ZM231.615 180.91C233.115 180.91 234.295 180.29 235.155 179.05C236.035 177.81 236.475 175.96 236.475 173.5C236.475 171.04 236.035 169.19 235.155 167.95C234.295 166.71 233.115 166.09 231.615 166.09C230.135 166.09 228.955 166.71 228.075 167.95C227.215 169.19 226.785 171.04 226.785 173.5C226.785 175.96 227.215 177.81 228.075 179.05C228.955 180.29 230.135 180.91 231.615 180.91Z" fill="#FFA751"/>
<path d="M219.689 205.84V226.84H215.789V209.11H211.349V205.84H219.689ZM239.695 205.84V208.45L231.535 226.84H227.365L235.255 209.14H227.005V212.71H223.375V205.84H239.695Z" fill="#FFA751"/>
<path d="M226.639 266.512V269.812H211.159V267.202L219.499 259.282C220.439 258.382 221.069 257.602 221.389 256.942C221.729 256.262 221.899 255.592 221.899 254.932C221.899 253.952 221.569 253.202 220.909 252.682C220.249 252.162 219.279 251.902 217.999 251.902C215.859 251.902 214.219 252.632 213.079 254.092L210.349 251.992C211.169 250.892 212.269 250.042 213.649 249.442C215.049 248.822 216.609 248.512 218.329 248.512C220.609 248.512 222.429 249.052 223.789 250.132C225.149 251.212 225.829 252.682 225.829 254.542C225.829 255.682 225.589 256.752 225.109 257.752C224.629 258.752 223.709 259.892 222.349 261.172L216.739 266.512H226.639ZM247.171 265.042H243.451V269.812H239.671V265.042H228.151V262.342L238.501 248.812H242.671L232.921 261.742H239.791V257.512H243.451V261.742H247.171V265.042Z" fill="#FFA751"/>
<path d="M19.9694 170.907C21.3494 170.907 22.5894 171.177 23.6894 171.717C24.7894 172.237 25.6494 172.987 26.2694 173.967C26.8894 174.947 27.1994 176.077 27.1994 177.357C27.1994 178.717 26.8594 179.917 26.1794 180.957C25.4994 181.977 24.5794 182.767 23.4194 183.327C22.2594 183.887 20.9594 184.167 19.5194 184.167C16.6394 184.167 14.3994 183.267 12.7994 181.467C11.2194 179.667 10.4294 177.087 10.4294 173.727C10.4294 171.367 10.8594 169.357 11.7194 167.697C12.5794 166.017 13.7794 164.747 15.3194 163.887C16.8794 163.007 18.6794 162.567 20.7194 162.567C21.7994 162.567 22.8094 162.687 23.7494 162.927C24.7094 163.147 25.5394 163.477 26.2394 163.917L24.7994 166.857C23.7594 166.177 22.4294 165.837 20.8094 165.837C18.7894 165.837 17.2094 166.457 16.0694 167.697C14.9294 168.937 14.3594 170.727 14.3594 173.067V173.097C14.9794 172.377 15.7694 171.837 16.7294 171.477C17.6894 171.097 18.7694 170.907 19.9694 170.907ZM19.3094 181.107C20.5294 181.107 21.5194 180.787 22.2794 180.147C23.0394 179.487 23.4194 178.617 23.4194 177.537C23.4194 176.437 23.0394 175.567 22.2794 174.927C21.5194 174.287 20.4994 173.967 19.2194 173.967C17.9594 173.967 16.9294 174.307 16.1294 174.987C15.3494 175.667 14.9594 176.527 14.9594 177.567C14.9594 178.587 15.3394 179.437 16.0994 180.117C16.8794 180.777 17.9494 181.107 19.3094 181.107Z" fill="#FFA751"/>
<path d="M11.6894 204.84V225.84H7.78938V208.11H3.34938V204.84H11.6894ZM24.7952 213.51C26.7352 213.75 28.2152 214.41 29.2352 215.49C30.2552 216.57 30.7652 217.92 30.7652 219.54C30.7652 220.76 30.4552 221.87 29.8352 222.87C29.2152 223.87 28.2752 224.67 27.0152 225.27C25.7752 225.85 24.2552 226.14 22.4552 226.14C20.9552 226.14 19.5052 225.93 18.1052 225.51C16.7252 225.07 15.5452 224.47 14.5652 223.71L16.2452 220.68C17.0052 221.32 17.9252 221.83 19.0052 222.21C20.1052 222.57 21.2352 222.75 22.3952 222.75C23.7752 222.75 24.8552 222.47 25.6352 221.91C26.4352 221.33 26.8352 220.55 26.8352 219.57C26.8352 218.59 26.4552 217.83 25.6952 217.29C24.9552 216.73 23.8152 216.45 22.2752 216.45H20.3552V213.78L25.1252 208.11H15.5852V204.84H29.8952V207.45L24.7952 213.51Z" fill="#FFA751"/>
<path d="M21.6394 265.7V269H6.15938V266.39L14.4994 258.47C15.4394 257.57 16.0694 256.79 16.3894 256.13C16.7294 255.45 16.8994 254.78 16.8994 254.12C16.8994 253.14 16.5694 252.39 15.9094 251.87C15.2494 251.35 14.2794 251.09 12.9994 251.09C10.8594 251.09 9.21938 251.82 8.07938 253.28L5.34938 251.18C6.16938 250.08 7.26938 249.23 8.64938 248.63C10.0494 248.01 11.6094 247.7 13.3294 247.7C15.6094 247.7 17.4294 248.24 18.7894 249.32C20.1494 250.4 20.8294 251.87 20.8294 253.73C20.8294 254.87 20.5894 255.94 20.1094 256.94C19.6294 257.94 18.7094 259.08 17.3494 260.36L11.7394 265.7H21.6394ZM32.5624 269.3C30.8824 269.3 29.3824 268.88 28.0624 268.04C26.7424 267.18 25.7024 265.94 24.9424 264.32C24.1824 262.68 23.8024 260.74 23.8024 258.5C23.8024 256.26 24.1824 254.33 24.9424 252.71C25.7024 251.07 26.7424 249.83 28.0624 248.99C29.3824 248.13 30.8824 247.7 32.5624 247.7C34.2424 247.7 35.7424 248.13 37.0624 248.99C38.4024 249.83 39.4524 251.07 40.2124 252.71C40.9724 254.33 41.3524 256.26 41.3524 258.5C41.3524 260.74 40.9724 262.68 40.2124 264.32C39.4524 265.94 38.4024 267.18 37.0624 268.04C35.7424 268.88 34.2424 269.3 32.5624 269.3ZM32.5624 265.91C34.0624 265.91 35.2424 265.29 36.1024 264.05C36.9824 262.81 37.4224 260.96 37.4224 258.5C37.4224 256.04 36.9824 254.19 36.1024 252.95C35.2424 251.71 34.0624 251.09 32.5624 251.09C31.0824 251.09 29.9024 251.71 29.0224 252.95C28.1624 254.19 27.7324 256.04 27.7324 258.5C27.7324 260.96 28.1624 262.81 29.0224 264.05C29.9024 265.29 31.0824 265.91 32.5624 265.91Z" fill="#FFA751"/>
<path d="M13.8966 306.649V308.65H2.32756V307.086L8.88256 300.761C9.6799 299.995 10.2166 299.335 10.4926 298.783C10.7686 298.216 10.9066 297.649 10.9066 297.081C10.9066 296.238 10.6076 295.586 10.0096 295.126C9.4269 294.651 8.58356 294.413 7.47956 294.413C5.7009 294.413 4.32856 294.996 3.36256 296.161L1.79856 294.804C2.42723 294.038 3.24756 293.44 4.25956 293.01C5.2869 292.581 6.42923 292.366 7.68656 292.366C9.37323 292.366 10.7149 292.773 11.7116 293.585C12.7082 294.383 13.2066 295.471 13.2066 296.851C13.2066 297.71 13.0226 298.523 12.6546 299.289C12.2866 300.056 11.5889 300.93 10.5616 301.911L5.63956 306.649H13.8966ZM27.4502 292.55V294.114L20.9412 308.65H18.5032L24.8742 294.551H17.5142V297.426H15.3062V292.55H27.4502Z" fill="#555252"/>
<path d="M119.357 123.79V139.89H117.08V125.791H113.446V123.79H119.357Z" fill="#555252"/>
<path d="M280.365 135.934H277.306V139.89H275.075V135.934H266.128V134.324L274.362 123.79H276.846L268.957 133.956H275.144V130.46H277.306V133.956H280.365V135.934Z" fill="#555252"/>
<path d="M271.283 166.181V182.281H269.006V168.182H265.372V166.181H271.283ZM279.795 166.181V182.281H277.518V168.182H273.884V166.181H279.795Z" fill="#555252"/>
<path d="M269.536 209.421V225.521H267.259V211.422H263.625V209.421H269.536ZM282.902 217.08C283.822 217.432 284.527 217.938 285.018 218.598C285.509 219.257 285.754 220.047 285.754 220.967C285.754 221.933 285.493 222.776 284.972 223.497C284.451 224.202 283.707 224.746 282.741 225.13C281.775 225.513 280.64 225.705 279.337 225.705C278.049 225.705 276.922 225.513 275.956 225.13C275.005 224.746 274.269 224.202 273.748 223.497C273.227 222.776 272.966 221.933 272.966 220.967C272.966 220.047 273.204 219.257 273.679 218.598C274.17 217.938 274.875 217.432 275.795 217.08C275.059 216.727 274.499 216.259 274.116 215.677C273.733 215.094 273.541 214.404 273.541 213.607C273.541 212.717 273.779 211.943 274.254 211.284C274.745 210.624 275.427 210.118 276.301 209.766C277.175 209.413 278.187 209.237 279.337 209.237C280.502 209.237 281.522 209.413 282.396 209.766C283.285 210.118 283.968 210.624 284.443 211.284C284.934 211.943 285.179 212.717 285.179 213.607C285.179 214.389 284.98 215.079 284.581 215.677C284.198 216.259 283.638 216.727 282.902 217.08ZM279.337 211.1C278.248 211.1 277.39 211.337 276.761 211.813C276.132 212.273 275.818 212.901 275.818 213.699C275.818 214.496 276.125 215.125 276.738 215.585C277.367 216.045 278.233 216.275 279.337 216.275C280.456 216.275 281.33 216.045 281.959 215.585C282.603 215.125 282.925 214.496 282.925 213.699C282.925 212.901 282.595 212.273 281.936 211.813C281.292 211.337 280.426 211.1 279.337 211.1ZM279.337 223.842C280.61 223.842 281.614 223.581 282.35 223.06C283.086 222.523 283.454 221.802 283.454 220.898C283.454 220.008 283.086 219.311 282.35 218.805C281.614 218.283 280.61 218.023 279.337 218.023C278.064 218.023 277.068 218.283 276.347 218.805C275.626 219.311 275.266 220.008 275.266 220.898C275.266 221.802 275.626 222.523 276.347 223.06C277.068 223.581 278.064 223.842 279.337 223.842Z" fill="#555252"/>
<path d="M276.865 263.289V265.29H265.296V263.726L271.851 257.401C272.649 256.634 273.185 255.975 273.461 255.423C273.737 254.855 273.875 254.288 273.875 253.721C273.875 252.877 273.576 252.226 272.978 251.766C272.396 251.29 271.552 251.053 270.448 251.053C268.67 251.053 267.297 251.635 266.331 252.801L264.767 251.444C265.396 250.677 266.216 250.079 267.228 249.65C268.256 249.22 269.398 249.006 270.655 249.006C272.342 249.006 273.684 249.412 274.68 250.225C275.677 251.022 276.175 252.111 276.175 253.491C276.175 254.349 275.991 255.162 275.623 255.929C275.255 256.695 274.558 257.569 273.53 258.551L268.608 263.289H276.865ZM283.356 255.607C285.656 255.607 287.343 256.044 288.416 256.918C289.505 257.776 290.049 258.957 290.049 260.46C290.049 261.41 289.819 262.269 289.359 263.036C288.915 263.787 288.232 264.385 287.312 264.83C286.408 265.259 285.288 265.474 283.954 265.474C282.82 265.474 281.723 265.305 280.665 264.968C279.607 264.615 278.733 264.132 278.043 263.519L279.101 261.702C279.653 262.223 280.359 262.645 281.217 262.967C282.076 263.273 282.981 263.427 283.931 263.427C285.143 263.427 286.078 263.174 286.737 262.668C287.412 262.146 287.749 261.441 287.749 260.552C287.749 259.586 287.381 258.857 286.645 258.367C285.909 257.861 284.652 257.608 282.873 257.608H279.216L280.067 249.19H289.152V251.191H281.999L281.562 255.607H283.356Z" fill="#555252"/>
<path d="M72.709 166.763V168.327L66.2 182.863H63.762L70.133 168.764H62.773V171.639H60.565V166.763H72.709Z" fill="#555252"/>
<path d="M64.2044 209.736V225.836H61.9274V211.737H58.2934V209.736H64.2044ZM81.7331 221.88H78.6741V225.836H76.4431V221.88H67.4961V220.27L75.7301 209.736H78.2141L70.3251 219.902H76.5121V216.406H78.6741V219.902H81.7331V221.88Z" fill="#555252"/>
<path d="M70.5294 263.81V265.811H58.9604V264.247L65.5154 257.922C66.3127 257.155 66.8494 256.496 67.1254 255.944C67.4014 255.376 67.5394 254.809 67.5394 254.242C67.5394 253.398 67.2404 252.747 66.6424 252.287C66.0597 251.811 65.2164 251.574 64.1124 251.574C62.3337 251.574 60.9614 252.156 59.9954 253.322L58.4314 251.965C59.06 251.198 59.8804 250.6 60.8924 250.171C61.9197 249.741 63.062 249.527 64.3194 249.527C66.006 249.527 67.3477 249.933 68.3444 250.746C69.341 251.543 69.8394 252.632 69.8394 254.012C69.8394 254.87 69.6554 255.683 69.2874 256.45C68.9194 257.216 68.2217 258.09 67.1944 259.072L62.2724 263.81H70.5294ZM77.4114 249.711V265.811H75.1344V251.712H71.5004V249.711H77.4114Z" fill="#555252"/>
<path d="M66.5294 306.782V308.783H54.9604V307.219L61.5154 300.894C62.3127 300.128 62.8494 299.468 63.1254 298.916C63.4014 298.349 63.5394 297.782 63.5394 297.214C63.5394 296.371 63.2404 295.719 62.6424 295.259C62.0597 294.784 61.2164 294.546 60.1124 294.546C58.3337 294.546 56.9614 295.129 55.9954 296.294L54.4314 294.937C55.06 294.171 55.8804 293.573 56.8924 293.143C57.9197 292.714 59.062 292.499 60.3194 292.499C62.006 292.499 63.3477 292.906 64.3444 293.718C65.341 294.516 65.8394 295.604 65.8394 296.984C65.8394 297.843 65.6554 298.656 65.2874 299.422C64.9194 300.189 64.2217 301.063 63.1944 302.044L58.2724 306.782H66.5294ZM78.2644 300.342C79.1844 300.695 79.8897 301.201 80.3804 301.86C80.8711 302.52 81.1164 303.309 81.1164 304.229C81.1164 305.195 80.8557 306.039 80.3344 306.759C79.8131 307.465 79.0694 308.009 78.1034 308.392C77.1374 308.776 76.0027 308.967 74.6994 308.967C73.4114 308.967 72.2844 308.776 71.3184 308.392C70.3677 308.009 69.6317 307.465 69.1104 306.759C68.5891 306.039 68.3284 305.195 68.3284 304.229C68.3284 303.309 68.5661 302.52 69.0414 301.86C69.5321 301.201 70.2374 300.695 71.1574 300.342C70.4214 299.99 69.8617 299.522 69.4784 298.939C69.0951 298.357 68.9034 297.667 68.9034 296.869C68.9034 295.98 69.1411 295.206 69.6164 294.546C70.1071 293.887 70.7894 293.381 71.6634 293.028C72.5374 292.676 73.5494 292.499 74.6994 292.499C75.8647 292.499 76.8844 292.676 77.7584 293.028C78.6477 293.381 79.3301 293.887 79.8054 294.546C80.2961 295.206 80.5414 295.98 80.5414 296.869C80.5414 297.651 80.3421 298.341 79.9434 298.939C79.5601 299.522 79.0004 299.99 78.2644 300.342ZM74.6994 294.362C73.6107 294.362 72.7521 294.6 72.1234 295.075C71.4947 295.535 71.1804 296.164 71.1804 296.961C71.1804 297.759 71.4871 298.387 72.1004 298.847C72.7291 299.307 73.5954 299.537 74.6994 299.537C75.8187 299.537 76.6927 299.307 77.3214 298.847C77.9654 298.387 78.2874 297.759 78.2874 296.961C78.2874 296.164 77.9577 295.535 77.2984 295.075C76.6544 294.6 75.7881 294.362 74.6994 294.362ZM74.6994 307.104C75.9721 307.104 76.9764 306.844 77.7124 306.322C78.4484 305.786 78.8164 305.065 78.8164 304.16C78.8164 303.271 78.4484 302.573 77.7124 302.067C76.9764 301.546 75.9721 301.285 74.6994 301.285C73.4267 301.285 72.4301 301.546 71.7094 302.067C70.9887 302.573 70.6284 303.271 70.6284 304.16C70.6284 305.065 70.9887 305.786 71.7094 306.322C72.4301 306.844 73.4267 307.104 74.6994 307.104Z" fill="#555252"/>
<path d="M178.518 137.889V139.89H166.949V138.326L173.504 132.001C174.301 131.235 174.838 130.575 175.114 130.023C175.39 129.456 175.528 128.889 175.528 128.321C175.528 127.478 175.229 126.826 174.631 126.366C174.048 125.891 173.205 125.653 172.101 125.653C170.322 125.653 168.95 126.236 167.984 127.401L166.42 126.044C167.048 125.278 167.869 124.68 168.881 124.25C169.908 123.821 171.05 123.606 172.308 123.606C173.994 123.606 175.336 124.013 176.333 124.825C177.329 125.623 177.828 126.711 177.828 128.091C177.828 128.95 177.644 129.763 177.276 130.529C176.908 131.296 176.21 132.17 175.183 133.151L170.261 137.889H178.518Z" fill="#555252"/>
<path d="M321.724 130.207C324.024 130.207 325.71 130.644 326.784 131.518C327.872 132.377 328.417 133.558 328.417 135.06C328.417 136.011 328.187 136.87 327.727 137.636C327.282 138.388 326.6 138.986 325.68 139.43C324.775 139.86 323.656 140.074 322.322 140.074C321.187 140.074 320.091 139.906 319.033 139.568C317.975 139.216 317.101 138.733 316.411 138.119L317.469 136.302C318.021 136.824 318.726 137.245 319.585 137.567C320.443 137.874 321.348 138.027 322.299 138.027C323.51 138.027 324.445 137.774 325.105 137.268C325.779 136.747 326.117 136.042 326.117 135.152C326.117 134.186 325.749 133.458 325.013 132.967C324.277 132.461 323.019 132.208 321.241 132.208H317.584L318.435 123.79H327.52V125.791H320.367L319.93 130.207H321.724Z" fill="#555252"/>
<path d="M318.943 165.182V181.282H316.666V167.183H313.032V165.182H318.943ZM333.78 179.281V181.282H322.211V179.718L328.766 173.393C329.564 172.626 330.1 171.967 330.376 171.415C330.652 170.847 330.79 170.28 330.79 169.713C330.79 168.869 330.491 168.218 329.893 167.758C329.311 167.282 328.467 167.045 327.363 167.045C325.585 167.045 324.212 167.627 323.246 168.793L321.682 167.436C322.311 166.669 323.131 166.071 324.143 165.642C325.171 165.212 326.313 164.998 327.57 164.998C329.257 164.998 330.599 165.404 331.595 166.217C332.592 167.014 333.09 168.103 333.09 169.483C333.09 170.341 332.906 171.154 332.538 171.921C332.17 172.687 331.473 173.561 330.445 174.543L325.523 179.281H333.78Z" fill="#555252"/>
<path d="M320.087 209.421V225.521H317.81V211.422H314.176V209.421H320.087ZM328.83 209.237C330.992 209.237 332.656 209.935 333.821 211.33C335.002 212.725 335.592 214.703 335.592 217.264C335.592 219.058 335.27 220.591 334.626 221.864C333.997 223.121 333.108 224.08 331.958 224.739C330.823 225.383 329.497 225.705 327.979 225.705C327.197 225.705 326.461 225.628 325.771 225.475C325.081 225.306 324.483 225.069 323.977 224.762L324.851 222.968C325.633 223.474 326.668 223.727 327.956 223.727C329.627 223.727 330.931 223.213 331.866 222.186C332.817 221.143 333.292 219.633 333.292 217.655V217.08C332.832 217.77 332.196 218.299 331.383 218.667C330.57 219.02 329.658 219.196 328.646 219.196C327.588 219.196 326.637 218.997 325.794 218.598C324.966 218.199 324.314 217.632 323.839 216.896C323.379 216.145 323.149 215.286 323.149 214.32C323.149 213.308 323.394 212.419 323.885 211.652C324.391 210.885 325.073 210.295 325.932 209.881C326.791 209.452 327.757 209.237 328.83 209.237ZM329.037 217.333C329.758 217.333 330.402 217.195 330.969 216.919C331.536 216.643 331.973 216.267 332.28 215.792C332.602 215.317 332.763 214.788 332.763 214.205C332.763 213.638 332.61 213.124 332.303 212.664C332.012 212.189 331.575 211.813 330.992 211.537C330.425 211.246 329.735 211.1 328.922 211.1C327.864 211.1 327.005 211.384 326.346 211.951C325.702 212.518 325.38 213.277 325.38 214.228C325.38 215.179 325.71 215.938 326.369 216.505C327.028 217.057 327.918 217.333 329.037 217.333Z" fill="#555252"/>
<path d="M323.522 263.289V265.29H311.953V263.726L318.508 257.401C319.305 256.634 319.842 255.975 320.118 255.423C320.394 254.855 320.532 254.288 320.532 253.721C320.532 252.877 320.233 252.226 319.635 251.766C319.052 251.29 318.209 251.053 317.105 251.053C315.326 251.053 313.954 251.635 312.988 252.801L311.424 251.444C312.052 250.677 312.873 250.079 313.885 249.65C314.912 249.22 316.054 249.006 317.312 249.006C318.998 249.006 320.34 249.412 321.337 250.225C322.333 251.022 322.832 252.111 322.832 253.491C322.832 254.349 322.648 255.162 322.28 255.929C321.912 256.695 321.214 257.569 320.187 258.551L315.265 263.289H323.522ZM332.291 255.515C333.349 255.515 334.292 255.714 335.12 256.113C335.964 256.511 336.623 257.086 337.098 257.838C337.574 258.574 337.811 259.425 337.811 260.391C337.811 261.403 337.558 262.292 337.052 263.059C336.562 263.825 335.879 264.423 335.005 264.853C334.147 265.267 333.181 265.474 332.107 265.474C329.945 265.474 328.274 264.776 327.093 263.381C325.928 261.985 325.345 260.007 325.345 257.447C325.345 255.653 325.66 254.127 326.288 252.87C326.932 251.597 327.822 250.639 328.956 249.995C330.106 249.335 331.44 249.006 332.958 249.006C333.74 249.006 334.476 249.09 335.166 249.259C335.856 249.412 336.454 249.642 336.96 249.949L336.086 251.743C335.32 251.237 334.292 250.984 333.004 250.984C331.333 250.984 330.022 251.505 329.071 252.548C328.121 253.575 327.645 255.078 327.645 257.056C327.645 257.301 327.653 257.493 327.668 257.631C328.128 256.941 328.757 256.419 329.554 256.067C330.367 255.699 331.279 255.515 332.291 255.515ZM332.015 263.611C333.073 263.611 333.932 263.327 334.591 262.76C335.251 262.192 335.58 261.433 335.58 260.483C335.58 259.532 335.243 258.781 334.568 258.229C333.909 257.661 333.02 257.378 331.9 257.378C331.18 257.378 330.536 257.516 329.968 257.792C329.416 258.068 328.979 258.443 328.657 258.919C328.351 259.394 328.197 259.923 328.197 260.506C328.197 261.073 328.343 261.594 328.634 262.07C328.941 262.53 329.378 262.905 329.945 263.197C330.528 263.473 331.218 263.611 332.015 263.611Z" fill="#555252"/>
<path d="M126.049 172.827C127.149 173.327 127.989 174.007 128.569 174.867C129.169 175.707 129.469 176.697 129.469 177.837C129.469 179.117 129.109 180.237 128.389 181.197C127.689 182.157 126.689 182.897 125.389 183.417C124.089 183.917 122.579 184.167 120.859 184.167C119.139 184.167 117.629 183.917 116.329 183.417C115.049 182.897 114.059 182.157 113.359 181.197C112.659 180.237 112.309 179.117 112.309 177.837C112.309 176.697 112.599 175.707 113.179 174.867C113.759 174.007 114.589 173.327 115.669 172.827C114.829 172.367 114.179 171.767 113.719 171.027C113.279 170.267 113.059 169.397 113.059 168.417C113.059 167.237 113.379 166.207 114.019 165.327C114.679 164.447 115.599 163.767 116.779 163.287C117.959 162.807 119.319 162.567 120.859 162.567C122.419 162.567 123.789 162.807 124.969 163.287C126.149 163.767 127.069 164.447 127.729 165.327C128.389 166.207 128.719 167.237 128.719 168.417C128.719 169.397 128.489 170.257 128.029 170.997C127.569 171.737 126.909 172.347 126.049 172.827ZM120.859 165.627C119.639 165.627 118.669 165.887 117.949 166.407C117.249 166.927 116.899 167.657 116.899 168.597C116.899 169.497 117.249 170.217 117.949 170.757C118.669 171.277 119.639 171.537 120.859 171.537C122.099 171.537 123.079 171.277 123.799 170.757C124.519 170.217 124.879 169.497 124.879 168.597C124.879 167.657 124.509 166.927 123.769 166.407C123.049 165.887 122.079 165.627 120.859 165.627ZM120.859 181.107C122.299 181.107 123.439 180.807 124.279 180.207C125.119 179.607 125.539 178.777 125.539 177.717C125.539 176.677 125.119 175.857 124.279 175.257C123.439 174.657 122.299 174.357 120.859 174.357C119.419 174.357 118.289 174.657 117.469 175.257C116.649 175.857 116.239 176.677 116.239 177.717C116.239 178.777 116.649 179.607 117.469 180.207C118.289 180.807 119.419 181.107 120.859 181.107Z" fill="#FFA751"/>
<path d="M116.689 204.84V225.84H112.789V208.11H108.349V204.84H116.689ZM127.425 212.97C130.385 212.97 132.575 213.55 133.995 214.71C135.415 215.85 136.125 217.41 136.125 219.39C136.125 220.65 135.815 221.79 135.195 222.81C134.575 223.83 133.645 224.64 132.405 225.24C131.165 225.84 129.635 226.14 127.815 226.14C126.315 226.14 124.865 225.93 123.465 225.51C122.065 225.07 120.885 224.47 119.925 223.71L121.575 220.68C122.355 221.32 123.285 221.83 124.365 222.21C125.465 222.57 126.595 222.75 127.755 222.75C129.135 222.75 130.215 222.47 130.995 221.91C131.795 221.33 132.195 220.54 132.195 219.54C132.195 218.46 131.765 217.65 130.905 217.11C130.065 216.55 128.615 216.27 126.555 216.27H121.485L122.565 204.84H134.895V208.11H125.865L125.415 212.97H127.425Z" fill="#FFA751"/>
<path d="M120.639 265.513V268.813H105.159V266.203L113.499 258.283C114.439 257.383 115.069 256.603 115.389 255.943C115.729 255.263 115.899 254.593 115.899 253.933C115.899 252.953 115.569 252.203 114.909 251.683C114.249 251.163 113.279 250.903 111.999 250.903C109.859 250.903 108.219 251.633 107.079 253.093L104.349 250.993C105.169 249.893 106.269 249.043 107.649 248.443C109.049 247.823 110.609 247.513 112.329 247.513C114.609 247.513 116.429 248.053 117.789 249.133C119.149 250.213 119.829 251.683 119.829 253.543C119.829 254.683 119.589 255.753 119.109 256.753C118.629 257.753 117.709 258.893 116.349 260.173L110.739 265.513H120.639ZM138.1 265.513V268.813H122.62V266.203L130.96 258.283C131.9 257.383 132.53 256.603 132.85 255.943C133.19 255.263 133.36 254.593 133.36 253.933C133.36 252.953 133.03 252.203 132.37 251.683C131.71 251.163 130.74 250.903 129.46 250.903C127.32 250.903 125.68 251.633 124.54 253.093L121.81 250.993C122.63 249.893 123.73 249.043 125.11 248.443C126.51 247.823 128.07 247.513 129.79 247.513C132.07 247.513 133.89 248.053 135.25 249.133C136.61 250.213 137.29 251.683 137.29 253.543C137.29 254.683 137.05 255.753 136.57 256.753C136.09 257.753 135.17 258.893 133.81 260.173L128.2 265.513H138.1Z" fill="#FFA751"/>
<path d="M118.756 306.65V308.651H107.187V307.087L113.742 300.762C114.539 299.995 115.076 299.336 115.352 298.784C115.628 298.216 115.766 297.649 115.766 297.082C115.766 296.238 115.467 295.587 114.869 295.127C114.286 294.651 113.443 294.414 112.339 294.414C110.56 294.414 109.188 294.996 108.222 296.162L106.658 294.805C107.287 294.038 108.107 293.44 109.119 293.011C110.146 292.581 111.289 292.367 112.546 292.367C114.233 292.367 115.574 292.773 116.571 293.586C117.568 294.383 118.066 295.472 118.066 296.852C118.066 297.71 117.882 298.523 117.514 299.29C117.146 300.056 116.448 300.93 115.421 301.912L110.499 306.65H118.756ZM125.868 292.367C128.03 292.367 129.694 293.064 130.859 294.46C132.04 295.855 132.63 297.833 132.63 300.394C132.63 302.188 132.308 303.721 131.664 304.994C131.035 306.251 130.146 307.209 128.996 307.869C127.861 308.513 126.535 308.835 125.017 308.835C124.235 308.835 123.499 308.758 122.809 308.605C122.119 308.436 121.521 308.198 121.015 307.892L121.889 306.098C122.671 306.604 123.706 306.857 124.994 306.857C126.665 306.857 127.969 306.343 128.904 305.316C129.855 304.273 130.33 302.763 130.33 300.785V300.21C129.87 300.9 129.234 301.429 128.421 301.797C127.608 302.149 126.696 302.326 125.684 302.326C124.626 302.326 123.675 302.126 122.832 301.728C122.004 301.329 121.352 300.762 120.877 300.026C120.417 299.274 120.187 298.416 120.187 297.45C120.187 296.438 120.432 295.548 120.923 294.782C121.429 294.015 122.111 293.425 122.97 293.011C123.829 292.581 124.795 292.367 125.868 292.367ZM126.075 300.463C126.796 300.463 127.44 300.325 128.007 300.049C128.574 299.773 129.011 299.397 129.318 298.922C129.64 298.446 129.801 297.917 129.801 297.335C129.801 296.767 129.648 296.254 129.341 295.794C129.05 295.318 128.613 294.943 128.03 294.667C127.463 294.375 126.773 294.23 125.96 294.23C124.902 294.23 124.043 294.513 123.384 295.081C122.74 295.648 122.418 296.407 122.418 297.358C122.418 298.308 122.748 299.067 123.407 299.635C124.066 300.187 124.956 300.463 126.075 300.463Z" fill="#555252"/>
<path d="M169.802 166.579C171.964 166.579 173.627 167.277 174.793 168.672C175.973 170.067 176.564 172.045 176.564 174.606C176.564 176.4 176.242 177.933 175.598 179.206C174.969 180.463 174.08 181.422 172.93 182.081C171.795 182.725 170.469 183.047 168.951 183.047C168.169 183.047 167.433 182.97 166.743 182.817C166.053 182.648 165.455 182.411 164.949 182.104L165.823 180.31C166.605 180.816 167.64 181.069 168.928 181.069C170.599 181.069 171.902 180.555 172.838 179.528C173.788 178.485 174.264 176.975 174.264 174.997V174.422C173.804 175.112 173.167 175.641 172.355 176.009C171.542 176.362 170.63 176.538 169.618 176.538C168.56 176.538 167.609 176.339 166.766 175.94C165.938 175.541 165.286 174.974 164.811 174.238C164.351 173.487 164.121 172.628 164.121 171.662C164.121 170.65 164.366 169.761 164.857 168.994C165.363 168.227 166.045 167.637 166.904 167.223C167.762 166.794 168.728 166.579 169.802 166.579ZM170.009 174.675C170.729 174.675 171.373 174.537 171.941 174.261C172.508 173.985 172.945 173.609 173.252 173.134C173.574 172.659 173.735 172.13 173.735 171.547C173.735 170.98 173.581 170.466 173.275 170.006C172.983 169.531 172.546 169.155 171.964 168.879C171.396 168.588 170.706 168.442 169.894 168.442C168.836 168.442 167.977 168.726 167.318 169.293C166.674 169.86 166.352 170.619 166.352 171.57C166.352 172.521 166.681 173.28 167.341 173.847C168 174.399 168.889 174.675 170.009 174.675Z" fill="#555252"/>
<path d="M168.087 209.648V225.748H165.81V211.649H162.176V209.648H168.087ZM178.555 215.973C179.613 215.973 180.556 216.172 181.384 216.571C182.227 216.969 182.887 217.544 183.362 218.296C183.837 219.032 184.075 219.883 184.075 220.849C184.075 221.861 183.822 222.75 183.316 223.517C182.825 224.283 182.143 224.881 181.269 225.311C180.41 225.725 179.444 225.932 178.371 225.932C176.209 225.932 174.538 225.234 173.357 223.839C172.192 222.443 171.609 220.465 171.609 217.905C171.609 216.111 171.923 214.585 172.552 213.328C173.196 212.055 174.085 211.097 175.22 210.453C176.37 209.793 177.704 209.464 179.222 209.464C180.004 209.464 180.74 209.548 181.43 209.717C182.12 209.87 182.718 210.1 183.224 210.407L182.35 212.201C181.583 211.695 180.556 211.442 179.268 211.442C177.597 211.442 176.286 211.963 175.335 213.006C174.384 214.033 173.909 215.536 173.909 217.514C173.909 217.759 173.917 217.951 173.932 218.089C174.392 217.399 175.021 216.877 175.818 216.525C176.631 216.157 177.543 215.973 178.555 215.973ZM178.279 224.069C179.337 224.069 180.196 223.785 180.855 223.218C181.514 222.65 181.844 221.891 181.844 220.941C181.844 219.99 181.507 219.239 180.832 218.687C180.173 218.119 179.283 217.836 178.164 217.836C177.443 217.836 176.799 217.974 176.232 218.25C175.68 218.526 175.243 218.901 174.921 219.377C174.614 219.852 174.461 220.381 174.461 220.964C174.461 221.531 174.607 222.052 174.898 222.528C175.205 222.988 175.642 223.363 176.209 223.655C176.792 223.931 177.482 224.069 178.279 224.069Z" fill="#555252"/>
<path d="M173.412 264.699V266.7H161.843V265.136L168.398 258.811C169.196 258.044 169.732 257.385 170.008 256.833C170.284 256.265 170.422 255.698 170.422 255.131C170.422 254.287 170.123 253.636 169.525 253.176C168.943 252.7 168.099 252.463 166.995 252.463C165.217 252.463 163.844 253.045 162.878 254.211L161.314 252.854C161.943 252.087 162.763 251.489 163.775 251.06C164.803 250.63 165.945 250.416 167.202 250.416C168.889 250.416 170.231 250.822 171.227 251.635C172.224 252.432 172.722 253.521 172.722 254.901C172.722 255.759 172.538 256.572 172.17 257.339C171.802 258.105 171.105 258.979 170.077 259.961L165.155 264.699H173.412ZM181.467 257.362C183.047 257.515 184.25 258.006 185.078 258.834C185.906 259.646 186.32 260.689 186.32 261.962C186.32 262.882 186.09 263.717 185.63 264.469C185.17 265.205 184.48 265.795 183.56 266.24C182.656 266.669 181.544 266.884 180.225 266.884C179.075 266.884 177.971 266.715 176.913 266.378C175.855 266.025 174.989 265.542 174.314 264.929L175.372 263.112C175.924 263.633 176.63 264.055 177.488 264.377C178.347 264.683 179.259 264.837 180.225 264.837C181.421 264.837 182.349 264.584 183.008 264.078C183.683 263.572 184.02 262.874 184.02 261.985C184.02 261.095 183.691 260.405 183.031 259.915C182.372 259.424 181.375 259.179 180.041 259.179H178.753V257.569L182.801 252.601H175.05V250.6H185.676V252.164L181.467 257.362Z" fill="#555252"/>
<path d="M167.377 299.662C168.957 299.815 170.16 300.306 170.988 301.134C171.816 301.946 172.23 302.989 172.23 304.262C172.23 305.182 172 306.017 171.54 306.769C171.08 307.505 170.39 308.095 169.47 308.54C168.566 308.969 167.454 309.184 166.135 309.184C164.985 309.184 163.881 309.015 162.823 308.678C161.765 308.325 160.899 307.842 160.224 307.229L161.282 305.412C161.834 305.933 162.54 306.355 163.398 306.677C164.257 306.983 165.169 307.137 166.135 307.137C167.331 307.137 168.259 306.884 168.918 306.378C169.593 305.872 169.93 305.174 169.93 304.285C169.93 303.395 169.601 302.705 168.941 302.215C168.282 301.724 167.285 301.479 165.951 301.479H164.663V299.869L168.711 294.901H160.96V292.9H171.586V294.464L167.377 299.662ZM180.953 309.184C179.681 309.184 178.546 308.862 177.549 308.218C176.568 307.558 175.794 306.608 175.226 305.366C174.659 304.124 174.375 302.652 174.375 300.95C174.375 299.248 174.659 297.776 175.226 296.534C175.794 295.292 176.568 294.349 177.549 293.705C178.546 293.045 179.681 292.716 180.953 292.716C182.211 292.716 183.33 293.045 184.311 293.705C185.308 294.349 186.09 295.292 186.657 296.534C187.225 297.776 187.508 299.248 187.508 300.95C187.508 302.652 187.225 304.124 186.657 305.366C186.09 306.608 185.308 307.558 184.311 308.218C183.33 308.862 182.211 309.184 180.953 309.184ZM180.953 307.137C182.241 307.137 183.269 306.608 184.035 305.55C184.817 304.492 185.208 302.958 185.208 300.95C185.208 298.941 184.817 297.408 184.035 296.35C183.269 295.292 182.241 294.763 180.953 294.763C179.65 294.763 178.607 295.292 177.825 296.35C177.059 297.408 176.675 298.941 176.675 300.95C176.675 302.958 177.059 304.492 177.825 305.55C178.607 306.608 179.65 307.137 180.953 307.137Z" fill="#555252"/>
<path d="M219.377 299.662C220.957 299.815 222.16 300.306 222.988 301.134C223.816 301.946 224.23 302.989 224.23 304.262C224.23 305.182 224 306.017 223.54 306.769C223.08 307.505 222.39 308.095 221.47 308.54C220.566 308.969 219.454 309.184 218.135 309.184C216.985 309.184 215.881 309.015 214.823 308.678C213.765 308.325 212.899 307.842 212.224 307.229L213.282 305.412C213.834 305.933 214.54 306.355 215.398 306.677C216.257 306.983 217.169 307.137 218.135 307.137C219.331 307.137 220.259 306.884 220.918 306.378C221.593 305.872 221.93 305.174 221.93 304.285C221.93 303.395 221.601 302.705 220.941 302.215C220.282 301.724 219.285 301.479 217.951 301.479H216.663V299.869L220.711 294.901H212.96V292.9H223.586V294.464L219.377 299.662ZM231.366 292.9V309H229.089V294.901H225.455V292.9H231.366Z" fill="#555252"/>
</svg>
