<svg width="741" height="427" viewBox="0 0 741 427" fill="none" xmlns="http://www.w3.org/2000/svg">
<path d="M538.103 249.626C658.5 223 888 -22.4991 465.179 88.4738" stroke="#F8D55B"/>
<path d="M529.867 291.243C638.281 292.26 871.214 109.24 524.364 121.233" stroke="#F8D55B"/>
<path d="M615.52 211.111L625.715 206.295L617.877 214.503L620.094 222.519L613.808 217.329L601 222.519L611.452 213.937L609.254 206.914L615.52 211.111Z" fill="#786550" stroke="#F8D55B" stroke-linecap="round" stroke-linejoin="round"/>
<circle cx="648.097" cy="211.097" r="3.5" transform="rotate(19.2969 648.097 211.097)" fill="#78644E" stroke="#F8D55B"/>
<path d="M202.406 176.942C82.0093 203.568 -147.491 449.067 275.33 338.094" stroke="#F8D55B"/>
<path d="M210.642 135.325C102.228 134.308 -130.705 317.328 216.145 305.335" stroke="#F8D55B"/>
<path d="M124.989 215.457L114.794 220.272L122.632 212.065L120.415 204.049L126.701 209.238L139.509 204.049L129.057 212.631L131.255 219.654L124.989 215.457Z" fill="#786550" stroke="#F8D55B" stroke-linecap="round" stroke-linejoin="round"/>
<circle cx="92.4118" cy="215.471" r="3.5" transform="rotate(-160.703 92.4118 215.471)" fill="#78644E" stroke="#F8D55B"/>
</svg>
